%FSTAX23Y23*%
%MOIN*%
%SFA1B1*%

%IPPOS*%
%ADD9500C,0.013780*%
%ADD9501C,0.015748*%
%ADD9502C,0.023622*%
%ADD9503C,0.028000*%
%ADD9504C,0.035433*%
%ADD9505C,0.040000*%
%ADD9506C,0.043307*%
%ADD9507C,0.064961*%
%ADD9508C,0.108268*%
%ADD9509C,0.023622*%
%ADD9510C,0.118110*%
%LNotpcb-roundholes-1*%
%LPD*%
G54D9500*
X06939Y0049D03*
X07238Y00644D03*
X07305Y00604D03*
X07364Y00612D03*
X07368Y0092D03*
Y0097D03*
X07393Y00945D03*
Y00896D03*
X07417Y0092D03*
Y0097D03*
X07393Y00994D03*
X07442D03*
Y00945D03*
Y00896D03*
X07467Y0092D03*
Y0097D03*
X07455Y01104D03*
X07404Y0112D03*
X0738Y01167D03*
X07337Y01144D03*
X07293Y0116D03*
X07238Y01164D03*
X07093Y01167D03*
X0703Y01136D03*
X06723Y01152D03*
X06738Y01203D03*
X06593Y0114D03*
X06351Y01281D03*
X06388Y01465D03*
X06705Y01457D03*
X07097Y01423D03*
X07156Y0149D03*
X07207Y01486D03*
X07372Y01427D03*
X07475Y01459D03*
Y0138D03*
X0753Y01337D03*
X07591Y01343D03*
X074Y01309D03*
X07309Y01297D03*
X0616Y01463D03*
X06076D03*
X05953Y01246D03*
X05869Y01277D03*
X05575Y0136D03*
X05144Y01425D03*
X04976Y01506D03*
X04723Y01368D03*
X04735Y01292D03*
X04398Y01177D03*
X04504Y00764D03*
Y00512D03*
X04402Y00555D03*
X04305Y00536D03*
X04508Y00264D03*
X02939Y01671D03*
X0314Y01664D03*
X03368Y01675D03*
X039Y01738D03*
X03939Y01703D03*
X0414Y01778D03*
X04452Y01719D03*
X04419Y01884D03*
X0449Y01967D03*
X04612Y01927D03*
X04565Y02203D03*
X04325Y01982D03*
X04841D03*
X04915Y01994D03*
X04982Y01998D03*
X05041Y01992D03*
Y01931D03*
X04972Y01927D03*
X04967Y0186D03*
X04915Y01876D03*
X04876Y01872D03*
X04845Y01833D03*
X04781Y01863D03*
X04817Y02061D03*
X05108Y01988D03*
X05181Y01998D03*
X05236Y01993D03*
X05258Y02041D03*
X0525Y01849D03*
X05195Y01847D03*
X05179Y01786D03*
X05143Y01794D03*
X05037Y01798D03*
X04966Y0179D03*
X04975Y01615D03*
X04901Y01616D03*
X04888Y01664D03*
X05039Y01655D03*
X05053Y01616D03*
X0514Y01672D03*
X05089Y01856D03*
X05423Y01797D03*
X05392Y01754D03*
X05396Y01971D03*
X05482Y02093D03*
X05404Y02207D03*
X05403Y02296D03*
X05179Y02413D03*
X04996Y02436D03*
X05993Y02424D03*
X06029Y02391D03*
X06094Y02429D03*
X06108Y0236D03*
X06134Y02516D03*
X06061Y02534D03*
X06239Y02551D03*
X06236Y02472D03*
X06152Y02656D03*
X0614Y0275D03*
X05857Y02666D03*
X05868Y02616D03*
X05727Y02951D03*
X05601Y02955D03*
X05519Y03029D03*
X05542Y01879D03*
X05786Y01825D03*
X05841Y01872D03*
X05947Y0186D03*
X05817Y0162D03*
X05864Y01549D03*
X06141Y02078D03*
X06193Y02032D03*
X06193Y02148D03*
X06084Y02174D03*
X04782Y01557D03*
X06282Y01817D03*
X06419Y01783D03*
X06467Y0177D03*
X06459Y01841D03*
X06471Y01916D03*
X06425Y0191D03*
X06382Y01912D03*
X06368Y02045D03*
X06317Y02041D03*
X0627Y02085D03*
X06431Y02053D03*
X06514Y02144D03*
X06597Y0225D03*
X06443Y02368D03*
Y02423D03*
X064Y02455D03*
X06427Y02502D03*
X06435Y02545D03*
X06478Y0262D03*
X06534Y02601D03*
X06502Y02703D03*
X06573Y0275D03*
X06419Y02746D03*
X0625Y02754D03*
X06378Y02388D03*
X0673Y02447D03*
X06719Y02679D03*
X06711Y02793D03*
X06652Y02888D03*
X06864Y02813D03*
X06959Y02811D03*
X07049Y02829D03*
X0712Y02837D03*
X07384Y02746D03*
X07538Y02734D03*
X07597D03*
X07599Y02601D03*
X07522Y02589D03*
X07412Y02549D03*
X07353Y02538D03*
X07345Y02585D03*
X07305Y02573D03*
X07286Y02447D03*
X0725Y02388D03*
X07363Y02395D03*
Y02346D03*
X07388Y02321D03*
Y0237D03*
Y02419D03*
X07412Y02395D03*
Y02346D03*
X07437Y02321D03*
Y0237D03*
Y02419D03*
X07462Y02395D03*
Y02346D03*
X07353Y02093D03*
X07301Y02065D03*
X0723Y0205D03*
X07187Y02053D03*
X07143Y02048D03*
X07093Y02049D03*
X07043Y02047D03*
X06939Y0175D03*
X06608Y01959D03*
X07002Y02534D03*
X06982Y02569D03*
X06927Y02612D03*
X07431Y01691D03*
X07522Y03148D03*
X07553Y03238D03*
X0749Y03356D03*
X07632Y034D03*
X0734Y03285D03*
X07282Y03341D03*
X07215Y03337D03*
X07187Y03376D03*
X07094Y03493D03*
X07254Y03581D03*
X06786Y03455D03*
X06797Y03321D03*
X06742Y0323D03*
X06636Y03463D03*
X06175Y03423D03*
Y03353D03*
G54D9501*
X05131Y01528D03*
X05171Y01646D03*
X05942Y01955D03*
G54D9502*
X05368Y01301D03*
X04366Y01002D03*
X04256Y00683D03*
X03923Y00771D03*
X03583Y00709D03*
X03018Y00708D03*
X02973Y00707D03*
X02918Y00722D03*
X02725Y0067D03*
X02943Y01327D03*
X02778Y01985D03*
X02642Y01946D03*
X02599Y02034D03*
X02652Y02073D03*
X02491Y02275D03*
X02489Y02318D03*
X02722Y02572D03*
X03089Y02572D03*
X03104Y02728D03*
X02998Y02857D03*
X03249Y0282D03*
X03255Y02601D03*
X03491Y02639D03*
X03442Y02862D03*
X03724Y029D03*
X03744Y02575D03*
X0395Y02564D03*
X04151Y02568D03*
X04353Y02577D03*
X0417Y02823D03*
X04035Y02985D03*
X03927Y02755D03*
X04601Y03034D03*
X04667Y0226D03*
X0467Y02222D03*
X04668Y02171D03*
X04619Y02138D03*
X03568Y01709D03*
X04792Y02275D03*
X04744Y02327D03*
X04911Y02281D03*
X04903Y02224D03*
X05042Y0226D03*
X05014Y02397D03*
X05134Y02405D03*
X05454Y02416D03*
X05285Y02168D03*
X05239Y02169D03*
X05179Y02103D03*
X06075Y02069D03*
X06092Y01964D03*
X06143Y01838D03*
X06159Y0171D03*
X05658Y02661D03*
X05619Y02804D03*
X06305Y02365D03*
X06355Y02329D03*
X06321Y02216D03*
X06353Y01815D03*
X06281Y01769D03*
X06315Y01714D03*
X06561Y01658D03*
G54D9503*
X06358Y01161D03*
X05841Y01037D03*
X05621Y0123D03*
X05446Y01076D03*
X05094Y01319D03*
X04969Y01455D03*
G54D9504*
X06719Y00664D03*
Y00762D03*
Y0086D03*
X0675Y0201D03*
Y02108D03*
Y02207D03*
G54D9505*
X02121Y01327D03*
X02221D03*
Y01427D03*
X02121D03*
Y01527D03*
X02221D03*
Y01627D03*
Y01727D03*
Y01827D03*
X02121D03*
Y01727D03*
Y01627D03*
Y01927D03*
X02221D03*
Y02027D03*
Y02127D03*
Y02227D03*
Y02327D03*
Y02427D03*
Y02527D03*
X02121D03*
Y02427D03*
Y02327D03*
Y02227D03*
Y02127D03*
Y02027D03*
Y02627D03*
X02221D03*
Y02727D03*
Y02827D03*
Y02927D03*
Y03027D03*
X02121D03*
Y02927D03*
Y02827D03*
Y02727D03*
Y03127D03*
X02221D03*
Y03227D03*
X02121D03*
G54D9506*
X04937Y03203D03*
X05122D03*
Y03656D03*
Y03931D03*
X0453Y03374D03*
Y03189D03*
X04077Y03374D03*
X03801D03*
X03575Y03285D03*
Y031D03*
X03122Y03285D03*
X02847D03*
X02606Y03175D03*
X02421D03*
X02606Y03628D03*
Y03904D03*
G54D9507*
X05483Y03628D03*
X05683D03*
X06019D03*
X06219D03*
X04646Y0363D03*
X04446D03*
X04092D03*
X03892D03*
X03562D03*
X03362D03*
X03034Y03631D03*
X02834D03*
G54D9508*
X02171Y01136D03*
X00242D03*
X02171Y03419D03*
X00242D03*
G54D9509*
X07708Y01479D03*
Y01706D03*
Y0294D03*
Y03167D03*
G54D9510*
X06348Y00322D03*
X05848D03*
X05437Y00327D03*
X04937D03*
M02*