%FSTAX23Y23*%
%MOIN*%
%SFA1B1*%

%IPPOS*%
%ADD10C,0.007874*%
%ADD93C,0.017874*%
%ADD94C,0.010000*%
%ADD98C,0.118110*%
%ADD99C,0.060000*%
%ADD101C,0.244094*%
%ADD102C,0.025591*%
%ADD103C,0.055118*%
%ADD104C,0.023622*%
%ADD105O,0.078740X0.035433*%
%ADD106O,0.066929X0.035433*%
%ADD107C,0.064960*%
%ADD109C,0.097441*%
%ADD110R,0.097441X0.097441*%
%ADD112C,0.028000*%
%LNotpcb_copper_signal_2-1*%
%LPD*%
G36*
X02355Y03996D02*
Y03948D01*
Y03915*
Y03339*
X02689*
Y03081*
X03379*
Y03339*
X03665*
Y03223*
X04301*
Y03438*
X05335*
Y03992*
X05339Y03995*
X07874Y03995*
X07879Y03993*
X07893Y03986*
X07905Y03976*
X07914Y03965*
X07921Y03951*
X07926Y03937*
X07926Y0393*
X07927Y0393*
Y02675*
X07701*
X07699Y0268*
X07778Y02758*
X07782Y02764*
X07783Y02771*
Y03065*
X07782Y03072*
X07778Y03077*
X07712Y03143*
X07714Y03148*
X07719Y0315*
X07724Y03156*
X07727Y03163*
Y03171*
X07724Y03178*
X07719Y03184*
X07712Y03187*
X07704*
X07696Y03184*
X07691Y03178*
X07688Y03171*
Y03168*
X07684Y03165*
X07683Y03165*
X07532*
X07526Y03167*
X07518*
X07511Y03164*
X07505Y03159*
X07502Y03152*
Y03144*
X07505Y03137*
X07511Y03131*
X07518Y03128*
X07526*
X07532Y03131*
X07676*
X07749Y03058*
Y02778*
X07615Y02644*
X07611Y02638*
X0761Y02632*
Y02624*
X07606Y02621*
X07604Y02622*
Y02601*
Y02579*
X07606Y0258*
X0761Y02577*
Y01894*
X07426Y0171*
X07421Y01708*
X07349*
X07347Y01713*
X07586Y01952*
X07589Y01956*
X0759Y01961*
Y02397*
X07589Y02402*
X07586Y02406*
X0745Y02542*
X07445Y02545*
X0744Y02546*
X07437*
X07431Y02552*
Y02553*
X07428Y02561*
X07423Y02566*
X07416Y02569*
X07408*
X074Y02566*
X07395Y02561*
X07392Y02553*
X07389Y02551*
X07389Y02551*
X07367*
X07364Y02554*
X07356Y02557*
X07349*
X07341Y02554*
X07336Y02549*
X07333Y02541*
Y02534*
X07336Y02526*
X07341Y02521*
X07349Y02518*
X07356*
X07364Y02521*
X07367Y02524*
X07383*
X07544Y02364*
Y01972*
X07316Y01744*
X07218*
X07216Y01749*
X07466Y01999*
X07469Y02003*
X0747Y02008*
Y02169*
X07469Y02174*
X07466Y02178*
X07342Y02302*
Y0233*
X07347Y02332*
X07352Y02328*
X07359Y02325*
X07367*
Y02317*
X0737Y02309*
X07376Y02303*
X07384Y023*
X07392*
X074Y02303*
X07405Y02309*
X07409Y02317*
Y02325*
X07416*
Y02317*
X0742Y02309*
X07425Y02303*
X07433Y023*
X07441*
X07449Y02303*
X07455Y02309*
X07458Y02317*
Y02325*
X07466*
X07473Y02328*
X07479Y02334*
X07482Y02342*
Y0235*
X07479Y02357*
X07473Y02363*
X07466Y02366*
X07458*
Y02374*
X07466*
X07473Y02377*
X07479Y02383*
X07482Y02391*
Y02399*
X07479Y02407*
X07473Y02412*
X07466Y02416*
X07458*
Y02424*
X07455Y02431*
X07449Y02437*
X07441Y0244*
X07433*
X07425Y02437*
X0742Y02431*
X07416Y02424*
Y02416*
X07409*
Y02424*
X07405Y02431*
X074Y02437*
X07392Y0244*
X07384*
X07376Y02437*
X0737Y02431*
X07367Y02424*
Y02416*
X07359*
X07352Y02412*
X07347Y02408*
X07342Y0241*
Y02451*
X07341Y02456*
X07339Y02461*
X07256Y02543*
X07252Y02546*
X07247Y02547*
X07017*
X07013Y0255*
X07006Y02553*
X07002*
X07Y02556*
X06999Y02558*
X07002Y02565*
Y02573*
X06999Y0258*
X06994Y02586*
X06986Y02589*
X06979*
X06971Y02586*
X06966Y0258*
X06963Y02573*
Y02565*
X06966Y02558*
X06971Y02552*
X06979Y02549*
X06983*
X06985Y02546*
X06985Y02544*
X06982Y02538*
Y0253*
X06985Y02522*
X06991Y02517*
X06998Y02514*
X07006*
X07013Y02517*
X07017Y0252*
X07241*
X07291Y02471*
X0729Y02471*
X07288Y02467*
X07282*
X07274Y02464*
X07269Y02458*
X07266Y02451*
Y02443*
X07269Y02436*
X07274Y0243*
X07282Y02427*
X07289*
X07297Y0243*
X07302Y02436*
X07305Y02443*
Y0245*
X07309Y02452*
X0731Y02452*
X07316Y02446*
Y02297*
X07317Y02292*
X0732Y02288*
X07444Y02164*
Y02014*
X07192Y01762*
X071*
X07098Y01766*
X07196Y01864*
X07198Y01868*
X07199Y01872*
Y02038*
X07204Y02042*
X07205Y02046*
X07208Y02046*
X07211Y02045*
X07213Y02039*
X07219Y02033*
X07226Y0203*
X07234*
X07241Y02033*
X07247Y02039*
X0725Y02046*
Y02054*
X07247Y02061*
X07241Y02067*
X07234Y0207*
X07226*
X07219Y02067*
X07213Y02061*
X07212Y02057*
X07209Y02057*
X07207Y02058*
X07204Y02064*
X07198Y0207*
X07191Y02073*
X07183*
X07176Y0207*
X0717Y02064*
X07167Y02057*
Y02049*
X0717Y02042*
X07175Y02038*
Y01877*
X07075Y01778*
X0705*
X07045Y01777*
X07041Y01774*
X06731Y01464*
X06725Y01465*
X06723Y01469*
X06717Y01475*
X0671Y01478*
Y01457*
X06705*
Y01452*
X06683*
X06686Y01444*
X06693Y01438*
X06697Y01436*
X06698Y01431*
X06003Y00736*
X05199*
X0416Y01775*
Y01782*
X04157Y01789*
X04151Y01794*
X04144Y01797*
X04136*
X04129Y01794*
X04123Y01789*
X0412Y01782*
Y01774*
X04123Y01767*
X04129Y01761*
X04136Y01758*
X04143*
X05186Y00715*
X05189Y00712*
X05194Y00712*
X05995*
X05997Y00707*
X05991Y007*
X05051*
X0411Y01641*
X04106Y01644*
X04101Y01645*
X037*
X03476Y0187*
X03472Y01873*
X03467Y01874*
X03128*
X03123Y01873*
X03119Y0187*
X0294Y01691*
X02935*
X02928Y01688*
X02922Y01683*
X02919Y01675*
Y01667*
X02922Y0166*
X02928Y01655*
X02935Y01652*
X02943*
X0295Y01655*
X02956Y0166*
X02959Y01667*
Y01673*
X03134Y01847*
X03461*
X03577Y01732*
X03574Y01727*
X03572Y01728*
X03564*
X03557Y01725*
X03551Y0172*
X03548Y01712*
Y01705*
X03551Y01697*
X03557Y01692*
X03564Y01689*
X03572*
X03579Y01692*
X03585Y01697*
X03588Y01705*
Y01712*
X03587Y01715*
X03591Y01717*
X03686Y01623*
X0369Y0162*
X03695Y01619*
X04095*
X05036Y00678*
X0504Y00675*
X05045Y00674*
X05985*
X05988Y00669*
X05988Y00669*
X05019*
X04204Y01484*
X042Y01487*
X04195Y01488*
X03708*
X03499Y01697*
Y01766*
X03498Y01771*
X03496Y01775*
X03476Y01795*
X03472Y01798*
X03467Y01799*
X03262*
X03257Y01798*
X03253Y01795*
X03141Y01683*
X03136*
X03129Y0168*
X03123Y01675*
X0312Y01667*
Y0166*
X03123Y01652*
X03129Y01647*
X03136Y01644*
X03144*
X03151Y01647*
X03157Y01652*
X0316Y0166*
Y01665*
X03267Y01772*
X03461*
X03473Y0176*
Y01691*
X03474Y01686*
X03477Y01682*
X03694Y01465*
X03698Y01462*
X03703Y01461*
X0419*
X05001Y0065*
X04999Y00645*
X04921*
X04441Y01126*
X04436Y01128*
X04431Y01129*
X0359*
X03381Y01338*
Y01661*
X03385Y01664*
X03388Y01671*
Y01679*
X03385Y01686*
X03379Y01692*
X03372Y01695*
X03364*
X03357Y01692*
X03352Y01686*
X03349Y01679*
Y01671*
X03352Y01664*
X03355Y01661*
Y01333*
X03356Y01328*
X03359Y01324*
X03576Y01107*
X0358Y01104*
X03585Y01103*
X04426*
X04906Y00623*
X0491Y0062*
X04915Y00619*
X05991*
X05993Y00614*
X0599Y00611*
X04838*
X04831Y00609*
X04826Y00606*
X04508Y00288*
X04295Y00501*
X0429Y00504*
X04283Y00506*
X02164*
X02008Y00661*
Y0119*
X02056Y01238*
X0206Y01244*
X02061Y0125*
Y03018*
X02078Y03035*
X02082Y03033*
X02083Y03032*
Y03022*
X02085Y03013*
X0209Y03004*
X02097Y02997*
X02106Y02992*
X02116Y0299*
X02126*
X02135Y02992*
X02144Y02997*
X02151Y03004*
X02156Y03013*
X02159Y03022*
Y03032*
X02156Y03042*
X02151Y03051*
X02147Y03055*
X02149Y0306*
X0219*
X02193Y0306*
X02195Y03056*
X0219Y03051*
X02185Y03042*
X02183Y03032*
Y03022*
X02185Y03013*
X0219Y03004*
X02197Y02997*
X02206Y02992*
X02216Y0299*
X02226*
X02235Y02992*
X02244Y02997*
X02251Y03004*
X02256Y03013*
X02259Y03022*
Y03032*
X02256Y03042*
X02251Y03051*
X02244Y03058*
X02235Y03063*
X02226Y03065*
X02216*
X02208Y03063*
X02205Y03068*
X02228Y0309*
X02235Y03092*
X02244Y03097*
X02251Y03104*
X02256Y03113*
X02259Y03122*
Y03124*
X0226Y03129*
X02258Y03136*
X02257Y03137*
X02256Y03142*
X02251Y03151*
X02244Y03158*
X02235Y03163*
X02226Y03165*
X02216*
X02206Y03163*
X02197Y03158*
X0219Y03151*
X02185Y03142*
X02183Y03132*
Y03122*
X02185Y03113*
X0219Y03104*
X02192Y03103*
X02183Y03094*
X02148*
X02146Y03099*
X02151Y03104*
X02156Y03113*
X02159Y03122*
Y03132*
X02156Y03142*
X02151Y03151*
X02144Y03158*
X02135Y03163*
X02126Y03165*
X02116*
X02106Y03163*
X02097Y03158*
X0209Y03151*
X02085Y03142*
X02083Y03132*
Y03122*
X02085Y03113*
X0209Y03104*
X02096Y03099*
X02096Y03098*
X02094Y03094*
X02089Y03093*
X02084Y03089*
X02032Y03037*
X02028Y03031*
X02027Y03025*
Y01257*
X01979Y0121*
X01975Y01204*
X01974Y01197*
Y00654*
X01975Y00648*
X01979Y00642*
X02145Y00476*
X0215Y00473*
X02157Y00471*
X04276*
X04489Y00259*
X04491Y00253*
X04497Y00247*
X04504Y00244*
X04512*
X04519Y00247*
X04525Y00253*
X04527Y00259*
X04845Y00577*
X05997*
X06003Y00578*
X06009Y00582*
X06568Y01141*
X06573Y01139*
Y01136*
X06576Y01129*
X06582Y01123*
X06589Y0112*
X06597*
X06604Y01123*
X06609Y01129*
X06612Y01136*
Y01144*
X06609Y01151*
X06604Y01157*
X06597Y0116*
X06594*
X06592Y01165*
X07101Y01674*
X07421*
X07427Y01671*
X07435*
X07442Y01674*
X07448Y0168*
X0745Y01686*
X07639Y01875*
X07643Y0188*
X07644Y01887*
Y02625*
X07683Y02664*
X07688Y02662*
Y01958*
X07689Y01955*
X07691Y01952*
X07693Y01951*
X07696Y0195*
X07927*
Y01246*
X07699*
X07696Y01246*
X07693Y01244*
X07691Y01241*
X07691Y01238*
Y00529*
X07691Y00526*
X07693Y00524*
X07696Y00522*
X07699Y00521*
X07927*
Y00215*
X07927Y0021*
X07926Y00206*
X07926Y00198*
X07922Y00186*
X07916Y00176*
X07908Y00166*
X07899Y00158*
X07888Y00152*
X07876Y00149*
X07871Y00148*
X0787Y00148*
X00095Y00148*
X0009*
X0009*
X00085Y00149*
X00073Y0015*
X00058Y00155*
X00043Y00162*
X0003Y00173*
X0002Y00186*
X00012Y002*
X00007Y00216*
X00007Y00223*
X00007Y00223*
X00007Y00351*
X00006Y00352*
X00006Y01727*
X00007Y02404*
Y02404*
Y03018*
Y03061*
Y03326*
Y0335*
X00007Y0335*
Y03373*
Y034*
Y03698*
Y03912*
X00007Y03916*
X00006Y03921*
X00008Y03936*
X00013Y03951*
X0002Y03965*
X0003Y03977*
X00042Y03987*
X00056Y03995*
X00061Y03996*
X02355Y03996*
G37*
%LNotpcb_copper_signal_2-2*%
%LPC*%
G36*
X07259Y03602D02*
Y03586D01*
X07276*
X07273Y03593*
X07266Y03599*
X07259Y03602*
G37*
G36*
X07249D02*
X07242Y03599D01*
X07236Y03593*
X07233Y03586*
X07249*
Y03602*
G37*
G36*
X06275Y03685D02*
X06162D01*
Y03572*
X06275*
Y03685*
G37*
G36*
X06026D02*
X06011D01*
X05997Y03681*
X05984Y03673*
X05973Y03663*
X05966Y0365*
X05962Y03636*
Y03621*
X05966Y03606*
X05973Y03593*
X05984Y03583*
X05997Y03575*
X06011Y03572*
X06026*
X0604Y03575*
X06053Y03583*
X06064Y03593*
X06071Y03606*
X06075Y03621*
Y03636*
X06071Y0365*
X06064Y03663*
X06053Y03673*
X0604Y03681*
X06026Y03685*
G37*
G36*
X0574D02*
X05627D01*
Y03572*
X0574*
Y03685*
G37*
G36*
X05491D02*
X05476D01*
X05461Y03681*
X05448Y03673*
X05438Y03663*
X0543Y0365*
X05427Y03636*
Y03621*
X0543Y03606*
X05438Y03593*
X05448Y03583*
X05461Y03575*
X05476Y03572*
X05491*
X05505Y03575*
X05518Y03583*
X05528Y03593*
X05536Y03606*
X0554Y03621*
Y03636*
X05536Y0365*
X05528Y03663*
X05518Y03673*
X05505Y03681*
X05491Y03685*
G37*
G36*
X07276Y03576D02*
X07259D01*
Y03559*
X07266Y03562*
X07273Y03569*
X07276Y03576*
G37*
G36*
X07249D02*
X07233D01*
X07236Y03569*
X07242Y03562*
X07249Y03559*
Y03576*
G37*
G36*
X07099Y03515D02*
Y03498D01*
X07115*
X07112Y03506*
X07106Y03512*
X07099Y03515*
G37*
G36*
X07089D02*
X07081Y03512D01*
X07075Y03506*
X07072Y03498*
X07089*
Y03515*
G37*
G36*
X07115Y03488D02*
X07099D01*
Y03472*
X07106Y03475*
X07112Y03481*
X07115Y03488*
G37*
G36*
X07089D02*
X07072D01*
X07075Y03481*
X07081Y03475*
X07089Y03472*
Y03488*
G37*
G36*
X06641Y03484D02*
Y03468D01*
X06658*
X06654Y03475*
X06648Y03481*
X06641Y03484*
G37*
G36*
X06631D02*
X06624Y03481D01*
X06617Y03475*
X06614Y03468*
X06631*
Y03484*
G37*
G36*
X06658Y03458D02*
X06641D01*
Y03441*
X06648Y03444*
X06654Y0345*
X06658Y03458*
G37*
G36*
X06631D02*
X06614D01*
X06617Y0345*
X06624Y03444*
X06631Y03441*
Y03458*
G37*
G36*
X06789Y03475D02*
X06782D01*
X06774Y03472*
X06769Y03466*
X06766Y03459*
Y03451*
X06769Y03444*
X06774Y03438*
X06782Y03435*
X06789*
X06797Y03438*
X06802Y03444*
X06805Y03451*
Y03459*
X06802Y03466*
X06797Y03472*
X06789Y03475*
G37*
G36*
X06179Y03443D02*
X06171D01*
X06164Y0344*
X06159Y03435*
X06156Y03427*
Y03419*
X06159Y03412*
X06164Y03407*
X06171Y03404*
X06179*
X06186Y03407*
X06192Y03412*
X06195Y03419*
Y03427*
X06192Y03435*
X06186Y0344*
X06179Y03443*
G37*
G36*
X07636Y03419D02*
X07628D01*
X07621Y03416*
X07615Y03411*
X07612Y03404*
Y03396*
X07615Y03389*
X07621Y03383*
X07628Y0338*
X07636*
X07643Y03383*
X07649Y03389*
X07652Y03396*
Y03404*
X07649Y03411*
X07643Y03416*
X07636Y03419*
G37*
G36*
X07191Y03396D02*
X07183D01*
X07176Y03393*
X0717Y03387*
X07167Y0338*
Y03372*
X0717Y03365*
X07176Y03359*
X07183Y03356*
X07191*
X07198Y03359*
X07204Y03365*
X07207Y03372*
Y0338*
X07204Y03387*
X07198Y03393*
X07191Y03396*
G37*
G36*
X07494Y03376D02*
X07486D01*
X07479Y03373*
X07474Y03368*
X07471Y0336*
Y03353*
X07474Y03345*
X07479Y0334*
X07486Y03337*
X07494*
X07501Y0334*
X07507Y03345*
X0751Y03353*
Y0336*
X07507Y03368*
X07501Y03373*
X07494Y03376*
G37*
G36*
X04535Y03415D02*
X04524D01*
X04514Y03412*
X04505Y03406*
X04497Y03399*
X04492Y0339*
X04489Y03379*
Y03369*
X04492Y03359*
X04497Y03349*
X04505Y03342*
X04514Y03337*
X04524Y03334*
X04535*
X04545Y03337*
X04554Y03342*
X04562Y03349*
X04567Y03359*
X0457Y03369*
Y03379*
X04567Y0339*
X04562Y03399*
X04554Y03406*
X04545Y03412*
X04535Y03415*
G37*
G36*
X06179Y03372D02*
X06171D01*
X06164Y03369*
X06159Y03364*
X06156Y03356*
Y03349*
X06159Y03341*
X06164Y03336*
X06171Y03333*
X06179*
X06186Y03336*
X06192Y03341*
X06195Y03349*
Y03356*
X06192Y03364*
X06186Y03369*
X06179Y03372*
G37*
G36*
X07286Y0336D02*
X07278D01*
X0727Y03357*
X07265Y03352*
X07262Y03345*
Y03337*
X07265Y0333*
X0727Y03324*
X07278Y03321*
X07286*
X07293Y03324*
X07298Y0333*
X07301Y03337*
Y03345*
X07298Y03352*
X07293Y03357*
X07286Y0336*
G37*
G36*
X07219Y03356D02*
X07211D01*
X07204Y03353*
X07198Y03348*
X07195Y03341*
Y03333*
X07198Y03326*
X07204Y0332*
X07211Y03317*
X07219*
X07226Y0332*
X07231Y03326*
X07234Y03333*
Y03341*
X07231Y03348*
X07226Y03353*
X07219Y03356*
G37*
G36*
X06801Y03341D02*
X06793D01*
X06786Y03338*
X06781Y03332*
X06778Y03325*
Y03317*
X06781Y0331*
X06786Y03304*
X06793Y03301*
X06801*
X06809Y03304*
X06814Y0331*
X06817Y03317*
Y03325*
X06814Y03332*
X06809Y03338*
X06801Y03341*
G37*
G36*
X07345Y03307D02*
Y0329D01*
X07362*
X07359Y03298*
X07353Y03304*
X07345Y03307*
G37*
G36*
X07335D02*
X07328Y03304D01*
X07322Y03298*
X07319Y0329*
X07335*
Y03307*
G37*
G36*
X02181Y03549D02*
X0216D01*
X0214Y03546*
X02121Y0354*
X02103Y0353*
X02086Y03518*
X02072Y03504*
X0206Y03487*
X0205Y03469*
X02044Y0345*
X02041Y03429*
Y03409*
X02044Y03389*
X0205Y03369*
X0206Y03351*
X02072Y03335*
X02086Y0332*
X02103Y03308*
X02121Y03299*
X0214Y03292*
X0216Y03289*
X02181*
X02201Y03292*
X02221Y03299*
X02239Y03308*
X02255Y0332*
X0227Y03335*
X02282Y03351*
X02291Y03369*
X02297Y03389*
X02301Y03409*
Y03429*
X02297Y0345*
X02291Y03469*
X02282Y03487*
X0227Y03504*
X02255Y03518*
X02239Y0353*
X02221Y0354*
X02201Y03546*
X02181Y03549*
G37*
G36*
X00252D02*
X00231D01*
X00211Y03546*
X00192Y0354*
X00173Y0353*
X00157Y03518*
X00142Y03504*
X0013Y03487*
X00121Y03469*
X00115Y0345*
X00112Y03429*
Y03409*
X00115Y03389*
X00121Y03369*
X0013Y03351*
X00142Y03335*
X00157Y0332*
X00173Y03308*
X00192Y03299*
X00211Y03292*
X00231Y03289*
X00252*
X00272Y03292*
X00291Y03299*
X0031Y03308*
X00326Y0332*
X00341Y03335*
X00353Y03351*
X00362Y03369*
X00368Y03389*
X00371Y03409*
Y03429*
X00368Y0345*
X00362Y03469*
X00353Y03487*
X00341Y03504*
X00326Y03518*
X0031Y0353*
X00291Y0354*
X00272Y03546*
X00252Y03549*
G37*
G36*
X07362Y0328D02*
X07345D01*
Y03264*
X07353Y03267*
X07359Y03273*
X07362Y0328*
G37*
G36*
X07335D02*
X07319D01*
X07322Y03273*
X07328Y03267*
X07335Y03264*
Y0328*
G37*
G36*
X0358Y03325D02*
X0357D01*
X03559Y03322*
X0355Y03317*
X03543Y03309*
X03537Y033*
X03535Y0329*
Y03279*
X03537Y03269*
X03543Y0326*
X0355Y03252*
X03559Y03247*
X0357Y03244*
X0358*
X03591Y03247*
X036Y03252*
X03607Y0326*
X03613Y03269*
X03615Y03279*
Y0329*
X03613Y033*
X03607Y03309*
X036Y03317*
X03591Y03322*
X0358Y03325*
G37*
G36*
X02126Y03267D02*
X02126D01*
Y03232*
X02161*
Y03233*
X02158Y03243*
X02153Y03252*
X02145Y03259*
X02136Y03265*
X02126Y03267*
G37*
G36*
X02116D02*
X02115D01*
X02105Y03265*
X02096Y03259*
X02089Y03252*
X02083Y03243*
X02081Y03233*
Y03232*
X02116*
Y03267*
G37*
G36*
X07557Y03258D02*
X07549D01*
X07542Y03255*
X07537Y03249*
X07534Y03242*
Y03234*
X07537Y03227*
X07542Y03222*
X07549Y03219*
X07557*
X07564Y03222*
X0757Y03227*
X07573Y03234*
Y03242*
X0757Y03249*
X07564Y03255*
X07557Y03258*
G37*
G36*
X06746Y0325D02*
X06738D01*
X06731Y03247*
X06726Y03242*
X06723Y03234*
Y03227*
X06726Y03219*
X06731Y03214*
X06738Y03211*
X06746*
X06753Y03214*
X06759Y03219*
X06762Y03227*
Y03234*
X06759Y03242*
X06753Y03247*
X06746Y0325*
G37*
G36*
X07868Y03249D02*
X07837D01*
X0783Y03249*
X07824Y03246*
X07819Y03242*
X07814Y03236*
X07812Y0323*
X07811Y03224*
X07812Y03217*
X07814Y03211*
X07819Y03205*
X07824Y03201*
X0783Y03199*
X07837Y03198*
X07868*
X07875Y03199*
X07881Y03201*
X07887Y03205*
X07891Y03211*
X07893Y03217*
X07894Y03224*
X07893Y0323*
X07891Y03236*
X07887Y03242*
X07881Y03246*
X07875Y03249*
X07868Y03249*
G37*
G36*
X0771D02*
X07667D01*
X0766Y03249*
X07654Y03246*
X07648Y03242*
X07644Y03236*
X07642Y0323*
X07641Y03224*
X07642Y03217*
X07644Y03211*
X07648Y03205*
X07654Y03201*
X0766Y03199*
X07667Y03198*
X0771*
X07717Y03199*
X07723Y03201*
X07728Y03205*
X07732Y03211*
X07735Y03217*
X07736Y03224*
X07735Y0323*
X07732Y03236*
X07728Y03242*
X07723Y03246*
X07717Y03249*
X0771Y03249*
G37*
G36*
X02226Y03265D02*
X02216D01*
X02206Y03263*
X02197Y03258*
X0219Y03251*
X02185Y03242*
X02183Y03232*
Y03222*
X02185Y03213*
X0219Y03204*
X02197Y03197*
X02206Y03192*
X02216Y0319*
X02226*
X02235Y03192*
X02244Y03197*
X02251Y03204*
X02256Y03213*
X02259Y03222*
Y03232*
X02256Y03242*
X02251Y03251*
X02244Y03258*
X02235Y03263*
X02226Y03265*
G37*
G36*
X02161Y03222D02*
X02126D01*
Y03187*
X02126*
X02136Y0319*
X02145Y03195*
X02153Y03203*
X02158Y03212*
X02161Y03222*
Y03222*
G37*
G36*
X02116D02*
X02081D01*
Y03222*
X02083Y03212*
X02089Y03203*
X02096Y03195*
X02105Y0319*
X02115Y03187*
X02116*
Y03222*
G37*
G36*
X05128Y03243D02*
X05117D01*
X05107Y03241*
X05097Y03235*
X0509Y03228*
X05085Y03218*
X05082Y03208*
Y03198*
X05085Y03187*
X0509Y03178*
X05097Y03171*
X05107Y03165*
X05117Y03163*
X05128*
X05138Y03165*
X05147Y03171*
X05154Y03178*
X0516Y03187*
X05163Y03198*
Y03208*
X0516Y03218*
X05154Y03228*
X05147Y03235*
X05138Y03241*
X05128Y03243*
G37*
G36*
X04942D02*
X04932D01*
X04922Y03241*
X04912Y03235*
X04905Y03228*
X049Y03218*
X04897Y03208*
Y03198*
X049Y03187*
X04905Y03178*
X04912Y03171*
X04922Y03165*
X04932Y03163*
X04942*
X04953Y03165*
X04962Y03171*
X04969Y03178*
X04975Y03187*
X04978Y03198*
Y03208*
X04975Y03218*
X04969Y03228*
X04962Y03235*
X04953Y03241*
X04942Y03243*
G37*
G36*
X04535Y03229D02*
X04524D01*
X04514Y03227*
X04505Y03221*
X04497Y03214*
X04492Y03205*
X04489Y03194*
Y03184*
X04492Y03174*
X04497Y03164*
X04505Y03157*
X04514Y03152*
X04524Y03149*
X04535*
X04545Y03152*
X04554Y03157*
X04562Y03164*
X04567Y03174*
X0457Y03184*
Y03194*
X04567Y03205*
X04562Y03214*
X04554Y03221*
X04545Y03227*
X04535Y03229*
G37*
G36*
X02612Y03216D02*
X02601D01*
X02591Y03213*
X02582Y03208*
X02574Y032*
X02569Y03191*
X02566Y03181*
Y0317*
X02569Y0316*
X02574Y03151*
X02582Y03143*
X02591Y03138*
X02601Y03135*
X02612*
X02622Y03138*
X02631Y03143*
X02639Y03151*
X02644Y0316*
X02647Y0317*
Y03181*
X02644Y03191*
X02639Y032*
X02631Y03208*
X02622Y03213*
X02612Y03216*
G37*
G36*
X02427D02*
X02416D01*
X02406Y03213*
X02397Y03208*
X02389Y032*
X02384Y03191*
X02381Y03181*
Y0317*
X02384Y0316*
X02389Y03151*
X02397Y03143*
X02406Y03138*
X02416Y03135*
X02427*
X02437Y03138*
X02446Y03143*
X02454Y03151*
X02459Y0316*
X02462Y0317*
Y03181*
X02459Y03191*
X02454Y032*
X02446Y03208*
X02437Y03213*
X02427Y03216*
G37*
G36*
X0358Y0314D02*
X0357D01*
X03559Y03137*
X0355Y03132*
X03543Y03124*
X03537Y03115*
X03535Y03105*
Y03094*
X03537Y03086*
X03289Y02838*
X03259*
X03253Y0284*
X03245*
X03238Y02837*
X03232Y02832*
X03229Y02824*
Y02816*
X03232Y0281*
Y02618*
X02751*
X02745Y02617*
X02739Y02613*
X02717Y02591*
X02711Y02588*
X02705Y02583*
X02702Y02575*
Y02568*
X02705Y0256*
X02711Y02555*
X02718Y02552*
X02726*
X02733Y02555*
X02739Y0256*
X02741Y02567*
X02758Y02584*
X03067*
X0307Y02579*
X03069Y02576*
Y02568*
X03072Y02561*
X03078Y02555*
X03085Y02552*
X03093*
X031Y02555*
X03106Y02561*
X03109Y02568*
Y02576*
X03107Y02579*
X03111Y02584*
X03245*
X03251Y02581*
X03259*
X03266Y02584*
X03272Y0259*
X03275Y02597*
Y02605*
X03272Y02612*
X03266Y02617*
Y02803*
X03296*
X03302Y02805*
X03308Y02808*
X03561Y03061*
X0357Y03059*
X0358*
X03589Y03061*
X03628Y03022*
X03634Y03018*
X0364Y03017*
X04591*
X04597Y03014*
X04605*
X04612Y03017*
X04618Y03023*
X04621Y0303*
Y03038*
X04618Y03045*
X04612Y03051*
X04605Y03054*
X04597*
X04591Y03051*
X03647*
X03613Y03086*
X03615Y03094*
Y03105*
X03613Y03115*
X03607Y03124*
X036Y03132*
X03591Y03137*
X0358Y0314*
G37*
G36*
X05523Y03049D02*
X05515D01*
X05508Y03046*
X05502Y0304*
X05499Y03033*
Y03025*
X05502Y03018*
X05508Y03012*
X05515Y03009*
X05523*
X0553Y03012*
X05535Y03018*
X05538Y03025*
Y03033*
X05535Y0304*
X0553Y03046*
X05523Y03049*
G37*
G36*
X04039Y03005D02*
X04031D01*
X04024Y03002*
X04018Y02996*
X04015Y02989*
Y02981*
X04018Y02974*
X04024Y02969*
X04031Y02966*
X04039*
X04046Y02969*
X04052Y02974*
X04055Y02981*
Y02989*
X04052Y02996*
X04046Y03002*
X04039Y03005*
G37*
G36*
X05606Y02976D02*
Y0296D01*
X05622*
X05619Y02967*
X05613Y02973*
X05606Y02976*
G37*
G36*
X05596D02*
X05588Y02973D01*
X05582Y02967*
X05579Y0296*
X05596*
Y02976*
G37*
G36*
X05622Y0295D02*
X05606D01*
Y02933*
X05613Y02936*
X05619Y02943*
X05622Y0295*
G37*
G36*
X05596D02*
X05579D01*
X05582Y02943*
X05588Y02936*
X05596Y02933*
Y0295*
G37*
G36*
X0573Y02971D02*
X05723D01*
X05715Y02968*
X0571Y02962*
X05707Y02955*
Y02947*
X0571Y0294*
X05715Y02934*
X05723Y02931*
X0573*
X05738Y02934*
X05743Y0294*
X05746Y02947*
Y02955*
X05743Y02962*
X05738Y02968*
X0573Y02971*
G37*
G36*
X07712Y02959D02*
X07704D01*
X07696Y02956*
X07691Y02951*
X07688Y02943*
Y02936*
X07691Y02928*
X07696Y02923*
X07704Y0292*
X07712*
X07719Y02923*
X07724Y02928*
X07727Y02936*
Y02943*
X07724Y02951*
X07719Y02956*
X07712Y02959*
G37*
G36*
X06657Y02909D02*
Y02893D01*
X06673*
X0667Y029*
X06664Y02906*
X06657Y02909*
G37*
G36*
X06647D02*
X06639Y02906D01*
X06633Y029*
X0663Y02893*
X06647*
Y02909*
G37*
G36*
X02226Y02965D02*
X02216D01*
X02206Y02963*
X02197Y02958*
X0219Y02951*
X02185Y02942*
X02183Y02932*
Y02922*
X02185Y02913*
X0219Y02904*
X02197Y02897*
X02206Y02892*
X02216Y0289*
X02226*
X02235Y02892*
X02244Y02897*
X02251Y02904*
X02256Y02913*
X02259Y02922*
Y02932*
X02256Y02942*
X02251Y02951*
X02244Y02958*
X02235Y02963*
X02226Y02965*
G37*
G36*
X02126D02*
X02116D01*
X02106Y02963*
X02097Y02958*
X0209Y02951*
X02085Y02942*
X02083Y02932*
Y02922*
X02085Y02913*
X0209Y02904*
X02097Y02897*
X02106Y02892*
X02116Y0289*
X02126*
X02135Y02892*
X02144Y02897*
X02151Y02904*
X02156Y02913*
X02159Y02922*
Y02932*
X02156Y02942*
X02151Y02951*
X02144Y02958*
X02135Y02963*
X02126Y02965*
G37*
G36*
X03727Y0292D02*
X0372D01*
X03712Y02917*
X03707Y02911*
X03704Y02904*
Y02896*
X03707Y02889*
X03712Y02884*
X0372Y02881*
X03727*
X03735Y02884*
X0374Y02889*
X03743Y02896*
Y02904*
X0374Y02911*
X03735Y02917*
X03727Y0292*
G37*
G36*
X06673Y02883D02*
X06657D01*
Y02866*
X06664Y02869*
X0667Y02876*
X06673Y02883*
G37*
G36*
X06647D02*
X0663D01*
X06633Y02876*
X06639Y02869*
X06647Y02866*
Y02883*
G37*
G36*
X07868Y02909D02*
X07837D01*
X0783Y02908*
X07824Y02905*
X07819Y02901*
X07814Y02896*
X07812Y0289*
X07811Y02883*
X07812Y02876*
X07814Y0287*
X07819Y02865*
X07824Y02861*
X0783Y02858*
X07837Y02857*
X07868*
X07875Y02858*
X07881Y02861*
X07887Y02865*
X07891Y0287*
X07893Y02876*
X07894Y02883*
X07893Y0289*
X07891Y02896*
X07887Y02901*
X07881Y02905*
X07875Y02908*
X07868Y02909*
G37*
G36*
X0771D02*
X07667D01*
X0766Y02908*
X07654Y02905*
X07648Y02901*
X07644Y02896*
X07642Y0289*
X07641Y02883*
X07642Y02876*
X07644Y0287*
X07648Y02865*
X07654Y02861*
X0766Y02858*
X07667Y02857*
X0771*
X07717Y02858*
X07723Y02861*
X07728Y02865*
X07732Y0287*
X07735Y02876*
X07736Y02883*
X07735Y0289*
X07732Y02896*
X07728Y02901*
X07723Y02905*
X07717Y02908*
X0771Y02909*
G37*
G36*
X03446Y02881D02*
X03438D01*
X03431Y02878*
X03425Y02873*
X03422Y02866*
Y02858*
X03425Y02851*
X03431Y02845*
X03438Y02842*
X03446*
X03453Y02845*
X03459Y02851*
X03462Y02858*
Y02866*
X03459Y02873*
X03453Y02878*
X03446Y02881*
G37*
G36*
X03002Y02876D02*
X02994D01*
X02987Y02873*
X02981Y02868*
X02978Y02861*
Y02853*
X02981Y02845*
X02987Y0284*
X02994Y02837*
X03002*
X03009Y0284*
X03015Y02845*
X03018Y02853*
Y02861*
X03015Y02868*
X03009Y02873*
X03002Y02876*
G37*
G36*
X07124Y02856D02*
X07116D01*
X07109Y02853*
X07104Y02848*
X07101Y02841*
Y02833*
X07104Y02826*
X07109Y0282*
X07116Y02817*
X07124*
X07131Y0282*
X07137Y02826*
X0714Y02833*
Y02841*
X07137Y02848*
X07131Y02853*
X07124Y02856*
G37*
G36*
X07053Y02849D02*
X07045D01*
X07038Y02846*
X07033Y0284*
X0703Y02833*
Y02825*
X07033Y02818*
X07038Y02812*
X07045Y02809*
X07053*
X07061Y02812*
X07066Y02818*
X07069Y02825*
Y02833*
X07066Y0284*
X07061Y02846*
X07053Y02849*
G37*
G36*
X04173Y02843D02*
X04166D01*
X04158Y0284*
X04153Y02834*
X0415Y02827*
Y02819*
X04153Y02812*
X04158Y02806*
X04166Y02803*
X04173*
X04181Y02806*
X04186Y02812*
X04189Y02819*
Y02827*
X04186Y02834*
X04181Y0284*
X04173Y02843*
G37*
G36*
X06868Y02833D02*
X0686D01*
X06853Y0283*
X06848Y02824*
X06845Y02817*
Y02809*
X06848Y02802*
X06853Y02796*
X0686Y02793*
X06868*
X06875Y02796*
X06881Y02802*
X06884Y02809*
Y02817*
X06881Y02824*
X06875Y0283*
X06868Y02833*
G37*
G36*
X06963Y0283D02*
X06955D01*
X06948Y02827*
X06942Y02822*
X06939Y02815*
Y02807*
X06942Y028*
X06948Y02794*
X06955Y02791*
X06963*
X0697Y02794*
X06975Y028*
X06978Y02807*
Y02815*
X06975Y02822*
X0697Y02827*
X06963Y0283*
G37*
G36*
X02226Y02865D02*
X02216D01*
X02206Y02863*
X02197Y02858*
X0219Y02851*
X02185Y02842*
X02183Y02832*
Y02822*
X02185Y02813*
X0219Y02804*
X02197Y02797*
X02206Y02792*
X02216Y0279*
X02226*
X02235Y02792*
X02244Y02797*
X02251Y02804*
X02256Y02813*
X02259Y02822*
Y02832*
X02256Y02842*
X02251Y02851*
X02244Y02858*
X02235Y02863*
X02226Y02865*
G37*
G36*
X02126D02*
X02116D01*
X02106Y02863*
X02097Y02858*
X0209Y02851*
X02085Y02842*
X02083Y02832*
Y02822*
X02085Y02813*
X0209Y02804*
X02097Y02797*
X02106Y02792*
X02116Y0279*
X02126*
X02135Y02792*
X02144Y02797*
X02151Y02804*
X02156Y02813*
X02159Y02822*
Y02832*
X02156Y02842*
X02151Y02851*
X02144Y02858*
X02135Y02863*
X02126Y02865*
G37*
G36*
X05623Y02824D02*
X05615D01*
X05608Y02821*
X05603Y02815*
X056Y02808*
Y028*
X05603Y02793*
X05608Y02788*
X05615Y02785*
X05623*
X0563Y02788*
X05636Y02793*
X05639Y028*
Y02808*
X05636Y02815*
X0563Y02821*
X05623Y02824*
G37*
G36*
X06715Y02813D02*
X06707D01*
X067Y0281*
X06694Y02805*
X06691Y02797*
Y0279*
X06694Y02782*
X067Y02777*
X06707Y02774*
X06715*
X06722Y02777*
X06727Y02782*
X0673Y0279*
Y02797*
X06727Y02805*
X06722Y0281*
X06715Y02813*
G37*
G36*
X06255Y02776D02*
Y02759D01*
X06272*
X06269Y02766*
X06262Y02773*
X06255Y02776*
G37*
G36*
X06245D02*
X06238Y02773D01*
X06232Y02766*
X06229Y02759*
X06245*
Y02776*
G37*
G36*
X06424Y02768D02*
Y02751D01*
X06441*
X06438Y02759*
X06432Y02765*
X06424Y02768*
G37*
G36*
X06414D02*
X06407Y02765D01*
X06401Y02759*
X06398Y02751*
X06414*
Y02768*
G37*
G36*
X07602Y02756D02*
Y02739D01*
X07618*
X07615Y02747*
X07609Y02753*
X07602Y02756*
G37*
G36*
X07592D02*
X07584Y02753D01*
X07578Y02747*
X07575Y02739*
X07592*
Y02756*
G37*
G36*
X03931Y02775D02*
X03923D01*
X03916Y02772*
X0391Y02767*
X03907Y02759*
Y02751*
X0391Y02744*
X03916Y02739*
X03923Y02736*
X03931*
X03938Y02739*
X03944Y02744*
X03947Y02751*
Y02759*
X03944Y02767*
X03938Y02772*
X03931Y02775*
G37*
G36*
X06272Y02749D02*
X06255D01*
Y02733*
X06262Y02736*
X06269Y02742*
X06272Y02749*
G37*
G36*
X06245D02*
X06229D01*
X06232Y02742*
X06238Y02736*
X06245Y02733*
Y02749*
G37*
G36*
X06577Y0277D02*
X06569D01*
X06562Y02767*
X06556Y02761*
X06553Y02754*
Y02746*
X06556Y02739*
X06562Y02733*
X06569Y0273*
X06577*
X06584Y02733*
X0659Y02739*
X06593Y02746*
Y02754*
X0659Y02761*
X06584Y02767*
X06577Y0277*
G37*
G36*
X06144D02*
X06136D01*
X06129Y02767*
X06123Y02761*
X0612Y02754*
Y02746*
X06123Y02739*
X06129Y02733*
X06136Y0273*
X06144*
X06151Y02733*
X06157Y02739*
X0616Y02746*
Y02754*
X06157Y02761*
X06151Y02767*
X06144Y0277*
G37*
G36*
X07388Y02766D02*
X0738D01*
X07373Y02763*
X07367Y02757*
X07364Y0275*
Y02742*
X07367Y02735*
X07373Y0273*
X0738Y02727*
X07388*
X07395Y0273*
X07401Y02735*
X07404Y02742*
Y0275*
X07401Y02757*
X07395Y02763*
X07388Y02766*
G37*
G36*
X06441Y02741D02*
X06424D01*
Y02725*
X06432Y02728*
X06438Y02734*
X06441Y02741*
G37*
G36*
X06414D02*
X06398D01*
X06401Y02734*
X06407Y02728*
X06414Y02725*
Y02741*
G37*
G36*
X07541Y02754D02*
X07534D01*
X07526Y02751*
X07521Y02746*
X07518Y02738*
Y0273*
X07521Y02723*
X07526Y02718*
X07534Y02715*
X07541*
X07549Y02718*
X07554Y02723*
X07557Y0273*
Y02738*
X07554Y02746*
X07549Y02751*
X07541Y02754*
G37*
G36*
X07618Y02729D02*
X07602D01*
Y02713*
X07609Y02716*
X07615Y02722*
X07618Y02729*
G37*
G36*
X07592D02*
X07575D01*
X07578Y02722*
X07584Y02716*
X07592Y02713*
Y02729*
G37*
G36*
X03108Y02748D02*
X031D01*
X03093Y02745*
X03088Y02739*
X03085Y02732*
Y02724*
X03088Y02717*
X03093Y02711*
X031Y02708*
X03108*
X03115Y02711*
X03121Y02717*
X03124Y02724*
Y02732*
X03121Y02739*
X03115Y02745*
X03108Y02748*
G37*
G36*
X02226Y02765D02*
X02216D01*
X02206Y02763*
X02197Y02758*
X0219Y02751*
X02185Y02742*
X02183Y02732*
Y02722*
X02185Y02713*
X0219Y02704*
X02197Y02697*
X02206Y02692*
X02216Y0269*
X02226*
X02235Y02692*
X02244Y02697*
X02251Y02704*
X02256Y02713*
X02259Y02722*
Y02732*
X02256Y02742*
X02251Y02751*
X02244Y02758*
X02235Y02763*
X02226Y02765*
G37*
G36*
X02126D02*
X02116D01*
X02106Y02763*
X02097Y02758*
X0209Y02751*
X02085Y02742*
X02083Y02732*
Y02722*
X02085Y02713*
X0209Y02704*
X02097Y02697*
X02106Y02692*
X02116Y0269*
X02126*
X02135Y02692*
X02144Y02697*
X02151Y02704*
X02156Y02713*
X02159Y02722*
Y02732*
X02156Y02742*
X02151Y02751*
X02144Y02758*
X02135Y02763*
X02126Y02765*
G37*
G36*
X06506Y02723D02*
X06498D01*
X06491Y0272*
X06485Y02714*
X06482Y02707*
Y02699*
X06485Y02692*
X06491Y02686*
X06498Y02683*
X06506*
X06513Y02686*
X06519Y02692*
X06522Y02699*
Y02707*
X06519Y02714*
X06513Y0272*
X06506Y02723*
G37*
G36*
X06723Y02699D02*
X06715D01*
X06707Y02696*
X06702Y0269*
X06699Y02683*
Y02675*
X06702Y02668*
X06707Y02663*
X06715Y0266*
X06723*
X0673Y02663*
X06735Y02668*
X06738Y02675*
Y02683*
X06735Y0269*
X0673Y02696*
X06723Y02699*
G37*
G36*
X05861Y02686D02*
X05854D01*
X05846Y02683*
X05841Y02678*
X05838Y0267*
Y02663*
X05841Y02655*
X05846Y0265*
X05854Y02647*
X05861*
X05869Y0265*
X05874Y02655*
X05877Y02663*
Y0267*
X05874Y02678*
X05869Y02683*
X05861Y02686*
G37*
G36*
X05662Y0268D02*
X05654D01*
X05646Y02677*
X05641Y02672*
X05638Y02664*
Y02657*
X05641Y02649*
X05646Y02644*
X05654Y02641*
X05662*
X05669Y02644*
X05674Y02649*
X05677Y02657*
Y02664*
X05674Y02672*
X05669Y02677*
X05662Y0268*
G37*
G36*
X06156Y02675D02*
X06148D01*
X06141Y02672*
X06135Y02667*
X06132Y0266*
Y02652*
X06135Y02645*
X06141Y02639*
X06148Y02636*
X06156*
X06163Y02639*
X06168Y02645*
X06171Y02652*
Y0266*
X06168Y02667*
X06163Y02672*
X06156Y02675*
G37*
G36*
X03495Y02659D02*
X03487D01*
X0348Y02656*
X03475Y0265*
X03472Y02643*
Y02635*
X03475Y02628*
X0348Y02622*
X03487Y02619*
X03495*
X03502Y02622*
X03508Y02628*
X03511Y02635*
Y02643*
X03508Y0265*
X03502Y02656*
X03495Y02659*
G37*
G36*
X07594Y02622D02*
X07586Y02619D01*
X0758Y02613*
X07577Y02606*
X07594*
Y02622*
G37*
G36*
X06482Y0264D02*
X06475D01*
X06467Y02637*
X06462Y02631*
X06459Y02624*
Y02616*
X06462Y02609*
X06467Y02604*
X06475Y02601*
X06482*
X0649Y02604*
X06495Y02609*
X06498Y02616*
Y02624*
X06495Y02631*
X0649Y02637*
X06482Y0264*
G37*
G36*
X05872Y02636D02*
X05864D01*
X05857Y02633*
X05852Y02627*
X05849Y0262*
Y02612*
X05852Y02605*
X05857Y026*
X05864Y02597*
X05872*
X05879Y026*
X05885Y02605*
X05888Y02612*
Y0262*
X05885Y02627*
X05879Y02633*
X05872Y02636*
G37*
G36*
X06931Y02632D02*
X06923D01*
X06916Y02629*
X06911Y02624*
X06908Y02616*
Y02608*
X06911Y02601*
X06916Y02596*
X06923Y02593*
X06931*
X06938Y02596*
X06944Y02601*
X06947Y02608*
Y02616*
X06944Y02624*
X06938Y02629*
X06931Y02632*
G37*
G36*
X02226Y02665D02*
X02216D01*
X02206Y02663*
X02197Y02658*
X0219Y02651*
X02185Y02642*
X02183Y02632*
Y02622*
X02185Y02613*
X0219Y02604*
X02197Y02597*
X02206Y02592*
X02216Y0259*
X02226*
X02235Y02592*
X02244Y02597*
X02251Y02604*
X02256Y02613*
X02259Y02622*
Y02632*
X02256Y02642*
X02251Y02651*
X02244Y02658*
X02235Y02663*
X02226Y02665*
G37*
G36*
X02126D02*
X02116D01*
X02106Y02663*
X02097Y02658*
X0209Y02651*
X02085Y02642*
X02083Y02632*
Y02622*
X02085Y02613*
X0209Y02604*
X02097Y02597*
X02106Y02592*
X02116Y0259*
X02126*
X02135Y02592*
X02144Y02597*
X02151Y02604*
X02156Y02613*
X02159Y02622*
Y02632*
X02156Y02642*
X02151Y02651*
X02144Y02658*
X02135Y02663*
X02126Y02665*
G37*
G36*
X07349Y02604D02*
X07341D01*
X07333Y02601*
X07328Y02596*
X07325Y02589*
Y02588*
X0732Y02586*
X07316Y0259*
X07309Y02593*
X07301*
X07294Y0259*
X07289Y02584*
X07286Y02577*
Y02569*
X07289Y02562*
X07294Y02556*
X07301Y02553*
X07309*
X07316Y02556*
X07322Y02562*
X07325Y02569*
Y0257*
X0733Y02572*
X07333Y02568*
X07341Y02565*
X07349*
X07356Y02568*
X07361Y02574*
X07364Y02581*
Y02589*
X07361Y02596*
X07356Y02601*
X07349Y02604*
G37*
G36*
X06538Y0262D02*
X0653D01*
X06522Y02617*
X06517Y02612*
X06514Y02604*
Y02597*
X06517Y02589*
X06522Y02584*
X0653Y02581*
X06538*
X06545Y02584*
X0655Y02589*
X06553Y02597*
Y02604*
X0655Y02612*
X06545Y02617*
X06538Y0262*
G37*
G36*
X07594Y02596D02*
X07577D01*
X0758Y02588*
X07586Y02582*
X07594Y02579*
Y02596*
G37*
G36*
X07526Y02608D02*
X07518D01*
X07511Y02605*
X07505Y026*
X07502Y02593*
Y02585*
X07505Y02578*
X07511Y02572*
X07518Y02569*
X07526*
X07533Y02572*
X07538Y02578*
X07541Y02585*
Y02593*
X07538Y026*
X07533Y02605*
X07526Y02608*
G37*
G36*
X04357Y02597D02*
X04349D01*
X04342Y02594*
X04336Y02588*
X04333Y02581*
Y02573*
X04336Y02566*
X04342Y0256*
X04349Y02557*
X04357*
X04364Y0256*
X0437Y02566*
X04373Y02573*
Y02581*
X0437Y02588*
X04364Y02594*
X04357Y02597*
G37*
G36*
X03748Y02594D02*
X0374D01*
X03733Y02591*
X03727Y02586*
X03724Y02579*
Y02571*
X03727Y02564*
X03733Y02558*
X0374Y02555*
X03748*
X03755Y02558*
X03761Y02564*
X03764Y02571*
Y02579*
X03761Y02586*
X03755Y02591*
X03748Y02594*
G37*
G36*
X04155Y02587D02*
X04148D01*
X0414Y02584*
X04135Y02579*
X04132Y02572*
Y02564*
X04135Y02556*
X0414Y02551*
X04148Y02548*
X04155*
X04163Y02551*
X04168Y02556*
X04171Y02564*
Y02572*
X04168Y02579*
X04163Y02584*
X04155Y02587*
G37*
G36*
X03954Y02583D02*
X03946D01*
X03939Y0258*
X03933Y02575*
X0393Y02568*
Y0256*
X03933Y02553*
X03939Y02547*
X03946Y02544*
X03954*
X03961Y02547*
X03967Y02553*
X0397Y0256*
Y02568*
X03967Y02575*
X03961Y0258*
X03954Y02583*
G37*
G36*
X06243Y02571D02*
X06235D01*
X06228Y02568*
X06223Y02562*
X0622Y02555*
Y02547*
X06223Y0254*
X06228Y02535*
X06235Y02532*
X06243*
X0625Y02535*
X06256Y0254*
X06259Y02547*
Y02555*
X06256Y02562*
X0625Y02568*
X06243Y02571*
G37*
G36*
X06065Y02553D02*
X06057D01*
X0605Y0255*
X06044Y02545*
X06041Y02538*
Y0253*
X06044Y02522*
X0605Y02517*
X06057Y02514*
X06065*
X06072Y02517*
X06078Y02522*
X06081Y0253*
Y02538*
X06078Y02545*
X06072Y0255*
X06065Y02553*
G37*
G36*
X06138Y02536D02*
X0613D01*
X06123Y02533*
X06117Y02527*
X06114Y0252*
Y02512*
X06117Y02505*
X06123Y02499*
X0613Y02496*
X06138*
X06145Y02499*
X06151Y02505*
X06154Y02512*
Y0252*
X06151Y02527*
X06145Y02533*
X06138Y02536*
G37*
G36*
X02226Y02565D02*
X02216D01*
X02206Y02563*
X02197Y02558*
X0219Y02551*
X02185Y02542*
X02183Y02532*
Y02522*
X02185Y02513*
X0219Y02504*
X02197Y02497*
X02206Y02492*
X02216Y0249*
X02226*
X02235Y02492*
X02244Y02497*
X02251Y02504*
X02256Y02513*
X02259Y02522*
Y02532*
X02256Y02542*
X02251Y02551*
X02244Y02558*
X02235Y02563*
X02226Y02565*
G37*
G36*
X02126D02*
X02116D01*
X02106Y02563*
X02097Y02558*
X0209Y02551*
X02085Y02542*
X02083Y02532*
Y02522*
X02085Y02513*
X0209Y02504*
X02097Y02497*
X02106Y02492*
X02116Y0249*
X02126*
X02135Y02492*
X02144Y02497*
X02151Y02504*
X02156Y02513*
X02159Y02522*
Y02532*
X02156Y02542*
X02151Y02551*
X02144Y02558*
X02135Y02563*
X02126Y02565*
G37*
G36*
X06439Y02565D02*
X06431D01*
X06424Y02562*
X06418Y02557*
X06415Y02549*
Y02542*
X06418Y02534*
X06424Y02529*
X06429Y02527*
X06428Y02522*
X06423*
X06416Y02519*
X06411Y02513*
X06408Y02506*
Y02498*
X06411Y02491*
X06416Y02485*
X06423Y02482*
X06431*
X06438Y02485*
X06444Y02491*
X06447Y02498*
Y02506*
X06444Y02513*
X06438Y02519*
X06434Y02521*
X06435Y02526*
X06439*
X06446Y02529*
X06452Y02534*
X06455Y02542*
Y02549*
X06452Y02557*
X06446Y02562*
X06439Y02565*
G37*
G36*
X0624Y02492D02*
X06232D01*
X06225Y02489*
X0622Y02483*
X06217Y02476*
Y02468*
X0622Y02461*
X06225Y02455*
X06232Y02452*
X0624*
X06247Y02455*
X06253Y02461*
X06256Y02468*
Y02476*
X06253Y02483*
X06247Y02489*
X0624Y02492*
G37*
G36*
X06404Y02475D02*
X06396D01*
X06389Y02472*
X06383Y02466*
X0638Y02459*
Y02451*
X06383Y02444*
X06389Y02438*
X06396Y02435*
X06404*
X06411Y02438*
X06416Y02444*
X06419Y02451*
Y02459*
X06416Y02466*
X06411Y02472*
X06404Y02475*
G37*
G36*
X02126Y02467D02*
X02126D01*
Y02432*
X02161*
Y02433*
X02158Y02443*
X02153Y02452*
X02145Y02459*
X02136Y02465*
X02126Y02467*
G37*
G36*
X02116D02*
X02115D01*
X02105Y02465*
X02096Y02459*
X02089Y02452*
X02083Y02443*
X02081Y02433*
Y02432*
X02116*
Y02467*
G37*
G36*
X06734Y02467D02*
X06727D01*
X06719Y02464*
X06714Y02458*
X06711Y02451*
Y02443*
X06714Y02436*
X06719Y0243*
X06727Y02427*
X06734*
X06742Y0243*
X06747Y02436*
X0675Y02443*
Y02451*
X06747Y02458*
X06742Y02464*
X06734Y02467*
G37*
G36*
X06098Y02449D02*
X0609D01*
X06082Y02446*
X06077Y0244*
X06074Y02433*
Y02425*
X06077Y02418*
X06082Y02413*
X0609Y0241*
X06098*
X06105Y02413*
X0611Y02418*
X06113Y02425*
Y02433*
X0611Y0244*
X06105Y02446*
X06098Y02449*
G37*
G36*
X05997Y02444D02*
X0599D01*
X05982Y02441*
X05977Y02436*
X05974Y02428*
Y0242*
X05977Y02413*
X05982Y02408*
X0599Y02405*
X05997*
X06005Y02408*
X0601Y02413*
X06013Y0242*
Y02428*
X0601Y02436*
X06005Y02441*
X05997Y02444*
G37*
G36*
X06447Y02443D02*
X06439D01*
X06432Y0244*
X06426Y02435*
X06423Y02427*
Y02419*
X06426Y02412*
X06432Y02407*
X06439Y02404*
X06447*
X06454Y02407*
X0646Y02412*
X06463Y02419*
Y02427*
X0646Y02435*
X06454Y0244*
X06447Y02443*
G37*
G36*
X05458Y02435D02*
X0545D01*
X05443Y02432*
X05437Y02427*
X05434Y02419*
Y02412*
X05437Y02404*
X05443Y02399*
X0545Y02396*
X05458*
X05465Y02399*
X05471Y02404*
X05474Y02412*
Y02419*
X05471Y02427*
X05465Y02432*
X05458Y02435*
G37*
G36*
X05183Y02432D02*
X05175D01*
X05168Y02429*
X05163Y02424*
X0516Y02416*
Y02409*
X05163Y02401*
X05168Y02396*
X05175Y02393*
X05183*
X0519Y02396*
X05196Y02401*
X05199Y02409*
Y02416*
X05196Y02424*
X0519Y02429*
X05183Y02432*
G37*
G36*
X02226Y02465D02*
X02216D01*
X02206Y02463*
X02197Y02458*
X0219Y02451*
X02185Y02442*
X02183Y02432*
Y02422*
X02185Y02413*
X0219Y02404*
X02197Y02397*
X02206Y02392*
X02216Y0239*
X02226*
X02235Y02392*
X02244Y02397*
X02251Y02404*
X02256Y02413*
X02259Y02422*
Y02432*
X02256Y02442*
X02251Y02451*
X02244Y02458*
X02235Y02463*
X02226Y02465*
G37*
G36*
X02161Y02422D02*
X02126D01*
Y02387*
X02126*
X02136Y0239*
X02145Y02395*
X02153Y02403*
X02158Y02412*
X02161Y02422*
Y02422*
G37*
G36*
X02116D02*
X02081D01*
Y02422*
X02083Y02412*
X02089Y02403*
X02096Y02395*
X02105Y0239*
X02115Y02387*
X02116*
Y02422*
G37*
G36*
X05138Y02424D02*
X0513D01*
X05123Y02421*
X05117Y02416*
X05114Y02409*
Y02401*
X05117Y02394*
X05123Y02388*
X0513Y02385*
X05138*
X05145Y02388*
X05151Y02394*
X05154Y02401*
Y02409*
X05151Y02416*
X05145Y02421*
X05138Y02424*
G37*
G36*
X05Y02456D02*
X04992D01*
X04985Y02453*
X0498Y02447*
X04977Y0244*
Y02432*
X0498Y02425*
X04985Y02419*
X04992Y02416*
X04999*
X05001Y02412*
X05001Y02412*
X04997Y02408*
X04994Y02401*
Y02393*
X04997Y02386*
X05003Y0238*
X0501Y02377*
X05018*
X05025Y0238*
X05031Y02386*
X05034Y02393*
Y02401*
X05031Y02408*
X05025Y02413*
X05018Y02416*
X05011*
X05009Y02421*
X05009Y02421*
X05013Y02425*
X05016Y02432*
Y0244*
X05013Y02447*
X05007Y02453*
X05Y02456*
G37*
G36*
X06448Y0239D02*
Y02373D01*
X06465*
X06462Y02381*
X06455Y02387*
X06448Y0239*
G37*
G36*
X06438D02*
X06431Y02387D01*
X06425Y02381*
X06422Y02373*
X06438*
Y0239*
G37*
G36*
X06033Y02411D02*
X06025D01*
X06018Y02408*
X06012Y02402*
X06009Y02395*
Y02387*
X06012Y0238*
X06018Y02374*
X06025Y02371*
X06033*
X0604Y02374*
X06045Y0238*
X06048Y02387*
Y02395*
X06045Y02402*
X0604Y02408*
X06033Y02411*
G37*
G36*
X07254Y02408D02*
X07246D01*
X07239Y02405*
X07233Y02399*
X0723Y02392*
Y02384*
X07233Y02377*
X07239Y02371*
X07246Y02368*
X07254*
X07261Y02371*
X07267Y02377*
X0727Y02384*
Y02392*
X07267Y02399*
X07261Y02405*
X07254Y02408*
G37*
G36*
X06382D02*
X06374D01*
X06367Y02405*
X06361Y02399*
X06358Y02392*
Y02384*
X06361Y02377*
X06367Y02371*
X06374Y02368*
X06382*
X06389Y02371*
X06395Y02377*
X06398Y02384*
Y02392*
X06395Y02399*
X06389Y02405*
X06382Y02408*
G37*
G36*
X06465Y02363D02*
X06448D01*
Y02347*
X06455Y0235*
X06462Y02356*
X06465Y02363*
G37*
G36*
X06438D02*
X06422D01*
X06425Y02356*
X06431Y0235*
X06438Y02347*
Y02363*
G37*
G36*
X06309Y02385D02*
X06301D01*
X06294Y02382*
X06289Y02376*
X06286Y02369*
Y02361*
X06289Y02354*
X06294Y02349*
X06301Y02346*
X06309*
X06316Y02349*
X06322Y02354*
X06325Y02361*
Y02369*
X06322Y02376*
X06316Y02382*
X06309Y02385*
G37*
G36*
X06112Y0238D02*
X06104D01*
X06097Y02377*
X06092Y02372*
X06089Y02364*
Y02356*
X06092Y02349*
X06097Y02344*
X06104Y02341*
X06112*
X0612Y02344*
X06125Y02349*
X06128Y02356*
Y02364*
X06125Y02372*
X0612Y02377*
X06112Y0238*
G37*
G36*
X06359Y02349D02*
X06351D01*
X06344Y02346*
X06339Y0234*
X06336Y02333*
Y02325*
X06339Y02318*
X06344Y02312*
X06351Y02309*
X06359*
X06366Y02312*
X06372Y02318*
X06375Y02325*
Y02333*
X06372Y0234*
X06366Y02346*
X06359Y02349*
G37*
G36*
X04748Y02347D02*
X0474D01*
X04733Y02344*
X04728Y02338*
X04725Y02331*
Y02323*
X04728Y02316*
X04733Y0231*
X0474Y02307*
X04748*
X04755Y0231*
X04761Y02316*
X04764Y02323*
Y02331*
X04761Y02338*
X04755Y02344*
X04748Y02347*
G37*
G36*
X02226Y02365D02*
X02216D01*
X02206Y02363*
X02197Y02358*
X0219Y02351*
X02185Y02342*
X02183Y02332*
Y02322*
X02185Y02313*
X0219Y02304*
X02197Y02297*
X02206Y02292*
X02216Y0229*
X02226*
X02235Y02292*
X02244Y02297*
X02251Y02304*
X02256Y02313*
X02259Y02322*
Y02332*
X02256Y02342*
X02251Y02351*
X02244Y02358*
X02235Y02363*
X02226Y02365*
G37*
G36*
X02126D02*
X02116D01*
X02106Y02363*
X02097Y02358*
X0209Y02351*
X02085Y02342*
X02083Y02332*
Y02322*
X02085Y02313*
X0209Y02304*
X02097Y02297*
X02106Y02292*
X02116Y0229*
X02126*
X02135Y02292*
X02144Y02297*
X02151Y02304*
X02156Y02313*
X02159Y02322*
Y02332*
X02156Y02342*
X02151Y02351*
X02144Y02358*
X02135Y02363*
X02126Y02365*
G37*
G36*
X05407Y02316D02*
X05399D01*
X05392Y02313*
X05386Y02307*
X05383Y023*
Y02292*
X05386Y02285*
X05392Y02279*
X05399Y02276*
X05407*
X05414Y02279*
X05419Y02285*
X05422Y02292*
Y023*
X05419Y02307*
X05414Y02313*
X05407Y02316*
G37*
G36*
X04915Y02301D02*
X04907D01*
X049Y02298*
X04894Y02292*
X04891Y02285*
Y02277*
X04894Y0227*
X049Y02264*
X04907Y02261*
X04915*
X04922Y02264*
X04928Y0227*
X04931Y02277*
Y02285*
X04928Y02292*
X04922Y02298*
X04915Y02301*
G37*
G36*
X04796Y02294D02*
X04789D01*
X04781Y02291*
X04776Y02286*
X04773Y02279*
Y02271*
X04776Y02264*
X04781Y02258*
X04789Y02255*
X04796*
X04804Y02258*
X04809Y02264*
X04812Y02271*
Y02279*
X04809Y02286*
X04804Y02291*
X04796Y02294*
G37*
G36*
X02493Y02338D02*
X02485D01*
X02478Y02335*
X02472Y02329*
X02469Y02322*
Y02314*
X02472Y02307*
X02478Y02301*
X02484Y02299*
X02485Y02297*
X02485Y02293*
X0248Y02291*
X02474Y02286*
X02471Y02279*
Y02271*
X02474Y02264*
X0248Y02258*
X02487Y02255*
X02495*
X02502Y02258*
X02508Y02264*
X02511Y02271*
Y02279*
X02508Y02286*
X02502Y02291*
X02495Y02294*
X02495Y02296*
X02495Y02299*
X025Y02301*
X02505Y02307*
X02508Y02314*
Y02322*
X02505Y02329*
X025Y02335*
X02493Y02338*
G37*
G36*
X05046Y02279D02*
X05039D01*
X05031Y02276*
X05026Y02271*
X05023Y02264*
Y02256*
X05026Y02248*
X05031Y02243*
X05039Y0224*
X05046*
X05054Y02243*
X05059Y02248*
X05062Y02256*
Y02264*
X05059Y02271*
X05054Y02276*
X05046Y02279*
G37*
G36*
X06601Y0227D02*
X06593D01*
X06585Y02267*
X0658Y02261*
X06577Y02254*
Y02246*
X0658Y02239*
X06585Y02233*
X06593Y0223*
X06601*
X06608Y02233*
X06613Y02239*
X06616Y02246*
Y02254*
X06613Y02261*
X06608Y02267*
X06601Y0227*
G37*
G36*
X04907Y02243D02*
X04899D01*
X04892Y0224*
X04886Y02235*
X04883Y02227*
Y0222*
X04886Y02212*
X04892Y02207*
X04899Y02204*
X04907*
X04914Y02207*
X04919Y02212*
X04922Y0222*
Y02227*
X04919Y02235*
X04914Y0224*
X04907Y02243*
G37*
G36*
X04671Y0228D02*
X04664D01*
X04656Y02277*
X04651Y02271*
X04648Y02264*
Y02256*
X04651Y02249*
X04656Y02243*
X04657Y02243*
X04658Y02242*
X04658Y02237*
X04654Y02233*
X04651Y02226*
Y02218*
X04654Y0221*
X04659Y02205*
X04667Y02202*
X04674*
X04682Y02205*
X04687Y0221*
X0469Y02218*
Y02226*
X04687Y02233*
X04682Y02238*
X04681Y02239*
X0468Y0224*
X0468Y02244*
X04684Y02249*
X04687Y02256*
Y02264*
X04684Y02271*
X04679Y02277*
X04671Y0228*
G37*
G36*
X06325Y02235D02*
X06317D01*
X0631Y02232*
X06304Y02227*
X06301Y0222*
Y02212*
X06304Y02205*
X0631Y02199*
X06317Y02196*
X06325*
X06332Y02199*
X06338Y02205*
X06341Y02212*
Y0222*
X06338Y02227*
X06332Y02232*
X06325Y02235*
G37*
G36*
X02226Y02265D02*
X02216D01*
X02206Y02263*
X02197Y02258*
X0219Y02251*
X02185Y02242*
X02183Y02232*
Y02222*
X02185Y02213*
X0219Y02204*
X02197Y02197*
X02206Y02192*
X02216Y0219*
X02226*
X02235Y02192*
X02244Y02197*
X02251Y02204*
X02256Y02213*
X02259Y02222*
Y02232*
X02256Y02242*
X02251Y02251*
X02244Y02258*
X02235Y02263*
X02226Y02265*
G37*
G36*
X02126D02*
X02116D01*
X02106Y02263*
X02097Y02258*
X0209Y02251*
X02085Y02242*
X02083Y02232*
Y02222*
X02085Y02213*
X0209Y02204*
X02097Y02197*
X02106Y02192*
X02116Y0219*
X02126*
X02135Y02192*
X02144Y02197*
X02151Y02204*
X02156Y02213*
X02159Y02222*
Y02232*
X02156Y02242*
X02151Y02251*
X02144Y02258*
X02135Y02263*
X02126Y02265*
G37*
G36*
X05408Y02227D02*
X054D01*
X05393Y02224*
X05387Y02218*
X05384Y02211*
Y02203*
X05387Y02196*
X05393Y0219*
X054Y02187*
X05408*
X05415Y0219*
X0542Y02196*
X05423Y02203*
Y02211*
X0542Y02218*
X05415Y02224*
X05408Y02227*
G37*
G36*
X04569Y02223D02*
X04561D01*
X04554Y0222*
X04548Y02214*
X04545Y02207*
Y02199*
X04548Y02192*
X04554Y02186*
X04561Y02183*
X04569*
X04576Y02186*
X04582Y02192*
X04585Y02199*
Y02207*
X04582Y02214*
X04576Y0222*
X04569Y02223*
G37*
G36*
X06755Y02242D02*
X06745D01*
X06736Y0224*
X06728Y02235*
X06722Y02229*
X06717Y02221*
X06715Y02212*
Y02202*
X06717Y02193*
X06722Y02185*
X06728Y02178*
X06736Y02174*
X06745Y02171*
X06755*
X06764Y02174*
X06772Y02178*
X06778Y02185*
X06783Y02193*
X06786Y02202*
Y02212*
X06783Y02221*
X06778Y02229*
X06772Y02235*
X06764Y0224*
X06755Y02242*
G37*
G36*
X06088Y02194D02*
X0608D01*
X06073Y02191*
X06067Y02186*
X06064Y02178*
Y0217*
X06067Y02163*
X06073Y02158*
X0608Y02155*
X06088*
X06095Y02158*
X061Y02163*
X06103Y0217*
Y02178*
X061Y02186*
X06095Y02191*
X06088Y02194*
G37*
G36*
X04672Y02191D02*
X04665D01*
X04657Y02188*
X04652Y02183*
X04649Y02175*
Y02167*
X04652Y0216*
X04657Y02155*
X04665Y02152*
X04672*
X0468Y02155*
X04685Y0216*
X04688Y02167*
Y02175*
X04685Y02183*
X0468Y02188*
X04672Y02191*
G37*
G36*
X05243Y02189D02*
X05235D01*
X05228Y02186*
X05223Y02181*
X0522Y02173*
Y02166*
X05223Y02158*
X05228Y02153*
X05235Y0215*
X05243*
X0525Y02153*
X05256Y02158*
X05259Y02166*
Y02173*
X05256Y02181*
X0525Y02186*
X05243Y02189*
G37*
G36*
X06519Y02165D02*
Y02149D01*
X06535*
X06532Y02156*
X06526Y02162*
X06519Y02165*
G37*
G36*
X06509D02*
X06502Y02162D01*
X06495Y02156*
X06492Y02149*
X06509*
Y02165*
G37*
G36*
X05289Y02188D02*
X05281D01*
X05273Y02185*
X05268Y0218*
X05265Y02172*
Y02165*
X05268Y02157*
X05273Y02152*
X05281Y02149*
X05289*
X05296Y02152*
X05301Y02157*
X05304Y02165*
Y02172*
X05301Y0218*
X05296Y02185*
X05289Y02188*
G37*
G36*
X04624Y02159D02*
Y02143D01*
X04641*
X04638Y0215*
X04632Y02156*
X04624Y02159*
G37*
G36*
X04614D02*
X04607Y02156D01*
X04601Y0215*
X04598Y02143*
X04614*
Y02159*
G37*
G36*
X06197Y02167D02*
X06189D01*
X06182Y02164*
X06176Y02159*
X06173Y02152*
Y02144*
X06176Y02137*
X06182Y02131*
X06189Y02128*
X06197*
X06204Y02131*
X0621Y02137*
X06213Y02144*
Y02152*
X0621Y02159*
X06204Y02164*
X06197Y02167*
G37*
G36*
X06535Y02139D02*
X06519D01*
Y02122*
X06526Y02125*
X06532Y02131*
X06535Y02139*
G37*
G36*
X06509D02*
X06492D01*
X06495Y02131*
X06502Y02125*
X06509Y02122*
Y02139*
G37*
G36*
X04641Y02133D02*
X04624D01*
Y02116*
X04632Y02119*
X04638Y02126*
X04641Y02133*
G37*
G36*
X04614D02*
X04598D01*
X04601Y02126*
X04607Y02119*
X04614Y02116*
Y02133*
G37*
G36*
X02226Y02165D02*
X02216D01*
X02206Y02163*
X02197Y02158*
X0219Y02151*
X02185Y02142*
X02183Y02132*
Y02122*
X02185Y02113*
X0219Y02104*
X02197Y02097*
X02206Y02092*
X02216Y0209*
X02226*
X02235Y02092*
X02244Y02097*
X02251Y02104*
X02256Y02113*
X02259Y02122*
Y02132*
X02256Y02142*
X02251Y02151*
X02244Y02158*
X02235Y02163*
X02226Y02165*
G37*
G36*
X02126D02*
X02116D01*
X02106Y02163*
X02097Y02158*
X0209Y02151*
X02085Y02142*
X02083Y02132*
Y02122*
X02085Y02113*
X0209Y02104*
X02097Y02097*
X02106Y02092*
X02116Y0209*
X02126*
X02135Y02092*
X02144Y02097*
X02151Y02104*
X02156Y02113*
X02159Y02122*
Y02132*
X02156Y02142*
X02151Y02151*
X02144Y02158*
X02135Y02163*
X02126Y02165*
G37*
G36*
X05183Y02123D02*
X05175D01*
X05168Y0212*
X05163Y02115*
X0516Y02107*
Y021*
X05163Y02092*
X05168Y02087*
X05175Y02084*
X05183*
X0519Y02087*
X05196Y02092*
X05199Y021*
Y02107*
X05196Y02115*
X0519Y0212*
X05183Y02123*
G37*
G36*
X07356Y02112D02*
X07349D01*
X07341Y02109*
X07336Y02104*
X07333Y02097*
Y02089*
X07336Y02082*
X07341Y02076*
X07349Y02073*
X07356*
X07364Y02076*
X07369Y02082*
X07372Y02089*
Y02097*
X07369Y02104*
X07364Y02109*
X07356Y02112*
G37*
G36*
X06755Y02144D02*
X06745D01*
X06736Y02141*
X06728Y02137*
X06722Y0213*
X06717Y02122*
X06715Y02113*
Y02104*
X06717Y02095*
X06722Y02087*
X06728Y0208*
X06736Y02075*
X06745Y02073*
X06755*
X06764Y02075*
X06772Y0208*
X06778Y02087*
X06783Y02095*
X06786Y02104*
Y02113*
X06783Y02122*
X06778Y0213*
X06772Y02137*
X06764Y02141*
X06755Y02144*
G37*
G36*
X05486Y02112D02*
X05479D01*
X05471Y02109*
X05466Y02104*
X05463Y02097*
Y02089*
X05466Y02082*
X05471Y02076*
X05479Y02073*
X05486*
X05494Y02076*
X05499Y02082*
X05502Y02089*
Y02097*
X05499Y02104*
X05494Y02109*
X05486Y02112*
G37*
G36*
X06274Y02104D02*
X06266D01*
X06259Y02101*
X06253Y02096*
X0625Y02089*
Y02081*
X06253Y02074*
X06259Y02068*
X06266Y02065*
X06274*
X06281Y02068*
X06287Y02074*
X0629Y02081*
Y02089*
X06287Y02096*
X06281Y02101*
X06274Y02104*
G37*
G36*
X06145Y02098D02*
X06137D01*
X0613Y02095*
X06124Y02089*
X06121Y02082*
Y02074*
X06124Y02067*
X0613Y02061*
X06137Y02058*
X06145*
X06152Y02061*
X06158Y02067*
X06161Y02074*
Y02082*
X06158Y02089*
X06152Y02095*
X06145Y02098*
G37*
G36*
X02656Y02092D02*
X02648D01*
X02641Y02089*
X02635Y02084*
X02632Y02077*
Y02069*
X02635Y02062*
X02641Y02056*
X02648Y02053*
X02656*
X02663Y02056*
X02669Y02062*
X02672Y02069*
Y02077*
X02669Y02084*
X02663Y02089*
X02656Y02092*
G37*
G36*
X06079Y02089D02*
X06071D01*
X06064Y02086*
X06058Y0208*
X06055Y02073*
Y02065*
X06058Y02058*
X06064Y02052*
X06071Y02049*
X06079*
X06086Y02052*
X06092Y02058*
X06095Y02065*
Y02073*
X06092Y0208*
X06086Y02086*
X06079Y02089*
G37*
G36*
X07305Y02085D02*
X07297D01*
X0729Y02082*
X07285Y02076*
X07282Y02069*
Y02061*
X07285Y02054*
X0729Y02048*
X07297Y02045*
X07305*
X07312Y02048*
X07318Y02054*
X07321Y02061*
Y02069*
X07318Y02076*
X07312Y02082*
X07305Y02085*
G37*
G36*
X04821Y02081D02*
X04813D01*
X04806Y02078*
X048Y02072*
X04797Y02065*
Y02057*
X048Y0205*
X04806Y02044*
X04813Y02041*
X04821*
X04828Y02044*
X04834Y0205*
X04837Y02057*
Y02065*
X04834Y02072*
X04828Y02078*
X04821Y02081*
G37*
G36*
X06435Y02073D02*
X06427D01*
X0642Y0207*
X06415Y02064*
X06412Y02057*
Y02049*
X06415Y02042*
X0642Y02037*
X06427Y02034*
X06435*
X06442Y02037*
X06448Y02042*
X06451Y02049*
Y02057*
X06448Y02064*
X06442Y0207*
X06435Y02073*
G37*
G36*
X07097Y02069D02*
X07089D01*
X07082Y02066*
X07076Y02061*
X07073Y02053*
Y02045*
X07076Y02038*
X07082Y02033*
X07089Y0203*
X07097*
X07104Y02033*
X07109Y02038*
X07112Y02045*
Y02053*
X07109Y02061*
X07104Y02066*
X07097Y02069*
G37*
G36*
X07147Y02068D02*
X07139D01*
X07132Y02065*
X07126Y02059*
X07123Y02052*
Y02044*
X07126Y02037*
X07132Y02031*
X07139Y02028*
X07147*
X07154Y02031*
X07159Y02037*
X07162Y02044*
Y02052*
X07159Y02059*
X07154Y02065*
X07147Y02068*
G37*
G36*
X07047Y02066D02*
X07039D01*
X07032Y02063*
X07026Y02058*
X07023Y02051*
Y02043*
X07026Y02035*
X07032Y0203*
X07039Y02027*
X07047*
X07054Y0203*
X07059Y02035*
X07062Y02043*
Y02051*
X07059Y02058*
X07054Y02063*
X07047Y02066*
G37*
G36*
X06372Y02065D02*
X06364D01*
X06357Y02062*
X06352Y02057*
X06349Y02049*
Y02042*
X06352Y02034*
X06357Y02029*
X06364Y02026*
X06372*
X06379Y02029*
X06385Y02034*
X06388Y02042*
Y02049*
X06385Y02057*
X06379Y02062*
X06372Y02065*
G37*
G36*
X06321Y02061D02*
X06313D01*
X06306Y02058*
X063Y02053*
X06297Y02045*
Y02038*
X063Y0203*
X06306Y02025*
X06313Y02022*
X06321*
X06328Y02025*
X06334Y0203*
X06337Y02038*
Y02045*
X06334Y02053*
X06328Y02058*
X06321Y02061*
G37*
G36*
X05262D02*
X05254D01*
X05247Y02058*
X05241Y02053*
X05238Y02045*
Y02038*
X05241Y0203*
X05247Y02025*
X05254Y02022*
X05262*
X05269Y02025*
X05275Y0203*
X05278Y02038*
Y02045*
X05275Y02053*
X05269Y02058*
X05262Y02061*
G37*
G36*
X02603Y02054D02*
X02595D01*
X02588Y02051*
X02582Y02045*
X02579Y02038*
Y0203*
X02582Y02023*
X02588Y02017*
X02595Y02014*
X02603*
X0261Y02017*
X02615Y02023*
X02618Y0203*
Y02038*
X02615Y02045*
X0261Y02051*
X02603Y02054*
G37*
G36*
X06197Y02052D02*
X06189D01*
X06182Y02049*
X06176Y02043*
X06173Y02036*
Y02028*
X06176Y02021*
X06182Y02016*
X06189Y02013*
X06197*
X06204Y02016*
X06209Y02021*
X06212Y02028*
Y02036*
X06209Y02043*
X06204Y02049*
X06197Y02052*
G37*
G36*
X02226Y02065D02*
X02216D01*
X02206Y02063*
X02197Y02058*
X0219Y02051*
X02185Y02042*
X02183Y02032*
Y02022*
X02185Y02013*
X0219Y02004*
X02197Y01997*
X02206Y01992*
X02216Y0199*
X02226*
X02235Y01992*
X02244Y01997*
X02251Y02004*
X02256Y02013*
X02259Y02022*
Y02032*
X02256Y02042*
X02251Y02051*
X02244Y02058*
X02235Y02063*
X02226Y02065*
G37*
G36*
X02126D02*
X02116D01*
X02106Y02063*
X02097Y02058*
X0209Y02051*
X02085Y02042*
X02083Y02032*
Y02022*
X02085Y02013*
X0209Y02004*
X02097Y01997*
X02106Y01992*
X02116Y0199*
X02126*
X02135Y01992*
X02144Y01997*
X02151Y02004*
X02156Y02013*
X02159Y02022*
Y02032*
X02156Y02042*
X02151Y02051*
X02144Y02058*
X02135Y02063*
X02126Y02065*
G37*
G36*
X0433Y02004D02*
Y01987D01*
X04346*
X04343Y01995*
X04337Y02001*
X0433Y02004*
G37*
G36*
X0432D02*
X04313Y02001D01*
X04306Y01995*
X04303Y01987*
X0432*
Y02004*
G37*
G36*
X04986Y02018D02*
X04979D01*
X04971Y02015*
X04966Y02009*
X04963Y02002*
Y01994*
X04966Y01987*
X04971Y01981*
X04979Y01978*
X04986*
X04994Y01981*
X04999Y01987*
X05002Y01994*
Y02002*
X04999Y02009*
X04994Y02015*
X04986Y02018*
G37*
G36*
X05185Y02017D02*
X05177D01*
X05169Y02014*
X05164Y02009*
X05161Y02001*
Y01994*
X05164Y01986*
X05169Y01981*
X05177Y01978*
X05185*
X05192Y01981*
X05197Y01986*
X052Y01994*
Y02001*
X05197Y02009*
X05192Y02014*
X05185Y02017*
G37*
G36*
X06755Y02045D02*
X06745D01*
X06736Y02043*
X06728Y02038*
X06722Y02032*
X06717Y02024*
X06715Y02015*
Y02005*
X06717Y01996*
X06722Y01988*
X06728Y01982*
X06736Y01977*
X06745Y01975*
X06755*
X06764Y01977*
X06772Y01982*
X06778Y01988*
X06783Y01996*
X06786Y02005*
Y02015*
X06783Y02024*
X06778Y02032*
X06772Y02038*
X06764Y02043*
X06755Y02045*
G37*
G36*
X04919Y02014D02*
X04912D01*
X04904Y02011*
X04899Y02005*
X04896Y01998*
Y0199*
X04899Y01983*
X04904Y01978*
X04912Y01975*
X04919*
X04927Y01978*
X04932Y01983*
X04935Y0199*
Y01998*
X04932Y02005*
X04927Y02011*
X04919Y02014*
G37*
G36*
X0524Y02013D02*
X05232D01*
X05225Y0201*
X05219Y02004*
X05216Y01997*
Y01989*
X05219Y01982*
X05225Y01976*
X05232Y01973*
X0524*
X05247Y01976*
X05252Y01982*
X05255Y01989*
Y01997*
X05252Y02004*
X05247Y0201*
X0524Y02013*
G37*
G36*
X05045Y02012D02*
X05038D01*
X0503Y02009*
X05025Y02003*
X05022Y01996*
Y01988*
X05025Y01981*
X0503Y01976*
X05038Y01973*
X05045*
X05053Y01976*
X05058Y01981*
X05061Y01988*
Y01996*
X05058Y02003*
X05053Y02009*
X05045Y02012*
G37*
G36*
X04495Y01988D02*
Y01972D01*
X04512*
X04509Y01979*
X04503Y01985*
X04495Y01988*
G37*
G36*
X04485D02*
X04478Y01985D01*
X04472Y01979*
X04469Y01972*
X04485*
Y01988*
G37*
G36*
X05112Y02008D02*
X05104D01*
X05097Y02005*
X05092Y01999*
X05089Y01992*
Y01984*
X05092Y01977*
X05097Y01972*
X05104Y01969*
X05112*
X0512Y01972*
X05125Y01977*
X05128Y01984*
Y01992*
X05125Y01999*
X0512Y02005*
X05112Y02008*
G37*
G36*
X02782Y02005D02*
X02774D01*
X02767Y02002*
X02762Y01996*
X02759Y01989*
Y01981*
X02762Y01974*
X02767Y01969*
X02774Y01966*
X02782*
X02789Y01969*
X02795Y01974*
X02798Y01981*
Y01989*
X02795Y01996*
X02789Y02002*
X02782Y02005*
G37*
G36*
X04845Y02002D02*
X04837D01*
X0483Y01999*
X04824Y01994*
X04821Y01986*
Y01979*
X04824Y01971*
X0483Y01966*
X04837Y01963*
X04845*
X04852Y01966*
X04857Y01971*
X0486Y01979*
Y01986*
X04857Y01994*
X04852Y01999*
X04845Y02002*
G37*
G36*
X04346Y01977D02*
X0433D01*
Y01961*
X04337Y01964*
X04343Y0197*
X04346Y01977*
G37*
G36*
X0432D02*
X04303D01*
X04306Y0197*
X04313Y01964*
X0432Y01961*
Y01977*
G37*
G36*
X054Y0199D02*
X05392D01*
X05385Y01987*
X05379Y01982*
X05376Y01975*
Y01967*
X05379Y01959*
X05385Y01954*
X05392Y01951*
X054*
X05407Y01954*
X05412Y01959*
X05415Y01967*
Y01975*
X05412Y01982*
X05407Y01987*
X054Y0199*
G37*
G36*
X04512Y01962D02*
X04495D01*
Y01945*
X04503Y01948*
X04509Y01954*
X04512Y01962*
G37*
G36*
X04485D02*
X04469D01*
X04472Y01954*
X04478Y01948*
X04485Y01945*
Y01962*
G37*
G36*
X06096Y01983D02*
X06088D01*
X06081Y0198*
X06075Y01975*
X06072Y01968*
Y0196*
X06075Y01953*
X06081Y01947*
X06088Y01944*
X06096*
X06103Y01947*
X06108Y01953*
X06111Y0196*
Y01968*
X06108Y01975*
X06103Y0198*
X06096Y01983*
G37*
G36*
X06612Y01978D02*
X06604D01*
X06597Y01975*
X06592Y0197*
X06589Y01963*
Y01955*
X06592Y01948*
X06597Y01942*
X06604Y01939*
X06612*
X0662Y01942*
X06625Y01948*
X06628Y01955*
Y01963*
X06625Y0197*
X0662Y01975*
X06612Y01978*
G37*
G36*
X05946Y01975D02*
X05938D01*
X05931Y01972*
X05925Y01966*
X05922Y01959*
Y01951*
X05925Y01944*
X05931Y01938*
X05938Y01935*
X05946*
X05953Y01938*
X05959Y01944*
X05962Y01951*
Y01959*
X05959Y01966*
X05953Y01972*
X05946Y01975*
G37*
G36*
X02646Y01966D02*
X02638D01*
X0263Y01963*
X02625Y01958*
X02622Y0195*
Y01942*
X02625Y01935*
X0263Y0193*
X02638Y01927*
X02646*
X02653Y0193*
X02658Y01935*
X02661Y01942*
Y0195*
X02658Y01958*
X02653Y01963*
X02646Y01966*
G37*
G36*
X05045Y01951D02*
X05038D01*
X0503Y01948*
X05025Y01942*
X05022Y01935*
Y01927*
X05025Y0192*
X0503Y01915*
X05038Y01912*
X05045*
X05053Y01915*
X05058Y0192*
X05061Y01927*
Y01935*
X05058Y01942*
X05053Y01948*
X05045Y01951*
G37*
G36*
X04976Y01947D02*
X04968D01*
X04961Y01944*
X04955Y01938*
X04952Y01931*
Y01923*
X04955Y01916*
X04961Y01911*
X04968Y01908*
X04976*
X04983Y01911*
X04989Y01916*
X04992Y01923*
Y01931*
X04989Y01938*
X04983Y01944*
X04976Y01947*
G37*
G36*
X04616D02*
X04608D01*
X04601Y01944*
X04596Y01938*
X04593Y01931*
Y01923*
X04596Y01916*
X04601Y01911*
X04608Y01908*
X04616*
X04623Y01911*
X04629Y01916*
X04632Y01923*
Y01931*
X04629Y01938*
X04623Y01944*
X04616Y01947*
G37*
G36*
X06475Y01935D02*
X06467D01*
X06459Y01932*
X06454Y01927*
X06451Y01919*
Y01912*
X06454Y01904*
X06459Y01899*
X06467Y01896*
X06475*
X06482Y01899*
X06487Y01904*
X0649Y01912*
Y01919*
X06487Y01927*
X06482Y01932*
X06475Y01935*
G37*
G36*
X06386Y01931D02*
X06378D01*
X06371Y01928*
X06365Y01923*
X06362Y01915*
Y01908*
X06365Y019*
X06371Y01895*
X06378Y01892*
X06386*
X06393Y01895*
X06399Y019*
X06401Y01905*
X06403Y01906*
X06406Y01905*
X06409Y01898*
X06414Y01893*
X06421Y0189*
X06429*
X06436Y01893*
X06442Y01898*
X06445Y01906*
Y01914*
X06442Y01921*
X06436Y01926*
X06429Y01929*
X06421*
X06414Y01926*
X06409Y01921*
X06407Y01916*
X06404Y01916*
X06401Y01916*
X06399Y01923*
X06393Y01928*
X06386Y01931*
G37*
G36*
X02226Y01965D02*
X02216D01*
X02206Y01963*
X02197Y01958*
X0219Y01951*
X02185Y01942*
X02183Y01932*
Y01922*
X02185Y01913*
X0219Y01904*
X02197Y01897*
X02206Y01892*
X02216Y0189*
X02226*
X02235Y01892*
X02244Y01897*
X02251Y01904*
X02256Y01913*
X02259Y01922*
Y01932*
X02256Y01942*
X02251Y01951*
X02244Y01958*
X02235Y01963*
X02226Y01965*
G37*
G36*
X02126D02*
X02116D01*
X02106Y01963*
X02097Y01958*
X0209Y01951*
X02085Y01942*
X02083Y01932*
Y01922*
X02085Y01913*
X0209Y01904*
X02097Y01897*
X02106Y01892*
X02116Y0189*
X02126*
X02135Y01892*
X02144Y01897*
X02151Y01904*
X02156Y01913*
X02159Y01922*
Y01932*
X02156Y01942*
X02151Y01951*
X02144Y01958*
X02135Y01963*
X02126Y01965*
G37*
G36*
X04919Y01896D02*
X04912D01*
X04904Y01893*
X04899Y01887*
X04898Y01885*
X04896Y01884*
X04892Y01884*
X04887Y01889*
X0488Y01892*
X04872*
X04865Y01889*
X04859Y01883*
X04856Y01876*
Y01868*
X04859Y01861*
X04865Y01856*
X04872Y01853*
X0488*
X04887Y01856*
X04893Y01861*
X04894Y01864*
X04896Y01864*
X049Y01864*
X04904Y01859*
X04912Y01856*
X04919*
X04927Y01859*
X04932Y01865*
X04935Y01872*
Y0188*
X04932Y01887*
X04927Y01893*
X04919Y01896*
G37*
G36*
X04786Y01884D02*
Y01868D01*
X04803*
X04799Y01875*
X04793Y01881*
X04786Y01884*
G37*
G36*
X04776D02*
X04769Y01881D01*
X04763Y01875*
X04759Y01868*
X04776*
Y01884*
G37*
G36*
X04972Y01882D02*
Y01865D01*
X04988*
X04985Y01873*
X04979Y01879*
X04972Y01882*
G37*
G36*
X04962D02*
X04954Y01879D01*
X04948Y01873*
X04945Y01865*
X04962*
Y01882*
G37*
G36*
X05546Y01899D02*
X05539D01*
X05531Y01896*
X05526Y0189*
X05523Y01883*
Y01875*
X05526Y01868*
X05531Y01862*
X05539Y01859*
X05546*
X05554Y01862*
X05559Y01868*
X05562Y01875*
Y01883*
X05559Y0189*
X05554Y01896*
X05546Y01899*
G37*
G36*
X05845Y01892D02*
X05837D01*
X0583Y01889*
X05824Y01883*
X05821Y01876*
Y01868*
X05824Y01861*
X0583Y01856*
X05837Y01853*
X05845*
X05852Y01856*
X05857Y01861*
X0586Y01868*
Y01876*
X05857Y01883*
X05852Y01889*
X05845Y01892*
G37*
G36*
X04803Y01858D02*
X04786D01*
Y01841*
X04793Y01844*
X04799Y01851*
X04803Y01858*
G37*
G36*
X04776D02*
X04759D01*
X04763Y01851*
X04769Y01844*
X04776Y01841*
Y01858*
G37*
G36*
X05951Y0188D02*
X05943D01*
X05936Y01877*
X0593Y01872*
X05927Y01864*
Y01856*
X0593Y01849*
X05936Y01844*
X05943Y01841*
X05951*
X05958Y01844*
X05964Y01849*
X05967Y01856*
Y01864*
X05964Y01872*
X05958Y01877*
X05951Y0188*
G37*
G36*
X05254Y01868D02*
X05246D01*
X05239Y01865*
X05233Y0186*
X0523Y01852*
Y01845*
X05233Y01837*
X05239Y01832*
X05246Y01829*
X05254*
X05261Y01832*
X05267Y01837*
X0527Y01845*
Y01852*
X05267Y0186*
X05261Y01865*
X05254Y01868*
G37*
G36*
X05199Y01867D02*
X05191D01*
X05184Y01864*
X05178Y01859*
X05175Y01851*
Y01844*
X05178Y01836*
X05184Y01831*
X05191Y01828*
X05199*
X05206Y01831*
X05211Y01836*
X05214Y01844*
Y01851*
X05211Y01859*
X05206Y01864*
X05199Y01867*
G37*
G36*
X06463Y0186D02*
X06455D01*
X06448Y01857*
X06442Y01852*
X06439Y01845*
Y01837*
X06442Y0183*
X06448Y01824*
X06455Y01821*
X06463*
X0647Y01824*
X06475Y0183*
X06478Y01837*
Y01845*
X06475Y01852*
X0647Y01857*
X06463Y0186*
G37*
G36*
X06147Y01857D02*
X06139D01*
X06132Y01854*
X06126Y01849*
X06123Y01842*
Y01834*
X06126Y01827*
X06132Y01821*
X06139Y01818*
X06147*
X06154Y01821*
X0616Y01827*
X06163Y01834*
Y01842*
X0616Y01849*
X06154Y01854*
X06147Y01857*
G37*
G36*
X05789Y01845D02*
X05782D01*
X05774Y01842*
X05769Y01836*
X05766Y01829*
Y01821*
X05769Y01814*
X05774Y01808*
X05782Y01805*
X05789*
X05797Y01808*
X05802Y01814*
X05805Y01821*
Y01829*
X05802Y01836*
X05797Y01842*
X05789Y01845*
G37*
G36*
X06286Y01837D02*
X06278D01*
X0627Y01834*
X06265Y01828*
X06262Y01821*
Y01813*
X06265Y01806*
X0627Y018*
X06278Y01797*
X06286*
X06293Y018*
X06298Y01806*
X06301Y01813*
Y01821*
X06298Y01828*
X06293Y01834*
X06286Y01837*
G37*
G36*
X06356Y01834D02*
X06349D01*
X06341Y01831*
X06336Y01826*
X06333Y01818*
Y01811*
X06336Y01803*
X06341Y01798*
X06349Y01795*
X06356*
X06364Y01798*
X06369Y01803*
X06372Y01811*
Y01818*
X06369Y01826*
X06364Y01831*
X06356Y01834*
G37*
G36*
X02226Y01865D02*
X02216D01*
X02206Y01863*
X02197Y01858*
X0219Y01851*
X02185Y01842*
X02183Y01832*
Y01822*
X02185Y01813*
X0219Y01804*
X02197Y01797*
X02206Y01792*
X02216Y0179*
X02226*
X02235Y01792*
X02244Y01797*
X02251Y01804*
X02256Y01813*
X02259Y01822*
Y01832*
X02256Y01842*
X02251Y01851*
X02244Y01858*
X02235Y01863*
X02226Y01865*
G37*
G36*
X02126D02*
X02116D01*
X02106Y01863*
X02097Y01858*
X0209Y01851*
X02085Y01842*
X02083Y01832*
Y01822*
X02085Y01813*
X0209Y01804*
X02097Y01797*
X02106Y01792*
X02116Y0179*
X02126*
X02135Y01792*
X02144Y01797*
X02151Y01804*
X02156Y01813*
X02159Y01822*
Y01832*
X02156Y01842*
X02151Y01851*
X02144Y01858*
X02135Y01863*
X02126Y01865*
G37*
G36*
X06424Y01804D02*
Y01788D01*
X06441*
X06438Y01795*
X06432Y01801*
X06424Y01804*
G37*
G36*
X06414D02*
X06407Y01801D01*
X06401Y01795*
X06398Y01788*
X06414*
Y01804*
G37*
G36*
X05427Y01817D02*
X05419D01*
X05412Y01814*
X05407Y01809*
X05404Y01801*
Y01793*
X05407Y01786*
X05412Y01781*
X05419Y01778*
X05427*
X05435Y01781*
X0544Y01786*
X05443Y01793*
Y01801*
X0544Y01809*
X05435Y01814*
X05427Y01817*
G37*
G36*
X06462Y01791D02*
X06454Y01788D01*
X06448Y01782*
X06447Y01779*
X06446Y01777*
X06443Y01778*
X06424*
Y01761*
X06432Y01764*
X06438Y0177*
X06439Y01774*
X0644Y01776*
X06443Y01775*
X06462*
Y01791*
G37*
G36*
X06472D02*
Y01775D01*
X06488*
X06485Y01782*
X06479Y01788*
X06472Y01791*
G37*
G36*
X04423Y01904D02*
X04416D01*
X04408Y01901*
X04403Y01895*
X044Y01888*
Y0188*
X04403Y01873*
X04408Y01867*
X04416Y01864*
X04422*
X04488Y01799*
X04492Y01796*
X04496Y01795*
X04942*
X04946Y01794*
Y01791*
Y01786*
X04949Y01779*
X04955Y01774*
X04962Y01771*
X0497*
X04977Y01774*
X04983Y01779*
X04986Y01786*
Y01794*
X04983Y01802*
X04978Y01806*
X04979Y01811*
X04979Y01811*
X05017*
X0502Y01806*
X05018Y01801*
Y01794*
X05021Y01786*
X05026Y01781*
X05033Y01778*
X05041*
X05049Y01781*
X05054Y01786*
X05057Y01794*
Y01801*
X05055Y01806*
X05058Y01811*
X05109*
X05123Y01797*
Y01791*
X05126Y01783*
X05132Y01778*
X05139Y01775*
X05147*
X05154Y01778*
X05155Y01779*
X05161Y01778*
X05163Y01774*
X05168Y01769*
X05175Y01766*
X05183*
X0519Y01769*
X05196Y01774*
X05199Y01782*
Y0179*
X05196Y01797*
X0519Y01802*
X05183Y01805*
X05175*
X05168Y01802*
X05167Y01801*
X05161Y01802*
X0516Y01806*
X05154Y01811*
X05147Y01814*
X0514*
X05123Y01832*
X05119Y01834*
X05114Y01835*
X05103*
X05103Y01836*
X05101Y0184*
X05106Y01845*
X05109Y01852*
Y0186*
X05106Y01867*
X051Y01873*
X05093Y01876*
X05085*
X05078Y01873*
X05073Y01867*
X0507Y0186*
Y01852*
X05073Y01845*
X05077Y0184*
X05076Y01836*
X05076Y01835*
X04976*
X04975Y0184*
X04979Y01842*
X04985Y01848*
X04988Y01855*
X04945*
X04948Y01848*
X04954Y01842*
X0496Y0184*
X04959Y01835*
X04958Y01834*
X04954Y01832*
X04942Y01819*
X04865*
X04862Y01824*
X04864Y01829*
Y01837*
X04861Y01844*
X04856Y0185*
X04849Y01853*
X04841*
X04833Y0185*
X04828Y01844*
X04825Y01837*
Y01829*
X04827Y01824*
X04824Y01819*
X04501*
X04439Y01881*
Y01888*
X04436Y01895*
X04431Y01901*
X04423Y01904*
G37*
G36*
X06414Y01778D02*
X06398D01*
X06401Y0177*
X06407Y01764*
X06414Y01761*
Y01778*
G37*
G36*
X06944Y01772D02*
Y01755D01*
X06961*
X06958Y01763*
X06951Y01769*
X06944Y01772*
G37*
G36*
X06934D02*
X06927Y01769D01*
X06921Y01763*
X06918Y01755*
X06934*
Y01772*
G37*
G36*
X06285Y01789D02*
X06277D01*
X0627Y01786*
X06264Y0178*
X06261Y01773*
Y01765*
X06264Y01758*
X0627Y01752*
X06277Y01749*
X06285*
X06292Y01752*
X06298Y01758*
X06301Y01765*
Y01773*
X06298Y0178*
X06292Y01786*
X06285Y01789*
G37*
G36*
X06488Y01765D02*
X06472D01*
Y01748*
X06479Y01751*
X06485Y01757*
X06488Y01765*
G37*
G36*
X06462D02*
X06445D01*
X06448Y01757*
X06454Y01751*
X06462Y01748*
Y01765*
G37*
G36*
X07868Y01789D02*
X07837D01*
X0783Y01788*
X07824Y01785*
X07819Y01781*
X07814Y01776*
X07812Y0177*
X07811Y01763*
X07812Y01756*
X07814Y0175*
X07819Y01745*
X07824Y01741*
X0783Y01738*
X07837Y01737*
X07868*
X07875Y01738*
X07881Y01741*
X07887Y01745*
X07891Y0175*
X07893Y01756*
X07894Y01763*
X07893Y0177*
X07891Y01776*
X07887Y01781*
X07881Y01785*
X07875Y01788*
X07868Y01789*
G37*
G36*
X0771D02*
X07667D01*
X0766Y01788*
X07654Y01785*
X07648Y01781*
X07644Y01776*
X07642Y0177*
X07641Y01763*
X07642Y01756*
X07644Y0175*
X07648Y01745*
X07654Y01741*
X0766Y01738*
X07667Y01737*
X0771*
X07717Y01738*
X07723Y01741*
X07728Y01745*
X07732Y0175*
X07735Y01756*
X07736Y01763*
X07735Y0177*
X07732Y01776*
X07728Y01781*
X07723Y01785*
X07717Y01788*
X0771Y01789*
G37*
G36*
X05396Y01774D02*
X05388D01*
X05381Y01771*
X05375Y01765*
X05372Y01758*
Y0175*
X05375Y01743*
X05381Y01737*
X05388Y01734*
X05396*
X05403Y01737*
X05409Y01743*
X05412Y0175*
Y01758*
X05409Y01765*
X05403Y01771*
X05396Y01774*
G37*
G36*
X06961Y01745D02*
X06944D01*
Y01729*
X06951Y01732*
X06958Y01738*
X06961Y01745*
G37*
G36*
X06934D02*
X06918D01*
X06921Y01738*
X06927Y01732*
X06934Y01729*
Y01745*
G37*
G36*
X03904Y01758D02*
X03896D01*
X03889Y01755*
X03883Y01749*
X0388Y01742*
Y01734*
X03883Y01727*
X03889Y01722*
X03896Y01719*
X03904*
X03911Y01722*
X03916Y01727*
X03919Y01734*
Y01742*
X03916Y01749*
X03911Y01755*
X03904Y01758*
G37*
G36*
X06318Y01733D02*
X06311D01*
X06303Y0173*
X06298Y01725*
X06295Y01718*
Y0171*
X06298Y01703*
X06303Y01697*
X06311Y01694*
X06318*
X06326Y01697*
X06331Y01703*
X06334Y0171*
Y01718*
X06331Y01725*
X06326Y0173*
X06318Y01733*
G37*
G36*
X06163Y01729D02*
X06155D01*
X06147Y01726*
X06142Y01721*
X06139Y01714*
Y01706*
X06142Y01699*
X06147Y01693*
X06155Y0169*
X06163*
X0617Y01693*
X06175Y01699*
X06178Y01706*
Y01714*
X06175Y01721*
X0617Y01726*
X06163Y01729*
G37*
G36*
X02226Y01765D02*
X02216D01*
X02206Y01763*
X02197Y01758*
X0219Y01751*
X02185Y01742*
X02183Y01732*
Y01722*
X02185Y01713*
X0219Y01704*
X02197Y01697*
X02206Y01692*
X02216Y0169*
X02226*
X02235Y01692*
X02244Y01697*
X02251Y01704*
X02256Y01713*
X02259Y01722*
Y01732*
X02256Y01742*
X02251Y01751*
X02244Y01758*
X02235Y01763*
X02226Y01765*
G37*
G36*
X02126D02*
X02116D01*
X02106Y01763*
X02097Y01758*
X0209Y01751*
X02085Y01742*
X02083Y01732*
Y01722*
X02085Y01713*
X0209Y01704*
X02097Y01697*
X02106Y01692*
X02116Y0169*
X02126*
X02135Y01692*
X02144Y01697*
X02151Y01704*
X02156Y01713*
X02159Y01722*
Y01732*
X02156Y01742*
X02151Y01751*
X02144Y01758*
X02135Y01763*
X02126Y01765*
G37*
G36*
X07712Y01726D02*
X07704D01*
X07696Y01723*
X07691Y01718*
X07688Y0171*
Y01703*
X07691Y01695*
X07696Y0169*
X07704Y01687*
X07712*
X07719Y0169*
X07724Y01695*
X07727Y01703*
Y0171*
X07724Y01718*
X07719Y01723*
X07712Y01726*
G37*
G36*
X03943Y01723D02*
X03935D01*
X03928Y0172*
X03922Y01714*
X03919Y01707*
Y01699*
X03922Y01692*
X03928Y01686*
X03935Y01683*
X03943*
X0395Y01686*
X03956Y01692*
X03959Y01699*
Y01707*
X03956Y01714*
X0395Y0172*
X03943Y01723*
G37*
G36*
X04892Y01683D02*
X04884D01*
X04877Y0168*
X04871Y01675*
X04868Y01667*
Y0166*
X04871Y01652*
X04877Y01647*
X04884Y01644*
X04892*
X04899Y01647*
X04905Y01652*
X04908Y0166*
Y01667*
X04905Y01675*
X04899Y0168*
X04892Y01683*
G37*
G36*
X06564Y01677D02*
X06557D01*
X06549Y01674*
X06544Y01669*
X06541Y01662*
Y01654*
X06544Y01646*
X06549Y01641*
X06557Y01638*
X06564*
X06572Y01641*
X06577Y01646*
X0658Y01654*
Y01662*
X06577Y01669*
X06572Y01674*
X06564Y01677*
G37*
G36*
X04456Y01739D02*
X04448D01*
X04441Y01736*
X04436Y0173*
X04433Y01723*
Y01715*
X04436Y01708*
X04441Y01702*
X04448Y01699*
X04456*
X04463Y01702*
X04467Y01706*
X05107*
X05125Y01688*
Y01684*
X05124Y01683*
X05121Y01676*
Y01668*
X05124Y01661*
X05129Y01655*
X05136Y01652*
X05144*
X05147Y01653*
X05149Y01651*
X05151Y0165*
Y01642*
X05154Y01635*
X0516Y01629*
X05167Y01626*
X05175*
X05182Y01629*
X05187Y01635*
X0519Y01642*
Y0165*
X05187Y01657*
X05182Y01663*
X05175Y01666*
X05167*
X05164Y01665*
X05162Y01666*
X0516Y01668*
Y01676*
X05157Y01683*
X05151Y01688*
X05151Y01689*
Y01693*
X0515Y01698*
X05147Y01703*
X05121Y01728*
X05117Y01731*
X05112Y01732*
X04467*
X04463Y01736*
X04456Y01739*
G37*
G36*
X05821Y0164D02*
X05813D01*
X05806Y01637*
X058Y01631*
X05797Y01624*
Y01616*
X058Y01609*
X05806Y01604*
X05813Y01601*
X05821*
X05828Y01604*
X05834Y01609*
X05837Y01616*
Y01624*
X05834Y01631*
X05828Y01637*
X05821Y0164*
G37*
G36*
X05042Y01674D02*
X05035D01*
X05027Y01671*
X05022Y01666*
X05019Y01659*
Y01651*
X05022Y01644*
X05027Y01638*
X05035Y01635*
X05037*
X05039Y0163*
X05037Y01627*
X05034Y0162*
Y01612*
X05037Y01605*
X05042Y016*
X05049Y01597*
X05057*
X05064Y016*
X0507Y01605*
X05073Y01612*
Y0162*
X0507Y01627*
X05064Y01633*
X05057Y01636*
X05055*
X05053Y01641*
X05055Y01644*
X05058Y01651*
Y01659*
X05055Y01666*
X0505Y01671*
X05042Y01674*
G37*
G36*
X04905Y01636D02*
X04897D01*
X0489Y01633*
X04884Y01627*
X04881Y0162*
Y01612*
X04884Y01605*
X0489Y016*
X04897Y01597*
X04905*
X04912Y016*
X04917Y01605*
X0492Y01612*
Y0162*
X04917Y01627*
X04912Y01633*
X04905Y01636*
G37*
G36*
X04979Y01634D02*
X04971D01*
X04964Y01631*
X04958Y01626*
X04955Y01619*
Y01611*
X04958Y01604*
X04964Y01598*
X04971Y01595*
X04979*
X04986Y01598*
X04992Y01604*
X04995Y01611*
Y01619*
X04992Y01626*
X04986Y01631*
X04979Y01634*
G37*
G36*
X02226Y01665D02*
X02216D01*
X02206Y01663*
X02197Y01658*
X0219Y01651*
X02185Y01642*
X02183Y01632*
Y01622*
X02185Y01613*
X0219Y01604*
X02197Y01597*
X02206Y01592*
X02216Y0159*
X02226*
X02235Y01592*
X02244Y01597*
X02251Y01604*
X02256Y01613*
X02259Y01622*
Y01632*
X02256Y01642*
X02251Y01651*
X02244Y01658*
X02235Y01663*
X02226Y01665*
G37*
G36*
X02126D02*
X02116D01*
X02106Y01663*
X02097Y01658*
X0209Y01651*
X02085Y01642*
X02083Y01632*
Y01622*
X02085Y01613*
X0209Y01604*
X02097Y01597*
X02106Y01592*
X02116Y0159*
X02126*
X02135Y01592*
X02144Y01597*
X02151Y01604*
X02156Y01613*
X02159Y01622*
Y01632*
X02156Y01642*
X02151Y01651*
X02144Y01658*
X02135Y01663*
X02126Y01665*
G37*
G36*
X04786Y01577D02*
X04778D01*
X0477Y01574*
X04765Y01568*
X04762Y01561*
Y01553*
X04765Y01546*
X0477Y01541*
X04778Y01538*
X04786*
X04793Y01541*
X04798Y01546*
X04801Y01553*
Y01561*
X04798Y01568*
X04793Y01574*
X04786Y01577*
G37*
G36*
X05868Y01569D02*
X0586D01*
X05853Y01566*
X05848Y01561*
X05845Y01553*
Y01545*
X05848Y01538*
X05853Y01533*
X0586Y0153*
X05868*
X05875Y01533*
X05881Y01538*
X05884Y01545*
Y01553*
X05881Y01561*
X05875Y01566*
X05868Y01569*
G37*
G36*
X05135Y01548D02*
X05127D01*
X0512Y01545*
X05115Y01539*
X05112Y01532*
Y01524*
X05115Y01517*
X0512Y01511*
X05127Y01508*
X05135*
X05143Y01511*
X05148Y01517*
X05151Y01524*
Y01532*
X05148Y01539*
X05143Y01545*
X05135Y01548*
G37*
G36*
X02226Y01565D02*
X02216D01*
X02206Y01563*
X02197Y01558*
X0219Y01551*
X02185Y01542*
X02183Y01532*
Y01522*
X02185Y01513*
X0219Y01504*
X02197Y01497*
X02206Y01492*
X02216Y0149*
X02226*
X02235Y01492*
X02244Y01497*
X02251Y01504*
X02256Y01513*
X02259Y01522*
Y01532*
X02256Y01542*
X02251Y01551*
X02244Y01558*
X02235Y01563*
X02226Y01565*
G37*
G36*
X02126D02*
X02116D01*
X02106Y01563*
X02097Y01558*
X0209Y01551*
X02085Y01542*
X02083Y01532*
Y01522*
X02085Y01513*
X0209Y01504*
X02097Y01497*
X02106Y01492*
X02116Y0149*
X02126*
X02135Y01492*
X02144Y01497*
X02151Y01504*
X02156Y01513*
X02159Y01522*
Y01532*
X02156Y01542*
X02151Y01551*
X02144Y01558*
X02135Y01563*
X02126Y01565*
G37*
G36*
X0498Y01526D02*
X04972D01*
X04965Y01523*
X04959Y01518*
X04956Y0151*
Y01502*
X04959Y01495*
X04965Y0149*
X04972Y01487*
X0498*
X04987Y0149*
X04993Y01495*
X04996Y01502*
Y0151*
X04993Y01518*
X04987Y01523*
X0498Y01526*
G37*
G36*
X0716Y0151D02*
X07152D01*
X07145Y01507*
X07139Y01501*
X07136Y01494*
Y01486*
X07139Y01479*
X07145Y01474*
X07152Y01471*
X0716*
X07167Y01474*
X07172Y01479*
X07175Y01486*
Y01494*
X07172Y01501*
X07167Y01507*
X0716Y0151*
G37*
G36*
X07211Y01506D02*
X07203D01*
X07196Y01503*
X0719Y01498*
X07187Y0149*
Y01482*
X0719Y01475*
X07196Y0147*
X07203Y01467*
X07211*
X07218Y0147*
X07224Y01475*
X07227Y01482*
Y0149*
X07224Y01498*
X07218Y01503*
X07211Y01506*
G37*
G36*
X067Y01478D02*
X06693Y01475D01*
X06686Y01469*
X06683Y01462*
X067*
Y01478*
G37*
G36*
X07712Y01499D02*
X07704D01*
X07696Y01496*
X07691Y0149*
X07688Y01483*
Y01475*
X07691Y01468*
X07696Y01462*
X07704Y01459*
X07712*
X07719Y01462*
X07724Y01468*
X07727Y01475*
Y01483*
X07724Y0149*
X07719Y01496*
X07712Y01499*
G37*
G36*
X06392Y01484D02*
X06384D01*
X06377Y01481*
X06371Y01476*
X06368Y01469*
Y01461*
X06371Y01454*
X06377Y01448*
X06384Y01445*
X06392*
X06399Y01448*
X06405Y01454*
X06408Y01461*
Y01469*
X06405Y01476*
X06399Y01481*
X06392Y01484*
G37*
G36*
X06164Y01482D02*
X06156D01*
X06148Y01479*
X06143Y01474*
X0614Y01467*
Y01459*
X06143Y01452*
X06148Y01446*
X06156Y01443*
X06164*
X06171Y01446*
X06176Y01452*
X06179Y01459*
Y01467*
X06176Y01474*
X06171Y01479*
X06164Y01482*
G37*
G36*
X0608D02*
X06072D01*
X06065Y01479*
X06059Y01474*
X06056Y01467*
Y01459*
X06059Y01452*
X06065Y01446*
X06072Y01443*
X0608*
X06087Y01446*
X06093Y01452*
X06096Y01459*
Y01467*
X06093Y01474*
X06087Y01479*
X0608Y01482*
G37*
G36*
X07478Y01478D02*
X07471D01*
X07463Y01475*
X07458Y0147*
X07455Y01463*
Y01455*
X07458Y01448*
X07463Y01442*
X07471Y01439*
X07478*
X07486Y01442*
X07491Y01448*
X07494Y01455*
Y01463*
X07491Y0147*
X07486Y01475*
X07478Y01478*
G37*
G36*
X04973Y01477D02*
X04964D01*
X04956Y01473*
X0495Y01467*
X04947Y01459*
Y01451*
X0495Y01442*
X04956Y01436*
X04964Y01433*
X04973*
X04981Y01436*
X04987Y01442*
X04991Y01451*
Y01459*
X04987Y01467*
X04981Y01473*
X04973Y01477*
G37*
G36*
X07376Y01447D02*
X07368D01*
X07361Y01444*
X07356Y01438*
X07353Y01431*
Y01423*
X07356Y01416*
X07361Y01411*
X07368Y01408*
X07376*
X07383Y01411*
X07389Y01416*
X07392Y01423*
Y01431*
X07389Y01438*
X07383Y01444*
X07376Y01447*
G37*
G36*
X05148Y01445D02*
X0514D01*
X05133Y01442*
X05127Y01436*
X05124Y01429*
Y01421*
X05127Y01414*
X05133Y01408*
X0514Y01405*
X05148*
X05155Y01408*
X05161Y01414*
X05164Y01421*
Y01429*
X05161Y01436*
X05155Y01442*
X05148Y01445*
G37*
G36*
X07101Y01443D02*
X07093D01*
X07085Y0144*
X0708Y01435*
X07077Y01427*
Y01419*
X0708Y01412*
X07085Y01407*
X07093Y01404*
X07101*
X07108Y01407*
X07113Y01412*
X07116Y01419*
Y01427*
X07113Y01435*
X07108Y0144*
X07101Y01443*
G37*
G36*
X07868Y01448D02*
X07837D01*
X0783Y01447*
X07824Y01445*
X07819Y01441*
X07814Y01435*
X07812Y01429*
X07811Y01422*
X07812Y01416*
X07814Y01409*
X07819Y01404*
X07824Y014*
X0783Y01397*
X07837Y01397*
X07868*
X07875Y01397*
X07881Y014*
X07887Y01404*
X07891Y01409*
X07893Y01416*
X07894Y01422*
X07893Y01429*
X07891Y01435*
X07887Y01441*
X07881Y01445*
X07875Y01447*
X07868Y01448*
G37*
G36*
X0771D02*
X07667D01*
X0766Y01447*
X07654Y01445*
X07648Y01441*
X07644Y01435*
X07642Y01429*
X07641Y01422*
X07642Y01416*
X07644Y01409*
X07648Y01404*
X07654Y014*
X0766Y01397*
X07667Y01397*
X0771*
X07717Y01397*
X07723Y014*
X07728Y01404*
X07732Y01409*
X07735Y01416*
X07736Y01422*
X07735Y01429*
X07732Y01435*
X07728Y01441*
X07723Y01445*
X07717Y01447*
X0771Y01448*
G37*
G36*
X02226Y01465D02*
X02216D01*
X02206Y01463*
X02197Y01458*
X0219Y01451*
X02185Y01442*
X02183Y01432*
Y01422*
X02185Y01413*
X0219Y01404*
X02197Y01397*
X02206Y01392*
X02216Y0139*
X02226*
X02235Y01392*
X02244Y01397*
X02251Y01404*
X02256Y01413*
X02259Y01422*
Y01432*
X02256Y01442*
X02251Y01451*
X02244Y01458*
X02235Y01463*
X02226Y01465*
G37*
G36*
X02126D02*
X02116D01*
X02106Y01463*
X02097Y01458*
X0209Y01451*
X02085Y01442*
X02083Y01432*
Y01422*
X02085Y01413*
X0209Y01404*
X02097Y01397*
X02106Y01392*
X02116Y0139*
X02126*
X02135Y01392*
X02144Y01397*
X02151Y01404*
X02156Y01413*
X02159Y01422*
Y01432*
X02156Y01442*
X02151Y01451*
X02144Y01458*
X02135Y01463*
X02126Y01465*
G37*
G36*
X07478Y014D02*
X07471D01*
X07463Y01397*
X07458Y01391*
X07455Y01384*
Y01376*
X07458Y01369*
X07463Y01363*
X07471Y0136*
X07478*
X07486Y01363*
X07491Y01369*
X07494Y01376*
Y01384*
X07491Y01391*
X07486Y01397*
X07478Y014*
G37*
G36*
X04726Y01388D02*
X04719D01*
X04711Y01385*
X04706Y01379*
X04703Y01372*
Y01364*
X04706Y01357*
X04711Y01352*
X04719Y01349*
X04726*
X04734Y01352*
X04739Y01357*
X04742Y01364*
Y01372*
X04739Y01379*
X04734Y01385*
X04726Y01388*
G37*
G36*
X07596Y01364D02*
Y01348D01*
X07612*
X07609Y01355*
X07603Y01361*
X07596Y01364*
G37*
G36*
X07586D02*
X07578Y01361D01*
X07572Y01355*
X07569Y01348*
X07586*
Y01364*
G37*
G36*
X05579Y0138D02*
X05571D01*
X05564Y01377*
X05558Y01372*
X05555Y01364*
Y01356*
X05558Y01349*
X05564Y01344*
X05571Y01341*
X05579*
X05586Y01344*
X05592Y01349*
X05595Y01356*
Y01364*
X05592Y01372*
X05586Y01377*
X05579Y0138*
G37*
G36*
X07612Y01338D02*
X07596D01*
Y01321*
X07603Y01324*
X07609Y0133*
X07612Y01338*
G37*
G36*
X07586D02*
X07569D01*
X07572Y0133*
X07578Y01324*
X07586Y01321*
Y01338*
G37*
G36*
X07534Y01356D02*
X07526D01*
X07519Y01353*
X07513Y01348*
X0751Y01341*
Y01333*
X07513Y01326*
X07519Y0132*
X07526Y01317*
X07534*
X07541Y0132*
X07546Y01326*
X07549Y01333*
Y01341*
X07546Y01348*
X07541Y01353*
X07534Y01356*
G37*
G36*
X02947Y01347D02*
X02939D01*
X02932Y01344*
X02927Y01338*
X02924Y01331*
Y01323*
X02927Y01316*
X02932Y01311*
X02939Y01308*
X02947*
X02955Y01311*
X0296Y01316*
X02963Y01323*
Y01331*
X0296Y01338*
X02955Y01344*
X02947Y01347*
G37*
G36*
X05098Y01341D02*
X05089D01*
X05081Y01338*
X05075Y01331*
X05072Y01323*
Y01315*
X05075Y01307*
X05081Y01301*
X05089Y01297*
X05098*
X05106Y01301*
X05112Y01307*
X05116Y01315*
Y01323*
X05112Y01331*
X05106Y01338*
X05098Y01341*
G37*
G36*
X02226Y01365D02*
X02216D01*
X02206Y01363*
X02197Y01358*
X0219Y01351*
X02185Y01342*
X02183Y01332*
Y01322*
X02185Y01313*
X0219Y01304*
X02197Y01297*
X02206Y01292*
X02216Y0129*
X02226*
X02235Y01292*
X02244Y01297*
X02251Y01304*
X02256Y01313*
X02259Y01322*
Y01332*
X02256Y01342*
X02251Y01351*
X02244Y01358*
X02235Y01363*
X02226Y01365*
G37*
G36*
X02126D02*
X02116D01*
X02106Y01363*
X02097Y01358*
X0209Y01351*
X02085Y01342*
X02083Y01332*
Y01322*
X02085Y01313*
X0209Y01304*
X02097Y01297*
X02106Y01292*
X02116Y0129*
X02126*
X02135Y01292*
X02144Y01297*
X02151Y01304*
X02156Y01313*
X02159Y01322*
Y01332*
X02156Y01342*
X02151Y01351*
X02144Y01358*
X02135Y01363*
X02126Y01365*
G37*
G36*
X07404Y01329D02*
X07396D01*
X07389Y01326*
X07383Y0132*
X0738Y01313*
Y01305*
X07383Y01298*
X07389Y01293*
X07396Y0129*
X07404*
X07411Y01293*
X07416Y01298*
X07419Y01305*
Y01313*
X07416Y0132*
X07411Y01326*
X07404Y01329*
G37*
G36*
X05372Y01321D02*
X05364D01*
X05357Y01318*
X05352Y01312*
X05349Y01305*
Y01297*
X05352Y0129*
X05357Y01285*
X05364Y01282*
X05372*
X05379Y01285*
X05385Y0129*
X05388Y01297*
Y01305*
X05385Y01312*
X05379Y01318*
X05372Y01321*
G37*
G36*
X07313Y01317D02*
X07305D01*
X07298Y01314*
X07293Y01309*
X0729Y01301*
Y01293*
X07293Y01286*
X07298Y01281*
X07305Y01278*
X07313*
X0732Y01281*
X07326Y01286*
X07329Y01293*
Y01301*
X07326Y01309*
X0732Y01314*
X07313Y01317*
G37*
G36*
X04739Y01312D02*
X04731D01*
X04724Y01309*
X04719Y01304*
X04716Y01296*
Y01288*
X04719Y01281*
X04724Y01276*
X04731Y01273*
X04739*
X04746Y01276*
X04752Y01281*
X04755Y01288*
Y01296*
X04752Y01304*
X04746Y01309*
X04739Y01312*
G37*
G36*
X06354Y013D02*
X06347D01*
X06339Y01297*
X06334Y01292*
X06331Y01285*
Y01277*
X06334Y0127*
X06339Y01264*
X06347Y01261*
X06354*
X06362Y01264*
X06367Y0127*
X0637Y01277*
Y01285*
X06367Y01292*
X06362Y01297*
X06354Y013*
G37*
G36*
X05873Y01296D02*
X05865D01*
X05858Y01293*
X05853Y01288*
X0585Y01281*
Y01273*
X05853Y01266*
X05858Y0126*
X05865Y01257*
X05873*
X0588Y0126*
X05886Y01266*
X05889Y01273*
Y01281*
X05886Y01288*
X0588Y01293*
X05873Y01296*
G37*
G36*
X05957Y01266D02*
X05949D01*
X05942Y01263*
X05936Y01257*
X05933Y0125*
Y01242*
X05936Y01235*
X05942Y0123*
X05949Y01227*
X05957*
X05964Y0123*
X0597Y01235*
X05973Y01242*
Y0125*
X0597Y01257*
X05964Y01263*
X05957Y01266*
G37*
G36*
X05626Y01252D02*
X05617D01*
X05609Y01249*
X05603Y01243*
X05599Y01235*
Y01226*
X05603Y01218*
X05609Y01212*
X05617Y01209*
X05626*
X05634Y01212*
X0564Y01218*
X05643Y01226*
Y01235*
X0564Y01243*
X05634Y01249*
X05626Y01252*
G37*
G36*
X06742Y01223D02*
X06734D01*
X06727Y0122*
X06722Y01214*
X06719Y01207*
Y01199*
X06722Y01192*
X06727Y01186*
X06734Y01183*
X06742*
X06749Y01186*
X06755Y01192*
X06758Y01199*
Y01207*
X06755Y01214*
X06749Y0122*
X06742Y01223*
G37*
G36*
X04403Y01199D02*
Y01182D01*
X04419*
X04416Y0119*
X0441Y01196*
X04403Y01199*
G37*
G36*
X04393D02*
X04385Y01196D01*
X04379Y0119*
X04376Y01182*
X04393*
Y01199*
G37*
G36*
X04419Y01172D02*
X04403D01*
Y01156*
X0441Y01159*
X04416Y01165*
X04419Y01172*
G37*
G36*
X04393D02*
X04376D01*
X04379Y01165*
X04385Y01159*
X04393Y01156*
Y01172*
G37*
G36*
X07384Y01187D02*
X07376D01*
X07369Y01184*
X07363Y01179*
X0736Y01171*
Y01164*
X07363Y01156*
X07369Y01151*
X07376Y01148*
X07384*
X07391Y01151*
X07397Y01156*
X074Y01164*
Y01171*
X07397Y01179*
X07391Y01184*
X07384Y01187*
G37*
G36*
X07097D02*
X07089D01*
X07082Y01184*
X07076Y01179*
X07073Y01171*
Y01164*
X07076Y01156*
X07082Y01151*
X07089Y01148*
X07097*
X07104Y01151*
X07109Y01156*
X07112Y01164*
Y01171*
X07109Y01179*
X07104Y01184*
X07097Y01187*
G37*
G36*
X07242Y01183D02*
X07234D01*
X07227Y0118*
X07222Y01175*
X07219Y01167*
Y0116*
X07222Y01152*
X07227Y01147*
X07234Y01144*
X07242*
X07249Y01147*
X07255Y01152*
X07258Y0116*
Y01167*
X07255Y01175*
X07249Y0118*
X07242Y01183*
G37*
G36*
X07297Y01179D02*
X0729D01*
X07282Y01176*
X07277Y01171*
X07274Y01164*
Y01156*
X07277Y01148*
X07282Y01143*
X0729Y0114*
X07297*
X07305Y01143*
X0731Y01148*
X07313Y01156*
Y01164*
X0731Y01171*
X07305Y01176*
X07297Y01179*
G37*
G36*
X06363Y01182D02*
X06354D01*
X06346Y01179*
X0634Y01173*
X06337Y01165*
Y01156*
X0634Y01148*
X06346Y01142*
X06354Y01139*
X06363*
X06371Y01142*
X06377Y01148*
X0638Y01156*
Y01165*
X06377Y01173*
X06371Y01179*
X06363Y01182*
G37*
G36*
X06726Y01171D02*
X06719D01*
X06711Y01168*
X06706Y01163*
X06703Y01156*
Y01148*
X06706Y01141*
X06711Y01135*
X06719Y01132*
X06726*
X06734Y01135*
X06739Y01141*
X06742Y01148*
Y01156*
X06739Y01163*
X06734Y01168*
X06726Y01171*
G37*
G36*
X07341Y01164D02*
X07333D01*
X07326Y01161*
X0732Y01155*
X07317Y01148*
Y0114*
X0732Y01133*
X07326Y01127*
X07333Y01124*
X07341*
X07348Y01127*
X07353Y01133*
X07356Y0114*
Y01148*
X07353Y01155*
X07348Y01161*
X07341Y01164*
G37*
G36*
X07034Y01156D02*
X07026D01*
X07019Y01153*
X07013Y01147*
X0701Y0114*
Y01132*
X07013Y01125*
X07019Y01119*
X07026Y01116*
X07034*
X07041Y01119*
X07046Y01125*
X07049Y01132*
Y0114*
X07046Y01147*
X07041Y01153*
X07034Y01156*
G37*
G36*
X07408Y0114D02*
X074D01*
X07393Y01137*
X07387Y01131*
X07384Y01124*
Y01116*
X07387Y01109*
X07393Y01104*
X074Y01101*
X07408*
X07415Y01104*
X0742Y01109*
X07423Y01116*
Y01124*
X0742Y01131*
X07415Y01137*
X07408Y0114*
G37*
G36*
X07459Y01124D02*
X07451D01*
X07444Y01121*
X07438Y01116*
X07435Y01108*
Y01101*
X07438Y01093*
X07444Y01088*
X07451Y01085*
X07459*
X07466Y01088*
X07472Y01093*
X07475Y01101*
Y01108*
X07472Y01116*
X07466Y01121*
X07459Y01124*
G37*
G36*
X0545Y01098D02*
X05442D01*
X05434Y01094*
X05427Y01088*
X05424Y0108*
Y01072*
X05427Y01064*
X05434Y01057*
X05442Y01054*
X0545*
X05458Y01057*
X05465Y01064*
X05468Y01072*
Y0108*
X05465Y01088*
X05458Y01094*
X0545Y01098*
G37*
G36*
X05845Y01058D02*
X05836D01*
X05828Y01055*
X05822Y01049*
X05819Y01041*
Y01032*
X05822Y01024*
X05828Y01018*
X05836Y01015*
X05845*
X05853Y01018*
X05859Y01024*
X05863Y01032*
Y01041*
X05859Y01049*
X05853Y01055*
X05845Y01058*
G37*
G36*
X04371Y01024D02*
Y01007D01*
X04388*
X04385Y01014*
X04379Y01021*
X04371Y01024*
G37*
G36*
X04361D02*
X04354Y01021D01*
X04348Y01014*
X04345Y01007*
X04361*
Y01024*
G37*
G36*
X02181Y01266D02*
X0216D01*
X0214Y01262*
X02121Y01256*
X02103Y01247*
X02086Y01235*
X02072Y0122*
X0206Y01204*
X0205Y01186*
X02044Y01166*
X02041Y01146*
Y01125*
X02044Y01105*
X0205Y01086*
X0206Y01068*
X02072Y01051*
X02086Y01037*
X02103Y01025*
X02121Y01015*
X0214Y01009*
X0216Y01006*
X02181*
X02201Y01009*
X02221Y01015*
X02239Y01025*
X02255Y01037*
X0227Y01051*
X02282Y01068*
X02291Y01086*
X02297Y01105*
X02301Y01125*
Y01146*
X02297Y01166*
X02291Y01186*
X02282Y01204*
X0227Y0122*
X02255Y01235*
X02239Y01247*
X02221Y01256*
X02201Y01262*
X02181Y01266*
G37*
G36*
X00252D02*
X00231D01*
X00211Y01262*
X00192Y01256*
X00173Y01247*
X00157Y01235*
X00142Y0122*
X0013Y01204*
X00121Y01186*
X00115Y01166*
X00112Y01146*
Y01125*
X00115Y01105*
X00121Y01086*
X0013Y01068*
X00142Y01051*
X00157Y01037*
X00173Y01025*
X00192Y01015*
X00211Y01009*
X00231Y01006*
X00252*
X00272Y01009*
X00291Y01015*
X0031Y01025*
X00326Y01037*
X00341Y01051*
X00353Y01068*
X00362Y01086*
X00368Y01105*
X00371Y01125*
Y01146*
X00368Y01166*
X00362Y01186*
X00353Y01204*
X00341Y0122*
X00326Y01235*
X0031Y01247*
X00291Y01256*
X00272Y01262*
X00252Y01266*
G37*
G36*
X07446Y01015D02*
X07438D01*
X0743Y01012*
X07425Y01006*
X07421Y00998*
Y0099*
X07414*
Y00998*
X0741Y01006*
X07405Y01012*
X07397Y01015*
X07389*
X07381Y01012*
X07375Y01006*
X07372Y00998*
Y0099*
X07364*
X07357Y00987*
X07351Y00981*
X07348Y00974*
Y00966*
X07351Y00958*
X07357Y00952*
X07364Y00949*
X07372*
Y00941*
X07364*
X07357Y00938*
X07351Y00932*
X07348Y00925*
Y00916*
X07351Y00909*
X07357Y00903*
X07364Y009*
X07372*
Y00892*
X07375Y00884*
X07381Y00878*
X07389Y00875*
X07397*
X07405Y00878*
X0741Y00884*
X07414Y00892*
Y009*
X07421*
Y00892*
X07425Y00884*
X0743Y00878*
X07438Y00875*
X07446*
X07454Y00878*
X0746Y00884*
X07463Y00892*
Y009*
X07471*
X07478Y00903*
X07484Y00909*
X07487Y00916*
Y00925*
X07484Y00932*
X07478Y00938*
X07471Y00941*
X07463*
Y00949*
X07471*
X07478Y00952*
X07484Y00958*
X07487Y00966*
Y00974*
X07484Y00981*
X07478Y00987*
X07471Y0099*
X07463*
Y00998*
X0746Y01006*
X07454Y01012*
X07446Y01015*
G37*
G36*
X04388Y00997D02*
X04371D01*
Y00981*
X04379Y00984*
X04385Y0099*
X04388Y00997*
G37*
G36*
X04361D02*
X04345D01*
X04348Y0099*
X04354Y00984*
X04361Y00981*
Y00997*
G37*
G36*
X06723Y00896D02*
X06714D01*
X06705Y00893*
X06697Y00889*
X0669Y00882*
X06686Y00874*
X06683Y00865*
Y00856*
X06686Y00847*
X0669Y00839*
X06697Y00832*
X06705Y00827*
X06714Y00825*
X06723*
X06732Y00827*
X0674Y00832*
X06747Y00839*
X06752Y00847*
X06754Y00856*
Y00865*
X06752Y00874*
X06747Y00882*
X0674Y00889*
X06732Y00893*
X06723Y00896*
G37*
G36*
X03928Y00792D02*
Y00776D01*
X03945*
X03942Y00783*
X03935Y00789*
X03928Y00792*
G37*
G36*
X03918D02*
X03911Y00789D01*
X03905Y00783*
X03902Y00776*
X03918*
Y00792*
G37*
G36*
X03945Y00766D02*
X03928D01*
Y00749*
X03935Y00752*
X03942Y00758*
X03945Y00766*
G37*
G36*
X03918D02*
X03902D01*
X03905Y00758*
X03911Y00752*
X03918Y00749*
Y00766*
G37*
G36*
X04508Y00784D02*
X045D01*
X04493Y00781*
X04487Y00775*
X04484Y00768*
Y0076*
X04487Y00753*
X04493Y00747*
X045Y00744*
X04508*
X04515Y00747*
X04521Y00753*
X04524Y0076*
Y00768*
X04521Y00775*
X04515Y00781*
X04508Y00784*
G37*
G36*
X02923Y00743D02*
Y00727D01*
X02939*
X02936Y00734*
X0293Y0074*
X02923Y00743*
G37*
G36*
X02913D02*
X02905Y0074D01*
X02899Y00734*
X02896Y00727*
X02913*
Y00743*
G37*
G36*
X06723Y00797D02*
X06714D01*
X06705Y00795*
X06697Y0079*
X0669Y00784*
X06686Y00776*
X06683Y00767*
Y00757*
X06686Y00748*
X0669Y0074*
X06697Y00734*
X06705Y00729*
X06714Y00727*
X06723*
X06732Y00729*
X0674Y00734*
X06747Y0074*
X06752Y00748*
X06754Y00757*
Y00767*
X06752Y00776*
X06747Y00784*
X0674Y0079*
X06732Y00795*
X06723Y00797*
G37*
G36*
X03588Y0073D02*
Y00714D01*
X03605*
X03602Y00721*
X03596Y00727*
X03588Y0073*
G37*
G36*
X03578D02*
X03571Y00727D01*
X03565Y00721*
X03562Y00714*
X03578*
Y0073*
G37*
G36*
X02939Y00717D02*
X02923D01*
Y007*
X0293Y00703*
X02936Y0071*
X02939Y00717*
G37*
G36*
X02913D02*
X02896D01*
X02899Y0071*
X02905Y00703*
X02913Y007*
Y00717*
G37*
G36*
X04261Y00705D02*
Y00688D01*
X04277*
X04274Y00696*
X04268Y00702*
X04261Y00705*
G37*
G36*
X04251D02*
X04244Y00702D01*
X04237Y00696*
X04234Y00688*
X04251*
Y00705*
G37*
G36*
X03022Y00727D02*
X03014D01*
X03006Y00724*
X03001Y00719*
X02998Y00712*
Y00704*
X03001Y00697*
X03006Y00691*
X03014Y00688*
X03022*
X03029Y00691*
X03034Y00697*
X03037Y00704*
Y00712*
X03034Y00719*
X03029Y00724*
X03022Y00727*
G37*
G36*
X02977Y00727D02*
X02969D01*
X02962Y00724*
X02956Y00719*
X02953Y00711*
Y00703*
X02956Y00696*
X02962Y00691*
X02969Y00688*
X02977*
X02984Y00691*
X02989Y00696*
X02992Y00703*
Y00711*
X02989Y00719*
X02984Y00724*
X02977Y00727*
G37*
G36*
X03605Y00704D02*
X03588D01*
Y00687*
X03596Y0069*
X03602Y00696*
X03605Y00704*
G37*
G36*
X03578D02*
X03562D01*
X03565Y00696*
X03571Y0069*
X03578Y00687*
Y00704*
G37*
G36*
X04277Y00678D02*
X04261D01*
Y00662*
X04268Y00665*
X04274Y00671*
X04277Y00678*
G37*
G36*
X04251D02*
X04234D01*
X04237Y00671*
X04244Y00665*
X04251Y00662*
Y00678*
G37*
G36*
X02728Y0069D02*
X02721D01*
X02713Y00687*
X02708Y00682*
X02705Y00674*
Y00667*
X02708Y00659*
X02713Y00654*
X02721Y00651*
X02728*
X02736Y00654*
X02741Y00659*
X02744Y00667*
Y00674*
X02741Y00682*
X02736Y00687*
X02728Y0069*
G37*
G36*
X06723Y00699D02*
X06714D01*
X06705Y00697*
X06697Y00692*
X0669Y00685*
X06686Y00677*
X06683Y00668*
Y00659*
X06686Y0065*
X0669Y00642*
X06697Y00635*
X06705Y00631*
X06714Y00628*
X06723*
X06732Y00631*
X0674Y00635*
X06747Y00642*
X06752Y0065*
X06754Y00659*
Y00668*
X06752Y00677*
X06747Y00685*
X0674Y00692*
X06732Y00697*
X06723Y00699*
G37*
G36*
X07242Y00664D02*
X07234D01*
X07227Y00661*
X07222Y00655*
X07219Y00648*
Y0064*
X07222Y00633*
X07227Y00627*
X07234Y00624*
X07242*
X07249Y00627*
X07255Y00633*
X07258Y0064*
Y00648*
X07255Y00655*
X07249Y00661*
X07242Y00664*
G37*
G36*
X07368Y00632D02*
X0736D01*
X07353Y00629*
X07348Y00624*
X07345Y00616*
Y00608*
X07348Y00601*
X07353Y00596*
X0736Y00593*
X07368*
X07375Y00596*
X07381Y00601*
X07384Y00608*
Y00616*
X07381Y00624*
X07375Y00629*
X07368Y00632*
G37*
G36*
X07309Y00624D02*
X07301D01*
X07294Y00621*
X07289Y00616*
X07286Y00608*
Y00601*
X07289Y00593*
X07294Y00588*
X07301Y00585*
X07309*
X07316Y00588*
X07322Y00593*
X07325Y00601*
Y00608*
X07322Y00616*
X07316Y00621*
X07309Y00624*
G37*
G36*
X04406Y00575D02*
X04398D01*
X0439Y00572*
X04385Y00566*
X04382Y00559*
Y00551*
X04385Y00544*
X0439Y00539*
X04398Y00536*
X04406*
X04413Y00539*
X04418Y00544*
X04421Y00551*
Y00559*
X04418Y00566*
X04413Y00572*
X04406Y00575*
G37*
G36*
X04309Y00555D02*
X04301D01*
X04294Y00552*
X04288Y00547*
X04285Y00539*
Y00532*
X04288Y00524*
X04294Y00519*
X04301Y00516*
X04309*
X04316Y00519*
X04322Y00524*
X04325Y00532*
Y00539*
X04322Y00547*
X04316Y00552*
X04309Y00555*
G37*
G36*
X04508Y00532D02*
X045D01*
X04493Y00529*
X04487Y00523*
X04484Y00516*
Y00508*
X04487Y00501*
X04493Y00495*
X045Y00492*
X04508*
X04515Y00495*
X04521Y00501*
X04524Y00508*
Y00516*
X04521Y00523*
X04515Y00529*
X04508Y00532*
G37*
G36*
X06943Y0051D02*
X06935D01*
X06928Y00507*
X06922Y00501*
X06919Y00494*
Y00486*
X06922Y00479*
X06928Y00474*
X06935Y00471*
X06943*
X0695Y00474*
X06956Y00479*
X06959Y00486*
Y00494*
X06956Y00501*
X0695Y00507*
X06943Y0051*
G37*
G36*
X04055Y00444D02*
Y00444D01*
X0241*
Y00444*
X02401Y00443*
X02399Y00441*
X02396*
X02393Y0044*
X02391Y00439*
X02389Y00436*
X02388Y00433*
Y00429*
X02387Y00421*
X02387*
Y00225*
X02387*
X02388Y00217*
Y00212*
X02389Y00209*
X02391Y00207*
X02393Y00205*
X02396Y00204*
X02399*
X02401Y00203*
X0241Y00201*
Y00201*
X04055*
Y00201*
X04064Y00203*
X04072Y00208*
X04077Y00216*
X04079Y00225*
X04079*
Y00421*
X04079*
X04077Y0043*
X04072Y00438*
X04064Y00443*
X04055Y00444*
G37*
G36*
X05444Y00394D02*
X05431D01*
X05418Y00391*
X05405Y00386*
X05394Y00379*
X05385Y0037*
X05378Y00359*
X05373Y00347*
X0537Y00334*
Y00321*
X05373Y00308*
X05378Y00295*
X05385Y00284*
X05394Y00275*
X05405Y00268*
X05418Y00263*
X05431Y0026*
X05444*
X05457Y00263*
X05469Y00268*
X0548Y00275*
X05489Y00284*
X05496Y00295*
X05502Y00308*
X05504Y00321*
Y00334*
X05502Y00347*
X05496Y00359*
X05489Y0037*
X0548Y00379*
X05469Y00386*
X05457Y00391*
X05444Y00394*
G37*
G36*
X04944D02*
X04931D01*
X04918Y00391*
X04905Y00386*
X04894Y00379*
X04885Y0037*
X04878Y00359*
X04873Y00347*
X0487Y00334*
Y00321*
X04873Y00308*
X04878Y00295*
X04885Y00284*
X04894Y00275*
X04905Y00268*
X04918Y00263*
X04931Y0026*
X04944*
X04957Y00263*
X04969Y00268*
X0498Y00275*
X04989Y00284*
X04996Y00295*
X05002Y00308*
X05004Y00321*
Y00334*
X05002Y00347*
X04996Y00359*
X04989Y0037*
X0498Y00379*
X04969Y00386*
X04957Y00391*
X04944Y00394*
G37*
G36*
X06354Y00389D02*
X06341D01*
X06328Y00387*
X06316Y00382*
X06305Y00374*
X06296Y00365*
X06288Y00354*
X06283Y00342*
X06281Y00329*
Y00316*
X06283Y00303*
X06288Y0029*
X06296Y0028*
X06305Y0027*
X06316Y00263*
X06328Y00258*
X06341Y00255*
X06354*
X06367Y00258*
X06379Y00263*
X0639Y0027*
X064Y0028*
X06407Y0029*
X06412Y00303*
X06415Y00316*
Y00329*
X06412Y00342*
X06407Y00354*
X064Y00365*
X0639Y00374*
X06379Y00382*
X06367Y00387*
X06354Y00389*
G37*
G36*
X05854D02*
X05841D01*
X05828Y00387*
X05816Y00382*
X05805Y00374*
X05796Y00365*
X05788Y00354*
X05783Y00342*
X05781Y00329*
Y00316*
X05783Y00303*
X05788Y0029*
X05796Y0028*
X05805Y0027*
X05816Y00263*
X05828Y00258*
X05841Y00255*
X05854*
X05867Y00258*
X05879Y00263*
X0589Y0027*
X059Y0028*
X05907Y0029*
X05912Y00303*
X05915Y00316*
Y00329*
X05912Y00342*
X05907Y00354*
X059Y00365*
X0589Y00374*
X05879Y00382*
X05867Y00387*
X05854Y00389*
G37*
%LNotpcb_copper_signal_2-3*%
%LPD*%
G54D10*
X0705Y01765D02*
X0708D01*
X06008Y00724D02*
X0705Y01765D01*
X0708D02*
X07187Y01872D01*
X04962Y01823D02*
X05114D01*
X04496Y01807D02*
X04947D01*
X04962Y01823*
X0414Y01778D02*
X05194Y00724D01*
X06008*
X05114Y01823D02*
X05143Y01794D01*
X04419Y01884D02*
X04496Y01807D01*
X07187Y01872D02*
Y02053D01*
G54D93*
X07766Y02771D02*
Y03065D01*
X07627Y01887D02*
Y02632D01*
X07766Y02771*
X02157Y00488D02*
X04283D01*
X04508Y00264*
X01991Y00654D02*
X02157Y00488D01*
X07431Y01691D02*
X07627Y01887D01*
X04838Y00594D02*
X05997D01*
X07094Y01691D02*
X07431D01*
X05997Y00594D02*
X07094Y01691D01*
X02751Y02601D02*
X03255D01*
X03575Y031D02*
X0364Y03034D01*
X04601*
X02722Y02572D02*
X02751Y02601D01*
X03255D02*
Y02602D01*
X03249Y02608D02*
X03255Y02602D01*
X03249Y02608D02*
Y0282D01*
X03296*
X03575Y031*
X04508Y00264D02*
X04838Y00594D01*
X01991Y00654D02*
Y01197D01*
X02044Y0125*
Y03025*
X02096Y03077*
X0219*
X02242Y03129*
X07683Y03148D02*
X07766Y03065D01*
X07522Y03148D02*
X07683D01*
G54D94*
X07073Y01731D02*
X07321D01*
X07085Y01713D02*
X07329D01*
X05996Y00687D02*
X07058Y01749D01*
X07197*
X07457Y02008*
X05998Y00656D02*
X07073Y01731D01*
X07577Y01961D02*
Y02397D01*
X04915Y00632D02*
X06004D01*
X07085Y01713*
X07321Y01731D02*
X07557Y01967D01*
X07329Y01713D02*
X07577Y01961D01*
X05014Y00656D02*
X05998D01*
X07557Y01967D02*
Y02369D01*
X02939Y01671D02*
X03128Y0186D01*
X03585Y01116D02*
X04431D01*
X04915Y00632*
X04195Y01475D02*
X05014Y00656D01*
X05045Y00687D02*
X05996D01*
X03703Y01475D02*
X04195D01*
X04101Y01632D02*
X05045Y00687D01*
X03695Y01632D02*
X04101D01*
X03368Y01333D02*
X03585Y01116D01*
X03368Y01333D02*
Y01675D01*
X05112Y01719D02*
X05138Y01693D01*
Y01674D02*
Y01693D01*
Y01674D02*
X0514Y01672D01*
X07329Y02297D02*
Y02451D01*
X07002Y02534D02*
X07247D01*
X07329Y02451*
Y02297D02*
X07457Y02169D01*
Y02008D02*
Y02169D01*
X07432Y02533D02*
X0744D01*
X07415Y02549D02*
X07432Y02533D01*
X07353Y02538D02*
X07389D01*
X07412Y02549D02*
X07415D01*
X0744Y02533D02*
X07577Y02397D01*
X07389Y02538D02*
X07557Y02369D01*
X03128Y0186D02*
X03467D01*
X04452Y01719D02*
X05112D01*
X03262Y01786D02*
X03467D01*
X03486Y01691D02*
Y01766D01*
X03467Y01786D02*
X03486Y01766D01*
X03467Y0186D02*
X03695Y01632D01*
X03486Y01691D02*
X03703Y01475D01*
X0314Y01664D02*
X03262Y01786D01*
G54D98*
X04937Y00327D03*
X05437D03*
X06348Y00322D03*
X05848D03*
G54D99*
X02221Y01327D03*
Y01427D03*
Y01527D03*
Y01627D03*
Y01727D03*
Y01827D03*
X02121Y01327D03*
Y01427D03*
Y01527D03*
Y01627D03*
Y01727D03*
Y01827D03*
X02221Y01927D03*
X02121D03*
X02221Y02027D03*
Y02127D03*
Y02227D03*
Y02327D03*
Y02427D03*
Y02527D03*
X02121Y02027D03*
Y02127D03*
Y02227D03*
Y02327D03*
Y02427D03*
Y02527D03*
X02221Y02627D03*
X02121D03*
X02221Y02727D03*
Y02827D03*
Y02927D03*
Y03027D03*
Y03127D03*
Y03227D03*
X02121Y02727D03*
Y02827D03*
Y02927D03*
Y03027D03*
Y03127D03*
Y03227D03*
G54D101*
X02171Y03419D03*
Y01136D03*
X00242D03*
Y03419D03*
G54D102*
X07363Y02346D03*
Y02395D03*
X07388Y02321D03*
Y0237D03*
Y02419D03*
X07412Y02346D03*
Y02395D03*
X07437Y02321D03*
Y0237D03*
Y02419D03*
X07462Y02346D03*
Y02395D03*
X07368Y0092D03*
Y0097D03*
X07393Y00896D03*
Y00945D03*
Y00994D03*
X07417Y0092D03*
Y0097D03*
X07442Y00896D03*
Y00945D03*
Y00994D03*
X07467Y0092D03*
Y0097D03*
G54D103*
X06719Y00664D03*
Y00762D03*
Y0086D03*
X0675Y0201D03*
Y02108D03*
Y02207D03*
G54D104*
X07708Y01479D03*
Y01706D03*
Y03167D03*
Y0294D03*
X04781Y01863D03*
X05179Y02413D03*
X02489Y02318D03*
X07599Y02601D03*
X03018Y00708D03*
X04601Y03034D03*
X03104Y02728D03*
X03442Y02862D03*
X03491Y02639D03*
X02998Y02857D03*
X03089Y02572D03*
X03568Y01709D03*
X03939Y01703D03*
X02939Y01671D03*
X02722Y02572D03*
X03249Y0282D03*
X03255Y02601D03*
X04353Y02577D03*
X04151Y02568D03*
X0395Y02564D03*
X03744Y02575D03*
X03927Y02755D03*
X0417Y02823D03*
X04035Y02985D03*
X03724Y029D03*
X03923Y00771D03*
X03583Y00709D03*
X02943Y01327D03*
X02973Y00707D03*
X02918Y00722D03*
X02642Y01946D03*
X02599Y02034D03*
X02652Y02073D03*
X02778Y01985D03*
X02491Y02275D03*
X04398Y01177D03*
X05171Y01646D03*
X0514Y01672D03*
X05039Y01655D03*
X05053Y01616D03*
X04972Y01927D03*
X04915Y01876D03*
X04967Y0186D03*
X04966Y0179D03*
X05131Y01528D03*
X04976Y01506D03*
X04975Y01615D03*
X07412Y02549D03*
X04911Y02281D03*
X04452Y01719D03*
X06534Y02601D03*
X06573Y0275D03*
X06719Y02679D03*
X06652Y02888D03*
X06502Y02703D03*
X06864Y02813D03*
X06742Y0323D03*
X06927Y02612D03*
X06478Y0262D03*
X06711Y02793D03*
X06959Y02811D03*
X06351Y01281D03*
X06593Y0114D03*
X06705Y01457D03*
X06388Y01465D03*
X06561Y01658D03*
X06738Y01203D03*
X06939Y0049D03*
X06723Y01152D03*
X06315Y01714D03*
X06939Y0175D03*
X06467Y0177D03*
X06608Y01959D03*
X06382Y01912D03*
X06353Y01815D03*
X06425Y0191D03*
X06282Y01817D03*
X06419Y01783D03*
X06281Y01769D03*
X06471Y01916D03*
X06459Y01841D03*
X06982Y02569D03*
X07002Y02534D03*
X0673Y02447D03*
X06431Y02053D03*
X06321Y02216D03*
X06368Y02045D03*
X0625Y02754D03*
X0627Y02085D03*
X06305Y02365D03*
X06435Y02545D03*
X06419Y02746D03*
X06317Y02041D03*
X06355Y02329D03*
X06443Y02368D03*
X06597Y0225D03*
X06443Y02423D03*
X06427Y02502D03*
X06514Y02144D03*
X06378Y02388D03*
X064Y02455D03*
X07353Y02093D03*
X07187Y02053D03*
X07301Y02065D03*
X0723Y0205D03*
X07143Y02048D03*
X07238Y01164D03*
X07404Y0112D03*
X07156Y0149D03*
X07309Y01297D03*
X07293Y0116D03*
X07372Y01427D03*
X074Y01309D03*
X0738Y01167D03*
X07337Y01144D03*
X07097Y01423D03*
X07207Y01486D03*
X07538Y02734D03*
X07187Y03376D03*
X07384Y02746D03*
X07282Y03341D03*
X0734Y03285D03*
X07215Y03337D03*
X07305Y02573D03*
X07254Y03581D03*
X07353Y02538D03*
X0712Y02837D03*
X07345Y02585D03*
X07286Y02447D03*
X0725Y02388D03*
X07522Y02589D03*
X07632Y034D03*
X07455Y01104D03*
X07553Y03238D03*
X07597Y02734D03*
X07522Y03148D03*
X07475Y0138D03*
X0749Y03356D03*
X07591Y01343D03*
X07475Y01459D03*
X07431Y01691D03*
X0753Y01337D03*
X07305Y00604D03*
X07364Y00612D03*
X07238Y00644D03*
X07093Y01167D03*
X0616Y01463D03*
X06076D03*
X06193Y02032D03*
X06159Y0171D03*
X07093Y02049D03*
X0703Y01136D03*
X07043Y02047D03*
X06786Y03455D03*
X06152Y02656D03*
X05403Y02296D03*
X05134Y02405D03*
X06239Y02551D03*
X05993Y02424D03*
X05454Y02416D03*
X06029Y02391D03*
X04744Y02327D03*
X06061Y02534D03*
X05404Y02207D03*
X04903Y02224D03*
X05014Y02397D03*
X05239Y02169D03*
X04792Y02275D03*
X05042Y0226D03*
X05181Y01998D03*
X05285Y02168D03*
X06092Y01964D03*
X06143Y01838D03*
X05482Y02093D03*
X04915Y01994D03*
X04982Y01998D03*
X05258Y02041D03*
X05179Y02103D03*
X05601Y02955D03*
X06175Y03353D03*
Y03423D03*
X05658Y02661D03*
X0614Y0275D03*
X05857Y02666D03*
X05619Y02804D03*
X05727Y02951D03*
X05519Y03029D03*
X05868Y02616D03*
X07049Y02829D03*
X06636Y03463D03*
X07094Y03493D03*
X06797Y03321D03*
X0467Y02222D03*
X04668Y02171D03*
X04667Y0226D03*
X04565Y02203D03*
X06094Y02429D03*
X06108Y0236D03*
X06141Y02078D03*
X06075Y02069D03*
X06236Y02472D03*
X06134Y02516D03*
X06193Y02148D03*
X06084Y02174D03*
X04817Y02061D03*
X04996Y02436D03*
X04619Y02138D03*
X05368Y01301D03*
X05869Y01277D03*
X05817Y0162D03*
X05864Y01549D03*
X05953Y01246D03*
X05575Y0136D03*
X04305Y00536D03*
X04366Y01002D03*
X04504Y00764D03*
X04402Y00555D03*
X04256Y00683D03*
X04508Y00264D03*
X04504Y00512D03*
X02725Y0067D03*
X04901Y01616D03*
X04735Y01292D03*
X04782Y01557D03*
X04723Y01368D03*
X05144Y01425D03*
X04841Y01982D03*
X0449Y01967D03*
X0414Y01778D03*
X04325Y01982D03*
X04612Y01927D03*
X04419Y01884D03*
X04845Y01833D03*
X039Y01738D03*
X05143Y01794D03*
X05089Y01856D03*
X05041Y01931D03*
X05108Y01988D03*
X05041Y01992D03*
X04888Y01664D03*
X04876Y01872D03*
X05037Y01798D03*
X05236Y01993D03*
X05396Y01971D03*
X05423Y01797D03*
X05179Y01786D03*
X05392Y01754D03*
X0525Y01849D03*
X05841Y01872D03*
X05942Y01955D03*
X05947Y0186D03*
X05786Y01825D03*
X05195Y01847D03*
X05542Y01879D03*
X03368Y01675D03*
X0314Y01664D03*
G54D105*
X07688Y01422D03*
Y01763D03*
Y03224D03*
Y02883D03*
G54D106*
X07853Y01422D03*
Y01763D03*
Y03224D03*
Y02883D03*
G54D107*
X02606Y03904D03*
Y03628D03*
X02421Y03175D03*
X02606D03*
X02847Y03285D03*
X03122D03*
X03575Y031D03*
Y03285D03*
X03801Y03374D03*
X04077D03*
X0453Y03189D03*
Y03374D03*
X05122Y03931D03*
Y03656D03*
X04937Y03203D03*
X05122D03*
G54D109*
X02834Y03631D03*
X03362Y0363D03*
X05483Y03628D03*
X06019D03*
X03892Y0363D03*
X04446D03*
G54D110*
X03034Y03631D03*
X03562Y0363D03*
X05683Y03628D03*
X06219D03*
X04092Y0363D03*
X04646D03*
G54D112*
X06358Y01161D03*
X05841Y01037D03*
X05446Y01076D03*
X05621Y0123D03*
X04969Y01455D03*
X05094Y01319D03*
M02*