%FSTAX23Y23*%
%MOIN*%
%SFA1B1*%

%IPPOS*%
%ADD15R,0.037008X0.026378*%
%ADD22R,0.039370X0.031496*%
%ADD25R,0.031496X0.039370*%
%ADD27R,0.026378X0.037008*%
%ADD36R,0.090551X0.070866*%
%ADD37R,0.070866X0.090551*%
%ADD114R,0.043307X0.039370*%
%ADD115R,0.070866X0.047244*%
%ADD116R,0.011811X0.059055*%
%ADD117R,0.086614X0.129921*%
%LNotpcb_paste_bot-1*%
%LPD*%
G54D15*
X05404Y0197D03*
Y01912D03*
X05042Y0226D03*
Y02201D03*
X04961Y02266D03*
Y02207D03*
X05399Y02301D03*
Y02359D03*
X05237Y0217D03*
Y02228D03*
X05113Y0226D03*
Y02201D03*
X0616Y01579D03*
Y01638D03*
X0603Y01583D03*
Y01641D03*
X05947Y01867D03*
Y01925D03*
X05254Y02066D03*
Y02124D03*
X05281Y01533D03*
Y01592D03*
X06226Y01639D03*
Y0158D03*
X06353Y01815D03*
Y01873D03*
X06398Y02221D03*
Y02163D03*
X06322Y02227D03*
Y02169D03*
X06269Y02229D03*
Y02171D03*
X06309Y0248D03*
Y02422D03*
G54D22*
X03188Y01806D03*
Y01747D03*
X03285Y01806D03*
Y01747D03*
X03089Y01807D03*
Y01748D03*
X02991Y01807D03*
Y01748D03*
X05108Y01929D03*
Y01988D03*
X05171Y01929D03*
Y01988D03*
X05238D03*
Y01929D03*
X04919D03*
Y01988D03*
X04982D03*
Y01929D03*
X05041Y01933D03*
Y01992D03*
X06388Y01443D03*
Y01384D03*
X0586Y01614D03*
Y01555D03*
X04856Y01929D03*
Y01988D03*
X06136Y02719D03*
Y0266D03*
X06321Y02122D03*
Y02063D03*
X06291Y01829D03*
Y01888D03*
X06143Y01836D03*
Y01895D03*
X05782Y01823D03*
Y01882D03*
X06376Y02122D03*
Y02063D03*
X06423Y01784D03*
Y01843D03*
X06431Y02122D03*
Y02063D03*
X06494Y02811D03*
Y02752D03*
X06573D03*
Y02811D03*
X06652D03*
Y02752D03*
X06585Y01386D03*
Y01327D03*
X06664Y01386D03*
Y01327D03*
X06742Y01386D03*
Y01327D03*
X05665Y02797D03*
Y02738D03*
G54D25*
X04452Y02627D03*
X04393D03*
X0385Y02628D03*
X03791D03*
X04196Y02627D03*
X04255D03*
X04053Y02628D03*
X03994D03*
X02522Y01014D03*
X02463D03*
X03864Y00811D03*
X03923D03*
X05032Y01845D03*
X04973D03*
X05659Y02661D03*
X05718D03*
X05993Y02436D03*
X06052D03*
X05894Y0188D03*
X05835D03*
X06002Y02664D03*
X06061D03*
X06311Y0238D03*
X06252D03*
X06318Y02532D03*
X06377D03*
X05878Y01951D03*
X05819D03*
X07587Y01384D03*
X07528D03*
G54D27*
X02735Y00925D03*
X02794D03*
X02733Y00867D03*
X02791D03*
X04953Y01455D03*
X04894D03*
X0496Y01561D03*
X04902D03*
X05087Y01864D03*
X05145D03*
X04802Y02177D03*
X0486D03*
X05404Y02213D03*
X05462D03*
X06001Y02608D03*
X06059D03*
X0613D03*
X06189D03*
X06437Y02368D03*
X06378D03*
X04668Y0222D03*
X0461D03*
X0585Y02416D03*
X05792D03*
X04851Y02271D03*
X04793D03*
X07412Y01455D03*
X07471D03*
X0741Y01384D03*
X07468D03*
X07634D03*
X07693D03*
X07487Y02734D03*
X07545D03*
X07587D03*
X07645D03*
X06317Y0171D03*
X06376D03*
X06155Y01716D03*
X06097D03*
X06292Y01765D03*
X0635D03*
X06156Y01775D03*
X06098D03*
X06447Y02218D03*
X06506D03*
X06306Y0261D03*
X06247D03*
X06189Y02281D03*
X0613D03*
X06561Y01658D03*
X06619D03*
X06496Y01719D03*
X06438D03*
G54D36*
X06522Y02022D03*
Y02136D03*
G54D37*
X06378Y01616D03*
X06492D03*
X06662Y02325D03*
X06776D03*
X05488Y02014D03*
X05603D03*
G54D114*
X03775Y02756D03*
X03862Y02719D03*
Y02794D03*
X04461Y02795D03*
Y0272D03*
X04375Y02757D03*
X04264Y02794D03*
Y02719D03*
X04178Y02756D03*
X04064Y02795D03*
Y0272D03*
X03978Y02757D03*
X03709Y00928D03*
X03796Y00891D03*
Y00966D03*
G54D115*
X05034Y01599D03*
X05191D03*
Y01504D03*
X05034D03*
G54D116*
X03705Y00773D03*
X03685Y00773D03*
X03665D03*
X03646D03*
X03626D03*
X03606D03*
X03587D03*
X03567D03*
X03547D03*
X03527D03*
X03508D03*
X03488D03*
X03468D03*
X03449D03*
X03429D03*
X03409D03*
X0339D03*
X0337D03*
X0335D03*
X03331D03*
X03311D03*
X03291D03*
X03272D03*
X03252D03*
X03232D03*
X03212D03*
X03193D03*
X03173D03*
X03153D03*
X03134D03*
X03114D03*
X03094D03*
X03075D03*
X03055D03*
X03035D03*
X03016D03*
X02996D03*
X02976D03*
X02957D03*
X02937D03*
X02917Y00773D03*
X02898Y00773D03*
X02878Y00773D03*
X02858D03*
X02838D03*
X02819D03*
X02799Y00773D03*
X02779Y00773D03*
X0276D03*
X0274D03*
G54D117*
X02677Y00687D03*
X03768Y00687D03*
M02*