%FSTAX23Y23*%
%MOIN*%
%SFA1B1*%

%IPPOS*%
%ADD10C,0.007874*%
%ADD94C,0.010000*%
%ADD98C,0.118110*%
%ADD99C,0.060000*%
%ADD101C,0.244094*%
%ADD102C,0.025591*%
%ADD103C,0.055118*%
%ADD104C,0.023622*%
%ADD105O,0.078740X0.035433*%
%ADD106O,0.066929X0.035433*%
%ADD107C,0.064960*%
%ADD109C,0.097441*%
%ADD110R,0.097441X0.097441*%
%ADD112C,0.028000*%
%LNotpcb_copper_signal_1-1*%
%LPD*%
G36*
X02355Y04D02*
Y03948D01*
Y03915*
Y03339*
X02689*
Y03081*
X03379*
Y03339*
X03665*
Y03223*
X04301*
Y03438*
X05335*
Y03995*
X05339Y03999*
X07859Y03998*
X07859Y03998*
X07865Y03998*
X07879Y03993*
X07893Y03986*
X07905Y03976*
X07914Y03965*
X07921Y03951*
X07926Y03937*
X07926Y0393*
X07927Y0393*
Y02675*
X07696*
X07693Y02674*
X07691Y02673*
X07689Y0267*
X07688Y02667*
Y01958*
X07689Y01955*
X07691Y01952*
X07693Y01951*
X07696Y0195*
X07927*
Y01246*
X07699*
X07696Y01246*
X07693Y01244*
X07691Y01241*
X07691Y01238*
Y00529*
X07691Y00526*
X07693Y00524*
X07696Y00522*
X07699Y00521*
X07927*
Y00215*
X07927Y0021*
X07926Y00206*
X07926Y00198*
X07922Y00186*
X07916Y00176*
X07908Y00166*
X07899Y00158*
X07888Y00152*
X07876Y00149*
X07871Y00148*
X0787Y00148*
X00095Y00148*
X0009*
X0009*
X00085Y00149*
X00073Y0015*
X00058Y00155*
X00043Y00162*
X0003Y00173*
X0002Y00186*
X00012Y002*
X00007Y00216*
X00007Y00223*
X00007Y00223*
X00007Y00351*
X00006Y00352*
X00006Y01727*
X00007Y02404*
Y02404*
Y03018*
Y03061*
Y03326*
Y0335*
X00007Y0335*
Y03373*
Y034*
Y03698*
Y03912*
X00007Y03916*
X00006Y03921*
X00008Y03936*
X00013Y03951*
X0002Y03965*
X0003Y03977*
X00042Y03987*
X00056Y03995*
X0007Y03999*
X00944Y04*
X02355Y04*
G37*
%LNotpcb_copper_signal_1-2*%
%LPC*%
G36*
X06275Y03685D02*
X06162D01*
Y03572*
X06275*
Y03685*
G37*
G36*
X06026D02*
X06011D01*
X05997Y03681*
X05984Y03673*
X05973Y03663*
X05966Y0365*
X05962Y03636*
Y03621*
X05966Y03606*
X05973Y03593*
X05984Y03583*
X05997Y03575*
X06011Y03572*
X06026*
X0604Y03575*
X06053Y03583*
X06064Y03593*
X06071Y03606*
X06075Y03621*
Y03636*
X06071Y0365*
X06064Y03663*
X06053Y03673*
X0604Y03681*
X06026Y03685*
G37*
G36*
X0574D02*
X05627D01*
Y03572*
X0574*
Y03685*
G37*
G36*
X05491D02*
X05476D01*
X05461Y03681*
X05448Y03673*
X05438Y03663*
X0543Y0365*
X05427Y03636*
Y03621*
X0543Y03606*
X05438Y03593*
X05448Y03583*
X05461Y03575*
X05476Y03572*
X05491*
X05505Y03575*
X05518Y03583*
X05528Y03593*
X05536Y03606*
X0554Y03621*
Y03636*
X05536Y0365*
X05528Y03663*
X05518Y03673*
X05505Y03681*
X05491Y03685*
G37*
G36*
X07258Y03601D02*
X0725D01*
X07243Y03598*
X07237Y03592*
X07234Y03585*
Y03577*
X07237Y0357*
X07243Y03564*
X0725Y03561*
X07258*
X07265Y03564*
X07271Y0357*
X07274Y03577*
Y03585*
X07271Y03592*
X07265Y03598*
X07258Y03601*
G37*
G36*
X07098Y03513D02*
X0709D01*
X07082Y0351*
X07077Y03504*
X07074Y03497*
Y03489*
X07077Y03482*
X07082Y03477*
X0709Y03474*
X07098*
X07105Y03477*
X0711Y03482*
X07113Y03489*
Y03497*
X0711Y03504*
X07105Y0351*
X07098Y03513*
G37*
G36*
X0664Y03482D02*
X06632D01*
X06625Y03479*
X06619Y03474*
X06616Y03467*
Y03459*
X06619Y03452*
X06625Y03446*
X06632Y03443*
X0664*
X06647Y03446*
X06653Y03452*
X06656Y03459*
Y03467*
X06653Y03474*
X06647Y03479*
X0664Y03482*
G37*
G36*
X02181Y03551D02*
X02176D01*
Y03424*
X02303*
Y0343*
X02299Y0345*
X02293Y0347*
X02284Y03488*
X02271Y03505*
X02257Y0352*
X0224Y03532*
X02221Y03542*
X02202Y03548*
X02181Y03551*
G37*
G36*
X02166D02*
X0216D01*
X0214Y03548*
X0212Y03542*
X02101Y03532*
X02085Y0352*
X0207Y03505*
X02058Y03488*
X02048Y0347*
X02042Y0345*
X02039Y0343*
Y03424*
X02166*
Y03551*
G37*
G36*
X00252D02*
X00247D01*
Y03424*
X00374*
Y0343*
X0037Y0345*
X00364Y0347*
X00354Y03488*
X00342Y03505*
X00328Y0352*
X00311Y03532*
X00292Y03542*
X00272Y03548*
X00252Y03551*
G37*
G36*
X00237D02*
X00231D01*
X00211Y03548*
X00191Y03542*
X00172Y03532*
X00155Y0352*
X00141Y03505*
X00129Y03488*
X00119Y0347*
X00113Y0345*
X00109Y0343*
Y03424*
X00237*
Y03551*
G37*
G36*
X06179Y03443D02*
X06171D01*
X06164Y0344*
X06159Y03435*
X06156Y03427*
Y03419*
X06159Y03412*
X06164Y03407*
X06171Y03404*
X06179*
X06186Y03407*
X06192Y03412*
X06195Y03419*
Y03427*
X06192Y03435*
X06186Y0344*
X06179Y03443*
G37*
G36*
X07191Y03396D02*
X07183D01*
X07176Y03393*
X0717Y03387*
X07167Y0338*
Y03372*
X0717Y03365*
X07176Y03359*
X07183Y03356*
X07191*
X07198Y03359*
X07204Y03365*
X07207Y03372*
Y0338*
X07204Y03387*
X07198Y03393*
X07191Y03396*
G37*
G36*
X04535Y03415D02*
X04524D01*
X04514Y03412*
X04505Y03406*
X04497Y03399*
X04492Y0339*
X04489Y03379*
Y03369*
X04492Y03359*
X04497Y03349*
X04505Y03342*
X04514Y03337*
X04524Y03334*
X04535*
X04545Y03337*
X04554Y03342*
X04562Y03349*
X04567Y03359*
X0457Y03369*
Y03379*
X04567Y0339*
X04562Y03399*
X04554Y03406*
X04545Y03412*
X04535Y03415*
G37*
G36*
X07286Y0336D02*
X07278D01*
X0727Y03357*
X07265Y03352*
X07262Y03345*
Y03337*
X07265Y0333*
X0727Y03324*
X07278Y03321*
X07286*
X07293Y03324*
X07298Y0333*
X07301Y03337*
Y03345*
X07298Y03352*
X07293Y03357*
X07286Y0336*
G37*
G36*
X07219Y03356D02*
X07211D01*
X07204Y03353*
X07198Y03348*
X07195Y03341*
Y03333*
X07198Y03326*
X07204Y0332*
X07211Y03317*
X07219*
X07226Y0332*
X07231Y03326*
X07234Y03333*
Y03341*
X07231Y03348*
X07226Y03353*
X07219Y03356*
G37*
G36*
X06789Y03475D02*
X06782D01*
X06774Y03472*
X06769Y03466*
X06766Y03459*
Y03451*
X06769Y03444*
X06774Y03438*
X06782Y03435*
X06787*
X06824Y03398*
Y03228*
X06813Y03217*
X06763*
X0676Y03222*
X06762Y03227*
Y03234*
X06759Y03242*
X06753Y03247*
X06746Y0325*
X06738*
X06731Y03247*
X06728Y03244*
X06571*
X06484Y0333*
X0648Y03333*
X06475Y03334*
X06192*
X0619Y03339*
X06192Y03341*
X06195Y03349*
Y03356*
X06193Y03361*
X06196Y03366*
X06568*
X06623Y03312*
X06627Y03309*
X06632Y03308*
X06783*
X06786Y03304*
X06793Y03301*
X06801*
X06809Y03304*
X06814Y0331*
X06817Y03317*
Y03325*
X06814Y03332*
X06809Y03338*
X06801Y03341*
X06793*
X06786Y03338*
X06783Y03334*
X06637*
X06583Y03388*
X06579Y03391*
X06574Y03392*
X05806*
X05801Y03391*
X05797Y03388*
X05548Y0314*
X05528*
X05523Y03139*
X05519Y03136*
X05447Y03064*
X05444Y0306*
X05443Y03055*
Y03035*
X05341Y02933*
X03841*
X03836Y02932*
X03831Y02929*
X02721Y01818*
X02688Y01786*
X02238*
X02238Y01787*
X02237Y01791*
X02245Y01795*
X02253Y01803*
X02258Y01812*
X02261Y01822*
Y01822*
X02221*
X02181*
Y01822*
X02183Y01812*
X02189Y01803*
X02196Y01795*
X02204Y01791*
X02204Y01787*
X02203Y01786*
X02186*
X02181Y01785*
X02177Y01782*
X02148Y01753*
X02144Y01758*
X02135Y01763*
X02126Y01765*
X02116*
X02106Y01763*
X02097Y01758*
X0209Y01751*
X02085Y01742*
X02083Y01732*
Y01722*
X02085Y01713*
X0209Y01704*
X02097Y01697*
X02106Y01692*
X02116Y0169*
X02126*
X02135Y01692*
X02144Y01697*
X02151Y01704*
X02156Y01713*
X02159Y01722*
Y01727*
X02188Y01756*
X02189Y01756*
X0219Y01751*
X02185Y01742*
X02183Y01732*
Y01722*
X02185Y01713*
X0219Y01704*
X02197Y01697*
X02198Y01697*
X02197Y01692*
X02196Y01691*
X02192Y01689*
X02154Y0165*
X02151Y01651*
X02144Y01658*
X02135Y01663*
X02126Y01665*
X02116*
X02106Y01663*
X02097Y01658*
X0209Y01651*
X02085Y01642*
X02083Y01632*
Y01622*
X02085Y01613*
X0209Y01604*
X02097Y01597*
X02106Y01592*
X02116Y0159*
X02126*
X02135Y01592*
X02144Y01597*
X02151Y01604*
X02156Y01613*
X02158Y01622*
X02162Y01623*
X02166Y01626*
X02177Y01636*
X02181Y01633*
X02181Y01633*
Y01632*
X02221*
X02261*
Y01633*
X02258Y01643*
X02253Y01652*
X02245Y01659*
X02242Y01661*
X02244Y01666*
X0277*
X02775Y01667*
X02779Y0167*
X03965Y02856*
X05347*
X05352Y02857*
X05356Y0286*
X05501Y03005*
X05504Y03009*
X05505Y0301*
X0551Y03011*
X05515Y03009*
X05523*
X0553Y03012*
X05535Y03018*
X05538Y03025*
Y03033*
X05538Y03034*
X05546Y03042*
X05548Y03046*
X05549Y03051*
Y03053*
X05556Y0306*
X05753*
X05831Y02981*
X05836Y02978*
X05841Y02977*
X06365*
X06568Y02774*
X06566Y02769*
X06562Y02767*
X06556Y02761*
X06554Y02757*
X06549Y02755*
X06344Y0296*
X0634Y02963*
X06334Y02964*
X05741*
X05738Y02968*
X0573Y02971*
X05723*
X05715Y02968*
X0571Y02962*
X05707Y02955*
Y02947*
X0571Y0294*
X05715Y02934*
X05723Y02931*
X0573*
X05738Y02934*
X05741Y02938*
X06329*
X06867Y024*
Y01615*
X06862Y01613*
X06622Y01854*
Y01944*
X06625Y01948*
X06628Y01955*
Y01963*
X06625Y0197*
X0662Y01975*
X06612Y01978*
X06604*
X06597Y01975*
X06592Y0197*
X06589Y01963*
Y01955*
X06592Y01948*
X06595Y01944*
Y01849*
X06596Y01844*
X06599Y01839*
X07131Y01307*
Y01117*
X07132Y01112*
X07135Y01107*
X07318Y00924*
Y00836*
X07313Y00834*
X07035Y01112*
X07036Y01117*
X07041Y01119*
X07046Y01125*
X07049Y01132*
Y0114*
X07046Y01147*
X07043Y01151*
Y01308*
X07042Y01313*
X07039Y01317*
X06464Y01891*
X06466Y01895*
X06467Y01896*
X06472Y01896*
X0708Y01288*
Y01182*
X07076Y01179*
X07073Y01171*
Y01164*
X07076Y01156*
X07082Y01151*
X07089Y01148*
X07097*
X07104Y01151*
X07109Y01156*
X07112Y01164*
Y01171*
X07109Y01179*
X07106Y01182*
Y01293*
X07105Y01298*
X07102Y01303*
X0649Y01914*
Y01919*
X06487Y01927*
X06482Y01932*
X06475Y01935*
X06467*
X06459Y01932*
X06454Y01927*
X06451Y01919*
Y01916*
X06446Y01913*
X06445Y01913*
X06445Y01914*
X06442Y01921*
X06436Y01926*
X06429Y01929*
X06421*
X06414Y01926*
X06409Y01921*
X06407Y01916*
X06404Y01916*
X06401Y01916*
X06399Y01923*
X06393Y01928*
X06386Y01931*
X06378*
X06371Y01928*
X06366Y01924*
X06365Y01923*
X0636Y01923*
X06304Y01979*
Y02021*
X06309Y02024*
X06313Y02022*
X06321*
X06328Y02025*
X06334Y0203*
X06337Y02038*
Y02045*
X06334Y02053*
X06328Y02058*
X06321Y02061*
X06313*
X06312Y02061*
X06307Y02064*
X06306Y02065*
X0633Y02089*
X06333Y02093*
X06334Y02098*
Y02201*
X06338Y02205*
X06341Y02212*
Y0222*
X06338Y02227*
X06332Y02232*
X06325Y02235*
X06317*
X0631Y02232*
X06304Y02227*
X06301Y0222*
Y02212*
X06304Y02205*
X06308Y02201*
Y02104*
X06294Y0209*
X06288Y02091*
X06287Y02096*
X06281Y02101*
X06274Y02104*
X06266*
X06259Y02101*
X06254Y02097*
X06153*
X06149Y02096*
X06145Y02098*
X06137*
X0613Y02095*
X06124Y02089*
X06121Y02082*
Y02074*
X06124Y02067*
X0613Y02061*
X06137Y02058*
X06145*
X06152Y02061*
X06158Y02067*
X0616Y02073*
X06254*
X06259Y02068*
X06266Y02065*
X06274*
X06277Y02063*
Y01974*
X06278Y01969*
X06281Y01965*
X06339Y01906*
Y01829*
X06336Y01826*
X06333Y01818*
Y01811*
X06336Y01803*
X06341Y01798*
X06349Y01795*
X06356*
X06364Y01798*
X06369Y01803*
X06372Y01811*
Y01818*
X06369Y01826*
X06366Y01829*
Y0187*
X06371Y01871*
X06373Y01868*
X06453Y01787*
X06454Y01785*
X0645Y01781*
X06447Y01774*
Y01766*
X0645Y01759*
X06456Y01753*
X06463Y0175*
X06471*
X06478Y01753*
X06483Y01759*
X06485Y01763*
X06491Y01765*
X06965Y0129*
Y01045*
X06966Y0104*
X06969Y01036*
X07225Y0078*
Y00659*
X07222Y00655*
X07219Y00648*
Y0064*
X07222Y00633*
X07227Y00627*
X07234Y00624*
X07242*
X07249Y00627*
X07255Y00633*
X07258Y0064*
Y00648*
X07255Y00655*
X07251Y00659*
Y00786*
X0725Y00791*
X07248Y00795*
X06992Y01051*
Y01111*
X06996Y01113*
X07292Y00817*
Y00619*
X07289Y00616*
X07286Y00608*
Y00601*
X07289Y00593*
X07294Y00588*
X07301Y00585*
X07309*
X07316Y00588*
X07322Y00593*
X07325Y00601*
Y00608*
X07322Y00616*
X07318Y00619*
Y00633*
X07323Y00635*
X07345Y00613*
Y00608*
X07348Y00601*
X07353Y00596*
X0736Y00593*
X07368*
X07375Y00596*
X07381Y00601*
X07384Y00608*
Y00616*
X07381Y00624*
X07375Y00629*
X07368Y00632*
X07363*
X07344Y00651*
Y00906*
X07349Y00907*
X07349Y00907*
X07355Y00901*
X07364Y00898*
X0737*
Y00891*
X07374Y00883*
X0738Y00876*
X07388Y00873*
Y00896*
X07398*
Y00873*
X07406Y00876*
X07412Y00883*
X07415Y00889*
X0742*
X07423Y00883*
X07429Y00876*
X07437Y00873*
Y00896*
X07447*
Y00873*
X07455Y00876*
X07461Y00883*
X07465Y00891*
Y00898*
X07471*
X0748Y00901*
X07486Y00908*
X07489Y00915*
X07467*
Y00925*
X07489*
X07486Y00933*
X0748Y0094*
X07473Y00942*
Y00948*
X0748Y0095*
X07486Y00957*
X07489Y00965*
X07467*
Y00975*
X07489*
X07486Y00983*
X0748Y00989*
X07471Y00992*
X07465*
Y00999*
X07461Y01007*
X07455Y01014*
X07447Y01017*
Y00994*
X07437*
Y01017*
X07429Y01014*
X07423Y01007*
X0742Y01001*
X07415*
X07412Y01007*
X07406Y01014*
X07398Y01017*
Y00994*
X07388*
Y01017*
X0738Y01014*
X07374Y01007*
X0737Y00999*
Y00992*
X07364*
X07355Y00989*
X07349Y00983*
X07346Y00975*
X07368*
Y00965*
X07346*
X07349Y00957*
X07355Y0095*
X07362Y00948*
Y00942*
X07355Y0094*
X07349Y00933*
X07349Y00932*
X07343Y00933*
X07343Y00935*
X0734Y00939*
X07157Y01122*
Y01308*
X07162Y0131*
X07288Y01184*
X07287Y01178*
X07282Y01176*
X07277Y01171*
X07274Y01164*
Y01156*
X07277Y01148*
X07282Y01143*
X0729Y0114*
X07297*
X07305Y01143*
X0731Y01148*
X07313Y01148*
X07315Y01148*
X07317Y01146*
Y0114*
X0732Y01133*
X07326Y01127*
X07333Y01124*
X07341*
X07348Y01127*
X07353Y01133*
X07356Y0114*
Y01148*
X07353Y01155*
X07348Y01161*
X07341Y01164*
X0734*
X07333Y01171*
X07332Y01176*
X07329Y0118*
X0723Y0128*
X07232Y01284*
X07294*
X07298Y01281*
X07305Y01278*
X07313*
X0732Y01281*
X07326Y01286*
X07327Y01289*
X07332Y0129*
X07335Y01288*
Y01199*
X07336Y01194*
X07339Y0119*
X0736Y01169*
Y01164*
X07363Y01156*
X07369Y01151*
X07376Y01148*
X07384*
X07391Y01151*
X07397Y01156*
X074Y01164*
Y01171*
X07397Y01179*
X07391Y01184*
X07384Y01187*
X07379*
X07362Y01205*
Y01296*
X07361Y01301*
X07358Y01305*
X07201Y01462*
X07202Y01466*
X07203Y01467*
X07211*
X07218Y0147*
X07224Y01475*
X07227Y01482*
Y0149*
X07224Y01498*
X07218Y01503*
X07211Y01506*
X07203*
X07196Y01503*
X0719Y01498*
X07187Y0149*
Y01482*
X0719Y01475*
X07189Y01474*
X07187Y01471*
X07186Y01471*
X07171*
X07169Y01476*
X07172Y01479*
X07175Y01486*
Y01494*
X07172Y01501*
X07167Y01507*
X0716Y0151*
X07152*
X07145Y01507*
X07139Y01501*
X07136Y01494*
Y01486*
X07139Y01479*
X07142Y01476*
X0714Y01471*
X07079*
X06925Y01626*
Y0173*
X0693Y01733*
X06935Y0173*
X06943*
X0695Y01733*
X06956Y01739*
X06959Y01746*
Y01754*
X06956Y01761*
X0695Y01767*
X06943Y0177*
X06935*
X0693Y01768*
X06925Y0177*
Y02427*
X06924Y02432*
X06921Y02437*
X06654Y02703*
Y0272*
X06653Y02725*
X0665Y02729*
X0638Y03*
X06376Y03002*
X06371Y03003*
X05846*
X05767Y03082*
X05763Y03085*
X05758Y03086*
X05611*
X05609Y03091*
X05799Y0328*
X06223*
X06309Y03195*
X06313Y03192*
X06318Y03191*
X06818*
X06823Y03192*
X06827Y03195*
X06846Y03213*
X06849Y03218*
X0685Y03223*
Y03404*
X06849Y03409*
X06846Y03413*
X06805Y03454*
Y03459*
X06802Y03466*
X06797Y03472*
X06789Y03475*
G37*
G36*
X02303Y03414D02*
X02176D01*
Y03287*
X02181*
X02202Y0329*
X02221Y03297*
X0224Y03306*
X02257Y03318*
X02271Y03333*
X02284Y0335*
X02293Y03368*
X02299Y03388*
X02303Y03409*
Y03414*
G37*
G36*
X02166D02*
X02039D01*
Y03409*
X02042Y03388*
X02048Y03368*
X02058Y0335*
X0207Y03333*
X02085Y03318*
X02101Y03306*
X0212Y03297*
X0214Y0329*
X0216Y03287*
X02166*
Y03414*
G37*
G36*
X00374D02*
X00247D01*
Y03287*
X00252*
X00272Y0329*
X00292Y03297*
X00311Y03306*
X00328Y03318*
X00342Y03333*
X00354Y0335*
X00364Y03368*
X0037Y03388*
X00374Y03409*
Y03414*
G37*
G36*
X00237D02*
X00109D01*
Y03409*
X00113Y03388*
X00119Y03368*
X00129Y0335*
X00141Y03333*
X00155Y03318*
X00172Y03306*
X00191Y03297*
X00211Y0329*
X00231Y03287*
X00237*
Y03414*
G37*
G36*
X07344Y03305D02*
X07336D01*
X07329Y03302*
X07324Y03297*
X07321Y03289*
Y03281*
X07324Y03274*
X07329Y03269*
X07336Y03266*
X07344*
X07351Y03269*
X07357Y03274*
X0736Y03281*
Y03289*
X07357Y03297*
X07351Y03302*
X07344Y03305*
G37*
G36*
X0358Y03325D02*
X0357D01*
X03559Y03322*
X0355Y03317*
X03543Y03309*
X03537Y033*
X03535Y0329*
Y03279*
X03537Y03269*
X03543Y0326*
X0355Y03252*
X03559Y03247*
X0357Y03244*
X0358*
X03591Y03247*
X036Y03252*
X03607Y0326*
X03613Y03269*
X03615Y03279*
Y0329*
X03613Y033*
X03607Y03309*
X036Y03317*
X03591Y03322*
X0358Y03325*
G37*
G36*
X0771Y03252D02*
X07693D01*
Y03229*
X07737*
X07737Y03231*
X07734Y03238*
X0773Y03243*
X07724Y03248*
X07717Y03251*
X0771Y03252*
G37*
G36*
X07868D02*
X07858D01*
Y03229*
X07896*
X07895Y03231*
X07892Y03238*
X07888Y03243*
X07882Y03248*
X07875Y03251*
X07868Y03252*
G37*
G36*
X07848D02*
X07837D01*
X0783Y03251*
X07823Y03248*
X07817Y03243*
X07813Y03238*
X0781Y03231*
X07809Y03229*
X07848*
Y03252*
G37*
G36*
X07896Y03219D02*
X07858D01*
Y03196*
X07868*
X07875Y03197*
X07882Y03199*
X07888Y03204*
X07892Y0321*
X07895Y03216*
X07896Y03219*
G37*
G36*
X07848D02*
X07809D01*
X0781Y03216*
X07813Y0321*
X07817Y03204*
X07823Y03199*
X0783Y03197*
X07837Y03196*
X07848*
Y03219*
G37*
G36*
X07737D02*
X07693D01*
Y03196*
X0771*
X07717Y03197*
X07724Y03199*
X0773Y03204*
X07734Y0321*
X07737Y03216*
X07737Y03219*
G37*
G36*
X02226Y03265D02*
X02216D01*
X02206Y03263*
X02197Y03258*
X0219Y03251*
X02185Y03242*
X02183Y03232*
Y03222*
X02185Y03213*
X0219Y03204*
X02197Y03197*
X02206Y03192*
X02216Y0319*
X02226*
X02235Y03192*
X02244Y03197*
X02251Y03204*
X02256Y03213*
X02259Y03222*
Y03232*
X02256Y03242*
X02251Y03251*
X02244Y03258*
X02235Y03263*
X02226Y03265*
G37*
G36*
X02126D02*
X02116D01*
X02106Y03263*
X02097Y03258*
X0209Y03251*
X02085Y03242*
X02083Y03232*
Y03222*
X02085Y03213*
X0209Y03204*
X02097Y03197*
X02106Y03192*
X02116Y0319*
X02126*
X02135Y03192*
X02144Y03197*
X02151Y03204*
X02156Y03213*
X02159Y03222*
Y03232*
X02156Y03242*
X02151Y03251*
X02144Y03258*
X02135Y03263*
X02126Y03265*
G37*
G36*
X05128Y03243D02*
X05117D01*
X05107Y03241*
X05097Y03235*
X0509Y03228*
X05085Y03218*
X05082Y03208*
Y03198*
X05085Y03187*
X0509Y03178*
X05097Y03171*
X05107Y03165*
X05117Y03163*
X05128*
X05138Y03165*
X05147Y03171*
X05154Y03178*
X0516Y03187*
X05163Y03198*
Y03208*
X0516Y03218*
X05154Y03228*
X05147Y03235*
X05138Y03241*
X05128Y03243*
G37*
G36*
X04942D02*
X04932D01*
X04922Y03241*
X04912Y03235*
X04905Y03228*
X049Y03218*
X04897Y03208*
Y03198*
X049Y03187*
X04905Y03178*
X04912Y03171*
X04922Y03165*
X04932Y03163*
X04942*
X04953Y03165*
X04962Y03171*
X04969Y03178*
X04975Y03187*
X04978Y03198*
Y03208*
X04975Y03218*
X04969Y03228*
X04962Y03235*
X04953Y03241*
X04942Y03243*
G37*
G36*
X04535Y03229D02*
X04524D01*
X04514Y03227*
X04505Y03221*
X04497Y03214*
X04492Y03205*
X04489Y03194*
Y03184*
X04492Y03174*
X04497Y03164*
X04505Y03157*
X04514Y03152*
X04524Y03149*
X04535*
X04545Y03152*
X04554Y03157*
X04562Y03164*
X04567Y03174*
X0457Y03184*
Y03194*
X04567Y03205*
X04562Y03214*
X04554Y03221*
X04545Y03227*
X04535Y03229*
G37*
G36*
X07712Y03187D02*
X07704D01*
X07696Y03184*
X07691Y03178*
X07688Y03171*
Y03163*
X07691Y03156*
X07696Y0315*
X07704Y03147*
X07712*
X07719Y0315*
X07724Y03156*
X07727Y03163*
Y03171*
X07724Y03178*
X07719Y03184*
X07712Y03187*
G37*
G36*
X02612Y03216D02*
X02601D01*
X02591Y03213*
X02582Y03208*
X02574Y032*
X02569Y03191*
X02566Y03181*
Y0317*
X02569Y0316*
X02574Y03151*
X02582Y03143*
X02591Y03138*
X02601Y03135*
X02612*
X02622Y03138*
X02631Y03143*
X02639Y03151*
X02644Y0316*
X02647Y0317*
Y03181*
X02644Y03191*
X02639Y032*
X02631Y03208*
X02622Y03213*
X02612Y03216*
G37*
G36*
X02427D02*
X02416D01*
X02406Y03213*
X02397Y03208*
X02389Y032*
X02384Y03191*
X02381Y03181*
Y0317*
X02384Y0316*
X02389Y03151*
X02397Y03143*
X02406Y03138*
X02416Y03135*
X02427*
X02437Y03138*
X02446Y03143*
X02454Y03151*
X02459Y0316*
X02462Y0317*
Y03181*
X02459Y03191*
X02454Y032*
X02446Y03208*
X02437Y03213*
X02427Y03216*
G37*
G36*
X02226Y03165D02*
X02216D01*
X02206Y03163*
X02197Y03158*
X0219Y03151*
X02185Y03142*
X02183Y03132*
Y03122*
X02185Y03113*
X0219Y03104*
X02197Y03097*
X02206Y03092*
X02216Y0309*
X02226*
X02235Y03092*
X02244Y03097*
X02251Y03104*
X02256Y03113*
X02259Y03122*
Y03132*
X02256Y03142*
X02251Y03151*
X02244Y03158*
X02235Y03163*
X02226Y03165*
G37*
G36*
X02126D02*
X02116D01*
X02106Y03163*
X02097Y03158*
X0209Y03151*
X02085Y03142*
X02083Y03132*
Y03122*
X02085Y03113*
X0209Y03104*
X02097Y03097*
X02106Y03092*
X02116Y0309*
X02126*
X02135Y03092*
X02144Y03097*
X02151Y03104*
X02156Y03113*
X02159Y03122*
Y03132*
X02156Y03142*
X02151Y03151*
X02144Y03158*
X02135Y03163*
X02126Y03165*
G37*
G36*
X0358Y0314D02*
X0357D01*
X03559Y03137*
X0355Y03132*
X03543Y03124*
X03537Y03115*
X03535Y03105*
Y03094*
X03537Y03084*
X03543Y03075*
X0355Y03067*
X03559Y03062*
X0357Y03059*
X0358*
X03591Y03062*
X036Y03067*
X03607Y03075*
X03613Y03084*
X03615Y03094*
Y03105*
X03613Y03115*
X03607Y03124*
X036Y03132*
X03591Y03137*
X0358Y0314*
G37*
G36*
X02226Y03067D02*
X02226D01*
Y03032*
X02261*
Y03033*
X02258Y03043*
X02253Y03052*
X02245Y03059*
X02236Y03065*
X02226Y03067*
G37*
G36*
X02216D02*
X02215D01*
X02205Y03065*
X02196Y03059*
X02189Y03052*
X02183Y03043*
X02181Y03033*
Y03032*
X02216*
Y03067*
G37*
G36*
X07636Y03419D02*
X07628D01*
X07621Y03416*
X07615Y03411*
X07612Y03404*
Y03396*
X07615Y03389*
X07619Y03385*
Y03037*
X07599Y03017*
X07598Y03017*
X07594Y0302*
Y03211*
X07593Y03216*
X0759Y0322*
X07573Y03237*
Y03242*
X0757Y03249*
X07564Y03255*
X07557Y03258*
X07549*
X07542Y03255*
X07537Y03249*
X07534Y03242*
Y03234*
X07535Y03231*
X07531Y03228*
X07511Y03248*
Y03349*
X0751Y03354*
X0751Y03354*
Y0336*
X07507Y03368*
X07501Y03373*
X07494Y03376*
X07486*
X07479Y03373*
X07474Y03368*
X07471Y0336*
Y03353*
X07474Y03345*
X07479Y0334*
X07485Y03337*
Y03242*
X07486Y03237*
X07489Y03233*
X07544Y03178*
Y03158*
X07539Y03157*
X07538Y03159*
X07533Y03164*
X07526Y03167*
X07518*
X07511Y03164*
X07505Y03159*
X07502Y03152*
Y03144*
X07505Y03137*
X07511Y03131*
X07518Y03128*
X07526*
X07533Y03131*
X07538Y03137*
X07539Y03138*
X07544Y03137*
Y03035*
X07033Y02524*
X07031Y0252*
X0703Y02515*
Y02061*
X07026Y02058*
X07023Y02051*
Y02043*
X07026Y02035*
X07032Y0203*
X07039Y02027*
X07047*
X07054Y0203*
X07059Y02035*
X07062Y02043*
Y02051*
X07059Y02058*
X07056Y02061*
Y0251*
X07075Y02528*
X0708Y02526*
Y02064*
X07076Y02061*
X07073Y02053*
Y02045*
X07076Y02038*
X07082Y02033*
X07089Y0203*
X07097*
X07104Y02033*
X07109Y02038*
X07112Y02045*
Y02053*
X07109Y02061*
X07106Y02064*
Y02524*
X07125Y02543*
X07125Y02543*
X0713Y02541*
Y02063*
X07126Y02059*
X07123Y02052*
Y02044*
X07126Y02037*
X07132Y02031*
X07139Y02028*
X07147*
X07154Y02031*
X07159Y02037*
X07162Y02044*
Y02052*
X07159Y02059*
X07156Y02063*
Y02537*
X0736Y02741*
X07365Y0274*
X07367Y02735*
X07373Y0273*
X0738Y02727*
X07388*
X07395Y0273*
X07401Y02735*
X07404Y02742*
Y0275*
X07401Y02757*
X07395Y02763*
X07391Y02765*
X07389Y02771*
X07641Y03023*
X07644Y03027*
X07645Y03032*
Y03199*
X0765Y03201*
X07653Y03199*
X07659Y03197*
X07667Y03196*
X07683*
Y03224*
X07688*
X07683*
Y03252*
X07667*
X07659Y03251*
X07653Y03248*
X0765Y03246*
X07645Y03248*
Y03385*
X07649Y03389*
X07652Y03396*
Y03404*
X07649Y03411*
X07643Y03416*
X07636Y03419*
G37*
G36*
X04605Y03054D02*
X04597D01*
X0459Y03051*
X04584Y03045*
X04581Y03038*
Y0303*
X04584Y03023*
X0459Y03017*
X04597Y03014*
X04605*
X04612Y03017*
X04618Y03023*
X04621Y0303*
Y03038*
X04618Y03045*
X04612Y03051*
X04605Y03054*
G37*
G36*
X02126Y03065D02*
X02116D01*
X02106Y03063*
X02097Y03058*
X0209Y03051*
X02085Y03042*
X02083Y03032*
Y03022*
X02085Y03013*
X0209Y03004*
X02097Y02997*
X02106Y02992*
X02116Y0299*
X02126*
X02135Y02992*
X02144Y02997*
X02151Y03004*
X02156Y03013*
X02159Y03022*
Y03032*
X02156Y03042*
X02151Y03051*
X02144Y03058*
X02135Y03063*
X02126Y03065*
G37*
G36*
X02261Y03022D02*
X02226D01*
Y02987*
X02226*
X02236Y0299*
X02245Y02995*
X02253Y03003*
X02258Y03012*
X02261Y03022*
Y03022*
G37*
G36*
X02216D02*
X02181D01*
Y03022*
X02183Y03012*
X02189Y03003*
X02196Y02995*
X02205Y0299*
X02215Y02987*
X02216*
Y03022*
G37*
G36*
X04039Y03005D02*
X04031D01*
X04024Y03002*
X04018Y02996*
X04015Y02989*
Y02981*
X04018Y02974*
X04024Y02969*
X04031Y02966*
X04039*
X04046Y02969*
X04052Y02974*
X04055Y02981*
Y02989*
X04052Y02996*
X04046Y03002*
X04039Y03005*
G37*
G36*
X05604Y02975D02*
X05597D01*
X05589Y02972*
X05584Y02966*
X05581Y02959*
Y02951*
X05584Y02944*
X05589Y02938*
X05597Y02935*
X05604*
X05612Y02938*
X05617Y02944*
X0562Y02951*
Y02959*
X05617Y02966*
X05612Y02972*
X05604Y02975*
G37*
G36*
X07712Y02959D02*
X07704D01*
X07696Y02956*
X07691Y02951*
X07688Y02943*
Y02936*
X07691Y02928*
X07696Y02923*
X07704Y0292*
X07712*
X07719Y02923*
X07724Y02928*
X07727Y02936*
Y02943*
X07724Y02951*
X07719Y02956*
X07712Y02959*
G37*
G36*
X02226Y02965D02*
X02216D01*
X02206Y02963*
X02197Y02958*
X0219Y02951*
X02185Y02942*
X02183Y02932*
Y02922*
X02185Y02913*
X0219Y02904*
X02197Y02897*
X02206Y02892*
X02216Y0289*
X02226*
X02235Y02892*
X02244Y02897*
X02251Y02904*
X02256Y02913*
X02259Y02922*
Y02932*
X02256Y02942*
X02251Y02951*
X02244Y02958*
X02235Y02963*
X02226Y02965*
G37*
G36*
X02126D02*
X02116D01*
X02106Y02963*
X02097Y02958*
X0209Y02951*
X02085Y02942*
X02083Y02932*
Y02922*
X02085Y02913*
X0209Y02904*
X02097Y02897*
X02106Y02892*
X02116Y0289*
X02126*
X02135Y02892*
X02144Y02897*
X02151Y02904*
X02156Y02913*
X02159Y02922*
Y02932*
X02156Y02942*
X02151Y02951*
X02144Y02958*
X02135Y02963*
X02126Y02965*
G37*
G36*
X0771Y02911D02*
X07693D01*
Y02888*
X07737*
X07737Y0289*
X07734Y02897*
X0773Y02903*
X07724Y02907*
X07717Y0291*
X0771Y02911*
G37*
G36*
X07868D02*
X07858D01*
Y02888*
X07896*
X07895Y0289*
X07892Y02897*
X07888Y02903*
X07882Y02907*
X07875Y0291*
X07868Y02911*
G37*
G36*
X07848D02*
X07837D01*
X0783Y0291*
X07823Y02907*
X07817Y02903*
X07813Y02897*
X0781Y0289*
X07809Y02888*
X07848*
Y02911*
G37*
G36*
X07683D02*
X07667D01*
X07659Y0291*
X07653Y02907*
X07647Y02903*
X07642Y02897*
X0764Y0289*
X07639Y02888*
X07683*
Y02911*
G37*
G36*
X03727Y0292D02*
X0372D01*
X03712Y02917*
X03707Y02911*
X03704Y02904*
Y02896*
X03707Y02889*
X03712Y02884*
X0372Y02881*
X03727*
X03735Y02884*
X0374Y02889*
X03743Y02896*
Y02904*
X0374Y02911*
X03735Y02917*
X03727Y0292*
G37*
G36*
X06656Y02908D02*
X06648D01*
X06641Y02905*
X06635Y02899*
X06632Y02892*
Y02884*
X06635Y02877*
X06641Y02871*
X06648Y02868*
X06656*
X06663Y02871*
X06668Y02877*
X06671Y02884*
Y02892*
X06668Y02899*
X06663Y02905*
X06656Y02908*
G37*
G36*
X07896Y02878D02*
X07858D01*
Y02855*
X07868*
X07875Y02856*
X07882Y02859*
X07888Y02863*
X07892Y02869*
X07895Y02876*
X07896Y02878*
G37*
G36*
X07848D02*
X07809D01*
X0781Y02876*
X07813Y02869*
X07817Y02863*
X07823Y02859*
X0783Y02856*
X07837Y02855*
X07848*
Y02878*
G37*
G36*
X07737D02*
X07693D01*
Y02855*
X0771*
X07717Y02856*
X07724Y02859*
X0773Y02863*
X07734Y02869*
X07737Y02876*
X07737Y02878*
G37*
G36*
X07683D02*
X07639D01*
X0764Y02876*
X07642Y02869*
X07647Y02863*
X07653Y02859*
X07659Y02856*
X07667Y02855*
X07683*
Y02878*
G37*
G36*
X03446Y02881D02*
X03438D01*
X03431Y02878*
X03425Y02873*
X03422Y02866*
Y02858*
X03425Y02851*
X03431Y02845*
X03438Y02842*
X03446*
X03453Y02845*
X03459Y02851*
X03462Y02858*
Y02866*
X03459Y02873*
X03453Y02878*
X03446Y02881*
G37*
G36*
X03002Y02876D02*
X02994D01*
X02987Y02873*
X02981Y02868*
X02978Y02861*
Y02853*
X02981Y02845*
X02987Y0284*
X02994Y02837*
X03002*
X03009Y0284*
X03015Y02845*
X03018Y02853*
Y02861*
X03015Y02868*
X03009Y02873*
X03002Y02876*
G37*
G36*
X02126Y02867D02*
X02126D01*
Y02832*
X02161*
Y02833*
X02158Y02843*
X02153Y02852*
X02145Y02859*
X02136Y02865*
X02126Y02867*
G37*
G36*
X02116D02*
X02115D01*
X02105Y02865*
X02096Y02859*
X02089Y02852*
X02083Y02843*
X02081Y02833*
Y02832*
X02116*
Y02867*
G37*
G36*
X07124Y02856D02*
X07116D01*
X07109Y02853*
X07104Y02848*
X07101Y02841*
Y02833*
X07104Y02826*
X07109Y0282*
X07116Y02817*
X07124*
X07131Y0282*
X07137Y02826*
X0714Y02833*
Y02841*
X07137Y02848*
X07131Y02853*
X07124Y02856*
G37*
G36*
X07053Y02849D02*
X07045D01*
X07038Y02846*
X07033Y0284*
X0703Y02833*
Y02825*
X07033Y02818*
X07038Y02812*
X07045Y02809*
X07053*
X07061Y02812*
X07066Y02818*
X07069Y02825*
Y02833*
X07066Y0284*
X07061Y02846*
X07053Y02849*
G37*
G36*
X04173Y02843D02*
X04166D01*
X04158Y0284*
X04153Y02834*
X0415Y02827*
Y02819*
X04153Y02812*
X04158Y02806*
X04166Y02803*
X04173*
X04181Y02806*
X04186Y02812*
X04189Y02819*
Y02827*
X04186Y02834*
X04181Y0284*
X04173Y02843*
G37*
G36*
X03253Y0284D02*
X03245D01*
X03238Y02837*
X03232Y02832*
X03229Y02824*
Y02816*
X03232Y02809*
X03238Y02804*
X03245Y02801*
X03253*
X0326Y02804*
X03266Y02809*
X03269Y02816*
Y02824*
X03266Y02832*
X0326Y02837*
X03253Y0284*
G37*
G36*
X06868Y02833D02*
X0686D01*
X06853Y0283*
X06848Y02824*
X06845Y02817*
Y02809*
X06848Y02802*
X06853Y02796*
X0686Y02793*
X06868*
X06875Y02796*
X06881Y02802*
X06884Y02809*
Y02817*
X06881Y02824*
X06875Y0283*
X06868Y02833*
G37*
G36*
X06963Y0283D02*
X06955D01*
X06948Y02827*
X06942Y02822*
X06939Y02815*
Y02807*
X06942Y028*
X06948Y02794*
X06955Y02791*
X06963*
X0697Y02794*
X06975Y028*
X06978Y02807*
Y02815*
X06975Y02822*
X0697Y02827*
X06963Y0283*
G37*
G36*
X02226Y02865D02*
X02216D01*
X02206Y02863*
X02197Y02858*
X0219Y02851*
X02185Y02842*
X02183Y02832*
Y02822*
X02185Y02813*
X0219Y02804*
X02197Y02797*
X02206Y02792*
X02216Y0279*
X02226*
X02235Y02792*
X02244Y02797*
X02251Y02804*
X02256Y02813*
X02259Y02822*
Y02832*
X02256Y02842*
X02251Y02851*
X02244Y02858*
X02235Y02863*
X02226Y02865*
G37*
G36*
X02161Y02822D02*
X02126D01*
Y02787*
X02126*
X02136Y0279*
X02145Y02795*
X02153Y02803*
X02158Y02812*
X02161Y02822*
Y02822*
G37*
G36*
X02116D02*
X02081D01*
Y02822*
X02083Y02812*
X02089Y02803*
X02096Y02795*
X02105Y0279*
X02115Y02787*
X02116*
Y02822*
G37*
G36*
X05623Y02824D02*
X05615D01*
X05608Y02821*
X05603Y02815*
X056Y02808*
Y028*
X05603Y02793*
X05608Y02788*
X05615Y02785*
X05623*
X0563Y02788*
X05636Y02793*
X05639Y028*
Y02808*
X05636Y02815*
X0563Y02821*
X05623Y02824*
G37*
G36*
X06715Y02813D02*
X06707D01*
X067Y0281*
X06694Y02805*
X06691Y02797*
Y0279*
X06694Y02782*
X067Y02777*
X06707Y02774*
X06715*
X06722Y02777*
X06727Y02782*
X0673Y0279*
Y02797*
X06727Y02805*
X06722Y0281*
X06715Y02813*
G37*
G36*
X03931Y02775D02*
X03923D01*
X03916Y02772*
X0391Y02767*
X03907Y02759*
Y02751*
X0391Y02744*
X03916Y02739*
X03923Y02736*
X03931*
X03938Y02739*
X03944Y02744*
X03947Y02751*
Y02759*
X03944Y02767*
X03938Y02772*
X03931Y02775*
G37*
G36*
X06254Y02774D02*
X06246D01*
X06239Y02771*
X06233Y02765*
X0623Y02758*
Y0275*
X06233Y02743*
X06239Y02737*
X06246Y02734*
X06254*
X06261Y02737*
X06267Y02743*
X0627Y0275*
Y02758*
X06267Y02765*
X06261Y02771*
X06254Y02774*
G37*
G36*
X03109Y02749D02*
Y02733D01*
X03126*
X03123Y0274*
X03117Y02746*
X03109Y02749*
G37*
G36*
X03099D02*
X03092Y02746D01*
X03086Y0274*
X03083Y02733*
X03099*
Y02749*
G37*
G36*
X06144Y0277D02*
X06136D01*
X06129Y02767*
X06123Y02761*
X0612Y02754*
Y02746*
X06123Y02739*
X06129Y02733*
X06136Y0273*
X06144*
X06151Y02733*
X06157Y02739*
X0616Y02746*
Y02754*
X06157Y02761*
X06151Y02767*
X06144Y0277*
G37*
G36*
X06423Y02766D02*
X06416D01*
X06408Y02763*
X06403Y02757*
X064Y0275*
Y02742*
X06403Y02735*
X06408Y0273*
X06416Y02727*
X06423*
X06431Y0273*
X06436Y02735*
X06439Y02742*
Y0275*
X06436Y02757*
X06431Y02763*
X06423Y02766*
G37*
G36*
X07601Y02754D02*
X07593D01*
X07585Y02751*
X0758Y02746*
X07577Y02738*
Y0273*
X0758Y02723*
X07585Y02718*
X07593Y02715*
X07601*
X07608Y02718*
X07613Y02723*
X07616Y0273*
Y02738*
X07613Y02746*
X07608Y02751*
X07601Y02754*
G37*
G36*
X07541D02*
X07534D01*
X07526Y02751*
X07521Y02746*
X07518Y02738*
Y0273*
X07521Y02723*
X07526Y02718*
X07534Y02715*
X07541*
X07549Y02718*
X07554Y02723*
X07557Y0273*
Y02738*
X07554Y02746*
X07549Y02751*
X07541Y02754*
G37*
G36*
X03126Y02723D02*
X03109D01*
Y02706*
X03117Y02709*
X03123Y02715*
X03126Y02723*
G37*
G36*
X03099D02*
X03083D01*
X03086Y02715*
X03092Y02709*
X03099Y02706*
Y02723*
G37*
G36*
X02226Y02765D02*
X02216D01*
X02206Y02763*
X02197Y02758*
X0219Y02751*
X02185Y02742*
X02183Y02732*
Y02722*
X02185Y02713*
X0219Y02704*
X02197Y02697*
X02206Y02692*
X02216Y0269*
X02226*
X02235Y02692*
X02244Y02697*
X02251Y02704*
X02256Y02713*
X02259Y02722*
Y02732*
X02256Y02742*
X02251Y02751*
X02244Y02758*
X02235Y02763*
X02226Y02765*
G37*
G36*
X02126D02*
X02116D01*
X02106Y02763*
X02097Y02758*
X0209Y02751*
X02085Y02742*
X02083Y02732*
Y02722*
X02085Y02713*
X0209Y02704*
X02097Y02697*
X02106Y02692*
X02116Y0269*
X02126*
X02135Y02692*
X02144Y02697*
X02151Y02704*
X02156Y02713*
X02159Y02722*
Y02732*
X02156Y02742*
X02151Y02751*
X02144Y02758*
X02135Y02763*
X02126Y02765*
G37*
G36*
X06506Y02723D02*
X06498D01*
X06491Y0272*
X06485Y02714*
X06482Y02707*
Y02699*
X06485Y02692*
X06491Y02686*
X06498Y02683*
X06506*
X06513Y02686*
X06519Y02692*
X06522Y02699*
Y02707*
X06519Y02714*
X06513Y0272*
X06506Y02723*
G37*
G36*
X06723Y02699D02*
X06715D01*
X06707Y02696*
X06702Y0269*
X06699Y02683*
Y02675*
X06702Y02668*
X06707Y02663*
X06715Y0266*
X06723*
X0673Y02663*
X06735Y02668*
X06738Y02675*
Y02683*
X06735Y0269*
X0673Y02696*
X06723Y02699*
G37*
G36*
X05861Y02686D02*
X05854D01*
X05846Y02683*
X05841Y02678*
X05838Y0267*
Y02663*
X05841Y02655*
X05846Y0265*
X05854Y02647*
X05861*
X05869Y0265*
X05874Y02655*
X05877Y02663*
Y0267*
X05874Y02678*
X05869Y02683*
X05861Y02686*
G37*
G36*
X05662Y0268D02*
X05654D01*
X05646Y02677*
X05641Y02672*
X05638Y02664*
Y02657*
X05641Y02649*
X05646Y02644*
X05654Y02641*
X05662*
X05669Y02644*
X05674Y02649*
X05677Y02657*
Y02664*
X05674Y02672*
X05669Y02677*
X05662Y0268*
G37*
G36*
X06156Y02675D02*
X06148D01*
X06141Y02672*
X06135Y02667*
X06132Y0266*
Y02652*
X06135Y02645*
X06141Y02639*
X06148Y02636*
X06156*
X06163Y02639*
X06168Y02645*
X06171Y02652*
Y0266*
X06168Y02667*
X06163Y02672*
X06156Y02675*
G37*
G36*
X02226Y02667D02*
X02226D01*
Y02632*
X02261*
Y02633*
X02258Y02643*
X02253Y02652*
X02245Y02659*
X02236Y02665*
X02226Y02667*
G37*
G36*
X02216D02*
X02215D01*
X02205Y02665*
X02196Y02659*
X02189Y02652*
X02183Y02643*
X02181Y02633*
Y02632*
X02216*
Y02667*
G37*
G36*
X03495Y02659D02*
X03487D01*
X0348Y02656*
X03475Y0265*
X03472Y02643*
Y02635*
X03475Y02628*
X0348Y02622*
X03487Y02619*
X03495*
X03502Y02622*
X03508Y02628*
X03511Y02635*
Y02643*
X03508Y0265*
X03502Y02656*
X03495Y02659*
G37*
G36*
X06482Y0264D02*
X06475D01*
X06467Y02637*
X06462Y02631*
X06459Y02624*
Y02616*
X06462Y02609*
X06467Y02604*
X06475Y02601*
X06482*
X0649Y02604*
X06495Y02609*
X06498Y02616*
Y02624*
X06495Y02631*
X0649Y02637*
X06482Y0264*
G37*
G36*
X05872Y02636D02*
X05864D01*
X05857Y02633*
X05852Y02627*
X05849Y0262*
Y02612*
X05852Y02605*
X05857Y026*
X05864Y02597*
X05872*
X05879Y026*
X05885Y02605*
X05888Y02612*
Y0262*
X05885Y02627*
X05879Y02633*
X05872Y02636*
G37*
G36*
X06931Y02632D02*
X06923D01*
X06916Y02629*
X06911Y02624*
X06908Y02616*
Y02608*
X06911Y02601*
X06916Y02596*
X06923Y02593*
X06931*
X06938Y02596*
X06944Y02601*
X06947Y02608*
Y02616*
X06944Y02624*
X06938Y02629*
X06931Y02632*
G37*
G36*
X02126Y02665D02*
X02116D01*
X02106Y02663*
X02097Y02658*
X0209Y02651*
X02085Y02642*
X02083Y02632*
Y02622*
X02085Y02613*
X0209Y02604*
X02097Y02597*
X02106Y02592*
X02116Y0259*
X02126*
X02135Y02592*
X02144Y02597*
X02151Y02604*
X02156Y02613*
X02159Y02622*
Y02632*
X02156Y02642*
X02151Y02651*
X02144Y02658*
X02135Y02663*
X02126Y02665*
G37*
G36*
X02261Y02622D02*
X02226D01*
Y02587*
X02226*
X02236Y0259*
X02245Y02595*
X02253Y02603*
X02258Y02612*
X02261Y02622*
Y02622*
G37*
G36*
X02216D02*
X02181D01*
Y02622*
X02183Y02612*
X02189Y02603*
X02196Y02595*
X02205Y0259*
X02215Y02587*
X02216*
Y02622*
G37*
G36*
X07349Y02604D02*
X07341D01*
X07333Y02601*
X07328Y02596*
X07325Y02589*
Y02588*
X0732Y02586*
X07316Y0259*
X07309Y02593*
X07301*
X07294Y0259*
X07289Y02584*
X07286Y02577*
Y02569*
X07289Y02562*
X07294Y02556*
X07301Y02553*
X07309*
X07316Y02556*
X07322Y02562*
X07325Y02569*
Y0257*
X0733Y02572*
X07333Y02568*
X07341Y02565*
X07349*
X07356Y02568*
X07361Y02574*
X07364Y02581*
Y02589*
X07361Y02596*
X07356Y02601*
X07349Y02604*
G37*
G36*
X03259Y0262D02*
X03251D01*
X03244Y02617*
X03238Y02612*
X03235Y02605*
Y02597*
X03238Y0259*
X03244Y02584*
X03251Y02581*
X03259*
X03266Y02584*
X03272Y0259*
X03275Y02597*
Y02605*
X03272Y02612*
X03266Y02617*
X03259Y0262*
G37*
G36*
X07602Y0262D02*
X07595D01*
X07587Y02617*
X07582Y02612*
X07579Y02604*
Y02597*
X07582Y02589*
X07587Y02584*
X07595Y02581*
X07602*
X0761Y02584*
X07615Y02589*
X07618Y02597*
Y02604*
X07615Y02612*
X0761Y02617*
X07602Y0262*
G37*
G36*
X06538D02*
X0653D01*
X06522Y02617*
X06517Y02612*
X06514Y02604*
Y02597*
X06517Y02589*
X06522Y02584*
X0653Y02581*
X06538*
X06545Y02584*
X0655Y02589*
X06553Y02597*
Y02604*
X0655Y02612*
X06545Y02617*
X06538Y0262*
G37*
G36*
X07526Y02608D02*
X07518D01*
X07511Y02605*
X07505Y026*
X07502Y02593*
Y02585*
X07505Y02578*
X07511Y02572*
X07518Y02569*
X07526*
X07533Y02572*
X07538Y02578*
X07541Y02585*
Y02593*
X07538Y026*
X07533Y02605*
X07526Y02608*
G37*
G36*
X04357Y02597D02*
X04349D01*
X04342Y02594*
X04336Y02588*
X04333Y02581*
Y02573*
X04336Y02566*
X04342Y0256*
X04349Y02557*
X04357*
X04364Y0256*
X0437Y02566*
X04373Y02573*
Y02581*
X0437Y02588*
X04364Y02594*
X04357Y02597*
G37*
G36*
X03748Y02594D02*
X0374D01*
X03733Y02591*
X03727Y02586*
X03724Y02579*
Y02571*
X03727Y02564*
X03733Y02558*
X0374Y02555*
X03748*
X03755Y02558*
X03761Y02564*
X03764Y02571*
Y02579*
X03761Y02586*
X03755Y02591*
X03748Y02594*
G37*
G36*
X03093Y02592D02*
X03085D01*
X03078Y02589*
X03072Y02583*
X03069Y02576*
Y02568*
X03072Y02561*
X03078Y02555*
X03085Y02552*
X03093*
X031Y02555*
X03106Y02561*
X03109Y02568*
Y02576*
X03106Y02583*
X031Y02589*
X03093Y02592*
G37*
G36*
X02726Y02591D02*
X02718D01*
X02711Y02588*
X02705Y02583*
X02702Y02575*
Y02568*
X02705Y0256*
X02711Y02555*
X02718Y02552*
X02726*
X02733Y02555*
X02739Y0256*
X02742Y02568*
Y02575*
X02739Y02583*
X02733Y02588*
X02726Y02591*
G37*
G36*
X04155Y02587D02*
X04148D01*
X0414Y02584*
X04135Y02579*
X04132Y02572*
Y02564*
X04135Y02556*
X0414Y02551*
X04148Y02548*
X04155*
X04163Y02551*
X04168Y02556*
X04171Y02564*
Y02572*
X04168Y02579*
X04163Y02584*
X04155Y02587*
G37*
G36*
X03954Y02583D02*
X03946D01*
X03939Y0258*
X03933Y02575*
X0393Y02568*
Y0256*
X03933Y02553*
X03939Y02547*
X03946Y02544*
X03954*
X03961Y02547*
X03967Y02553*
X0397Y0256*
Y02568*
X03967Y02575*
X03961Y0258*
X03954Y02583*
G37*
G36*
X06243Y02571D02*
X06235D01*
X06228Y02568*
X06223Y02562*
X0622Y02555*
Y02547*
X06223Y0254*
X06228Y02535*
X06235Y02532*
X06243*
X0625Y02535*
X06256Y0254*
X06259Y02547*
Y02555*
X06256Y02562*
X0625Y02568*
X06243Y02571*
G37*
G36*
X07416Y02569D02*
X07408D01*
X074Y02566*
X07395Y02561*
X07392Y02553*
Y02546*
X07395Y02538*
X074Y02533*
X07408Y0253*
X07416*
X07423Y02533*
X07428Y02538*
X07431Y02546*
Y02553*
X07428Y02561*
X07423Y02566*
X07416Y02569*
G37*
G36*
X06139Y02537D02*
Y02521D01*
X06156*
X06152Y02528*
X06146Y02534*
X06139Y02537*
G37*
G36*
X06129D02*
X06122Y02534D01*
X06116Y02528*
X06112Y02521*
X06129*
Y02537*
G37*
G36*
X07356Y02557D02*
X07349D01*
X07341Y02554*
X07336Y02549*
X07333Y02541*
Y02534*
X07336Y02526*
X07341Y02521*
X07349Y02518*
X07356*
X07364Y02521*
X07369Y02526*
X07372Y02534*
Y02541*
X07369Y02549*
X07364Y02554*
X07356Y02557*
G37*
G36*
X06986Y02589D02*
X06979D01*
X06971Y02586*
X06966Y0258*
X06963Y02573*
Y02565*
X06966Y02558*
X06971Y02552*
X06979Y02549*
X06983*
X06985Y02546*
X06985Y02544*
X06982Y02538*
Y0253*
X06985Y02522*
X06991Y02517*
X06998Y02514*
X07006*
X07013Y02517*
X07019Y02522*
X07022Y0253*
Y02538*
X07019Y02545*
X07013Y0255*
X07006Y02553*
X07002*
X07Y02556*
X06999Y02558*
X07002Y02565*
Y02573*
X06999Y0258*
X06994Y02586*
X06986Y02589*
G37*
G36*
X06065Y02553D02*
X06057D01*
X0605Y0255*
X06044Y02545*
X06041Y02538*
Y0253*
X06044Y02522*
X0605Y02517*
X06057Y02514*
X06065*
X06072Y02517*
X06078Y02522*
X06081Y0253*
Y02538*
X06078Y02545*
X06072Y0255*
X06065Y02553*
G37*
G36*
X06156Y02511D02*
X06139D01*
Y02494*
X06146Y02497*
X06152Y02504*
X06156Y02511*
G37*
G36*
X06129D02*
X06112D01*
X06116Y02504*
X06122Y02497*
X06129Y02494*
Y02511*
G37*
G36*
X02226Y02565D02*
X02216D01*
X02206Y02563*
X02197Y02558*
X0219Y02551*
X02185Y02542*
X02183Y02532*
Y02522*
X02185Y02513*
X0219Y02504*
X02197Y02497*
X02206Y02492*
X02216Y0249*
X02226*
X02235Y02492*
X02244Y02497*
X02251Y02504*
X02256Y02513*
X02259Y02522*
Y02532*
X02256Y02542*
X02251Y02551*
X02244Y02558*
X02235Y02563*
X02226Y02565*
G37*
G36*
X02126D02*
X02116D01*
X02106Y02563*
X02097Y02558*
X0209Y02551*
X02085Y02542*
X02083Y02532*
Y02522*
X02085Y02513*
X0209Y02504*
X02097Y02497*
X02106Y02492*
X02116Y0249*
X02126*
X02135Y02492*
X02144Y02497*
X02151Y02504*
X02156Y02513*
X02159Y02522*
Y02532*
X02156Y02542*
X02151Y02551*
X02144Y02558*
X02135Y02563*
X02126Y02565*
G37*
G36*
X06439Y02565D02*
X06431D01*
X06424Y02562*
X06418Y02557*
X06415Y02549*
Y02542*
X06418Y02534*
X06424Y02529*
X06429Y02527*
X06428Y02522*
X06423*
X06416Y02519*
X06411Y02513*
X06408Y02506*
Y02498*
X06411Y02491*
X06416Y02485*
X06423Y02482*
X06431*
X06438Y02485*
X06444Y02491*
X06447Y02498*
Y02506*
X06444Y02513*
X06438Y02519*
X06434Y02521*
X06435Y02526*
X06439*
X06446Y02529*
X06452Y02534*
X06455Y02542*
Y02549*
X06452Y02557*
X06446Y02562*
X06439Y02565*
G37*
G36*
X06404Y02475D02*
X06396D01*
X06389Y02472*
X06383Y02466*
X0638Y02459*
Y02451*
X06383Y02444*
X06389Y02438*
X06396Y02435*
X06404*
X06411Y02438*
X06416Y02444*
X06419Y02451*
Y02459*
X06416Y02466*
X06411Y02472*
X06404Y02475*
G37*
G36*
X07289Y02467D02*
X07282D01*
X07274Y02464*
X07269Y02458*
X07266Y02451*
Y02443*
X07269Y02436*
X07274Y0243*
X07282Y02427*
X07289*
X07297Y0243*
X07302Y02436*
X07305Y02443*
Y02451*
X07302Y02458*
X07297Y02464*
X07289Y02467*
G37*
G36*
X06734D02*
X06727D01*
X06719Y02464*
X06714Y02458*
X06711Y02451*
Y02443*
X06714Y02436*
X06719Y0243*
X06727Y02427*
X06734*
X06742Y0243*
X06747Y02436*
X0675Y02443*
Y02451*
X06747Y02458*
X06742Y02464*
X06734Y02467*
G37*
G36*
X07393Y02442D02*
Y02419D01*
X07383*
Y02442*
X07375Y02439*
X07369Y02432*
X07365Y02424*
Y02418*
X07359*
X0735Y02414*
X07344Y02408*
X07341Y024*
X07363*
Y0239*
X07341*
X07344Y02382*
X0735Y02376*
X07357Y02373*
Y02368*
X0735Y02365*
X07344Y02359*
X07341Y02351*
X07363*
Y02341*
X07341*
X07344Y02333*
X0735Y02326*
X07359Y02323*
X07365*
Y02316*
X07369Y02308*
X07375Y02302*
X07383Y02298*
Y02321*
X07393*
Y02298*
X07401Y02302*
X07407Y02308*
X0741Y02314*
X07415*
X07418Y02308*
X07424Y02302*
X07432Y02298*
Y02321*
X07442*
Y02298*
X0745Y02302*
X07456Y02308*
X0746Y02316*
Y02323*
X07466*
X07475Y02326*
X07481Y02333*
X07484Y02341*
X07462*
Y02351*
X07484*
X07481Y02359*
X07475Y02365*
X07468Y02368*
Y02373*
X07475Y02376*
X07481Y02382*
X07484Y0239*
X07462*
Y024*
X07484*
X07481Y02408*
X07475Y02414*
X07466Y02418*
X0746*
Y02424*
X07456Y02432*
X0745Y02439*
X07442Y02442*
Y02419*
X07432*
Y02442*
X07424Y02439*
X07418Y02432*
X07415Y02426*
X0741*
X07407Y02432*
X07401Y02439*
X07393Y02442*
G37*
G36*
X05183Y02432D02*
X05175D01*
X05168Y02429*
X05163Y02424*
X0516Y02416*
Y02413*
X05155Y02412*
X05152Y02417*
X05146Y02423*
X05139Y02426*
Y02405*
Y02383*
X05146Y02386*
X05152Y02392*
X05156Y024*
Y02405*
X05161Y02406*
X05163Y02401*
X05168Y02396*
X05175Y02393*
X05183*
X0519Y02396*
X05196Y02401*
X05199Y02409*
Y02416*
X05196Y02424*
X0519Y02429*
X05183Y02432*
G37*
G36*
X05129Y02426D02*
X05122Y02423D01*
X05116Y02417*
X05112Y0241*
X05129*
Y02426*
G37*
G36*
X06098Y02449D02*
X0609D01*
X06082Y02446*
X06077Y0244*
X06074Y02433*
Y02425*
X06077Y02418*
X06082Y02413*
X0609Y0241*
X06098*
X06105Y02413*
X0611Y02418*
X06113Y02425*
Y02433*
X0611Y0244*
X06105Y02446*
X06098Y02449*
G37*
G36*
X05997Y02444D02*
X0599D01*
X05982Y02441*
X05977Y02436*
X05974Y02428*
Y0242*
X05977Y02413*
X05982Y02408*
X0599Y02405*
X05997*
X06005Y02408*
X0601Y02413*
X06013Y0242*
Y02428*
X0601Y02436*
X06005Y02441*
X05997Y02444*
G37*
G36*
X06447Y02443D02*
X06439D01*
X06432Y0244*
X06426Y02435*
X06423Y02427*
Y02419*
X06426Y02412*
X06432Y02407*
X06439Y02404*
X06447*
X06454Y02407*
X0646Y02412*
X06463Y02419*
Y02427*
X0646Y02435*
X06454Y0244*
X06447Y02443*
G37*
G36*
X05Y02456D02*
X04992D01*
X04985Y02453*
X0498Y02447*
X04977Y0244*
Y02432*
X0498Y02425*
X04985Y02419*
X04992Y02416*
X04996*
X04998Y02411*
X04995Y02409*
X04992Y02402*
X05035*
X05032Y02409*
X05026Y02415*
X05018Y02419*
X05014*
X05011Y02424*
X05013Y02425*
X05016Y02432*
Y0244*
X05013Y02447*
X05007Y02453*
X05Y02456*
G37*
G36*
X06034Y02412D02*
Y02396D01*
X0605*
X06047Y02403*
X06041Y02409*
X06034Y02412*
G37*
G36*
X06024D02*
X06016Y02409D01*
X0601Y02403*
X06007Y02396*
X06024*
Y02412*
G37*
G36*
X05458Y02435D02*
X0545D01*
X05443Y02432*
X05437Y02427*
X05434Y02419*
Y02412*
X05437Y02404*
X05443Y02399*
X0545Y02396*
X05458*
X05465Y02399*
X05471Y02404*
X05474Y02412*
Y02419*
X05471Y02427*
X05465Y02432*
X05458Y02435*
G37*
G36*
X02226Y02465D02*
X02216D01*
X02206Y02463*
X02197Y02458*
X0219Y02451*
X02185Y02442*
X02183Y02432*
Y02422*
X02185Y02413*
X0219Y02404*
X02197Y02397*
X02206Y02392*
X02216Y0239*
X02226*
X02235Y02392*
X02244Y02397*
X02251Y02404*
X02256Y02413*
X02259Y02422*
Y02432*
X02256Y02442*
X02251Y02451*
X02244Y02458*
X02235Y02463*
X02226Y02465*
G37*
G36*
X02126D02*
X02116D01*
X02106Y02463*
X02097Y02458*
X0209Y02451*
X02085Y02442*
X02083Y02432*
Y02422*
X02085Y02413*
X0209Y02404*
X02097Y02397*
X02106Y02392*
X02116Y0239*
X02126*
X02135Y02392*
X02144Y02397*
X02151Y02404*
X02156Y02413*
X02159Y02422*
Y02432*
X02156Y02442*
X02151Y02451*
X02144Y02458*
X02135Y02463*
X02126Y02465*
G37*
G36*
X05129Y024D02*
X05112D01*
X05116Y02392*
X05122Y02386*
X05129Y02383*
Y024*
G37*
G36*
X05035Y02392D02*
X05019D01*
Y02375*
X05026Y02378*
X05032Y02384*
X05035Y02392*
G37*
G36*
X05009D02*
X04992D01*
X04995Y02384*
X05002Y02378*
X05009Y02375*
Y02392*
G37*
G36*
X0631Y02387D02*
Y0237D01*
X06327*
X06324Y02378*
X06318Y02384*
X0631Y02387*
G37*
G36*
X063D02*
X06293Y02384D01*
X06287Y02378*
X06284Y0237*
X063*
Y02387*
G37*
G36*
X0605Y02386D02*
X06034D01*
Y02369*
X06041Y02372*
X06047Y02379*
X0605Y02386*
G37*
G36*
X06024D02*
X06007D01*
X0601Y02379*
X06016Y02372*
X06024Y02369*
Y02386*
G37*
G36*
X07254Y02408D02*
X07246D01*
X07239Y02405*
X07233Y02399*
X0723Y02392*
Y02384*
X07233Y02377*
X07239Y02371*
X07246Y02368*
X07254*
X07261Y02371*
X07267Y02377*
X0727Y02384*
Y02392*
X07267Y02399*
X07261Y02405*
X07254Y02408*
G37*
G36*
X0624Y02492D02*
X06232D01*
X06225Y02489*
X0622Y02483*
X06217Y02476*
Y02468*
X0622Y02461*
X06225Y02455*
X06232Y02452*
X0624*
X06247Y02455*
X06251Y02459*
X06288*
X06358Y02389*
Y02384*
X06361Y02377*
X06367Y02371*
X06374Y02368*
X06382*
X06389Y02371*
X06395Y02377*
X06398Y02384*
Y02392*
X06395Y02399*
X06389Y02405*
X06382Y02408*
X06377*
X06303Y02481*
X06299Y02484*
X06294Y02485*
X06251*
X06247Y02489*
X0624Y02492*
G37*
G36*
X06447Y02388D02*
X06439D01*
X06432Y02385*
X06426Y02379*
X06423Y02372*
Y02364*
X06426Y02357*
X06432Y02352*
X06439Y02349*
X06447*
X06454Y02352*
X0646Y02357*
X06463Y02364*
Y02372*
X0646Y02379*
X06454Y02385*
X06447Y02388*
G37*
G36*
X06327Y0236D02*
X0631D01*
Y02344*
X06318Y02347*
X06324Y02353*
X06327Y0236*
G37*
G36*
X063D02*
X06284D01*
X06287Y02353*
X06293Y02347*
X063Y02344*
Y0236*
G37*
G36*
X06112Y0238D02*
X06104D01*
X06097Y02377*
X06092Y02372*
X06089Y02364*
Y02356*
X06092Y02349*
X06097Y02344*
X06104Y02341*
X06112*
X0612Y02344*
X06125Y02349*
X06128Y02356*
Y02364*
X06125Y02372*
X0612Y02377*
X06112Y0238*
G37*
G36*
X0636Y02351D02*
Y02334D01*
X06377*
X06374Y02341*
X06368Y02348*
X0636Y02351*
G37*
G36*
X0635D02*
X06343Y02348D01*
X06337Y02341*
X06334Y02334*
X0635*
Y02351*
G37*
G36*
X02226Y02367D02*
X02226D01*
Y02332*
X02261*
Y02333*
X02258Y02343*
X02253Y02352*
X02245Y02359*
X02236Y02365*
X02226Y02367*
G37*
G36*
X02216D02*
X02215D01*
X02205Y02365*
X02196Y02359*
X02189Y02352*
X02183Y02343*
X02181Y02333*
Y02332*
X02216*
Y02367*
G37*
G36*
X04749Y02348D02*
Y02332D01*
X04766*
X04763Y02339*
X04757Y02345*
X04749Y02348*
G37*
G36*
X04739D02*
X04732Y02345D01*
X04726Y02339*
X04723Y02332*
X04739*
Y02348*
G37*
G36*
X06377Y02324D02*
X0636D01*
Y02308*
X06368Y02311*
X06374Y02317*
X06377Y02324*
G37*
G36*
X0635D02*
X06334D01*
X06337Y02317*
X06343Y02311*
X0635Y02308*
Y02324*
G37*
G36*
X04766Y02322D02*
X04749D01*
Y02305*
X04757Y02308*
X04763Y02315*
X04766Y02322*
G37*
G36*
X04739D02*
X04723D01*
X04726Y02315*
X04732Y02308*
X04739Y02305*
Y02322*
G37*
G36*
X04916Y02303D02*
Y02286D01*
X04932*
X04929Y02293*
X04923Y02299*
X04916Y02303*
G37*
G36*
X04906D02*
X04899Y02299D01*
X04892Y02293*
X04889Y02286*
X04906*
Y02303*
G37*
G36*
X05407Y02316D02*
X05399D01*
X05392Y02313*
X05386Y02307*
X05383Y023*
Y02292*
X05386Y02285*
X05392Y02279*
X05399Y02276*
X05407*
X05414Y02279*
X05419Y02285*
X05422Y02292*
Y023*
X05419Y02307*
X05414Y02313*
X05407Y02316*
G37*
G36*
X04672Y02282D02*
Y02265D01*
X04689*
X04686Y02272*
X0468Y02278*
X04672Y02282*
G37*
G36*
X04662D02*
X04655Y02278D01*
X04649Y02272*
X04646Y02265*
X04662*
Y02282*
G37*
G36*
X04932Y02276D02*
X04916D01*
Y02259*
X04923Y02263*
X04929Y02269*
X04932Y02276*
G37*
G36*
X04906D02*
X04889D01*
X04892Y02269*
X04899Y02263*
X04906Y02259*
Y02276*
G37*
G36*
X04796Y02294D02*
X04789D01*
X04781Y02291*
X04776Y02286*
X04773Y02279*
Y02271*
X04776Y02264*
X04781Y02258*
X04789Y02255*
X04796*
X04804Y02258*
X04809Y02264*
X04812Y02271*
Y02279*
X04809Y02286*
X04804Y02291*
X04796Y02294*
G37*
G36*
X05046Y02279D02*
X05039D01*
X05031Y02276*
X05026Y02271*
X05023Y02264*
Y02256*
X05026Y02248*
X05031Y02243*
X05039Y0224*
X05046*
X05054Y02243*
X05059Y02248*
X05062Y02256*
Y02264*
X05059Y02271*
X05054Y02276*
X05046Y02279*
G37*
G36*
X06601Y0227D02*
X06593D01*
X06585Y02267*
X0658Y02261*
X06577Y02254*
Y02246*
X0658Y02239*
X06585Y02233*
X06593Y0223*
X06601*
X06608Y02233*
X06613Y02239*
X06616Y02246*
Y02254*
X06613Y02261*
X06608Y02267*
X06601Y0227*
G37*
G36*
X04907Y02243D02*
X04899D01*
X04892Y0224*
X04886Y02235*
X04883Y02227*
Y0222*
X04886Y02212*
X04892Y02207*
X04899Y02204*
X04907*
X04914Y02207*
X04919Y02212*
X04922Y0222*
Y02227*
X04919Y02235*
X04914Y0224*
X04907Y02243*
G37*
G36*
X04689Y02255D02*
X04646D01*
X04649Y02248*
X04655Y02242*
X04655Y02241*
X04656Y02236*
X04654Y02233*
X04651Y02226*
Y02218*
X04654Y0221*
X04659Y02205*
X04667Y02202*
X04674*
X04682Y02205*
X04687Y0221*
X0469Y02218*
Y02226*
X04687Y02233*
X04682Y02238*
X04682Y02239*
X04682Y02244*
X04686Y02248*
X04689Y02255*
G37*
G36*
X04569Y02223D02*
X04561D01*
X04554Y0222*
X04548Y02214*
X04545Y02207*
Y02199*
X04548Y02192*
X04554Y02186*
X04561Y02183*
X04569*
X04576Y02186*
X04582Y02192*
X04585Y02199*
Y02207*
X04582Y02214*
X04576Y0222*
X04569Y02223*
G37*
G36*
X04673Y02193D02*
Y02176D01*
X0469*
X04687Y02184*
X04681Y0219*
X04673Y02193*
G37*
G36*
X04663D02*
X04656Y0219D01*
X0465Y02184*
X04647Y02176*
X04663*
Y02193*
G37*
G36*
X0528Y0219D02*
X05272Y02187D01*
X05266Y02181*
X05264Y02175*
X05258Y02175*
X05256Y02181*
X0525Y02186*
X05243Y02189*
X05235*
X05228Y02186*
X05223Y02181*
X0522Y02173*
Y02166*
X05223Y02158*
X05228Y02153*
X05235Y0215*
X05243*
X0525Y02153*
X05256Y02158*
X05258Y02163*
X05259Y02163*
X05263Y02163*
X05266Y02156*
X05272Y0215*
X0528Y02147*
Y02168*
Y0219*
G37*
G36*
X0529D02*
Y02173D01*
X05306*
X05303Y02181*
X05297Y02187*
X0529Y0219*
G37*
G36*
X06755Y02242D02*
X06745D01*
X06736Y0224*
X06728Y02235*
X06722Y02229*
X06717Y02221*
X06715Y02212*
Y02202*
X06717Y02193*
X06722Y02185*
X06728Y02178*
X06736Y02174*
X06745Y02171*
X06755*
X06764Y02174*
X06772Y02178*
X06778Y02185*
X06783Y02193*
X06786Y02202*
Y02212*
X06783Y02221*
X06778Y02229*
X06772Y02235*
X06764Y0224*
X06755Y02242*
G37*
G36*
X06088Y02194D02*
X0608D01*
X06073Y02191*
X06067Y02186*
X06064Y02178*
Y0217*
X06067Y02163*
X06073Y02158*
X0608Y02155*
X06088*
X06095Y02158*
X061Y02163*
X06103Y0217*
Y02178*
X061Y02186*
X06095Y02191*
X06088Y02194*
G37*
G36*
X0469Y02166D02*
X04673D01*
Y0215*
X04681Y02153*
X04687Y02159*
X0469Y02166*
G37*
G36*
X04663D02*
X04647D01*
X0465Y02159*
X04656Y02153*
X04663Y0215*
Y02166*
G37*
G36*
X05306Y02163D02*
X0529D01*
Y02147*
X05297Y0215*
X05303Y02156*
X05306Y02163*
G37*
G36*
X06197Y02167D02*
X06189D01*
X06182Y02164*
X06176Y02159*
X06173Y02152*
Y02144*
X06176Y02137*
X06182Y02131*
X06189Y02128*
X06197*
X06204Y02131*
X0621Y02137*
X06213Y02144*
Y02152*
X0621Y02159*
X06204Y02164*
X06197Y02167*
G37*
G36*
X06518Y02164D02*
X0651D01*
X06503Y02161*
X06497Y02155*
X06494Y02148*
Y0214*
X06497Y02133*
X06503Y02127*
X0651Y02124*
X06518*
X06525Y02127*
X06531Y02133*
X06534Y0214*
Y02148*
X06531Y02155*
X06525Y02161*
X06518Y02164*
G37*
G36*
X04623Y02158D02*
X04615D01*
X04608Y02155*
X04603Y02149*
X046Y02142*
Y02134*
X04603Y02127*
X04608Y02121*
X04615Y02118*
X04623*
X0463Y02121*
X04636Y02127*
X04639Y02134*
Y02142*
X04636Y02149*
X0463Y02155*
X04623Y02158*
G37*
G36*
X05184Y02125D02*
Y02108D01*
X05201*
X05198Y02116*
X05192Y02122*
X05184Y02125*
G37*
G36*
X05174D02*
X05167Y02122D01*
X05161Y02116*
X05158Y02108*
X05174*
Y02125*
G37*
G36*
X05201Y02098D02*
X05184D01*
Y02082*
X05192Y02085*
X05198Y02091*
X05201Y02098*
G37*
G36*
X05174D02*
X05158D01*
X05161Y02091*
X05167Y02085*
X05174Y02082*
Y02098*
G37*
G36*
X07356Y02112D02*
X07349D01*
X07341Y02109*
X07336Y02104*
X07333Y02097*
Y02089*
X07336Y02082*
X07341Y02076*
X07349Y02073*
X07356*
X07364Y02076*
X07369Y02082*
X07372Y02089*
Y02097*
X07369Y02104*
X07364Y02109*
X07356Y02112*
G37*
G36*
X06755Y02144D02*
X06745D01*
X06736Y02141*
X06728Y02137*
X06722Y0213*
X06717Y02122*
X06715Y02113*
Y02104*
X06717Y02095*
X06722Y02087*
X06728Y0208*
X06736Y02075*
X06745Y02073*
X06755*
X06764Y02075*
X06772Y0208*
X06778Y02087*
X06783Y02095*
X06786Y02104*
Y02113*
X06783Y02122*
X06778Y0213*
X06772Y02137*
X06764Y02141*
X06755Y02144*
G37*
G36*
X02126Y02365D02*
X02116D01*
X02106Y02363*
X02097Y02358*
X0209Y02351*
X02085Y02342*
X02083Y02332*
Y02322*
X02085Y02313*
X02087Y02311*
X02049Y02273*
X02047Y02269*
X02046Y02265*
Y02117*
X02047Y02113*
X02049Y02109*
X02094Y02064*
X02094Y02063*
X02094Y02059*
X02094Y02057*
X02089Y02052*
X02083Y02043*
X02081Y02033*
Y02032*
X02121*
X02161*
Y02033*
X02158Y02043*
X02153Y02052*
X0215Y02054*
X02152Y02059*
X02191*
X02193Y02054*
X0219Y02051*
X02185Y02042*
X02183Y02032*
Y02022*
X02185Y02013*
X0219Y02004*
X02197Y01997*
X02206Y01992*
X02216Y0199*
X02226*
X02235Y01992*
X02244Y01997*
X02251Y02004*
X02256Y02013*
X02257Y02017*
X02308*
X02387Y01938*
X02391Y01935*
X02395Y01934*
X02626*
X0263Y0193*
X02638Y01927*
X02646*
X02653Y0193*
X02658Y01935*
X02661Y01942*
Y0195*
X02658Y01958*
X02653Y01963*
X02646Y01966*
X02638*
X0263Y01963*
X02626Y01958*
X024*
X0239Y01969*
X02392Y01973*
X02762*
X02767Y01969*
X02774Y01966*
X02782*
X02789Y01969*
X02795Y01974*
X02798Y01981*
Y01989*
X02795Y01996*
X02789Y02002*
X02782Y02005*
X02774*
X02767Y02002*
X02762Y01997*
X02384*
X02302Y02079*
X02298Y02082*
X02293Y02083*
X02109*
X02105Y02088*
X02107Y02092*
X02116Y0209*
X02126*
X02135Y02092*
X02144Y02097*
X02151Y02104*
X02156Y02113*
X02159Y02122*
Y02132*
X02156Y02142*
X02151Y02151*
X02144Y02158*
X02135Y02163*
X02126Y02165*
X02123*
X02097Y02192*
X021Y02196*
X02106Y02192*
X02116Y0219*
X02126*
X02135Y02192*
X02137Y02193*
X02167Y02163*
X02171Y0216*
X02176Y02159*
X02191*
X02193Y02154*
X0219Y02151*
X02185Y02142*
X02183Y02132*
Y02122*
X02185Y02113*
X0219Y02104*
X02197Y02097*
X02206Y02092*
X02216Y0209*
X02226*
X02235Y02092*
X02244Y02097*
X02251Y02104*
X02256Y02113*
X02259Y02122*
Y02132*
X02256Y02142*
X02251Y02151*
X02248Y02154*
X0225Y02159*
X02456*
X02579Y02035*
Y0203*
X02582Y02023*
X02588Y02017*
X02595Y02014*
X02603*
X0261Y02017*
X02615Y02023*
X02618Y0203*
Y02038*
X02615Y02045*
X0261Y02051*
X02603Y02054*
X02598*
X0247Y02181*
X02466Y02184*
X02461Y02185*
X02228*
X02227Y0219*
X02235Y02192*
X02244Y02197*
X02251Y02204*
X02256Y02213*
X02259Y02222*
Y02232*
X02256Y02242*
X02251Y02251*
X02244Y02258*
X02235Y02263*
X02226Y02265*
X02216*
X02206Y02263*
X02197Y02258*
X0219Y02251*
X02185Y02242*
X02183Y02232*
Y02222*
X02185Y02213*
X0219Y02204*
X02197Y02197*
X02206Y02192*
X02214Y0219*
X02213Y02185*
X02182*
X02155Y02211*
X02156Y02213*
X02159Y02222*
Y02232*
X02156Y02242*
X02151Y02251*
X02144Y02258*
X02135Y02263*
X02127Y02265*
X02125Y02268*
X02124Y0227*
X02125Y02272*
X02436*
X02632Y02075*
Y02069*
X02635Y02062*
X02641Y02056*
X02648Y02053*
X02656*
X02663Y02056*
X02669Y02062*
X02672Y02069*
Y02077*
X02669Y02084*
X02663Y02089*
X02656Y02092*
X02649*
X02492Y0225*
X02494Y02255*
X02495*
X02502Y02258*
X02508Y02264*
X02511Y02271*
Y02279*
X02508Y02286*
X02502Y02291*
X02495Y02294*
X02495Y02296*
X02495Y02299*
X025Y02301*
X02505Y02307*
X02508Y02314*
Y02322*
X02505Y02329*
X025Y02335*
X02493Y02338*
X02485*
X02478Y02335*
X02472Y02329*
X02469Y02322*
Y02314*
X02472Y02307*
X02478Y02301*
X02484Y02299*
X02485Y02297*
X02485Y02293*
X0248Y02291*
X02474Y02286*
X02471Y02279*
Y02278*
X02466Y02275*
X02449Y02292*
X02445Y02295*
X02441Y02296*
X02252*
X0225Y023*
X02253Y02303*
X02258Y02312*
X02261Y02322*
Y02322*
X02221*
X02181*
Y02322*
X02183Y02312*
X02189Y02303*
X02191Y023*
X02189Y02296*
X0215*
X02148Y02301*
X02151Y02304*
X02156Y02313*
X02159Y02322*
Y02332*
X02156Y02342*
X02151Y02351*
X02144Y02358*
X02135Y02363*
X02126Y02365*
G37*
G36*
X06079Y02089D02*
X06071D01*
X06064Y02086*
X06058Y0208*
X06055Y02073*
Y02065*
X06058Y02058*
X06064Y02052*
X06071Y02049*
X06079*
X06086Y02052*
X06092Y02058*
X06095Y02065*
Y02073*
X06092Y0208*
X06086Y02086*
X06079Y02089*
G37*
G36*
X07305Y02085D02*
X07297D01*
X0729Y02082*
X07285Y02076*
X07282Y02069*
Y02061*
X07285Y02054*
X0729Y02048*
X07297Y02045*
X07305*
X07312Y02048*
X07318Y02054*
X07321Y02061*
Y02069*
X07318Y02076*
X07312Y02082*
X07305Y02085*
G37*
G36*
X04821Y02081D02*
X04813D01*
X04806Y02078*
X048Y02072*
X04797Y02065*
Y02057*
X048Y0205*
X04806Y02044*
X04813Y02041*
X04821*
X04828Y02044*
X04834Y0205*
X04837Y02057*
Y02065*
X04834Y02072*
X04828Y02078*
X04821Y02081*
G37*
G36*
X06435Y02073D02*
X06427D01*
X0642Y0207*
X06415Y02064*
X06412Y02057*
Y02049*
X06415Y02042*
X0642Y02037*
X06427Y02034*
X06435*
X06442Y02037*
X06448Y02042*
X06451Y02049*
Y02057*
X06448Y02064*
X06442Y0207*
X06435Y02073*
G37*
G36*
X07191D02*
X07183D01*
X07176Y0207*
X0717Y02064*
X07167Y02057*
Y02049*
X0717Y02042*
X07176Y02037*
X07183Y02034*
X07191*
X07198Y02037*
X07204Y02042*
X07205Y02046*
X07208Y02046*
X07211Y02045*
X07213Y02039*
X07219Y02033*
X07226Y0203*
X07234*
X07241Y02033*
X07247Y02039*
X0725Y02046*
Y02054*
X07247Y02061*
X07241Y02067*
X07234Y0207*
X07226*
X07219Y02067*
X07213Y02061*
X07212Y02057*
X07209Y02057*
X07207Y02058*
X07204Y02064*
X07198Y0207*
X07191Y02073*
G37*
G36*
X06372Y02065D02*
X06364D01*
X06357Y02062*
X06352Y02057*
X06349Y02049*
Y02042*
X06352Y02034*
X06357Y02029*
X06364Y02026*
X06372*
X06379Y02029*
X06385Y02034*
X06388Y02042*
Y02049*
X06385Y02057*
X06379Y02062*
X06372Y02065*
G37*
G36*
X06755Y02048D02*
Y02015D01*
X06788*
X06785Y02024*
X0678Y02033*
X06773Y0204*
X06765Y02045*
X06755Y02048*
G37*
G36*
X06745D02*
X06736Y02045D01*
X06727Y0204*
X0672Y02033*
X06715Y02024*
X06713Y02015*
X06745*
Y02048*
G37*
G36*
X06197Y02052D02*
X06189D01*
X06182Y02049*
X06176Y02043*
X06173Y02036*
Y02028*
X06176Y02021*
X06182Y02016*
X06189Y02013*
X06197*
X06204Y02016*
X06209Y02021*
X06212Y02028*
Y02036*
X06209Y02043*
X06204Y02049*
X06197Y02052*
G37*
G36*
X05262Y02061D02*
X05254D01*
X05247Y02058*
X05241Y02053*
X05238Y02045*
Y02038*
X05241Y0203*
X05246Y02026*
Y02016*
X05244Y02014*
X05241Y02012*
X0524Y02013*
X05232*
X05225Y0201*
X05219Y02004*
X05216Y01997*
Y01989*
X05219Y01982*
X05225Y01976*
X05232Y01973*
X0524*
X05247Y01976*
X05247Y01977*
X05252Y01975*
Y01873*
X05247Y01868*
X05246*
X05242Y01866*
X05237Y01869*
Y01883*
X05236Y01888*
X05233Y01892*
X0522Y01905*
X05216Y01908*
X05211Y01909*
X05171*
X05166Y01908*
X05162Y01905*
X05143Y01886*
X0514Y01881*
X05139Y01876*
Y01847*
X0514Y01842*
X0514Y01842*
X05137Y01837*
X05135*
X0513Y01836*
X05125Y01833*
X05118Y01825*
X0508*
X05075Y01824*
X0507Y01822*
X05057Y01808*
X05054Y01809*
X05049Y01814*
X05041Y01817*
X05033*
X05026Y01814*
X05021Y01809*
X05018Y01801*
Y01794*
X05021Y01786*
X05026Y01781*
X05033Y01778*
X05041*
X05046Y0178*
X05051Y01777*
Y01735*
X04997Y01681*
X04995Y01678*
X0499Y01678*
X0499Y01679*
Y01761*
X05006Y01777*
X05009Y01781*
X0501Y01786*
Y0198*
X05009Y01985*
X05006Y0199*
X05002Y01994*
X05002Y01994*
Y02002*
X04999Y02009*
X04994Y02015*
X04986Y02018*
X04979*
X04971Y02015*
X04966Y02009*
X04963Y02002*
Y01994*
X04966Y01987*
X04971Y01981*
X04979Y01978*
X0498*
X04983Y01975*
Y01949*
X04978Y01946*
X04976Y01947*
X04968*
X04961Y01944*
X04955Y01938*
X04952Y01931*
Y01923*
X04953Y01922*
X04933Y01902*
X0493Y01898*
X0493Y01897*
X04929Y01896*
X04925Y01894*
X04924Y01894*
X04919Y01896*
X04912*
X04904Y01893*
X04899Y01887*
X04898Y01885*
X04896Y01884*
X04892Y01884*
X04887Y01889*
X0488Y01892*
X04872*
X04865Y01889*
X04859Y01883*
X04856Y01876*
Y01868*
X04859Y01861*
X04865Y01856*
X04872Y01853*
X0488*
X04887Y01856*
X04893Y01861*
X04894Y01864*
X04896Y01864*
X049Y01864*
X04904Y01859*
X04912Y01856*
X04919*
X04924Y01858*
X04929Y01855*
Y01805*
X04928Y01801*
Y01781*
X04823Y01676*
X04819Y01678*
Y01954*
X0483Y01965*
X04837Y01963*
X04845*
X04852Y01966*
X04857Y01971*
X0486Y01979*
Y01986*
X04857Y01994*
X04852Y01999*
X04845Y02002*
X04842*
X04842Y02002*
X04837Y02003*
X04832Y02002*
X04827Y02*
X04796Y01969*
X04794Y01964*
X04793Y01959*
Y01885*
X04788Y01881*
X04785Y01883*
X04777*
X0477Y0188*
X04764Y01874*
X04761Y01867*
Y01859*
X04764Y01852*
X0477Y01846*
X04777Y01843*
X04785*
X04788Y01844*
X04793Y01841*
Y01673*
X04687Y01567*
X04684Y01563*
X04683Y01558*
Y01357*
X04684Y01352*
X04687Y01348*
X04719Y01316*
Y01304*
X04719Y01304*
X04716Y01296*
Y01288*
X04719Y01281*
X04724Y01276*
X04731Y01273*
X04739*
X04746Y01276*
X04752Y01281*
X04755Y01288*
Y01296*
X04752Y01304*
X04746Y01309*
X04745Y0131*
Y01321*
X04744Y01326*
X04741Y0133*
X04728Y01344*
X04729Y0135*
X04734Y01352*
X04739Y01357*
X04742Y01364*
Y01372*
X04739Y01379*
X04735Y01384*
Y01553*
X0495Y01768*
X0495*
X04951Y0177*
X04953Y01772*
X04957Y01773*
X04962Y01771*
X04964Y01768*
X04964Y01766*
Y01644*
X04959Y01643*
X04929Y01673*
X04924Y01676*
X04919Y01677*
X04903*
X04899Y0168*
X04892Y01683*
X04884*
X04877Y0168*
X04871Y01675*
X04868Y01667*
Y0166*
X04871Y01652*
X04877Y01647*
X04884Y01644*
X04892*
X04899Y01647*
X04903Y0165*
X04914*
X04956Y01608*
X04958Y01604*
X04964Y01598*
X04971Y01595*
X04979*
X04986Y01598*
X04988Y016*
X04993Y01598*
Y0157*
X04796*
X04793Y01574*
X04786Y01577*
X04778*
X0477Y01574*
X04765Y01568*
X04762Y01561*
Y01553*
X04765Y01546*
X0477Y01541*
X04778Y01538*
X04786*
X04793Y01541*
X04796Y01544*
X05001*
X05006Y01545*
X0501Y01548*
X05016Y01554*
X05019Y01558*
X0502Y01563*
Y01639*
X05025Y01641*
X05027Y01638*
X05035Y01635*
X05037*
X05039Y0163*
X05037Y01627*
X05034Y0162*
Y01612*
X05037Y01605*
X05042Y016*
X05049Y01597*
X05057*
X05064Y016*
X0507Y01605*
X05073Y01612*
Y0162*
X0507Y01627*
X05064Y01633*
X05057Y01636*
X05055*
X05053Y01641*
X05055Y01644*
X05058Y01651*
Y01657*
X05073Y01672*
X05075Y01676*
X05076Y0168*
Y01704*
X05076Y01704*
X05077Y01709*
Y01729*
Y01791*
X05085Y01799*
X05119*
X05123Y01798*
X05123Y01794*
Y01791*
X05126Y01783*
X05132Y01778*
X05139Y01775*
X05147*
X05154Y01778*
X05155Y01779*
X05161Y01778*
X05163Y01774*
X05168Y01769*
X05175Y01766*
X05183*
X0519Y01769*
X05197Y01768*
X05197Y01768*
X05418Y01547*
X05422Y01544*
X05427Y01543*
X05676*
X05681Y01544*
X05685Y01547*
X05745Y01607*
X05802*
X05806Y01604*
X05811Y01602*
X05812Y01596*
X05716Y015*
X05701*
X05696Y01499*
X05692Y01496*
X05576Y0138*
X05571*
X05564Y01377*
X05558Y01372*
X05555Y01364*
Y01356*
X05558Y01349*
X05564Y01344*
X05571Y01341*
X05579*
X05586Y01344*
X05592Y01349*
X05595Y01356*
Y01362*
X05706Y01473*
X05721*
X05726Y01474*
X0573Y01477*
X05853Y016*
X05856Y01604*
X05857Y01609*
Y01631*
X05856Y01636*
X05853Y01641*
X05779Y01714*
X05775Y01717*
X0577Y01718*
X05462*
X05436Y01744*
Y01783*
X0544Y01786*
X05443Y01793*
Y01801*
X0544Y01809*
X05435Y01814*
X05427Y01817*
X05422*
X05411Y01828*
X05407Y01831*
X05402Y01832*
X05268*
X05266Y01837*
X05267Y01837*
X0527Y01845*
Y01852*
X05269Y01855*
X05272Y01859*
X05275Y01863*
X05276Y01868*
Y02009*
X05275Y02013*
X05272Y02017*
X05272*
X0527Y0202*
Y02026*
X05275Y0203*
X05278Y02038*
Y02045*
X05275Y02053*
X05269Y02058*
X05262Y02061*
G37*
G36*
X05186Y02019D02*
Y02003D01*
X05202*
X05199Y0201*
X05193Y02016*
X05186Y02019*
G37*
G36*
X05176D02*
X05168Y02016D01*
X05162Y0201*
X05159Y02003*
X05176*
Y02019*
G37*
G36*
X05046Y02014D02*
Y01997D01*
X05063*
X0506Y02005*
X05054Y02011*
X05046Y02014*
G37*
G36*
X05036D02*
X05029Y02011D01*
X05023Y02005*
X0502Y01997*
X05036*
Y02014*
G37*
G36*
X02161Y02022D02*
X02126D01*
Y01987*
X02126*
X02136Y0199*
X02145Y01995*
X02153Y02003*
X02158Y02012*
X02161Y02022*
Y02022*
G37*
G36*
X02116D02*
X02081D01*
Y02022*
X02083Y02012*
X02089Y02003*
X02096Y01995*
X02105Y0199*
X02115Y01987*
X02116*
Y02022*
G37*
G36*
X05202Y01993D02*
X05186D01*
Y01976*
X05193Y01979*
X05199Y01985*
X05202Y01993*
G37*
G36*
X05176D02*
X05159D01*
X05162Y01985*
X05168Y01979*
X05176Y01976*
Y01993*
G37*
G36*
X04919Y02014D02*
X04912D01*
X04904Y02011*
X04899Y02005*
X04896Y01998*
Y0199*
X04899Y01983*
X04904Y01978*
X04912Y01975*
X04919*
X04927Y01978*
X04932Y01983*
X04935Y0199*
Y01998*
X04932Y02005*
X04927Y02011*
X04919Y02014*
G37*
G36*
X06788Y02005D02*
X06755D01*
Y01972*
X06765Y01975*
X06773Y0198*
X0678Y01987*
X06785Y01995*
X06788Y02005*
G37*
G36*
X06745D02*
X06713D01*
X06715Y01995*
X0672Y01987*
X06727Y0198*
X06736Y01975*
X06745Y01972*
Y02005*
G37*
G36*
X05063Y01987D02*
X05046D01*
Y01971*
X05054Y01974*
X0506Y0198*
X05063Y01987*
G37*
G36*
X05036D02*
X0502D01*
X05023Y0198*
X05029Y01974*
X05036Y01971*
Y01987*
G37*
G36*
X05112Y02008D02*
X05104D01*
X05097Y02005*
X05092Y01999*
X05089Y01992*
Y01984*
X05092Y01977*
X05097Y01972*
X05104Y01969*
X05112*
X0512Y01972*
X05125Y01977*
X05128Y01984*
Y01992*
X05125Y01999*
X0512Y02005*
X05112Y02008*
G37*
G36*
X04329Y02002D02*
X04321D01*
X04314Y01999*
X04308Y01994*
X04305Y01986*
Y01979*
X04308Y01971*
X04314Y01966*
X04321Y01963*
X04329*
X04336Y01966*
X04342Y01971*
X04345Y01979*
Y01986*
X04342Y01994*
X04336Y01999*
X04329Y02002*
G37*
G36*
X05947Y01976D02*
Y0196D01*
X05964*
X05961Y01967*
X05954Y01973*
X05947Y01976*
G37*
G36*
X05937D02*
X0593Y01973D01*
X05924Y01967*
X05921Y0196*
X05937*
Y01976*
G37*
G36*
X05408Y02227D02*
X054D01*
X05393Y02224*
X05387Y02218*
X05384Y02211*
Y02203*
X05387Y02196*
X05392Y02191*
Y0199*
X05385Y01987*
X05379Y01982*
X05376Y01975*
Y01967*
X05379Y01959*
X05385Y01954*
X05392Y01951*
X054*
X05407Y01954*
X05412Y01959*
X05415Y01967*
Y01975*
X05414Y01978*
X05415Y01979*
X05416Y01984*
Y02191*
X0542Y02196*
X05423Y02203*
Y02211*
X0542Y02218*
X05415Y02224*
X05408Y02227*
G37*
G36*
X04494Y01986D02*
X04486D01*
X04479Y01983*
X04474Y01978*
X04471Y01971*
Y01963*
X04474Y01956*
X04479Y0195*
X04486Y01947*
X04494*
X04501Y0195*
X04507Y01956*
X0451Y01963*
Y01971*
X04507Y01978*
X04501Y01983*
X04494Y01986*
G37*
G36*
X06096Y01983D02*
X06088D01*
X06081Y0198*
X06075Y01975*
X06072Y01968*
Y0196*
X06075Y01953*
X06081Y01947*
X06088Y01944*
X06096*
X06103Y01947*
X06108Y01953*
X06111Y0196*
Y01968*
X06108Y01975*
X06103Y0198*
X06096Y01983*
G37*
G36*
X05964Y0195D02*
X05947D01*
Y01933*
X05954Y01936*
X05961Y01943*
X05964Y0195*
G37*
G36*
X05937D02*
X05921D01*
X05924Y01943*
X0593Y01936*
X05937Y01933*
Y0195*
G37*
G36*
X05045Y01951D02*
X05038D01*
X0503Y01948*
X05025Y01942*
X05022Y01935*
Y01927*
X05025Y0192*
X0503Y01915*
X05038Y01912*
X05045*
X05053Y01915*
X05058Y0192*
X05061Y01927*
Y01935*
X05058Y01942*
X05053Y01948*
X05045Y01951*
G37*
G36*
X04616Y01947D02*
X04608D01*
X04601Y01944*
X04596Y01938*
X04593Y01931*
Y01923*
X04596Y01916*
X04601Y01911*
X04608Y01908*
X04616*
X04623Y01911*
X04629Y01916*
X04632Y01923*
Y01931*
X04629Y01938*
X04623Y01944*
X04616Y01947*
G37*
G36*
X02226Y01965D02*
X02216D01*
X02206Y01963*
X02197Y01958*
X0219Y01951*
X02185Y01942*
X02183Y01932*
Y01922*
X02185Y01913*
X0219Y01904*
X02197Y01897*
X02206Y01892*
X02216Y0189*
X02226*
X02235Y01892*
X02244Y01897*
X02251Y01904*
X02256Y01913*
X02259Y01922*
Y01932*
X02256Y01942*
X02251Y01951*
X02244Y01958*
X02235Y01963*
X02226Y01965*
G37*
G36*
X02126D02*
X02116D01*
X02106Y01963*
X02097Y01958*
X0209Y01951*
X02085Y01942*
X02083Y01932*
Y01922*
X02085Y01913*
X0209Y01904*
X02097Y01897*
X02106Y01892*
X02116Y0189*
X02126*
X02135Y01892*
X02144Y01897*
X02151Y01904*
X02156Y01913*
X02159Y01922*
Y01932*
X02156Y01942*
X02151Y01951*
X02144Y01958*
X02135Y01963*
X02126Y01965*
G37*
G36*
X04423Y01904D02*
X04416D01*
X04408Y01901*
X04403Y01895*
X044Y01888*
Y0188*
X04403Y01873*
X04408Y01867*
X04416Y01864*
X04423*
X04431Y01867*
X04436Y01873*
X04439Y0188*
Y01888*
X04436Y01895*
X04431Y01901*
X04423Y01904*
G37*
G36*
X05486Y02112D02*
X05479D01*
X05471Y02109*
X05466Y02104*
X05463Y02097*
Y02089*
X05466Y02082*
X05471Y02076*
X05479Y02073*
X05485*
X05516Y02042*
Y01884*
X05517Y01879*
X05519Y01875*
X05523Y01873*
X05524Y01873*
X05526Y01868*
X05531Y01862*
X05539Y01859*
X05546*
X05554Y01862*
X05559Y01868*
X05562Y01875*
Y01883*
X05559Y0189*
X05554Y01896*
X05546Y01899*
X0554*
Y02047*
X05539Y02052*
X05536Y02056*
X05502Y0209*
Y02097*
X05499Y02104*
X05494Y02109*
X05486Y02112*
G37*
G36*
X05845Y01892D02*
X05837D01*
X0583Y01889*
X05824Y01883*
X05821Y01876*
Y01868*
X05824Y01861*
X0583Y01856*
X05837Y01853*
X05845*
X05852Y01856*
X05857Y01861*
X0586Y01868*
Y01876*
X05857Y01883*
X05852Y01889*
X05845Y01892*
G37*
G36*
X05951Y0188D02*
X05943D01*
X05936Y01877*
X0593Y01872*
X05927Y01864*
Y01856*
X0593Y01849*
X05936Y01844*
X05943Y01841*
X05951*
X05958Y01844*
X05964Y01849*
X05967Y01856*
Y01864*
X05964Y01872*
X05958Y01877*
X05951Y0188*
G37*
G36*
X05093Y01876D02*
X05085D01*
X05078Y01873*
X05073Y01867*
X0507Y0186*
Y01852*
X05073Y01845*
X05078Y01839*
X05085Y01836*
X05093*
X051Y01839*
X05106Y01845*
X05109Y01852*
Y0186*
X05106Y01867*
X051Y01873*
X05093Y01876*
G37*
G36*
X02226Y01867D02*
X02226D01*
Y01832*
X02261*
Y01833*
X02258Y01843*
X02253Y01852*
X02245Y01859*
X02236Y01865*
X02226Y01867*
G37*
G36*
X02216D02*
X02215D01*
X02205Y01865*
X02196Y01859*
X02189Y01852*
X02183Y01843*
X02181Y01833*
Y01832*
X02216*
Y01867*
G37*
G36*
X06147Y01857D02*
X06139D01*
X06132Y01854*
X06126Y01849*
X06123Y01842*
Y01834*
X06126Y01827*
X06132Y01821*
X06139Y01818*
X06147*
X06154Y01821*
X0616Y01827*
X06163Y01834*
Y01842*
X0616Y01849*
X06154Y01854*
X06147Y01857*
G37*
G36*
X04849Y01853D02*
X04841D01*
X04833Y0185*
X04828Y01844*
X04825Y01837*
Y01829*
X04828Y01822*
X04833Y01816*
X04841Y01813*
X04849*
X04856Y01816*
X04861Y01822*
X04864Y01829*
Y01837*
X04861Y01844*
X04856Y0185*
X04849Y01853*
G37*
G36*
X05789Y01845D02*
X05782D01*
X05774Y01842*
X05769Y01836*
X05766Y01829*
Y01821*
X05769Y01814*
X05774Y01808*
X05782Y01805*
X05789*
X05797Y01808*
X05802Y01814*
X05805Y01821*
Y01829*
X05802Y01836*
X05797Y01842*
X05789Y01845*
G37*
G36*
X06286Y01837D02*
X06278D01*
X0627Y01834*
X06265Y01828*
X06262Y01821*
Y01813*
X06265Y01806*
X0627Y018*
X06278Y01797*
X06286*
X06293Y018*
X06298Y01806*
X06301Y01813*
Y01821*
X06298Y01828*
X06293Y01834*
X06286Y01837*
G37*
G36*
X02126Y01865D02*
X02116D01*
X02106Y01863*
X02097Y01858*
X0209Y01851*
X02085Y01842*
X02083Y01832*
Y01822*
X02085Y01813*
X0209Y01804*
X02097Y01797*
X02106Y01792*
X02116Y0179*
X02126*
X02135Y01792*
X02144Y01797*
X02151Y01804*
X02156Y01813*
X02159Y01822*
Y01832*
X02156Y01842*
X02151Y01851*
X02144Y01858*
X02135Y01863*
X02126Y01865*
G37*
G36*
X0771Y01791D02*
X07693D01*
Y01768*
X07737*
X07737Y0177*
X07734Y01777*
X0773Y01783*
X07724Y01787*
X07717Y0179*
X0771Y01791*
G37*
G36*
X07868D02*
X07858D01*
Y01768*
X07896*
X07895Y0177*
X07892Y01777*
X07888Y01783*
X07882Y01787*
X07875Y0179*
X07868Y01791*
G37*
G36*
X07848D02*
X07837D01*
X0783Y0179*
X07823Y01787*
X07817Y01783*
X07813Y01777*
X0781Y0177*
X07809Y01768*
X07848*
Y01791*
G37*
G36*
X07683D02*
X07667D01*
X07659Y0179*
X07653Y01787*
X07647Y01783*
X07642Y01777*
X0764Y0177*
X07639Y01768*
X07683*
Y01791*
G37*
G36*
X06423Y01802D02*
X06416D01*
X06408Y01799*
X06403Y01794*
X064Y01787*
Y01779*
X06403Y01771*
X06408Y01766*
X06416Y01763*
X06423*
X06431Y01766*
X06436Y01771*
X06439Y01779*
Y01787*
X06436Y01794*
X06431Y01799*
X06423Y01802*
G37*
G36*
X04144Y01797D02*
X04136D01*
X04129Y01794*
X04123Y01789*
X0412Y01782*
Y01774*
X04123Y01767*
X04129Y01761*
X04136Y01758*
X04144*
X04151Y01761*
X04157Y01767*
X0416Y01774*
Y01782*
X04157Y01789*
X04151Y01794*
X04144Y01797*
G37*
G36*
X06285Y01789D02*
X06277D01*
X0627Y01786*
X06264Y0178*
X06261Y01773*
Y01765*
X06264Y01758*
X0627Y01752*
X06277Y01749*
X06285*
X06292Y01752*
X06298Y01758*
X06301Y01765*
Y01773*
X06298Y0178*
X06292Y01786*
X06285Y01789*
G37*
G36*
X07896Y01758D02*
X07858D01*
Y01735*
X07868*
X07875Y01736*
X07882Y01739*
X07888Y01743*
X07892Y01749*
X07895Y01756*
X07896Y01758*
G37*
G36*
X07848D02*
X07809D01*
X0781Y01756*
X07813Y01749*
X07817Y01743*
X07823Y01739*
X0783Y01736*
X07837Y01735*
X07848*
Y01758*
G37*
G36*
X07737D02*
X07693D01*
Y01735*
X0771*
X07717Y01736*
X07724Y01739*
X0773Y01743*
X07734Y01749*
X07737Y01756*
X07737Y01758*
G37*
G36*
X07683D02*
X07639D01*
X0764Y01756*
X07642Y01749*
X07647Y01743*
X07653Y01739*
X07659Y01736*
X07667Y01735*
X07683*
Y01758*
G37*
G36*
X03904Y01758D02*
X03896D01*
X03889Y01755*
X03883Y01749*
X0388Y01742*
Y01734*
X03883Y01727*
X03889Y01722*
X03896Y01719*
X03904*
X03911Y01722*
X03916Y01727*
X03919Y01734*
Y01742*
X03916Y01749*
X03911Y01755*
X03904Y01758*
G37*
G36*
X04456Y01739D02*
X04448D01*
X04441Y01736*
X04436Y0173*
X04433Y01723*
Y01715*
X04436Y01708*
X04441Y01702*
X04448Y01699*
X04456*
X04463Y01702*
X04469Y01708*
X04472Y01715*
Y01723*
X04469Y0173*
X04463Y01736*
X04456Y01739*
G37*
G36*
X06318Y01733D02*
X06311D01*
X06303Y0173*
X06298Y01725*
X06295Y01718*
Y0171*
X06298Y01703*
X06303Y01697*
X06311Y01694*
X06318*
X06326Y01697*
X06331Y01703*
X06334Y0171*
Y01718*
X06331Y01725*
X06326Y0173*
X06318Y01733*
G37*
G36*
X06163Y01729D02*
X06155D01*
X06147Y01726*
X06142Y01721*
X06139Y01714*
Y01706*
X06142Y01699*
X06147Y01693*
X06155Y0169*
X06163*
X0617Y01693*
X06175Y01699*
X06178Y01706*
Y01714*
X06175Y01721*
X0617Y01726*
X06163Y01729*
G37*
G36*
X03572Y01728D02*
X03564D01*
X03557Y01725*
X03551Y0172*
X03548Y01712*
Y01705*
X03551Y01697*
X03557Y01692*
X03564Y01689*
X03572*
X03579Y01692*
X03585Y01697*
X03588Y01705*
Y01712*
X03585Y0172*
X03579Y01725*
X03572Y01728*
G37*
G36*
X07712Y01726D02*
X07704D01*
X07696Y01723*
X07691Y01718*
X07688Y0171*
Y01703*
X07691Y01695*
X07696Y0169*
X07704Y01687*
X07712*
X07719Y0169*
X07724Y01695*
X07727Y01703*
Y0171*
X07724Y01718*
X07719Y01723*
X07712Y01726*
G37*
G36*
X03943Y01723D02*
X03935D01*
X03928Y0172*
X03922Y01714*
X03919Y01707*
Y01699*
X03922Y01692*
X03928Y01686*
X03935Y01683*
X03943*
X0395Y01686*
X03956Y01692*
X03959Y01699*
Y01707*
X03956Y01714*
X0395Y0172*
X03943Y01723*
G37*
G36*
X07435Y01711D02*
X07427D01*
X0742Y01708*
X07415Y01702*
X07412Y01695*
Y01687*
X07415Y0168*
X0742Y01674*
X07427Y01671*
X07435*
X07442Y01674*
X07448Y0168*
X07451Y01687*
Y01695*
X07448Y01702*
X07442Y01708*
X07435Y01711*
G37*
G36*
X03372Y01695D02*
X03364D01*
X03357Y01692*
X03352Y01686*
X03349Y01679*
Y01671*
X03352Y01664*
X03357Y01659*
X03364Y01656*
X03372*
X03379Y01659*
X03385Y01664*
X03388Y01671*
Y01679*
X03385Y01686*
X03379Y01692*
X03372Y01695*
G37*
G36*
X02943Y01691D02*
X02935D01*
X02928Y01688*
X02922Y01683*
X02919Y01675*
Y01667*
X02922Y0166*
X02928Y01655*
X02935Y01652*
X02943*
X0295Y01655*
X02956Y0166*
X02959Y01667*
Y01675*
X02956Y01683*
X0295Y01688*
X02943Y01691*
G37*
G36*
X05176Y01668D02*
Y01651D01*
X05192*
X05189Y01659*
X05183Y01665*
X05176Y01668*
G37*
G36*
X05144Y01691D02*
X05136D01*
X05129Y01688*
X05124Y01683*
X05121Y01676*
Y01668*
X05124Y01661*
X05129Y01655*
X05136Y01652*
X05144*
X05145Y01652*
X05146Y01651*
X05166*
Y01668*
X05165Y01667*
X0516Y01671*
Y01676*
X05157Y01683*
X05151Y01688*
X05144Y01691*
G37*
G36*
X03144Y01683D02*
X03136D01*
X03129Y0168*
X03123Y01675*
X0312Y01667*
Y0166*
X03123Y01652*
X03129Y01647*
X03136Y01644*
X03144*
X03151Y01647*
X03157Y01652*
X0316Y0166*
Y01667*
X03157Y01675*
X03151Y0168*
X03144Y01683*
G37*
G36*
X06564Y01677D02*
X06557D01*
X06549Y01674*
X06544Y01669*
X06541Y01662*
Y01654*
X06544Y01646*
X06549Y01641*
X06557Y01638*
X06564*
X06572Y01641*
X06577Y01646*
X0658Y01654*
Y01662*
X06577Y01669*
X06572Y01674*
X06564Y01677*
G37*
G36*
X05192Y01641D02*
X05176D01*
Y01625*
X05183Y01628*
X05189Y01634*
X05192Y01641*
G37*
G36*
X05166D02*
X05149D01*
X05152Y01634*
X05158Y01628*
X05166Y01625*
Y01641*
G37*
G36*
X04905Y01636D02*
X04897D01*
X0489Y01633*
X04884Y01627*
X04881Y0162*
Y01612*
X04884Y01605*
X0489Y016*
X04897Y01597*
X04905*
X04912Y016*
X04917Y01605*
X0492Y01612*
Y0162*
X04917Y01627*
X04912Y01633*
X04905Y01636*
G37*
G36*
X02261Y01622D02*
X02226D01*
Y01587*
X02226*
X02236Y0159*
X02245Y01595*
X02253Y01603*
X02258Y01612*
X02261Y01622*
Y01622*
G37*
G36*
X02216D02*
X02181D01*
Y01622*
X02183Y01612*
X02189Y01603*
X02196Y01595*
X02205Y0159*
X02215Y01587*
X02216*
Y01622*
G37*
G36*
X04981Y01528D02*
Y01511D01*
X04997*
X04994Y01519*
X04988Y01525*
X04981Y01528*
G37*
G36*
X04971D02*
X04964Y01525D01*
X04957Y01519*
X04954Y01511*
X04971*
Y01528*
G37*
G36*
X05135Y01548D02*
X05127D01*
X0512Y01545*
X05115Y01539*
X05112Y01532*
Y01524*
X05115Y01517*
X0512Y01511*
X05127Y01508*
X05135*
X05143Y01511*
X05148Y01517*
X05151Y01524*
Y01532*
X05148Y01539*
X05143Y01545*
X05135Y01548*
G37*
G36*
X02226Y01565D02*
X02216D01*
X02206Y01563*
X02197Y01558*
X0219Y01551*
X02185Y01542*
X02183Y01532*
Y01522*
X02185Y01513*
X0219Y01504*
X02197Y01497*
X02206Y01492*
X02216Y0149*
X02226*
X02235Y01492*
X02244Y01497*
X02251Y01504*
X02256Y01513*
X02259Y01522*
Y01532*
X02256Y01542*
X02251Y01551*
X02244Y01558*
X02235Y01563*
X02226Y01565*
G37*
G36*
X02126D02*
X02116D01*
X02106Y01563*
X02097Y01558*
X0209Y01551*
X02085Y01542*
X02083Y01532*
Y01522*
X02085Y01513*
X0209Y01504*
X02097Y01497*
X02106Y01492*
X02116Y0149*
X02126*
X02135Y01492*
X02144Y01497*
X02151Y01504*
X02156Y01513*
X02159Y01522*
Y01532*
X02156Y01542*
X02151Y01551*
X02144Y01558*
X02135Y01563*
X02126Y01565*
G37*
G36*
X04997Y01501D02*
X04981D01*
Y01485*
X04988Y01488*
X04994Y01494*
X04997Y01501*
G37*
G36*
X04971D02*
X04954D01*
X04957Y01494*
X04964Y01488*
X04971Y01485*
Y01501*
G37*
G36*
X0748Y0148D02*
Y01464D01*
X07496*
X07493Y01471*
X07487Y01477*
X0748Y0148*
G37*
G36*
X0747D02*
X07462Y01477D01*
X07456Y01471*
X07453Y01464*
X0747*
Y0148*
G37*
G36*
X07712Y01499D02*
X07704D01*
X07696Y01496*
X07691Y0149*
X07688Y01483*
Y01475*
X07691Y01468*
X07696Y01462*
X07704Y01459*
X07712*
X07719Y01462*
X07724Y01468*
X07727Y01475*
Y01483*
X07724Y0149*
X07719Y01496*
X07712Y01499*
G37*
G36*
X06392Y01484D02*
X06384D01*
X06377Y01481*
X06371Y01476*
X06368Y01469*
Y01461*
X06371Y01454*
X06377Y01448*
X06384Y01445*
X06392*
X06399Y01448*
X06405Y01454*
X06408Y01461*
Y01469*
X06405Y01476*
X06399Y01481*
X06392Y01484*
G37*
G36*
X06164Y01482D02*
X06156D01*
X06148Y01479*
X06143Y01474*
X0614Y01467*
Y01459*
X06143Y01452*
X06148Y01446*
X06156Y01443*
X06164*
X06171Y01446*
X06176Y01452*
X06179Y01459*
Y01467*
X06176Y01474*
X06171Y01479*
X06164Y01482*
G37*
G36*
X0608D02*
X06072D01*
X06065Y01479*
X06059Y01474*
X06056Y01467*
Y01459*
X06059Y01452*
X06065Y01446*
X06072Y01443*
X0608*
X06087Y01446*
X06093Y01452*
X06096Y01459*
Y01467*
X06093Y01474*
X06087Y01479*
X0608Y01482*
G37*
G36*
X07496Y01454D02*
X0748D01*
Y01437*
X07487Y0144*
X07493Y01446*
X07496Y01454*
G37*
G36*
X0747D02*
X07453D01*
X07456Y01446*
X07462Y0144*
X0747Y01437*
Y01454*
G37*
G36*
X06709Y01476D02*
X06701D01*
X06694Y01473*
X06688Y01468*
X06685Y01461*
Y01453*
X06688Y01446*
X06694Y0144*
X06701Y01437*
X06709*
X06716Y0144*
X06722Y01446*
X06725Y01453*
Y01461*
X06722Y01468*
X06716Y01473*
X06709Y01476*
G37*
G36*
X04973Y01477D02*
X04964D01*
X04956Y01473*
X0495Y01467*
X04947Y01459*
Y01451*
X0495Y01442*
X04956Y01436*
X04964Y01433*
X04973*
X04981Y01436*
X04987Y01442*
X04991Y01451*
Y01459*
X04987Y01467*
X04981Y01473*
X04973Y01477*
G37*
G36*
X05149Y01446D02*
Y0143D01*
X05165*
X05162Y01437*
X05156Y01443*
X05149Y01446*
G37*
G36*
X05139D02*
X05131Y01443D01*
X05125Y01437*
X05122Y0143*
X05139*
Y01446*
G37*
G36*
X0771Y0145D02*
X07693D01*
Y01427*
X07737*
X07737Y0143*
X07734Y01436*
X0773Y01442*
X07724Y01447*
X07717Y01449*
X0771Y0145*
G37*
G36*
X07868D02*
X07858D01*
Y01427*
X07896*
X07895Y0143*
X07892Y01436*
X07888Y01442*
X07882Y01447*
X07875Y01449*
X07868Y0145*
G37*
G36*
X07848D02*
X07837D01*
X0783Y01449*
X07823Y01447*
X07817Y01442*
X07813Y01436*
X0781Y0143*
X07809Y01427*
X07848*
Y0145*
G37*
G36*
X07683D02*
X07667D01*
X07659Y01449*
X07653Y01447*
X07647Y01442*
X07642Y01436*
X0764Y0143*
X07639Y01427*
X07683*
Y0145*
G37*
G36*
X07376Y01447D02*
X07368D01*
X07361Y01444*
X07356Y01438*
X07353Y01431*
Y01423*
X07356Y01416*
X07361Y01411*
X07368Y01408*
X07376*
X07383Y01411*
X07389Y01416*
X07392Y01423*
Y01431*
X07389Y01438*
X07383Y01444*
X07376Y01447*
G37*
G36*
X05165Y0142D02*
X05149D01*
Y01403*
X05156Y01406*
X05162Y01413*
X05165Y0142*
G37*
G36*
X05139D02*
X05122D01*
X05125Y01413*
X05131Y01406*
X05139Y01403*
Y0142*
G37*
G36*
X07896Y01417D02*
X07858D01*
Y01394*
X07868*
X07875Y01395*
X07882Y01398*
X07888Y01403*
X07892Y01408*
X07895Y01415*
X07896Y01417*
G37*
G36*
X07848D02*
X07809D01*
X0781Y01415*
X07813Y01408*
X07817Y01403*
X07823Y01398*
X0783Y01395*
X07837Y01394*
X07848*
Y01417*
G37*
G36*
X07737D02*
X07693D01*
Y01394*
X0771*
X07717Y01395*
X07724Y01398*
X0773Y01403*
X07734Y01408*
X07737Y01415*
X07737Y01417*
G37*
G36*
X07683D02*
X07639D01*
X0764Y01415*
X07642Y01408*
X07647Y01403*
X07653Y01398*
X07659Y01395*
X07667Y01394*
X07683*
Y01417*
G37*
G36*
X02226Y01465D02*
X02216D01*
X02206Y01463*
X02197Y01458*
X0219Y01451*
X02185Y01442*
X02183Y01432*
Y01422*
X02185Y01413*
X0219Y01404*
X02197Y01397*
X02206Y01392*
X02216Y0139*
X02226*
X02235Y01392*
X02244Y01397*
X02251Y01404*
X02256Y01413*
X02259Y01422*
Y01432*
X02256Y01442*
X02251Y01451*
X02244Y01458*
X02235Y01463*
X02226Y01465*
G37*
G36*
X02126D02*
X02116D01*
X02106Y01463*
X02097Y01458*
X0209Y01451*
X02085Y01442*
X02083Y01432*
Y01422*
X02085Y01413*
X0209Y01404*
X02097Y01397*
X02106Y01392*
X02116Y0139*
X02126*
X02135Y01392*
X02144Y01397*
X02151Y01404*
X02156Y01413*
X02159Y01422*
Y01432*
X02156Y01442*
X02151Y01451*
X02144Y01458*
X02135Y01463*
X02126Y01465*
G37*
G36*
X0748Y01402D02*
Y01385D01*
X07496*
X07493Y01392*
X07487Y01399*
X0748Y01402*
G37*
G36*
X0747D02*
X07462Y01399D01*
X07456Y01392*
X07453Y01385*
X0747*
Y01402*
G37*
G36*
X07496Y01375D02*
X0748D01*
Y01359*
X07487Y01362*
X07493Y01368*
X07496Y01375*
G37*
G36*
X0747D02*
X07453D01*
X07456Y01368*
X07462Y01362*
X0747Y01359*
Y01375*
G37*
G36*
X02126Y01367D02*
X02126D01*
Y01332*
X02161*
Y01333*
X02158Y01343*
X02153Y01352*
X02145Y01359*
X02136Y01365*
X02126Y01367*
G37*
G36*
X02116D02*
X02115D01*
X02105Y01365*
X02096Y01359*
X02089Y01352*
X02083Y01343*
X02081Y01333*
Y01332*
X02116*
Y01367*
G37*
G36*
X07595Y01362D02*
X07587D01*
X0758Y01359*
X07574Y01354*
X07571Y01347*
Y01339*
X07574Y01332*
X0758Y01326*
X07587Y01323*
X07595*
X07602Y01326*
X07607Y01332*
X0761Y01339*
Y01347*
X07607Y01354*
X07602Y01359*
X07595Y01362*
G37*
G36*
X07534Y01356D02*
X07526D01*
X07519Y01353*
X07513Y01348*
X0751Y01341*
Y01333*
X07513Y01326*
X07519Y0132*
X07526Y01317*
X07534*
X07541Y0132*
X07546Y01326*
X07549Y01333*
Y01341*
X07546Y01348*
X07541Y01353*
X07534Y01356*
G37*
G36*
X02947Y01347D02*
X02939D01*
X02932Y01344*
X02927Y01338*
X02924Y01331*
Y01323*
X02927Y01316*
X02932Y01311*
X02939Y01308*
X02947*
X02955Y01311*
X0296Y01316*
X02963Y01323*
Y01331*
X0296Y01338*
X02955Y01344*
X02947Y01347*
G37*
G36*
X05098Y01341D02*
X05089D01*
X05081Y01338*
X05075Y01331*
X05072Y01323*
Y01315*
X05075Y01307*
X05081Y01301*
X05089Y01297*
X05098*
X05106Y01301*
X05112Y01307*
X05116Y01315*
Y01323*
X05112Y01331*
X05106Y01338*
X05098Y01341*
G37*
G36*
X02226Y01365D02*
X02216D01*
X02206Y01363*
X02197Y01358*
X0219Y01351*
X02185Y01342*
X02183Y01332*
Y01322*
X02185Y01313*
X0219Y01304*
X02197Y01297*
X02206Y01292*
X02216Y0129*
X02226*
X02235Y01292*
X02244Y01297*
X02251Y01304*
X02256Y01313*
X02259Y01322*
Y01332*
X02256Y01342*
X02251Y01351*
X02244Y01358*
X02235Y01363*
X02226Y01365*
G37*
G36*
X07404Y01329D02*
X07396D01*
X07389Y01326*
X07383Y0132*
X0738Y01313*
Y01305*
X07383Y01298*
X07389Y01293*
X07396Y0129*
X07404*
X07411Y01293*
X07416Y01298*
X07419Y01305*
Y01313*
X07416Y0132*
X07411Y01326*
X07404Y01329*
G37*
G36*
X02161Y01322D02*
X02126D01*
Y01287*
X02126*
X02136Y0129*
X02145Y01295*
X02153Y01303*
X02158Y01312*
X02161Y01322*
Y01322*
G37*
G36*
X02116D02*
X02081D01*
Y01322*
X02083Y01312*
X02089Y01303*
X02096Y01295*
X02105Y0129*
X02115Y01287*
X02116*
Y01322*
G37*
G36*
X05372Y01321D02*
X05364D01*
X05357Y01318*
X05352Y01312*
X05349Y01305*
Y01297*
X05352Y0129*
X05357Y01285*
X05364Y01282*
X05372*
X05379Y01285*
X05385Y0129*
X05388Y01297*
Y01305*
X05385Y01312*
X05379Y01318*
X05372Y01321*
G37*
G36*
X06354Y013D02*
X06347D01*
X06339Y01297*
X06334Y01292*
X06331Y01285*
Y01277*
X06334Y0127*
X06339Y01264*
X06347Y01261*
X06354*
X06362Y01264*
X06367Y0127*
X0637Y01277*
Y01285*
X06367Y01292*
X06362Y01297*
X06354Y013*
G37*
G36*
X05868Y01569D02*
X0586D01*
X05853Y01566*
X05848Y01561*
X05845Y01553*
Y01545*
X05848Y01538*
X05853Y01533*
X05854Y01532*
Y01289*
X05853Y01288*
X0585Y01281*
Y01273*
X05853Y01266*
X05858Y0126*
X05865Y01257*
X05873*
X0588Y0126*
X05886Y01266*
X05889Y01273*
Y01281*
X05886Y01288*
X0588Y01293*
X0588Y01294*
Y01537*
X05881Y01538*
X05884Y01545*
Y01553*
X05881Y01561*
X05875Y01566*
X05868Y01569*
G37*
G36*
X05958Y01268D02*
Y01251D01*
X05974*
X05971Y01259*
X05965Y01265*
X05958Y01268*
G37*
G36*
X05948D02*
X05941Y01265D01*
X05934Y01259*
X05931Y01251*
X05948*
Y01268*
G37*
G36*
X05974Y01241D02*
X05958D01*
Y01225*
X05965Y01228*
X05971Y01234*
X05974Y01241*
G37*
G36*
X05948D02*
X05931D01*
X05934Y01234*
X05941Y01228*
X05948Y01225*
Y01241*
G37*
G36*
X05626Y01252D02*
X05617D01*
X05609Y01249*
X05603Y01243*
X05599Y01235*
Y01226*
X05603Y01218*
X05609Y01212*
X05617Y01209*
X05626*
X05634Y01212*
X0564Y01218*
X05643Y01226*
Y01235*
X0564Y01243*
X05634Y01249*
X05626Y01252*
G37*
G36*
X06742Y01223D02*
X06734D01*
X06727Y0122*
X06722Y01214*
X06719Y01207*
Y01199*
X06722Y01192*
X06727Y01186*
X06734Y01183*
X06742*
X06749Y01186*
X06755Y01192*
X06758Y01199*
Y01207*
X06755Y01214*
X06749Y0122*
X06742Y01223*
G37*
G36*
X04402Y01197D02*
X04394D01*
X04387Y01194*
X04381Y01188*
X04378Y01181*
Y01173*
X04381Y01166*
X04387Y01161*
X04394Y01158*
X04402*
X04409Y01161*
X04414Y01166*
X04417Y01173*
Y01181*
X04414Y01188*
X04409Y01194*
X04402Y01197*
G37*
G36*
X07242Y01183D02*
X07234D01*
X07227Y0118*
X07222Y01175*
X07219Y01167*
Y0116*
X07222Y01152*
X07227Y01147*
X07234Y01144*
X07242*
X07249Y01147*
X07255Y01152*
X07258Y0116*
Y01167*
X07255Y01175*
X07249Y0118*
X07242Y01183*
G37*
G36*
X02181Y01268D02*
X02176D01*
Y01141*
X02303*
Y01146*
X02299Y01167*
X02293Y01186*
X02284Y01205*
X02271Y01222*
X02257Y01236*
X0224Y01249*
X02221Y01258*
X02202Y01265*
X02181Y01268*
G37*
G36*
X02166D02*
X0216D01*
X0214Y01265*
X0212Y01258*
X02101Y01249*
X02085Y01236*
X0207Y01222*
X02058Y01205*
X02048Y01186*
X02042Y01167*
X02039Y01146*
Y01141*
X02166*
Y01268*
G37*
G36*
X00252D02*
X00247D01*
Y01141*
X00374*
Y01146*
X0037Y01167*
X00364Y01186*
X00354Y01205*
X00342Y01222*
X00328Y01236*
X00311Y01249*
X00292Y01258*
X00272Y01265*
X00252Y01268*
G37*
G36*
X00237D02*
X00231D01*
X00211Y01265*
X00191Y01258*
X00172Y01249*
X00155Y01236*
X00141Y01222*
X00129Y01205*
X00119Y01186*
X00113Y01167*
X00109Y01146*
Y01141*
X00237*
Y01268*
G37*
G36*
X06363Y01182D02*
X06354D01*
X06346Y01179*
X0634Y01173*
X06337Y01165*
Y01156*
X0634Y01148*
X06346Y01142*
X06354Y01139*
X06363*
X06371Y01142*
X06377Y01148*
X0638Y01156*
Y01165*
X06377Y01173*
X06371Y01179*
X06363Y01182*
G37*
G36*
X06726Y01171D02*
X06719D01*
X06711Y01168*
X06706Y01163*
X06703Y01156*
Y01148*
X06706Y01141*
X06711Y01135*
X06719Y01132*
X06726*
X06734Y01135*
X06739Y01141*
X06742Y01148*
Y01156*
X06739Y01163*
X06734Y01168*
X06726Y01171*
G37*
G36*
X06597Y0116D02*
X06589D01*
X06582Y01157*
X06576Y01151*
X06573Y01144*
Y01136*
X06576Y01129*
X06582Y01123*
X06589Y0112*
X06597*
X06604Y01123*
X06609Y01129*
X06612Y01136*
Y01144*
X06609Y01151*
X06604Y01157*
X06597Y0116*
G37*
G36*
X07408Y0114D02*
X074D01*
X07393Y01137*
X07387Y01131*
X07384Y01124*
Y01116*
X07387Y01109*
X07393Y01104*
X074Y01101*
X07408*
X07415Y01104*
X0742Y01109*
X07423Y01116*
Y01124*
X0742Y01131*
X07415Y01137*
X07408Y0114*
G37*
G36*
X07459Y01124D02*
X07451D01*
X07444Y01121*
X07438Y01116*
X07435Y01108*
Y01101*
X07438Y01093*
X07444Y01088*
X07451Y01085*
X07459*
X07466Y01088*
X07472Y01093*
X07475Y01101*
Y01108*
X07472Y01116*
X07466Y01121*
X07459Y01124*
G37*
G36*
X0545Y01098D02*
X05442D01*
X05434Y01094*
X05427Y01088*
X05424Y0108*
Y01072*
X05427Y01064*
X05434Y01057*
X05442Y01054*
X0545*
X05458Y01057*
X05465Y01064*
X05468Y01072*
Y0108*
X05465Y01088*
X05458Y01094*
X0545Y01098*
G37*
G36*
X05845Y01058D02*
X05836D01*
X05828Y01055*
X05822Y01049*
X05819Y01041*
Y01032*
X05822Y01024*
X05828Y01018*
X05836Y01015*
X05845*
X05853Y01018*
X05859Y01024*
X05863Y01032*
Y01041*
X05859Y01049*
X05853Y01055*
X05845Y01058*
G37*
G36*
X02303Y01131D02*
X02176D01*
Y01004*
X02181*
X02202Y01007*
X02221Y01013*
X0224Y01023*
X02257Y01035*
X02271Y0105*
X02284Y01067*
X02293Y01085*
X02299Y01105*
X02303Y01125*
Y01131*
G37*
G36*
X02166D02*
X02039D01*
Y01125*
X02042Y01105*
X02048Y01085*
X02058Y01067*
X0207Y0105*
X02085Y01035*
X02101Y01023*
X0212Y01013*
X0214Y01007*
X0216Y01004*
X02166*
Y01131*
G37*
G36*
X00374D02*
X00247D01*
Y01004*
X00252*
X00272Y01007*
X00292Y01013*
X00311Y01023*
X00328Y01035*
X00342Y0105*
X00354Y01067*
X00364Y01085*
X0037Y01105*
X00374Y01125*
Y01131*
G37*
G36*
X00237D02*
X00109D01*
Y01125*
X00113Y01105*
X00119Y01085*
X00129Y01067*
X00141Y0105*
X00155Y01035*
X00172Y01023*
X00191Y01013*
X00211Y01007*
X00231Y01004*
X00237*
Y01131*
G37*
G36*
X0437Y01022D02*
X04362D01*
X04355Y01019*
X04349Y01013*
X04346Y01006*
Y00998*
X04349Y00991*
X04355Y00985*
X04362Y00982*
X0437*
X04377Y00985*
X04383Y00991*
X04386Y00998*
Y01006*
X04383Y01013*
X04377Y01019*
X0437Y01022*
G37*
G36*
X06723Y00896D02*
X06714D01*
X06705Y00893*
X06697Y00889*
X0669Y00882*
X06686Y00874*
X06683Y00865*
Y00856*
X06686Y00847*
X0669Y00839*
X06697Y00832*
X06705Y00827*
X06714Y00825*
X06723*
X06732Y00827*
X0674Y00832*
X06747Y00839*
X06752Y00847*
X06754Y00856*
Y00865*
X06752Y00874*
X06747Y00882*
X0674Y00889*
X06732Y00893*
X06723Y00896*
G37*
G36*
X03927Y0079D02*
X03919D01*
X03912Y00787*
X03906Y00782*
X03903Y00775*
Y00767*
X03906Y0076*
X03912Y00754*
X03919Y00751*
X03927*
X03934Y00754*
X0394Y0076*
X03943Y00767*
Y00775*
X0394Y00782*
X03934Y00787*
X03927Y0079*
G37*
G36*
X04508Y00784D02*
X045D01*
X04493Y00781*
X04487Y00775*
X04484Y00768*
Y0076*
X04487Y00753*
X04493Y00747*
X045Y00744*
X04508*
X04515Y00747*
X04521Y00753*
X04524Y0076*
Y00768*
X04521Y00775*
X04515Y00781*
X04508Y00784*
G37*
G36*
X06723Y00797D02*
X06714D01*
X06705Y00795*
X06697Y0079*
X0669Y00784*
X06686Y00776*
X06683Y00767*
Y00757*
X06686Y00748*
X0669Y0074*
X06697Y00734*
X06705Y00729*
X06714Y00727*
X06723*
X06732Y00729*
X0674Y00734*
X06747Y0074*
X06752Y00748*
X06754Y00757*
Y00767*
X06752Y00776*
X06747Y00784*
X0674Y0079*
X06732Y00795*
X06723Y00797*
G37*
G36*
X02922Y00742D02*
X02914D01*
X02906Y00739*
X02901Y00733*
X02898Y00726*
Y00718*
X02901Y00711*
X02906Y00705*
X02914Y00702*
X02922*
X02929Y00705*
X02934Y00711*
X02937Y00718*
Y00726*
X02934Y00733*
X02929Y00739*
X02922Y00742*
G37*
G36*
X03587Y00728D02*
X03579D01*
X03572Y00725*
X03567Y0072*
X03564Y00712*
Y00705*
X03567Y00697*
X03572Y00692*
X03579Y00689*
X03587*
X03595Y00692*
X036Y00697*
X03603Y00705*
Y00712*
X036Y0072*
X03595Y00725*
X03587Y00728*
G37*
G36*
X03022Y00727D02*
X03014D01*
X03006Y00724*
X03001Y00719*
X02998Y00712*
Y00704*
X03001Y00697*
X03006Y00691*
X03014Y00688*
X03022*
X03029Y00691*
X03034Y00697*
X03037Y00704*
Y00712*
X03034Y00719*
X03029Y00724*
X03022Y00727*
G37*
G36*
X02977Y00727D02*
X02969D01*
X02962Y00724*
X02956Y00719*
X02953Y00711*
Y00703*
X02956Y00696*
X02962Y00691*
X02969Y00688*
X02977*
X02984Y00691*
X02989Y00696*
X02992Y00703*
Y00711*
X02989Y00719*
X02984Y00724*
X02977Y00727*
G37*
G36*
X0273Y00692D02*
Y00675D01*
X02746*
X02743Y00683*
X02737Y00689*
X0273Y00692*
G37*
G36*
X0272D02*
X02712Y00689D01*
X02706Y00683*
X02703Y00675*
X0272*
Y00692*
G37*
G36*
X06724Y00701D02*
Y00669D01*
X06756*
X06754Y00678*
X06749Y00687*
X06742Y00694*
X06733Y00699*
X06724Y00701*
G37*
G36*
X06714D02*
X06704Y00699D01*
X06696Y00694*
X06689Y00687*
X06684Y00678*
X06681Y00669*
X06714*
Y00701*
G37*
G36*
X0426Y00703D02*
X04252D01*
X04245Y007*
X04239Y00694*
X04236Y00687*
Y00679*
X04239Y00672*
X04245Y00667*
X04252Y00664*
X0426*
X04267Y00667*
X04273Y00672*
X04276Y00679*
Y00687*
X04273Y00694*
X04267Y007*
X0426Y00703*
G37*
G36*
X02746Y00665D02*
X0273D01*
Y00649*
X02737Y00652*
X02743Y00658*
X02746Y00665*
G37*
G36*
X0272D02*
X02703D01*
X02706Y00658*
X02712Y00652*
X0272Y00649*
Y00665*
G37*
G36*
X06714Y00659D02*
X06681D01*
X06684Y00649*
X06689Y0064*
X06696Y00633*
X06704Y00629*
X06714Y00626*
Y00659*
G37*
G36*
X06756D02*
X06724D01*
Y00626*
X06733Y00629*
X06742Y00633*
X06749Y0064*
X06754Y00649*
X06756Y00659*
G37*
G36*
X04406Y00575D02*
X04398D01*
X0439Y00572*
X04385Y00566*
X04382Y00559*
Y00551*
X04385Y00544*
X0439Y00539*
X04398Y00536*
X04406*
X04413Y00539*
X04418Y00544*
X04421Y00551*
Y00559*
X04418Y00566*
X04413Y00572*
X04406Y00575*
G37*
G36*
X04309Y00555D02*
X04301D01*
X04294Y00552*
X04288Y00547*
X04285Y00539*
Y00532*
X04288Y00524*
X04294Y00519*
X04301Y00516*
X04309*
X04316Y00519*
X04322Y00524*
X04325Y00532*
Y00539*
X04322Y00547*
X04316Y00552*
X04309Y00555*
G37*
G36*
X04508Y00532D02*
X045D01*
X04493Y00529*
X04487Y00523*
X04484Y00516*
Y00508*
X04487Y00501*
X04493Y00495*
X045Y00492*
X04508*
X04515Y00495*
X04521Y00501*
X04524Y00508*
Y00516*
X04521Y00523*
X04515Y00529*
X04508Y00532*
G37*
G36*
X06943Y0051D02*
X06935D01*
X06928Y00507*
X06922Y00501*
X06919Y00494*
Y00486*
X06922Y00479*
X06928Y00474*
X06935Y00471*
X06943*
X0695Y00474*
X06956Y00479*
X06959Y00486*
Y00494*
X06956Y00501*
X0695Y00507*
X06943Y0051*
G37*
G36*
X04055Y00444D02*
Y00444D01*
X0241*
Y00444*
X02401Y00443*
X02399Y00441*
X02396*
X02393Y0044*
X02391Y00439*
X02389Y00436*
X02388Y00433*
Y00429*
X02387Y00421*
X02387*
Y00225*
X02387*
X02388Y00217*
Y00212*
X02389Y00209*
X02391Y00207*
X02393Y00205*
X02396Y00204*
X02399*
X02401Y00203*
X0241Y00201*
Y00201*
X04055*
Y00201*
X04064Y00203*
X04072Y00208*
X04077Y00216*
X04079Y00225*
X04079*
Y00421*
X04079*
X04077Y0043*
X04072Y00438*
X04064Y00443*
X04055Y00444*
G37*
G36*
X05444Y00394D02*
X05431D01*
X05418Y00391*
X05405Y00386*
X05394Y00379*
X05385Y0037*
X05378Y00359*
X05373Y00347*
X0537Y00334*
Y00321*
X05373Y00308*
X05378Y00295*
X05385Y00284*
X05394Y00275*
X05405Y00268*
X05418Y00263*
X05431Y0026*
X05444*
X05457Y00263*
X05469Y00268*
X0548Y00275*
X05489Y00284*
X05496Y00295*
X05502Y00308*
X05504Y00321*
Y00334*
X05502Y00347*
X05496Y00359*
X05489Y0037*
X0548Y00379*
X05469Y00386*
X05457Y00391*
X05444Y00394*
G37*
G36*
X04944D02*
X04931D01*
X04918Y00391*
X04905Y00386*
X04894Y00379*
X04885Y0037*
X04878Y00359*
X04873Y00347*
X0487Y00334*
Y00321*
X04873Y00308*
X04878Y00295*
X04885Y00284*
X04894Y00275*
X04905Y00268*
X04918Y00263*
X04931Y0026*
X04944*
X04957Y00263*
X04969Y00268*
X0498Y00275*
X04989Y00284*
X04996Y00295*
X05002Y00308*
X05004Y00321*
Y00334*
X05002Y00347*
X04996Y00359*
X04989Y0037*
X0498Y00379*
X04969Y00386*
X04957Y00391*
X04944Y00394*
G37*
G36*
X06354Y00389D02*
X06341D01*
X06328Y00387*
X06316Y00382*
X06305Y00374*
X06296Y00365*
X06288Y00354*
X06283Y00342*
X06281Y00329*
Y00316*
X06283Y00303*
X06288Y0029*
X06296Y0028*
X06305Y0027*
X06316Y00263*
X06328Y00258*
X06341Y00255*
X06354*
X06367Y00258*
X06379Y00263*
X0639Y0027*
X064Y0028*
X06407Y0029*
X06412Y00303*
X06415Y00316*
Y00329*
X06412Y00342*
X06407Y00354*
X064Y00365*
X0639Y00374*
X06379Y00382*
X06367Y00387*
X06354Y00389*
G37*
G36*
X05854D02*
X05841D01*
X05828Y00387*
X05816Y00382*
X05805Y00374*
X05796Y00365*
X05788Y00354*
X05783Y00342*
X05781Y00329*
Y00316*
X05783Y00303*
X05788Y0029*
X05796Y0028*
X05805Y0027*
X05816Y00263*
X05828Y00258*
X05841Y00255*
X05854*
X05867Y00258*
X05879Y00263*
X0589Y0027*
X059Y0028*
X05907Y0029*
X05912Y00303*
X05915Y00316*
Y00329*
X05912Y00342*
X05907Y00354*
X059Y00365*
X0589Y00374*
X05879Y00382*
X05867Y00387*
X05854Y00389*
G37*
G36*
X04512Y00284D02*
X04504D01*
X04497Y00281*
X04491Y00275*
X04488Y00268*
Y0026*
X04491Y00253*
X04497Y00247*
X04504Y00244*
X04512*
X04519Y00247*
X04525Y00253*
X04528Y0026*
Y00268*
X04525Y00275*
X04519Y00281*
X04512Y00284*
G37*
%LNotpcb_copper_signal_1-3*%
%LPD*%
G36*
X06158Y03361D02*
X06156Y03356D01*
Y03349*
X06159Y03341*
X06161Y03339*
X06159Y03334*
X05786*
X05784Y03339*
X05811Y03366*
X06154*
X06158Y03361*
G37*
G36*
X06555Y03222D02*
X06554Y03219D01*
X06553Y03217*
X06323*
X06238Y03303*
X06237Y03303*
X06239Y03308*
X06469*
X06555Y03222*
G37*
G36*
X03883Y02902D02*
X02724Y01742D01*
X02256*
X02251Y01751*
X02247Y01754*
X02249Y01759*
X02694*
X02699Y0176*
X02703Y01763*
X0274Y018*
X03846Y02906*
X03881*
X03883Y02902*
G37*
G36*
X05339Y02883D02*
X05338Y02882D01*
X0396*
X03955Y02881*
X0395Y02878*
X02764Y01692*
X02245*
X02244Y01696*
X02244Y01697*
X02251Y01704*
X02256Y01713*
X02257Y01716*
X02729*
X02734Y01717*
X02738Y0172*
X03907Y02888*
X05336*
X05339Y02883*
G37*
G36*
X06628Y02714D02*
Y02698D01*
X06629Y02693*
X06632Y02689*
X06898Y02422*
Y0162*
X06899Y01615*
X06902Y01611*
X07064Y01449*
X07069Y01446*
X07074Y01445*
X07084*
X07085Y01441*
X07085Y0144*
X0708Y01435*
X07078Y0143*
X07072Y01429*
X06893Y01608*
Y02405*
X06892Y0241*
X06889Y02415*
X06578Y02726*
X0658Y02732*
X06584Y02733*
X0659Y02739*
X06592Y02744*
X06597Y02745*
X06628Y02714*
G37*
G36*
X07304Y01322D02*
X07303Y01316D01*
X07298Y01314*
X07294Y01311*
X07228*
X07116Y01422*
Y01427*
X07113Y01435*
X07108Y0144*
X07108Y01441*
X07109Y01445*
X07181*
X07304Y01322*
G37*
G36*
X05214Y01828D02*
X05233Y0181D01*
X05237Y01807*
X05242Y01806*
X05396*
X05404Y01799*
Y01793*
X05407Y01786*
X0541Y01783*
Y01771*
X05405Y01769*
X05403Y01771*
X05396Y01774*
X05388*
X05381Y01771*
X05375Y01765*
X05372Y01758*
Y0175*
X05375Y01743*
X05381Y01737*
X05388Y01734*
X05396*
X05403Y01737*
X05405Y0174*
X05408Y01739*
X0541Y01738*
X05411Y01733*
X05414Y01729*
X05447Y01696*
X05451Y01693*
X05456Y01692*
X05764*
X05812Y01645*
X05811Y01639*
X05806Y01637*
X05802Y01633*
X0574*
X05735Y01632*
X0573Y0163*
X0567Y0157*
X05432*
X05219Y01783*
Y01804*
X05218Y01809*
X05215Y01814*
X05208Y01821*
Y01829*
X05213Y0183*
X05214Y01828*
G37*
G54D10*
X02076Y02242D02*
D01*
X02076Y02241*
X02076Y02241*
X02076Y0224*
X02075Y0224*
X02058Y02117D02*
Y02265D01*
Y02117D02*
X02104Y02071D01*
X02293*
X02076Y02242D02*
X02118Y02284D01*
X02441*
X02058Y02265D02*
X02121Y02327D01*
X02075Y02196D02*
Y0224D01*
Y02196D02*
X02078Y02194D01*
X02142Y02129*
X02441Y02284D02*
X02652Y02073D01*
X02395Y01946D02*
X02642D01*
X02313Y02029D02*
X02395Y01946D01*
X02242Y02029D02*
X02313D01*
X02379Y01985D02*
X02778D01*
X02293Y02071D02*
X02379Y01985D01*
X05039Y01655D02*
X05064Y0168D01*
X04941Y01894D02*
X04972Y01925D01*
Y01927*
X04941Y01802D02*
Y01894D01*
Y01776D02*
Y01779D01*
X04723Y01558D02*
X04941Y01776D01*
X0494Y0178D02*
Y01801D01*
X04941Y01802*
X0494Y0178D02*
X04941Y01779D01*
X05064Y0168D02*
Y01709D01*
X05528Y01884D02*
Y02047D01*
X05404Y01984D02*
Y02207D01*
X05482Y02093D02*
X05528Y02047D01*
X05258Y02015D02*
Y02041D01*
Y02015D02*
X05264Y02009D01*
X04723Y01368D02*
Y01558D01*
X0525Y01854D02*
X05264Y01868D01*
Y02009*
X0525Y01849D02*
Y01854D01*
X06141Y02078D02*
X06146D01*
X06153Y02085*
X0627*
G54D94*
X04806Y01668D02*
Y01959D01*
X04696Y01558D02*
X04806Y01668D01*
Y01959D02*
X04837Y0199D01*
X0396Y02869D02*
X05347D01*
X0277Y01679D02*
X0396Y02869D01*
X05347D02*
X05492Y03015D01*
X02144Y01635D02*
X02157D01*
X02201Y01679*
X0277*
X02142Y01634D02*
X02144Y01635D01*
X02142Y01629D02*
Y01634D01*
X02176Y02172D02*
X02461D01*
X02121Y02227D02*
D01*
X02176Y02172*
X02142Y01729D02*
X02186Y01773D01*
X02694*
X02729Y01729D02*
X03902Y02902D01*
X02242Y01729D02*
X02729D01*
X02694Y01773D02*
X0273Y01809D01*
X02461Y02172D02*
X02599Y02034D01*
X0577Y01705D02*
X05844Y01631D01*
X05423Y01738D02*
X05456Y01705D01*
X0577*
X04982Y01994D02*
Y01998D01*
X05006Y01563D02*
Y01672D01*
X04982Y01994D02*
X04997Y0198D01*
X04782Y01557D02*
X05001D01*
X04977Y01613D02*
Y01766D01*
X05001Y01557D02*
X05006Y01563D01*
X04997Y01786D02*
Y0198D01*
X04975Y01611D02*
X04977Y01613D01*
X05006Y01672D02*
X05064Y01729D01*
Y01709D02*
Y01729D01*
Y01797*
X04977Y01766D02*
X04997Y01786D01*
X05176Y01805D02*
D01*
X05157Y01824D02*
X05176Y01805D01*
X04975Y01608D02*
Y01611D01*
X03902Y02902D02*
X05354D01*
X05519Y03029D02*
Y03034D01*
X05536Y03051*
Y03059*
X05528Y03127D02*
X05553D01*
X05536Y03059D02*
X0555Y03073D01*
X05536Y03109D02*
X05561D01*
X05543Y03091D02*
X05591D01*
X0555Y03073D02*
X05758D01*
X05561Y03109D02*
X05773Y03321D01*
X05553Y03127D02*
X05806Y03379D01*
X05591Y03091D02*
X05793Y03293D01*
X05492Y0304D02*
X05543Y03091D01*
X05346Y02919D02*
X05456Y03029D01*
X05354Y02902D02*
X05474Y03022D01*
X05456Y03029D02*
Y03055D01*
X05474Y03022D02*
Y03047D01*
X05492Y03015D02*
Y0304D01*
X05456Y03055D02*
X05528Y03127D01*
X05474Y03047D02*
X05536Y03109D01*
X07557Y0303D02*
Y03183D01*
X07581Y03018D02*
Y03211D01*
X07498Y03242D02*
X07557Y03183D01*
X07348Y01199D02*
Y01296D01*
X07337Y01144D02*
Y01149D01*
X0732Y01165D02*
X07337Y01149D01*
X0732Y01165D02*
Y01171D01*
X07348Y01199D02*
X0738Y01167D01*
X07305Y00604D02*
Y00823D01*
X07331Y00646D02*
Y0093D01*
Y00646D02*
X07364Y00612D01*
X06818Y03204D02*
X06837Y03223D01*
X06371Y0299D02*
X06641Y0272D01*
X06229Y03293D02*
X06318Y03204D01*
X06818*
X06565Y0323D02*
X06742D01*
X06475Y03321D02*
X06565Y0323D01*
X06837Y03223D02*
Y03404D01*
X06632Y03321D02*
X06797D01*
X06574Y03379D02*
X06632Y03321D01*
X06786Y03455D02*
X06837Y03404D01*
X05758Y03073D02*
X05841Y0299D01*
X05727Y02951D02*
X06334D01*
X05841Y0299D02*
X06371D01*
X07632Y03032D02*
Y034D01*
X07553Y03238D02*
X07581Y03211D01*
X07498Y03242D02*
Y03349D01*
X0749Y03356D02*
X07498Y03349D01*
X05793Y03293D02*
X06229D01*
X05773Y03321D02*
X06475D01*
X05806Y03379D02*
X06574D01*
X07043Y02515D02*
X07557Y0303D01*
X07093Y0253D02*
X07581Y03018D01*
X07143Y02543D02*
X07632Y03032D01*
X04696Y01357D02*
Y01558D01*
Y01357D02*
X04732Y01321D01*
Y01296D02*
Y01321D01*
Y01296D02*
X04735Y01292D01*
X04888Y01664D02*
X04919D01*
X04975Y01608*
X05206Y01777D02*
X05427Y01556D01*
X05701Y01486D02*
X05721D01*
X05423Y01738D02*
Y01797D01*
X05721Y01486D02*
X05844Y01609D01*
X05427Y01556D02*
X05676D01*
X0574Y0162*
X05817*
X05575Y0136D02*
X05701Y01486D01*
X05064Y01797D02*
X0508Y01812D01*
X05176Y01789D02*
Y01805D01*
X0508Y01812D02*
X05123D01*
X05135Y01824*
X05176Y01789D02*
X05179Y01786D01*
X05135Y01824D02*
X05157D01*
X05152Y01847D02*
Y01876D01*
X05171Y01896*
X05152Y01847D02*
X05175Y01824D01*
Y01808D02*
Y01824D01*
X05223Y01838D02*
X05242Y01819D01*
X05171Y01896D02*
X05211D01*
X05223Y01838D02*
Y01883D01*
X05195Y01816D02*
X05206Y01804D01*
Y01777D02*
Y01804D01*
X05211Y01896D02*
X05223Y01883D01*
X05195Y01816D02*
Y01847D01*
X0273Y01809D02*
X03841Y02919D01*
X05346*
X05242Y01819D02*
X05402D01*
X05423Y01797*
X05841Y01867D02*
Y01872D01*
X05844Y01609D02*
Y01631D01*
X05864Y01549D02*
X05867Y01547D01*
Y01279D02*
Y01547D01*
Y01279D02*
X05869Y01277D01*
X06382Y01877D02*
Y01912D01*
X06353Y01815D02*
Y01912D01*
X06382Y01877D02*
X06463Y01796D01*
X06321Y02098D02*
Y02216D01*
X0629Y01974D02*
X06353Y01912D01*
X0629Y01974D02*
Y02068D01*
X06321Y02098*
X06236Y02472D02*
X06294D01*
X06378Y02388*
X06912Y0162D02*
Y02427D01*
X0688Y01602D02*
Y02405D01*
X06641Y02698D02*
X06912Y02427D01*
X06641Y02698D02*
Y0272D01*
X06334Y02951D02*
X0688Y02405D01*
X07223Y01297D02*
X07309D01*
X07093Y01167D02*
Y01293D01*
X07144Y01117D02*
Y01313D01*
X07104Y01386D02*
X0732Y01171D01*
X06996Y01132D02*
Y01303D01*
X0703Y01136D02*
Y01308D01*
X06978Y01045D02*
Y01296D01*
X07097Y01423D02*
X07223Y01297D01*
X07186Y01458D02*
X07348Y01296D01*
X06912Y0162D02*
X07074Y01458D01*
X07096Y01386D02*
X07104D01*
X0688Y01602D02*
X07096Y01386D01*
X07074Y01458D02*
X07186D01*
X07043Y02047D02*
Y02515D01*
X07093Y02049D02*
Y0253D01*
X07143Y02048D02*
Y02543D01*
X06471Y01916D02*
X07093Y01293D01*
X06428Y0191D02*
X0703Y01308D01*
X06608Y01849D02*
Y01959D01*
X06463Y01796D02*
X06478D01*
X06425Y0191D02*
X06428D01*
X07238Y0064D02*
Y00644D01*
X06978Y01045D02*
X07238Y00786D01*
X06996Y01132D02*
X07305Y00823D01*
X07238Y00644D02*
Y00786D01*
X07144Y01117D02*
X07331Y0093D01*
X06608Y01849D02*
X07144Y01313D01*
X06459Y01841D02*
X06996Y01303D01*
X06478Y01796D02*
X06978Y01296D01*
G54D98*
X04937Y00327D03*
X05437D03*
X06348Y00322D03*
X05848D03*
G54D99*
X02221Y01327D03*
Y01427D03*
Y01527D03*
Y01627D03*
Y01727D03*
Y01827D03*
X02121Y01327D03*
Y01427D03*
Y01527D03*
Y01627D03*
Y01727D03*
Y01827D03*
X02221Y01927D03*
X02121D03*
X02221Y02027D03*
Y02127D03*
Y02227D03*
Y02327D03*
Y02427D03*
Y02527D03*
X02121Y02027D03*
Y02127D03*
Y02227D03*
Y02327D03*
Y02427D03*
Y02527D03*
X02221Y02627D03*
X02121D03*
X02221Y02727D03*
Y02827D03*
Y02927D03*
Y03027D03*
Y03127D03*
Y03227D03*
X02121Y02727D03*
Y02827D03*
Y02927D03*
Y03027D03*
Y03127D03*
Y03227D03*
G54D101*
X02171Y03419D03*
Y01136D03*
X00242D03*
Y03419D03*
G54D102*
X07363Y02346D03*
Y02395D03*
X07388Y02321D03*
Y0237D03*
Y02419D03*
X07412Y02346D03*
Y02395D03*
X07437Y02321D03*
Y0237D03*
Y02419D03*
X07462Y02346D03*
Y02395D03*
X07368Y0092D03*
Y0097D03*
X07393Y00896D03*
Y00945D03*
Y00994D03*
X07417Y0092D03*
Y0097D03*
X07442Y00896D03*
Y00945D03*
Y00994D03*
X07467Y0092D03*
Y0097D03*
G54D103*
X06719Y00664D03*
Y00762D03*
Y0086D03*
X0675Y0201D03*
Y02108D03*
Y02207D03*
G54D104*
X07708Y01479D03*
Y01706D03*
Y03167D03*
Y0294D03*
X04781Y01863D03*
X05179Y02413D03*
X02489Y02318D03*
X07599Y02601D03*
X03018Y00708D03*
X04601Y03034D03*
X03104Y02728D03*
X03442Y02862D03*
X03491Y02639D03*
X02998Y02857D03*
X03089Y02572D03*
X03568Y01709D03*
X03939Y01703D03*
X02939Y01671D03*
X02722Y02572D03*
X03249Y0282D03*
X03255Y02601D03*
X04353Y02577D03*
X04151Y02568D03*
X0395Y02564D03*
X03744Y02575D03*
X03927Y02755D03*
X0417Y02823D03*
X04035Y02985D03*
X03724Y029D03*
X03923Y00771D03*
X03583Y00709D03*
X02943Y01327D03*
X02973Y00707D03*
X02918Y00722D03*
X02642Y01946D03*
X02599Y02034D03*
X02652Y02073D03*
X02778Y01985D03*
X02491Y02275D03*
X04398Y01177D03*
X05171Y01646D03*
X0514Y01672D03*
X05039Y01655D03*
X05053Y01616D03*
X04972Y01927D03*
X04915Y01876D03*
X04967Y0186D03*
X04966Y0179D03*
X05131Y01528D03*
X04976Y01506D03*
X04975Y01615D03*
X07412Y02549D03*
X04911Y02281D03*
X04452Y01719D03*
X06534Y02601D03*
X06573Y0275D03*
X06719Y02679D03*
X06652Y02888D03*
X06502Y02703D03*
X06864Y02813D03*
X06742Y0323D03*
X06927Y02612D03*
X06478Y0262D03*
X06711Y02793D03*
X06959Y02811D03*
X06351Y01281D03*
X06593Y0114D03*
X06705Y01457D03*
X06388Y01465D03*
X06561Y01658D03*
X06738Y01203D03*
X06939Y0049D03*
X06723Y01152D03*
X06315Y01714D03*
X06939Y0175D03*
X06467Y0177D03*
X06608Y01959D03*
X06382Y01912D03*
X06353Y01815D03*
X06425Y0191D03*
X06282Y01817D03*
X06419Y01783D03*
X06281Y01769D03*
X06471Y01916D03*
X06459Y01841D03*
X06982Y02569D03*
X07002Y02534D03*
X0673Y02447D03*
X06431Y02053D03*
X06321Y02216D03*
X06368Y02045D03*
X0625Y02754D03*
X0627Y02085D03*
X06305Y02365D03*
X06435Y02545D03*
X06419Y02746D03*
X06317Y02041D03*
X06355Y02329D03*
X06443Y02368D03*
X06597Y0225D03*
X06443Y02423D03*
X06427Y02502D03*
X06514Y02144D03*
X06378Y02388D03*
X064Y02455D03*
X07353Y02093D03*
X07187Y02053D03*
X07301Y02065D03*
X0723Y0205D03*
X07143Y02048D03*
X07238Y01164D03*
X07404Y0112D03*
X07156Y0149D03*
X07309Y01297D03*
X07293Y0116D03*
X07372Y01427D03*
X074Y01309D03*
X0738Y01167D03*
X07337Y01144D03*
X07097Y01423D03*
X07207Y01486D03*
X07538Y02734D03*
X07187Y03376D03*
X07384Y02746D03*
X07282Y03341D03*
X0734Y03285D03*
X07215Y03337D03*
X07305Y02573D03*
X07254Y03581D03*
X07353Y02538D03*
X0712Y02837D03*
X07345Y02585D03*
X07286Y02447D03*
X0725Y02388D03*
X07522Y02589D03*
X07632Y034D03*
X07455Y01104D03*
X07553Y03238D03*
X07597Y02734D03*
X07522Y03148D03*
X07475Y0138D03*
X0749Y03356D03*
X07591Y01343D03*
X07475Y01459D03*
X07431Y01691D03*
X0753Y01337D03*
X07305Y00604D03*
X07364Y00612D03*
X07238Y00644D03*
X07093Y01167D03*
X0616Y01463D03*
X06076D03*
X06193Y02032D03*
X06159Y0171D03*
X07093Y02049D03*
X0703Y01136D03*
X07043Y02047D03*
X06786Y03455D03*
X06152Y02656D03*
X05403Y02296D03*
X05134Y02405D03*
X06239Y02551D03*
X05993Y02424D03*
X05454Y02416D03*
X06029Y02391D03*
X04744Y02327D03*
X06061Y02534D03*
X05404Y02207D03*
X04903Y02224D03*
X05014Y02397D03*
X05239Y02169D03*
X04792Y02275D03*
X05042Y0226D03*
X05181Y01998D03*
X05285Y02168D03*
X06092Y01964D03*
X06143Y01838D03*
X05482Y02093D03*
X04915Y01994D03*
X04982Y01998D03*
X05258Y02041D03*
X05179Y02103D03*
X05601Y02955D03*
X06175Y03353D03*
Y03423D03*
X05658Y02661D03*
X0614Y0275D03*
X05857Y02666D03*
X05619Y02804D03*
X05727Y02951D03*
X05519Y03029D03*
X05868Y02616D03*
X07049Y02829D03*
X06636Y03463D03*
X07094Y03493D03*
X06797Y03321D03*
X0467Y02222D03*
X04668Y02171D03*
X04667Y0226D03*
X04565Y02203D03*
X06094Y02429D03*
X06108Y0236D03*
X06141Y02078D03*
X06075Y02069D03*
X06236Y02472D03*
X06134Y02516D03*
X06193Y02148D03*
X06084Y02174D03*
X04817Y02061D03*
X04996Y02436D03*
X04619Y02138D03*
X05368Y01301D03*
X05869Y01277D03*
X05817Y0162D03*
X05864Y01549D03*
X05953Y01246D03*
X05575Y0136D03*
X04305Y00536D03*
X04366Y01002D03*
X04504Y00764D03*
X04402Y00555D03*
X04256Y00683D03*
X04508Y00264D03*
X04504Y00512D03*
X02725Y0067D03*
X04901Y01616D03*
X04735Y01292D03*
X04782Y01557D03*
X04723Y01368D03*
X05144Y01425D03*
X04841Y01982D03*
X0449Y01967D03*
X0414Y01778D03*
X04325Y01982D03*
X04612Y01927D03*
X04419Y01884D03*
X04845Y01833D03*
X039Y01738D03*
X05143Y01794D03*
X05089Y01856D03*
X05041Y01931D03*
X05108Y01988D03*
X05041Y01992D03*
X04888Y01664D03*
X04876Y01872D03*
X05037Y01798D03*
X05236Y01993D03*
X05396Y01971D03*
X05423Y01797D03*
X05179Y01786D03*
X05392Y01754D03*
X0525Y01849D03*
X05841Y01872D03*
X05942Y01955D03*
X05947Y0186D03*
X05786Y01825D03*
X05195Y01847D03*
X05542Y01879D03*
X03368Y01675D03*
X0314Y01664D03*
G54D105*
X07688Y01422D03*
Y01763D03*
Y03224D03*
Y02883D03*
G54D106*
X07853Y01422D03*
Y01763D03*
Y03224D03*
Y02883D03*
G54D107*
X02606Y03904D03*
Y03628D03*
X02421Y03175D03*
X02606D03*
X02847Y03285D03*
X03122D03*
X03575Y031D03*
Y03285D03*
X03801Y03374D03*
X04077D03*
X0453Y03189D03*
Y03374D03*
X05122Y03931D03*
Y03656D03*
X04937Y03203D03*
X05122D03*
G54D109*
X02834Y03631D03*
X03362Y0363D03*
X05483Y03628D03*
X06019D03*
X03892Y0363D03*
X04446D03*
G54D110*
X03034Y03631D03*
X03562Y0363D03*
X05683Y03628D03*
X06219D03*
X04092Y0363D03*
X04646D03*
G54D112*
X06358Y01161D03*
X05841Y01037D03*
X05446Y01076D03*
X05621Y0123D03*
X04969Y01455D03*
X05094Y01319D03*
M02*