%FSTAX23Y23*%
%MOIN*%
%SFA1B1*%

%IPPOS*%
%ADD10C,0.007874*%
%ADD15R,0.037008X0.026378*%
%ADD22R,0.039370X0.031496*%
%ADD25R,0.031496X0.039370*%
%ADD27R,0.026378X0.037008*%
%ADD36R,0.090551X0.070866*%
%ADD37R,0.070866X0.090551*%
%ADD94C,0.010000*%
%ADD96C,0.005232*%
%ADD97C,0.003047*%
%ADD98C,0.118110*%
%ADD99C,0.060000*%
%ADD100R,0.060000X0.060000*%
%ADD101C,0.244094*%
%ADD102C,0.025591*%
%ADD103C,0.055118*%
%ADD104C,0.023622*%
%ADD105O,0.078740X0.035433*%
%ADD106O,0.066929X0.035433*%
%ADD107C,0.064960*%
%ADD108R,0.064960X0.064960*%
%ADD109C,0.097441*%
%ADD110R,0.097441X0.097441*%
%ADD111R,0.064960X0.064960*%
%ADD112C,0.028000*%
%ADD113C,0.007874*%
%ADD114R,0.043307X0.039370*%
%ADD115R,0.070866X0.047244*%
%ADD116R,0.011811X0.059055*%
%ADD117R,0.086614X0.129921*%
%ADD118C,0.039370*%
%ADD119C,0.019685*%
%LNotpcb_copper_signal_bot-1*%
%LPD*%
G36*
X02355Y04D02*
Y03948D01*
Y03915*
Y03339*
X02689*
Y03081*
X03379*
Y03339*
X03665*
Y03223*
X04301*
Y03438*
X05335*
Y03995*
X05339Y03999*
X07859Y03998*
X07859Y03998*
X07865Y03998*
X07879Y03993*
X07886Y03989*
X07924Y03934*
X07926Y0393*
X07927Y03925*
Y02675*
X07696*
X07693Y02674*
X07691Y02673*
X07689Y0267*
X07688Y02667*
Y01958*
X07689Y01955*
X07691Y01952*
X07693Y01951*
X07696Y0195*
X07927*
Y01246*
X07699*
X07696Y01246*
X07693Y01244*
X07691Y01241*
X07691Y01238*
Y00529*
X07691Y00526*
X07693Y00524*
X07696Y00522*
X07699Y00521*
X07927*
Y00215*
X07927Y0021*
X07926Y00206*
X07926Y00198*
X07922Y00186*
X07916Y00176*
X07908Y00166*
X07899Y00158*
X07888Y00152*
X07876Y00149*
X07871Y00148*
X0787Y00148*
X00095Y00148*
X0009*
X0009*
X00085Y00149*
X00073Y0015*
X00058Y00155*
X00043Y00162*
X0003Y00173*
X0002Y00186*
X00012Y002*
X00007Y00216*
X00007Y00223*
X00007Y00223*
X00007Y00351*
X00006Y00352*
X00006Y01727*
X00007Y02404*
Y02404*
Y03018*
Y03061*
Y03326*
Y0335*
X00007Y0335*
Y03373*
Y034*
Y03698*
Y03912*
X00007Y03916*
X00006Y03921*
X00008Y03936*
X00013Y03951*
X0002Y03965*
X0003Y03977*
X00042Y03987*
X00056Y03995*
X00071Y03999*
X00078Y04*
X00078Y04*
X02355Y04*
G37*
%LNotpcb_copper_signal_bot-2*%
%LPC*%
G36*
X06275Y03685D02*
X06162D01*
Y03572*
X06275*
Y03685*
G37*
G36*
X06026D02*
X06011D01*
X05997Y03681*
X05984Y03673*
X05973Y03663*
X05966Y0365*
X05962Y03636*
Y03621*
X05966Y03606*
X05973Y03593*
X05984Y03583*
X05997Y03575*
X06011Y03572*
X06026*
X0604Y03575*
X06053Y03583*
X06064Y03593*
X06071Y03606*
X06075Y03621*
Y03636*
X06071Y0365*
X06064Y03663*
X06053Y03673*
X0604Y03681*
X06026Y03685*
G37*
G36*
X0574D02*
X05627D01*
Y03572*
X0574*
Y03685*
G37*
G36*
X05491D02*
X05476D01*
X05461Y03681*
X05448Y03673*
X05438Y03663*
X0543Y0365*
X05427Y03636*
Y03621*
X0543Y03606*
X05438Y03593*
X05448Y03583*
X05461Y03575*
X05476Y03572*
X05491*
X05505Y03575*
X05518Y03583*
X05528Y03593*
X05536Y03606*
X0554Y03621*
Y03636*
X05536Y0365*
X05528Y03663*
X05518Y03673*
X05505Y03681*
X05491Y03685*
G37*
G36*
X07258Y03601D02*
X0725D01*
X07243Y03598*
X07237Y03592*
X07234Y03585*
Y03577*
X07237Y0357*
X07243Y03564*
X0725Y03561*
X07258*
X07265Y03564*
X07271Y0357*
X07274Y03577*
Y03585*
X07271Y03592*
X07265Y03598*
X07258Y03601*
G37*
G36*
X07098Y03513D02*
X0709D01*
X07082Y0351*
X07077Y03504*
X07074Y03497*
Y03489*
X07077Y03482*
X07082Y03477*
X0709Y03474*
X07098*
X07105Y03477*
X0711Y03482*
X07113Y03489*
Y03497*
X0711Y03504*
X07105Y0351*
X07098Y03513*
G37*
G36*
X0664Y03482D02*
X06632D01*
X06625Y03479*
X06619Y03474*
X06616Y03467*
Y03459*
X06619Y03452*
X06625Y03446*
X06632Y03443*
X0664*
X06647Y03446*
X06653Y03452*
X06656Y03459*
Y03467*
X06653Y03474*
X06647Y03479*
X0664Y03482*
G37*
G36*
X06789Y03475D02*
X06782D01*
X06774Y03472*
X06769Y03466*
X06766Y03459*
Y03451*
X06769Y03444*
X06774Y03438*
X06782Y03435*
X06789*
X06797Y03438*
X06802Y03444*
X06805Y03451*
Y03459*
X06802Y03466*
X06797Y03472*
X06789Y03475*
G37*
G36*
X02181Y03551D02*
X02176D01*
Y03424*
X02303*
Y0343*
X02299Y0345*
X02293Y0347*
X02284Y03488*
X02271Y03505*
X02257Y0352*
X0224Y03532*
X02221Y03542*
X02202Y03548*
X02181Y03551*
G37*
G36*
X02166D02*
X0216D01*
X0214Y03548*
X0212Y03542*
X02101Y03532*
X02085Y0352*
X0207Y03505*
X02058Y03488*
X02048Y0347*
X02042Y0345*
X02039Y0343*
Y03424*
X02166*
Y03551*
G37*
G36*
X00252D02*
X00247D01*
Y03424*
X00374*
Y0343*
X0037Y0345*
X00364Y0347*
X00354Y03488*
X00342Y03505*
X00328Y0352*
X00311Y03532*
X00292Y03542*
X00272Y03548*
X00252Y03551*
G37*
G36*
X00237D02*
X00231D01*
X00211Y03548*
X00191Y03542*
X00172Y03532*
X00155Y0352*
X00141Y03505*
X00129Y03488*
X00119Y0347*
X00113Y0345*
X00109Y0343*
Y03424*
X00237*
Y03551*
G37*
G36*
X07636Y03419D02*
X07628D01*
X07621Y03416*
X07615Y03411*
X07612Y03404*
Y03396*
X07615Y03389*
X07621Y03383*
X07628Y0338*
X07636*
X07643Y03383*
X07649Y03389*
X07652Y03396*
Y03404*
X07649Y03411*
X07643Y03416*
X07636Y03419*
G37*
G36*
X06179Y03443D02*
X06171D01*
X06164Y0344*
X06159Y03435*
X06156Y03427*
Y03419*
X06159Y03412*
X06164Y03407*
X06171Y03404*
X06179*
X06181Y03404*
X06216Y03369*
X06219Y03367*
X0622Y03367*
X06219Y03362*
X06193*
X06192Y03364*
X06186Y03369*
X06179Y03372*
X06171*
X06164Y03369*
X06159Y03364*
X06156Y03356*
Y03349*
X06159Y03341*
X06164Y03336*
X06171Y03333*
X06179*
X06186Y03336*
X06192Y03341*
X06193Y03343*
X06786*
X06787Y03338*
X06786Y03338*
X06781Y03332*
X06778Y03325*
Y03317*
X06781Y0331*
X06786Y03304*
X06793Y03301*
X06801*
X06809Y03304*
X06814Y0331*
X06817Y03317*
Y03325*
X06814Y03332*
X06809Y03338*
X06808Y03338*
X06809Y03343*
X07041*
X07054Y0333*
X07057Y03328*
X07061Y03327*
X07197*
X07198Y03326*
X07204Y0332*
X07211Y03317*
X07219*
X07226Y0332*
X07231Y03326*
X07234Y03333*
Y03341*
X07231Y03348*
X07226Y03353*
X07219Y03356*
X07211*
X07204Y03353*
X07198Y03348*
X07197Y03346*
X07065*
X07052Y03359*
X07049Y03361*
X07048Y03362*
X07049Y03367*
X0717*
X0717Y03365*
X07176Y03359*
X07183Y03356*
X07191*
X07198Y03359*
X07204Y03365*
X07204Y03367*
X07242*
X07263Y03346*
X07262Y03345*
Y03337*
X07265Y0333*
X0727Y03324*
X07278Y03321*
X07286*
X07293Y03324*
X07298Y0333*
X07301Y03337*
Y03345*
X07298Y03352*
X07293Y03357*
X07286Y0336*
X07278*
X07276Y0336*
X07253Y03383*
X0725Y03385*
X07246Y03386*
X07246*
X07204*
X07204Y03387*
X07198Y03393*
X07191Y03396*
X07183*
X07176Y03393*
X0717Y03387*
X0717Y03386*
X06227*
X06194Y03418*
X06195Y03419*
Y03427*
X06192Y03435*
X06186Y0344*
X06179Y03443*
G37*
G36*
X07494Y03376D02*
X07486D01*
X07479Y03373*
X07474Y03368*
X07471Y0336*
Y03353*
X07474Y03345*
X07479Y0334*
X07486Y03337*
X07494*
X07501Y0334*
X07507Y03345*
X0751Y03353*
Y0336*
X07507Y03368*
X07501Y03373*
X07494Y03376*
G37*
G36*
X04535Y03415D02*
X04524D01*
X04514Y03412*
X04505Y03406*
X04497Y03399*
X04492Y0339*
X04489Y03379*
Y03369*
X04492Y03359*
X04497Y03349*
X04505Y03342*
X04514Y03337*
X04524Y03334*
X04535*
X04545Y03337*
X04554Y03342*
X04562Y03349*
X04567Y03359*
X0457Y03369*
Y03379*
X04567Y0339*
X04562Y03399*
X04554Y03406*
X04545Y03412*
X04535Y03415*
G37*
G36*
X02303Y03414D02*
X02176D01*
Y03287*
X02181*
X02202Y0329*
X02221Y03297*
X0224Y03306*
X02257Y03318*
X02271Y03333*
X02284Y0335*
X02293Y03368*
X02299Y03388*
X02303Y03409*
Y03414*
G37*
G36*
X02166D02*
X02039D01*
Y03409*
X02042Y03388*
X02048Y03368*
X02058Y0335*
X0207Y03333*
X02085Y03318*
X02101Y03306*
X0212Y03297*
X0214Y0329*
X0216Y03287*
X02166*
Y03414*
G37*
G36*
X00374D02*
X00247D01*
Y03287*
X00252*
X00272Y0329*
X00292Y03297*
X00311Y03306*
X00328Y03318*
X00342Y03333*
X00354Y0335*
X00364Y03368*
X0037Y03388*
X00374Y03409*
Y03414*
G37*
G36*
X00237D02*
X00109D01*
Y03409*
X00113Y03388*
X00119Y03368*
X00129Y0335*
X00141Y03333*
X00155Y03318*
X00172Y03306*
X00191Y03297*
X00211Y0329*
X00231Y03287*
X00237*
Y03414*
G37*
G36*
X07344Y03305D02*
X07336D01*
X07329Y03302*
X07324Y03297*
X07321Y03289*
Y03281*
X07324Y03274*
X07329Y03269*
X07336Y03266*
X07344*
X07351Y03269*
X07357Y03274*
X0736Y03281*
Y03289*
X07357Y03297*
X07351Y03302*
X07344Y03305*
G37*
G36*
X0358Y03325D02*
X0357D01*
X03559Y03322*
X0355Y03317*
X03543Y03309*
X03537Y033*
X03535Y0329*
Y03279*
X03537Y03269*
X03543Y0326*
X0355Y03252*
X03559Y03247*
X0357Y03244*
X0358*
X03591Y03247*
X036Y03252*
X03607Y0326*
X03613Y03269*
X03615Y03279*
Y0329*
X03613Y033*
X03607Y03309*
X036Y03317*
X03591Y03322*
X0358Y03325*
G37*
G36*
X0771Y03252D02*
X07693D01*
Y03229*
X07737*
X07737Y03231*
X07734Y03238*
X0773Y03243*
X07724Y03248*
X07717Y03251*
X0771Y03252*
G37*
G36*
X07868D02*
X07858D01*
Y03229*
X07896*
X07895Y03231*
X07892Y03238*
X07888Y03243*
X07882Y03248*
X07875Y03251*
X07868Y03252*
G37*
G36*
X07848D02*
X07837D01*
X0783Y03251*
X07823Y03248*
X07817Y03243*
X07813Y03238*
X0781Y03231*
X07809Y03229*
X07848*
Y03252*
G37*
G36*
X07683D02*
X07667D01*
X07659Y03251*
X07653Y03248*
X07647Y03243*
X07642Y03238*
X0764Y03231*
X07639Y03229*
X07683*
Y03252*
G37*
G36*
X07557Y03258D02*
X07549D01*
X07542Y03255*
X07537Y03249*
X07534Y03242*
Y03234*
X07537Y03227*
X07542Y03222*
X07549Y03219*
X07557*
X07564Y03222*
X0757Y03227*
X07573Y03234*
Y03242*
X0757Y03249*
X07564Y03255*
X07557Y03258*
G37*
G36*
X06746Y0325D02*
X06738D01*
X06731Y03247*
X06726Y03242*
X06723Y03234*
Y03227*
X06726Y03219*
X06731Y03214*
X06738Y03211*
X06746*
X06753Y03214*
X06759Y03219*
X06762Y03227*
Y03234*
X06759Y03242*
X06753Y03247*
X06746Y0325*
G37*
G36*
X07896Y03219D02*
X07858D01*
Y03196*
X07868*
X07875Y03197*
X07882Y03199*
X07888Y03204*
X07892Y0321*
X07895Y03216*
X07896Y03219*
G37*
G36*
X07848D02*
X07809D01*
X0781Y03216*
X07813Y0321*
X07817Y03204*
X07823Y03199*
X0783Y03197*
X07837Y03196*
X07848*
Y03219*
G37*
G36*
X07737D02*
X07693D01*
Y03196*
X0771*
X07717Y03197*
X07724Y03199*
X0773Y03204*
X07734Y0321*
X07737Y03216*
X07737Y03219*
G37*
G36*
X07683D02*
X07639D01*
X0764Y03216*
X07642Y0321*
X07647Y03204*
X07653Y03199*
X07659Y03197*
X07667Y03196*
X07683*
Y03219*
G37*
G36*
X02159Y03265D02*
X02083D01*
Y0319*
X02159*
Y03265*
G37*
G36*
X05128Y03243D02*
X05117D01*
X05107Y03241*
X05097Y03235*
X0509Y03228*
X05085Y03218*
X05082Y03208*
Y03198*
X05085Y03187*
X0509Y03178*
X05097Y03171*
X05107Y03165*
X05117Y03163*
X05128*
X05138Y03165*
X05147Y03171*
X05154Y03178*
X0516Y03187*
X05163Y03198*
Y03208*
X0516Y03218*
X05154Y03228*
X05147Y03235*
X05138Y03241*
X05128Y03243*
G37*
G36*
X04978D02*
X04897D01*
Y03163*
X04978*
Y03243*
G37*
G36*
X0457Y03229D02*
X04489D01*
Y03149*
X0457*
Y03229*
G37*
G36*
X07712Y03187D02*
X07704D01*
X07696Y03184*
X07691Y03178*
X07688Y03171*
Y03163*
X07691Y03156*
X07696Y0315*
X07704Y03147*
X07712*
X07719Y0315*
X07724Y03156*
X07727Y03163*
Y03171*
X07724Y03178*
X07719Y03184*
X07712Y03187*
G37*
G36*
X02612Y03216D02*
X02601D01*
X02591Y03213*
X02582Y03208*
X02574Y032*
X02569Y03191*
X02566Y03181*
Y0317*
X02569Y0316*
X02574Y03151*
X02582Y03143*
X02591Y03138*
X02601Y03135*
X02612*
X02622Y03138*
X02631Y03143*
X02639Y03151*
X02644Y0316*
X02647Y0317*
Y03181*
X02644Y03191*
X02639Y032*
X02631Y03208*
X02622Y03213*
X02612Y03216*
G37*
G36*
X02226Y03265D02*
X02216D01*
X02206Y03263*
X02197Y03258*
X0219Y03251*
X02185Y03242*
X02183Y03232*
Y03222*
X02185Y03213*
X0219Y03204*
X02197Y03197*
X02206Y03192*
X02216Y0319*
X02224*
Y03165*
X02216*
X02206Y03163*
X02197Y03158*
X0219Y03151*
X02185Y03142*
X02183Y03132*
Y03122*
X02185Y03113*
X0219Y03104*
X02197Y03097*
X02206Y03092*
X02216Y0309*
X02226*
X02235Y03092*
X02244Y03097*
X02251Y03104*
X02256Y03113*
X02258Y0312*
X02259Y03122*
X0226Y03129*
Y03211*
X0236*
X02381Y0319*
Y03135*
X02462*
Y03216*
X02407*
X0238Y03242*
X02375Y03246*
X02368Y03247*
X02253*
X02251Y03251*
X02244Y03258*
X02235Y03263*
X02226Y03265*
G37*
G36*
X07526Y03167D02*
X07518D01*
X07511Y03164*
X07505Y03159*
X07502Y03152*
Y03144*
X07505Y03137*
X07511Y03131*
X07518Y03128*
X07526*
X07533Y03131*
X07538Y03137*
X07541Y03144*
Y03152*
X07538Y03159*
X07533Y03164*
X07526Y03167*
G37*
G36*
X02126Y03165D02*
X02116D01*
X02106Y03163*
X02097Y03158*
X0209Y03151*
X02085Y03142*
X02083Y03132*
Y03122*
X02085Y03113*
X02087Y03111*
X02059Y03083*
X02057Y03079*
X02056Y03075*
Y02997*
X02057Y02993*
X02059Y02989*
X02086Y02962*
X0209Y0296*
X02092Y02959*
X02094Y02954*
X0209Y02951*
X02085Y02942*
X02083Y02932*
Y02922*
X02085Y02913*
X0209Y02904*
X02097Y02897*
X02106Y02892*
X02116Y0289*
X02126*
X02135Y02892*
X02144Y02897*
X02151Y02904*
X02156Y02913*
X02159Y02922*
Y02932*
X02156Y02942*
X02151Y02951*
X02148Y02954*
X0215Y02959*
X02178*
X02178Y02959*
X02191*
X02193Y02954*
X0219Y02951*
X02185Y02942*
X02183Y02932*
Y02922*
X02185Y02913*
X0219Y02904*
X02197Y02897*
X02206Y02892*
X02216Y0289*
X02226*
X02235Y02892*
X02244Y02897*
X02251Y02904*
X02494Y0266*
Y02339*
X02493Y02338*
X02485*
X02478Y02335*
X02474Y02331*
X02469Y02333*
Y02614*
X02468Y02619*
X02465Y02623*
X02259Y0283*
Y02832*
X02256Y02842*
X02251Y02851*
X02244Y02858*
X02235Y02863*
X02226Y02865*
X02216*
X02206Y02863*
X02197Y02858*
X0219Y02851*
X02185Y02842*
X02183Y02832*
Y02822*
X02185Y02813*
X0219Y02804*
X02197Y02797*
X02206Y02792*
X02216Y0279*
X02226*
X02235Y02792*
X02244Y02797*
X02251Y02804*
X02445Y02609*
Y02309*
X02446Y02304*
X02448Y023*
X02471Y02277*
Y02271*
X02474Y02264*
X0248Y02258*
X02487Y02255*
X02495*
X02502Y02258*
X02508Y02264*
X02511Y02271*
Y02279*
X02508Y02286*
X02502Y02291*
X02495Y02294*
X02495Y02296*
X02495Y02299*
X025Y02301*
X02505Y02307*
X02508Y02314*
X0251Y02315*
X02512Y02317*
X02517Y02315*
Y01782*
X02518Y01777*
X0252Y01772*
X02768Y01524*
X02773Y01521*
X02778Y0152*
X0377*
X03775Y01521*
X03779Y01524*
X03938Y01683*
X03943*
X0395Y01686*
X03956Y01692*
X03959Y01699*
Y01707*
X03956Y01714*
X0395Y0172*
X03943Y01723*
X03935*
X03928Y0172*
X03922Y01714*
X03919Y01707*
Y01702*
X03764Y01547*
X02783*
X02543Y01787*
Y0181*
X02547Y01812*
X02804Y01556*
X02808Y01553*
X02813Y01552*
X03727*
X03732Y01553*
X03736Y01556*
X03899Y01719*
X03904*
X03911Y01722*
X03916Y01727*
X03919Y01734*
Y01742*
X03916Y01749*
X03911Y01755*
X03904Y01758*
X03896*
X03889Y01755*
X03883Y01749*
X0388Y01742*
Y01737*
X03721Y01578*
X02819*
X02812Y01585*
X02814Y01589*
X02816Y01589*
X03699*
X03704Y0159*
X03708Y01593*
X03898Y01783*
X04018*
X04078Y01724*
X04082Y01721*
X04086Y0172*
X04417*
X04422Y01721*
X04426Y01724*
X04429Y01727*
X04433Y01724*
X04433Y01723*
Y01715*
X04436Y01708*
X04441Y01702*
X04448Y01699*
X04456*
X04463Y01702*
X04469Y01708*
X04472Y01715*
Y01723*
X04469Y0173*
X04463Y01736*
X04456Y01739*
X04448*
X04447Y01738*
X04445Y01743*
X0461Y01908*
X04616*
X04623Y01911*
X04629Y01916*
X04632Y01923*
Y01931*
X04629Y01938*
X04623Y01944*
X04616Y01947*
X04608*
X04601Y01944*
X04596Y01938*
X04593Y01931*
Y01925*
X04412Y01744*
X04091*
X04032Y01804*
X04028Y01806*
X04023Y01807*
X03893*
X03889Y01806*
X03885Y01804*
X03694Y01613*
X02821*
X02654Y01781*
Y01931*
X02658Y01935*
X02661Y01942*
Y0195*
X02658Y01958*
X02653Y01963*
X02646Y01966*
X02638*
X0263Y01963*
X02625Y01958*
X02622Y0195*
Y01942*
X02625Y01935*
X0263Y01931*
Y01776*
X0263Y01774*
X02625Y01771*
X02561Y01836*
Y02335*
X0256Y0234*
X0256Y0234*
Y02705*
X02559Y0271*
X02556Y02714*
X02284Y02986*
Y03058*
X02283Y03063*
X0228Y03067*
X02266Y0308*
X02262Y03083*
X02258Y03084*
X02165*
X02161Y03083*
X02157Y0308*
X02138Y03061*
X02135Y03063*
X02126Y03065*
X02116*
X02106Y03063*
X02097Y03058*
X0209Y03051*
X02085Y03042*
X02085Y03041*
X0208Y03041*
Y0307*
X02104Y03093*
X02106Y03092*
X02116Y0309*
X02126*
X02135Y03092*
X02144Y03097*
X02151Y03104*
X02156Y03113*
X02159Y03122*
Y03132*
X02156Y03142*
X02151Y03151*
X02144Y03158*
X02135Y03163*
X02126Y03165*
G37*
G36*
X03615Y0314D02*
X03535D01*
Y03059*
X03615*
Y0314*
G37*
G36*
X04605Y03054D02*
X04597D01*
X0459Y03051*
X04584Y03045*
X04581Y03038*
Y0303*
X04584Y03023*
X0459Y03017*
X04597Y03014*
X04605*
X04612Y03017*
X04618Y03023*
X04621Y0303*
Y03038*
X04618Y03045*
X04612Y03051*
X04605Y03054*
G37*
G36*
X05523Y03049D02*
X05515D01*
X05508Y03046*
X05502Y0304*
X05499Y03033*
Y03025*
X05502Y03018*
X05508Y03012*
X05515Y03009*
X05523*
X0553Y03012*
X05535Y03018*
X05538Y03025*
Y03033*
X05535Y0304*
X0553Y03046*
X05523Y03049*
G37*
G36*
X05604Y02975D02*
X05597D01*
X05589Y02972*
X05584Y02966*
X05581Y02959*
Y02951*
X05584Y02944*
X05589Y02938*
X05597Y02935*
X05604*
X05612Y02938*
X05617Y02944*
X0562Y02951*
Y02959*
X05617Y02966*
X05612Y02972*
X05604Y02975*
G37*
G36*
X0573Y02971D02*
X05723D01*
X05715Y02968*
X0571Y02962*
X05707Y02955*
Y02947*
X0571Y0294*
X05715Y02934*
X05723Y02931*
X0573*
X05738Y02934*
X05743Y0294*
X05746Y02947*
Y02955*
X05743Y02962*
X05738Y02968*
X0573Y02971*
G37*
G36*
X07712Y02959D02*
X07704D01*
X07696Y02956*
X07691Y02951*
X07688Y02943*
Y02936*
X07691Y02928*
X07696Y02923*
X07704Y0292*
X07712*
X07719Y02923*
X07724Y02928*
X07727Y02936*
Y02943*
X07724Y02951*
X07719Y02956*
X07712Y02959*
G37*
G36*
X0771Y02911D02*
X07693D01*
Y02888*
X07737*
X07737Y0289*
X07734Y02897*
X0773Y02903*
X07724Y02907*
X07717Y0291*
X0771Y02911*
G37*
G36*
X07868D02*
X07858D01*
Y02888*
X07896*
X07895Y0289*
X07892Y02897*
X07888Y02903*
X07882Y02907*
X07875Y0291*
X07868Y02911*
G37*
G36*
X07848D02*
X07837D01*
X0783Y0291*
X07823Y02907*
X07817Y02903*
X07813Y02897*
X0781Y0289*
X07809Y02888*
X07848*
Y02911*
G37*
G36*
X07683D02*
X07667D01*
X07659Y0291*
X07653Y02907*
X07647Y02903*
X07642Y02897*
X0764Y0289*
X07639Y02888*
X07683*
Y02911*
G37*
G36*
X07896Y02878D02*
X07858D01*
Y02855*
X07868*
X07875Y02856*
X07882Y02859*
X07888Y02863*
X07892Y02869*
X07895Y02876*
X07896Y02878*
G37*
G36*
X07848D02*
X07809D01*
X0781Y02876*
X07813Y02869*
X07817Y02863*
X07823Y02859*
X0783Y02856*
X07837Y02855*
X07848*
Y02878*
G37*
G36*
X07737D02*
X07693D01*
Y02855*
X0771*
X07717Y02856*
X07724Y02859*
X0773Y02863*
X07734Y02869*
X07737Y02876*
X07737Y02878*
G37*
G36*
X07683D02*
X07639D01*
X0764Y02876*
X07642Y02869*
X07647Y02863*
X07653Y02859*
X07659Y02856*
X07667Y02855*
X07683*
Y02878*
G37*
G36*
X02126Y02867D02*
X02126D01*
Y02832*
X02161*
Y02833*
X02158Y02843*
X02153Y02852*
X02145Y02859*
X02136Y02865*
X02126Y02867*
G37*
G36*
X02116D02*
X02115D01*
X02105Y02865*
X02096Y02859*
X02089Y02852*
X02083Y02843*
X02081Y02833*
Y02832*
X02116*
Y02867*
G37*
G36*
X06656Y02908D02*
X06648D01*
X06641Y02905*
X06635Y02899*
X06632Y02892*
Y02889*
X06578Y02835*
X06578Y02835*
X06545*
Y02824*
X06522*
Y02835*
X06467*
Y02806*
X06426Y02765*
X06423Y02766*
X06416*
X06408Y02763*
X06403Y02757*
X064Y0275*
Y02742*
X06403Y02735*
X06408Y0273*
X06416Y02727*
X06423*
X06431Y0273*
X06436Y02735*
X06439Y02741*
X06462Y02764*
X06467Y02762*
Y02728*
X06481*
Y02716*
X06482Y02711*
X06483Y02709*
X06482Y02707*
Y02699*
X06485Y02692*
X06491Y02686*
X06498Y02683*
X06506*
X06513Y02686*
X06519Y02692*
X06522Y02699*
Y02707*
X06519Y02714*
X06513Y0272*
X06507Y02722*
Y02728*
X06522*
Y02776*
X0648*
X06478Y0278*
X06485Y02788*
X06522*
Y02798*
X06545*
Y02788*
X06601*
Y02798*
X06624*
Y02788*
X06679*
Y02835*
X06624*
Y02824*
X06611*
X06609Y02829*
X06649Y02868*
X06656*
X06663Y02871*
X06668Y02877*
X06671Y02884*
Y02892*
X06668Y02899*
X06663Y02905*
X06656Y02908*
G37*
G36*
X03253Y0284D02*
X03245D01*
X03238Y02837*
X03232Y02832*
X03229Y02824*
Y02816*
X03232Y02809*
X03238Y02804*
X03245Y02801*
X03253*
X0326Y02804*
X03266Y02809*
X03269Y02816*
Y02824*
X03266Y02832*
X0326Y02837*
X03253Y0284*
G37*
G36*
X02161Y02822D02*
X02126D01*
Y02787*
X02126*
X02136Y0279*
X02145Y02795*
X02153Y02803*
X02158Y02812*
X02161Y02822*
Y02822*
G37*
G36*
X02116D02*
X02081D01*
Y02822*
X02083Y02812*
X02089Y02803*
X02096Y02795*
X02105Y0279*
X02115Y02787*
X02116*
Y02822*
G37*
G36*
X05623Y02824D02*
X05615D01*
X05608Y02821*
X05603Y02815*
X056Y02808*
Y028*
X05603Y02793*
X05608Y02788*
X05615Y02785*
X05623*
X05629Y02787*
X05631Y02787*
X05638*
Y02774*
X05693*
Y02821*
X05638*
Y0282*
X05633Y02818*
X0563Y02821*
X05623Y02824*
G37*
G36*
X07669Y02763D02*
X0765D01*
Y02739*
X07669*
Y02763*
G37*
G36*
X0764D02*
X07622D01*
Y02739*
X0764*
Y02763*
G37*
G36*
X0751D02*
X07492D01*
Y02739*
X0751*
Y02763*
G37*
G36*
X07482D02*
X07464D01*
Y02739*
X07482*
Y02763*
G37*
G36*
X06254Y02774D02*
X06246D01*
X06239Y02771*
X06233Y02765*
X0623Y02758*
Y0275*
X06233Y02743*
X06239Y02737*
X06246Y02734*
X06254*
X06261Y02737*
X06267Y02743*
X0627Y0275*
Y02758*
X06267Y02765*
X06261Y02771*
X06254Y02774*
G37*
G36*
X03109Y02749D02*
Y02733D01*
X03126*
X03123Y0274*
X03117Y02746*
X03109Y02749*
G37*
G36*
X03099D02*
X03092Y02746D01*
X03086Y0274*
X03083Y02733*
X03099*
Y02749*
G37*
G36*
X04039Y03005D02*
X04031D01*
X04024Y03002*
X04018Y02996*
X04015Y02989*
Y02981*
X04018Y02974*
X04024Y02969*
X04031Y02966*
X04039*
X04046Y02969*
X0405Y02972*
X04139*
X04285Y02826*
X04283Y02821*
X04235*
Y02766*
X04275*
X04286Y02756*
Y02749*
X04269*
Y02719*
Y02689*
X04286*
Y0268*
X0426Y02655*
X04232*
Y026*
X04279*
Y02636*
X04308Y02665*
X04311Y0267*
X04312Y02675*
Y02761*
X04311Y02766*
X04308Y02771*
X04294Y02785*
Y02811*
X04298Y02813*
X04345Y02766*
Y0273*
X04404*
Y02785*
X04364*
X04154Y02995*
X0415Y02997*
X04145Y02998*
X0405*
X04046Y03002*
X04039Y03005*
G37*
G36*
X03891Y02821D02*
X03832D01*
Y02766*
X03867*
Y02761*
X03868Y02757*
X0387Y02754*
X03869Y02749*
X03867*
Y02724*
X03894*
X03898Y02726*
X03903Y02721*
Y02656*
X03885Y02638*
X03874*
Y02656*
X03826*
Y02601*
X03874*
Y02614*
X0389*
X03895Y02615*
X03899Y02618*
X03923Y02643*
X03926Y02646*
X03927Y02651*
Y02726*
X03926Y0273*
X03926Y02731*
X03928Y02736*
X03931*
X03938Y02739*
X03942Y02742*
X03948*
Y0273*
X04007*
Y02785*
X03948*
Y02769*
X03942*
X03938Y02772*
X03931Y02775*
X03923*
X03916Y02772*
X0391Y02767*
X03907Y02759*
Y02757*
X03902Y02755*
X03891Y02766*
Y02778*
X03891Y02779*
Y02821*
G37*
G36*
X04173Y02843D02*
X04166D01*
X04158Y0284*
X04153Y02834*
X0415Y02827*
Y02819*
X04153Y02812*
X04158Y02806*
X04165Y02804*
Y02784*
X04148*
Y02729*
X04207*
Y02784*
X04191*
Y02811*
X0419Y02816*
X04189Y02818*
X04189Y02819*
Y02827*
X04186Y02834*
X04181Y0284*
X04173Y02843*
G37*
G36*
X03727Y0292D02*
X0372D01*
X03712Y02917*
X03707Y02911*
X03704Y02904*
Y02896*
X03707Y02889*
X03712Y02884*
X0372Y02881*
X03726*
X03763Y02844*
Y02784*
X03746*
Y02729*
X03805*
Y02784*
X03787*
Y02849*
Y02849*
X03786Y02853*
X03784Y02857*
Y02857*
X03743Y02898*
Y02904*
X0374Y02911*
X03735Y02917*
X03727Y0292*
G37*
G36*
X06601Y02776D02*
X06545D01*
Y02728*
X06601*
Y02776*
G37*
G36*
X04493Y0275D02*
X04466D01*
Y02725*
X04493*
Y0275*
G37*
G36*
X04059D02*
X04033D01*
Y02725*
X04059*
Y0275*
G37*
G36*
X04456D02*
X04429D01*
Y02725*
X04456*
Y0275*
G37*
G36*
X03857Y02749D02*
X0383D01*
Y02724*
X03857*
Y02749*
G37*
G36*
X04259D02*
X04233D01*
Y02724*
X04259*
Y02749*
G37*
G36*
X07608Y02761D02*
X07524D01*
Y02749*
X07521Y02746*
X07518Y02738*
Y0273*
X07521Y02723*
X07524Y0272*
Y02708*
X07608*
Y02718*
X07613Y02723*
X07616Y0273*
Y02738*
X07613Y02746*
X07608Y02751*
Y02761*
G37*
G36*
X03126Y02723D02*
X03109D01*
Y02706*
X03117Y02709*
X03123Y02715*
X03126Y02723*
G37*
G36*
X03099D02*
X03083D01*
X03086Y02715*
X03092Y02709*
X03099Y02706*
Y02723*
G37*
G36*
X07669Y02729D02*
X0765D01*
Y02706*
X07669*
Y02729*
G37*
G36*
X0764D02*
X07622D01*
Y02706*
X0764*
Y02729*
G37*
G36*
X0751D02*
X07492D01*
Y02706*
X0751*
Y02729*
G37*
G36*
X07482D02*
X07464D01*
Y02706*
X07482*
Y02729*
G37*
G36*
X06144Y0277D02*
X06136D01*
X06129Y02767*
X06123Y02761*
X0612Y02754*
Y02746*
X06118Y02742*
X06108*
Y02695*
X06164*
Y02742*
X06162*
X0616Y02746*
Y02754*
X06157Y02761*
X06151Y02767*
X06144Y0277*
G37*
G36*
X04493Y02715D02*
X04466D01*
Y0269*
X04493*
Y02715*
G37*
G36*
X04456D02*
X04429D01*
Y0269*
X04456*
Y02715*
G37*
G36*
X04059D02*
X04033D01*
Y0269*
X04059*
Y02715*
G37*
G36*
X02226Y02765D02*
X02216D01*
X02206Y02763*
X02197Y02758*
X0219Y02751*
X02185Y02742*
X02183Y02732*
Y02722*
X02185Y02713*
X0219Y02704*
X02197Y02697*
X02206Y02692*
X02216Y0269*
X02226*
X02235Y02692*
X02244Y02697*
X02251Y02704*
X02256Y02713*
X02259Y02722*
Y02732*
X02256Y02742*
X02251Y02751*
X02244Y02758*
X02235Y02763*
X02226Y02765*
G37*
G36*
X02126D02*
X02116D01*
X02106Y02763*
X02097Y02758*
X0209Y02751*
X02085Y02742*
X02083Y02732*
Y02722*
X02085Y02713*
X0209Y02704*
X02097Y02697*
X02106Y02692*
X02116Y0269*
X02126*
X02135Y02692*
X02144Y02697*
X02151Y02704*
X02156Y02713*
X02159Y02722*
Y02732*
X02156Y02742*
X02151Y02751*
X02144Y02758*
X02135Y02763*
X02126Y02765*
G37*
G36*
X04259Y02714D02*
X04233D01*
Y02689*
X04259*
Y02714*
G37*
G36*
X03893D02*
X03867D01*
Y02689*
X03893*
Y02714*
G37*
G36*
X03857D02*
X0383D01*
Y02689*
X03857*
Y02714*
G37*
G36*
X06868Y02833D02*
X0686D01*
X06853Y0283*
X06848Y02824*
X06845Y02817*
Y02809*
X06848Y02802*
X06851Y02798*
Y02774*
X06852Y02769*
X06855Y02764*
X06911Y02709*
X06909Y02704*
X06778*
X06773Y02703*
X06768Y027*
X06743Y02675*
X06738Y02677*
Y02683*
X06735Y0269*
X06732Y02694*
Y02781*
X06731Y02786*
X0673Y02788*
X0673Y0279*
Y02797*
X06727Y02805*
X06722Y0281*
X06715Y02813*
X06707*
X067Y0281*
X06694Y02805*
X06691Y02797*
Y0279*
X06694Y02782*
X067Y02777*
X06706Y02774*
Y02727*
X06701Y02725*
X06679Y02747*
Y02776*
X06624*
Y02728*
X06661*
X06701Y02688*
X06699Y02683*
Y02675*
X06702Y02668*
X06707Y02663*
X06709Y02662*
X06708Y02657*
X06502*
X06497Y02656*
X06493Y02653*
X0648Y0264*
X06475*
X06467Y02637*
X06462Y02631*
X06459Y02624*
Y02616*
X06462Y02609*
X06467Y02604*
X06475Y02601*
X06482*
X0649Y02604*
X06495Y02609*
X06498Y02616*
Y02621*
X06508Y02631*
X0673*
X06735Y02632*
X0674Y02635*
X06783Y02678*
X0691*
X07119Y02469*
Y02313*
X0712Y0231*
X07115Y02308*
X06911Y02511*
X06907Y02514*
X06902Y02515*
X06442*
X06438Y02519*
X06434Y02521*
X06435Y02526*
X06439*
X06446Y02529*
X06452Y02534*
X06455Y02542*
Y02547*
X06464Y02556*
X06968*
X06971Y02552*
X06979Y02549*
X06983*
X06985Y02546*
X06985Y02544*
X06982Y02538*
Y0253*
X06985Y02522*
X06991Y02517*
X06998Y02514*
X07006*
X07013Y02517*
X07019Y02522*
X07022Y0253*
Y02538*
X07019Y02545*
X07013Y0255*
X07006Y02553*
X07002*
X07Y02556*
X06999Y02558*
X07002Y02565*
Y02573*
X06999Y0258*
X06994Y02586*
X06986Y02589*
X06979*
X06971Y02586*
X06968Y02582*
X0655*
X06548Y02587*
X0655Y02589*
X06553Y02597*
Y02597*
X06556Y02599*
X06913*
X06916Y02596*
X06923Y02593*
X06931*
X06938Y02596*
X06944Y02601*
X06947Y02608*
Y02616*
X06944Y02624*
X06938Y02629*
X06931Y02632*
X06923*
X06916Y02629*
X06913Y02625*
X0655*
X06545Y02624*
X06541Y02622*
X06539Y0262*
X06538Y0262*
X0653*
X06522Y02617*
X06517Y02612*
X06514Y02604*
Y02597*
X06517Y02589*
X06519Y02587*
X06517Y02582*
X06459*
X06454Y02581*
X0645Y02578*
X06436Y02565*
X06431*
X06424Y02562*
X06418Y02557*
X06415Y02549*
Y02542*
X06418Y02534*
X06424Y02529*
X06429Y02527*
X06428Y02522*
X06423*
X06416Y02519*
X06411Y02513*
X06408Y02506*
Y02502*
X06403Y025*
X064Y02503*
X06401Y02504*
Y02559*
X06353*
Y02504*
X06363*
X06388Y02479*
Y02471*
X06383Y02466*
X0638Y02459*
Y02456*
X06375Y02454*
X06348Y02481*
X06343Y02484*
X06338Y02485*
X06336*
Y02501*
X06339Y02504*
X06342*
Y02559*
X06312*
X0631Y02564*
X06321Y02576*
X06324Y0258*
X06325Y02583*
X06327*
Y02636*
X06285*
Y02583*
X06285*
X06287Y02579*
X06267Y02558*
X06264Y02554*
X06264Y02554*
X06259Y02555*
X06256Y02562*
X0625Y02568*
X06243Y02571*
X06235*
X06228Y02568*
X06223Y02562*
X0622Y02555*
Y02547*
X06223Y0254*
X06226Y02537*
Y02518*
X06146Y02439*
X06111*
X0611Y0244*
X06105Y02446*
X06098Y02449*
X0609*
X06082Y02446*
X06081Y02444*
X06076Y02446*
Y02464*
X06076*
X06073Y02469*
X06073Y02469*
X06074Y02474*
Y02519*
X06078Y02522*
X06081Y0253*
Y02538*
X06078Y02545*
X06072Y0255*
X06065Y02553*
X06057*
X0605Y0255*
X06044Y02545*
X06041Y02538*
Y0253*
X06044Y02522*
X06048Y02519*
Y0248*
X06045Y02476*
X06042Y02472*
X06041Y02467*
Y02464*
X06029*
Y02413*
X06024*
X06021Y02411*
X06017Y02414*
Y02464*
X0597*
Y02428*
X05871*
Y02442*
X05829*
Y02389*
X05871*
Y02403*
X05978*
X05982Y02404*
X05985Y02406*
X0599Y02405*
X05997*
X06005Y02408*
X06007Y02407*
X06008Y02406*
X0601Y02402*
X06007Y02396*
X06029*
Y02391*
X06034*
Y02369*
X06041Y02372*
X06047Y02379*
X0605Y02387*
Y0239*
X06055Y02392*
X06061Y02387*
X06065Y02385*
X0607Y02384*
X061*
X06101Y02379*
X06097Y02377*
X06092Y02372*
X06089Y02364*
Y02356*
X06092Y02349*
X06097Y02344*
X06104Y02341*
X06112*
X0612Y02344*
X06123Y02347*
X06232*
X06237Y02348*
X06242Y02351*
X06243Y02353*
X06276*
Y02398*
X06281Y02399*
X06282Y02398*
X06285Y02398*
Y02385*
X06311*
X06337*
Y02399*
X06338*
Y02417*
X06309*
X06281*
Y02408*
X06276Y02408*
X06276*
X06228*
Y02375*
X06228Y02375*
X06227Y02374*
X06123*
X0612Y02377*
X06116Y02379*
X06117Y02384*
X0616*
X06166Y02385*
X0617Y02387*
X06235Y02452*
X0624*
X06247Y02455*
X06253Y02461*
X06256Y02468*
Y02473*
X06278Y02496*
X06283Y02494*
Y02459*
X06316*
X06317Y02459*
X06333*
X06379Y02413*
X06377Y02408*
X06374*
X06367Y02405*
X06361Y02399*
X0636Y02395*
X06357*
Y02351*
X06351*
X06343Y02348*
X06337Y02341*
X06334Y02334*
X06377*
X06376Y02337*
X06379Y02342*
X064*
Y02386*
X06404Y02388*
X06416Y02376*
Y02342*
X06458*
Y02355*
X0646Y02357*
X06463Y02364*
Y02372*
X0646Y02379*
X06458Y02381*
Y02395*
X06434*
X06399Y0243*
X06401Y02435*
X06404*
X06411Y02438*
X06416Y02444*
X06419Y02451*
Y02457*
X06423Y02461*
X0671*
X06713Y02456*
X06711Y02451*
Y02444*
X06702Y02435*
X06459*
X06454Y0244*
X06447Y02443*
X06439*
X06432Y0244*
X06426Y02435*
X06423Y02427*
Y02419*
X06426Y02412*
X06432Y02407*
X06439Y02404*
X06447*
X06454Y02407*
X06459Y02411*
X06707*
X06711Y02412*
X06715Y02415*
X06728Y02427*
X06734*
X06742Y0243*
X06747Y02436*
X0675Y02443*
Y02451*
X06748Y02456*
X06751Y02461*
X06889*
X07282Y02068*
Y02062*
X0728Y02061*
X07277Y02059*
X07273Y02062*
X07268Y02063*
X07245*
X07241Y02067*
X07234Y0207*
X07226*
X07219Y02067*
X07213Y02061*
X07212Y02057*
X07209Y02057*
X07207Y02058*
X07204Y02064*
X07198Y0207*
X07191Y02073*
X07183*
X07176Y0207*
X0717Y02064*
X07167Y02057*
Y02049*
X0717Y02042*
X07176Y02037*
X07183Y02034*
X07191*
X07198Y02037*
X07204Y02042*
X07205Y02046*
X07208Y02046*
X07211Y02045*
X07213Y02039*
X07219Y02033*
X07226Y0203*
X07234*
X07241Y02033*
X07245Y02037*
X07262*
X0727Y02029*
X07274Y02026*
X07279Y02025*
X07312*
X07317Y02026*
X07322Y02029*
X07337Y02045*
X0734Y02049*
X07341Y02054*
Y02071*
X07346Y02074*
X07349Y02073*
X07356*
X07364Y02076*
X07369Y02082*
X07372Y02089*
Y02097*
X07369Y02104*
X07364Y02109*
X07356Y02112*
X07351*
X07145Y02318*
Y02474*
X07144Y02479*
X07142Y02484*
X06997Y02628*
X06999Y02633*
X07121*
X07225Y02528*
Y02403*
X07226Y02398*
X07229Y02393*
X0723Y02392*
X0723Y02392*
Y02384*
X07233Y02377*
X07239Y02371*
X07246Y02368*
X07254*
X07261Y02371*
X07267Y02377*
X0727Y02384*
Y02392*
X07267Y02399*
X07261Y02405*
X07254Y02408*
X07252*
X07251Y02408*
Y02534*
X0725Y02539*
X07248Y02543*
X07135Y02655*
X07131Y02658*
X07126Y02659*
X06998*
X06877Y02779*
Y02798*
X06881Y02802*
X06884Y02809*
Y02817*
X06881Y02824*
X06875Y0283*
X06868Y02833*
G37*
G36*
X05861Y02686D02*
X05854D01*
X05846Y02683*
X05841Y02678*
X05838Y0267*
Y02663*
X05841Y02655*
X05846Y0265*
X05854Y02647*
X05861*
X05869Y0265*
X05874Y02655*
X05877Y02663*
Y0267*
X05874Y02678*
X05869Y02683*
X05861Y02686*
G37*
G36*
X04491Y02822D02*
X04432D01*
Y02767*
X04476*
X04477Y02767*
X04493*
X04511Y0275*
Y02672*
X04481Y02642*
X04476Y02644*
Y02655*
X04429*
Y026*
X04476*
Y02615*
X04483*
X04488Y02616*
X04491Y02619*
X04531Y02659*
X04534Y02663*
X04535Y02667*
Y02755*
X04534Y02759*
X04531Y02763*
X04507Y02788*
X04503Y0279*
X04498Y02791*
X04491*
Y02822*
G37*
G36*
X05682Y02688D02*
X05635D01*
Y02633*
X05682*
Y02688*
G37*
G36*
X02226Y02667D02*
X02226D01*
Y02632*
X02261*
Y02633*
X02258Y02643*
X02253Y02652*
X02245Y02659*
X02236Y02665*
X02226Y02667*
G37*
G36*
X02216D02*
X02215D01*
X02205Y02665*
X02196Y02659*
X02189Y02652*
X02183Y02643*
X02181Y02633*
Y02632*
X02216*
Y02667*
G37*
G36*
X06271Y02638D02*
X06252D01*
Y02615*
X06271*
Y02638*
G37*
G36*
X06242D02*
X06224D01*
Y02615*
X06242*
Y02638*
G37*
G36*
X06194Y02637D02*
Y02613D01*
X06212*
Y02637*
X06194*
G37*
G36*
X06085Y02691D02*
X06038D01*
Y0264*
Y02636*
X06038Y02631*
Y02619*
X06034Y02618*
X0603Y02616*
X06026Y02612*
X06022Y02614*
Y02635*
X06026Y02636*
Y02691*
X05978*
Y02636*
X05979Y02635*
Y02605*
X05975Y02603*
X05954Y02624*
X0595Y02626*
X05946Y02627*
X05885*
X05885Y02627*
X05879Y02633*
X05872Y02636*
X05864*
X05857Y02633*
X05852Y02627*
X05849Y0262*
Y02612*
X05852Y02605*
X05857Y026*
X05864Y02597*
X05872*
X05879Y026*
X05885Y02605*
X05885Y02606*
X05942*
X05975Y02572*
X05979Y0257*
X05983Y02569*
X06018*
X06022Y0257*
X06026Y02572*
X06034Y0258*
X06038Y02582*
X0608*
Y02635*
X06084Y02636*
X06085*
Y02651*
X06108*
Y02636*
X06109Y02635*
Y02582*
X06152*
X06152Y02635*
X06156Y02636*
X06161*
X06164*
X06166Y02632*
Y02613*
X06184*
Y02637*
X06169*
X06168*
X06166Y02642*
X06168Y02645*
X06171Y02652*
Y0266*
X06168Y02667*
X06164Y02672*
Y02683*
X06108*
Y02676*
X06085*
Y02691*
G37*
G36*
X04094Y02822D02*
X04035D01*
Y02767*
X0407*
Y0276*
X04071Y02756*
X04072Y02755*
X04069Y0275*
Y0272*
Y0269*
X04086*
Y02683*
X04059Y02656*
X04029*
Y02601*
X04076*
Y02639*
X04106Y02669*
X04109Y02673*
X0411Y02678*
Y02745*
X04109Y02749*
X04106Y02753*
X04094Y02765*
Y02779*
X04094Y0278*
Y02822*
G37*
G36*
X07124Y02856D02*
X07116D01*
X07109Y02853*
X07104Y02848*
X07101Y02841*
Y02833*
X07104Y02826*
X07108Y02821*
Y02808*
X07109Y02803*
X07112Y02799*
X07315Y02596*
X07312Y02591*
X07309Y02593*
X07304*
X07069Y02828*
Y02833*
X07066Y0284*
X07061Y02846*
X07053Y02849*
X07045*
X07038Y02846*
X07033Y0284*
X0703Y02833*
Y02825*
X07033Y02818*
X07038Y02812*
X07045Y02809*
X0705*
X07284Y02576*
X07284Y02573*
X07278Y02571*
X0707Y02779*
X07066Y02782*
X07061Y02783*
X07005*
X06978Y0281*
Y02815*
X06975Y02822*
X0697Y02827*
X06963Y0283*
X06955*
X06948Y02827*
X06942Y02822*
X06939Y02815*
Y02807*
X06942Y028*
X06948Y02794*
X06955Y02791*
X0696*
X06986Y02765*
X06986Y02765*
X06989Y02761*
X06993Y02758*
X06998Y02757*
X07056*
X07272Y0254*
Y02462*
X07269Y02458*
X07266Y02451*
Y02443*
X07269Y02436*
X07274Y0243*
X07282Y02427*
X07289*
X07297Y0243*
X07302Y02436*
X07305Y02443*
Y02451*
X07302Y02458*
X07299Y02462*
Y02545*
X07298Y02549*
X07301Y02553*
X07302Y02553*
X07309*
X07316Y02556*
X07322Y02562*
X07325Y02569*
Y0257*
X0733Y02572*
X07333Y02568*
X07341Y02565*
X07349*
X07356Y02568*
X07361Y02574*
X07364Y02581*
Y02589*
X07361Y02596*
X07356Y02601*
X07349Y02604*
X07344*
X07135Y02813*
Y02823*
X07137Y02826*
X0714Y02833*
Y02841*
X07137Y02848*
X07131Y02853*
X07124Y02856*
G37*
G36*
X02126Y02665D02*
X02116D01*
X02106Y02663*
X02097Y02658*
X0209Y02651*
X02085Y02642*
X02083Y02632*
Y02622*
X02085Y02613*
X0209Y02604*
X02097Y02597*
X02106Y02592*
X02116Y0259*
X02126*
X02135Y02592*
X02144Y02597*
X02151Y02604*
X02156Y02613*
X02159Y02622*
Y02632*
X02156Y02642*
X02151Y02651*
X02144Y02658*
X02135Y02663*
X02126Y02665*
G37*
G36*
X02261Y02622D02*
X02226D01*
Y02587*
X02226*
X02236Y0259*
X02245Y02595*
X02253Y02603*
X02258Y02612*
X02261Y02622*
Y02622*
G37*
G36*
X02216D02*
X02181D01*
Y02622*
X02183Y02612*
X02189Y02603*
X02196Y02595*
X02205Y0259*
X02215Y02587*
X02216*
Y02622*
G37*
G36*
X06271Y02605D02*
X06252D01*
Y02581*
X06271*
Y02605*
G37*
G36*
X06242D02*
X06224D01*
Y02581*
X06242*
Y02605*
G37*
G36*
X03259Y0262D02*
X03251D01*
X03244Y02617*
X03238Y02612*
X03235Y02605*
Y02597*
X03238Y0259*
X03244Y02584*
X03251Y02581*
X03259*
X03266Y02584*
X03272Y0259*
X03275Y02597*
Y02605*
X03272Y02612*
X03266Y02617*
X03259Y0262*
G37*
G36*
X07602Y0262D02*
X07595D01*
X07587Y02617*
X07582Y02612*
X07579Y02604*
Y02597*
X07582Y02589*
X07587Y02584*
X07595Y02581*
X07602*
X0761Y02584*
X07615Y02589*
X07618Y02597*
Y02604*
X07615Y02612*
X0761Y02617*
X07602Y0262*
G37*
G36*
X06212Y02603D02*
X06194D01*
Y0258*
X06212*
Y02603*
G37*
G36*
X06184D02*
X06166D01*
Y0258*
X06184*
Y02603*
G37*
G36*
X07388Y02766D02*
X0738D01*
X07373Y02763*
X07367Y02757*
X07364Y0275*
Y02744*
X07364Y02743*
X07363Y02738*
Y02632*
X07364Y02627*
X07367Y02623*
X0741Y02579*
X07414Y02577*
X07419Y02576*
X07507*
X07511Y02572*
X07518Y02569*
X07526*
X07533Y02572*
X07538Y02578*
X07541Y02585*
Y02593*
X07538Y026*
X07533Y02605*
X07526Y02608*
X07518*
X07511Y02605*
X07507Y02602*
X07425*
X07389Y02637*
Y02727*
X07395Y0273*
X07401Y02735*
X07404Y02742*
Y0275*
X07401Y02757*
X07395Y02763*
X07388Y02766*
G37*
G36*
X04417Y02655D02*
X0437D01*
Y02617*
X04349Y02597*
X04349*
X04342Y02594*
X04336Y02588*
X04333Y02581*
Y02573*
X04336Y02566*
X04342Y0256*
X04349Y02557*
X04357*
X04364Y0256*
X0437Y02566*
X04373Y02573*
Y02581*
X04371Y02585*
X04387Y026*
X04417*
Y02655*
G37*
G36*
X03814Y02656D02*
X03767D01*
Y02619*
X03742Y02594*
X0374*
X03733Y02591*
X03727Y02586*
X03724Y02579*
Y02571*
X03727Y02564*
X03733Y02558*
X0374Y02555*
X03748*
X03755Y02558*
X03761Y02564*
X03764Y02571*
Y02579*
X03764Y02579*
X03786Y02601*
X03814*
Y02656*
G37*
G36*
X02726Y02591D02*
X02718D01*
X02711Y02588*
X02705Y02583*
X02702Y02575*
Y02568*
X02705Y0256*
X02711Y02555*
X02718Y02552*
X02726*
X02733Y02555*
X02739Y0256*
X02742Y02568*
Y02575*
X02739Y02583*
X02733Y02588*
X02726Y02591*
G37*
G36*
X0422Y02655D02*
X04173D01*
Y02618*
X04142Y02588*
X04139Y02584*
X04139Y02583*
X04135Y02579*
X04132Y02572*
Y02564*
X04135Y02556*
X0414Y02551*
X04148Y02548*
X04155*
X04163Y02551*
X04168Y02556*
X04171Y02564*
Y02572*
X04169Y02577*
X04191Y026*
X0422*
Y02655*
G37*
G36*
X04017Y02656D02*
X0397D01*
Y02619*
X03941Y0259*
X03938Y02586*
X03937Y02581*
Y02578*
X03933Y02575*
X0393Y02568*
Y0256*
X03933Y02553*
X03939Y02547*
X03946Y02544*
X03954*
X03961Y02547*
X03967Y02553*
X0397Y0256*
Y02568*
X03967Y02575*
X03965Y02577*
X03989Y02601*
X04017*
Y02656*
G37*
G36*
X07416Y02569D02*
X07408D01*
X074Y02566*
X07395Y02561*
X07392Y02553*
Y02546*
X07395Y02538*
X074Y02533*
X07408Y0253*
X07416*
X07423Y02533*
X07428Y02538*
X07431Y02546*
Y02553*
X07428Y02561*
X07423Y02566*
X07416Y02569*
G37*
G36*
X06139Y02537D02*
Y02521D01*
X06156*
X06152Y02528*
X06146Y02534*
X06139Y02537*
G37*
G36*
X06129D02*
X06122Y02534D01*
X06116Y02528*
X06112Y02521*
X06129*
Y02537*
G37*
G36*
X07356Y02557D02*
X07349D01*
X07341Y02554*
X07336Y02549*
X07333Y02541*
Y02534*
X07336Y02526*
X07341Y02521*
X07349Y02518*
X07356*
X07364Y02521*
X07369Y02526*
X07372Y02534*
Y02541*
X07369Y02549*
X07364Y02554*
X07356Y02557*
G37*
G36*
X06156Y02511D02*
X06139D01*
Y02494*
X06146Y02497*
X06152Y02504*
X06156Y02511*
G37*
G36*
X06129D02*
X06112D01*
X06116Y02504*
X06122Y02497*
X06129Y02494*
Y02511*
G37*
G36*
X02226Y02565D02*
X02216D01*
X02206Y02563*
X02197Y02558*
X0219Y02551*
X02185Y02542*
X02183Y02532*
Y02522*
X02185Y02513*
X0219Y02504*
X02197Y02497*
X02206Y02492*
X02216Y0249*
X02226*
X02235Y02492*
X02244Y02497*
X02251Y02504*
X02256Y02513*
X02259Y02522*
Y02532*
X02256Y02542*
X02251Y02551*
X02244Y02558*
X02235Y02563*
X02226Y02565*
G37*
G36*
X02126D02*
X02116D01*
X02106Y02563*
X02097Y02558*
X0209Y02551*
X02085Y02542*
X02083Y02532*
Y02522*
X02085Y02513*
X0209Y02504*
X02097Y02497*
X02106Y02492*
X02116Y0249*
X02126*
X02135Y02492*
X02144Y02497*
X02151Y02504*
X02156Y02513*
X02159Y02522*
Y02532*
X02156Y02542*
X02151Y02551*
X02144Y02558*
X02135Y02563*
X02126Y02565*
G37*
G36*
X05693Y02762D02*
X05638D01*
Y02715*
X05674*
X05694Y02695*
Y02671*
X05694Y0267*
Y02633*
X05705*
Y02625*
X05705Y02621*
Y02609*
X05525Y02429*
X05469*
X05465Y02432*
X05458Y02435*
X0545*
X05443Y02432*
X05437Y02427*
X05434Y02419*
Y02412*
X05437Y02404*
X05443Y02399*
X0545Y02396*
X05458*
X05465Y02399*
X05469Y02402*
X05531*
X05536Y02403*
X0554Y02406*
X05728Y02594*
X05731Y02598*
X05732Y02603*
Y02624*
X05731Y02628*
Y02633*
X05741*
Y02688*
X0572*
Y02701*
X05719Y02706*
X05716Y0271*
X05693Y02733*
Y02762*
G37*
G36*
X06338Y02445D02*
X06314D01*
Y02427*
X06338*
Y02445*
G37*
G36*
X06304D02*
X06281D01*
Y02427*
X06304*
Y02445*
G37*
G36*
X05815Y02444D02*
X05797D01*
Y02421*
X05815*
Y02444*
G37*
G36*
X05787D02*
X05769D01*
Y02421*
X05787*
Y02444*
G37*
G36*
X07393Y02442D02*
Y02419D01*
X07383*
Y02442*
X07375Y02439*
X07369Y02432*
X07365Y02424*
Y02418*
X07359*
X0735Y02414*
X07344Y02408*
X07341Y024*
X07363*
Y0239*
X07341*
X07344Y02382*
X0735Y02376*
X07357Y02373*
Y02368*
X0735Y02365*
X07344Y02359*
X07341Y02351*
X07363*
Y02341*
X07341*
X07344Y02333*
X0735Y02326*
X07359Y02323*
X07365*
Y02316*
X07369Y02308*
X07375Y02302*
X07383Y02298*
Y02321*
X07393*
Y02298*
X07401Y02302*
X07407Y02308*
X0741Y02314*
X07415*
X07418Y02308*
X07424Y02302*
X07432Y02298*
Y02321*
X07442*
Y02298*
X0745Y02302*
X07456Y02308*
X0746Y02316*
Y02323*
X07466*
X07475Y02326*
X07481Y02333*
X07484Y02341*
X07462*
Y02351*
X07484*
X07481Y02359*
X07475Y02365*
X07468Y02368*
Y02373*
X07475Y02376*
X07481Y02382*
X07484Y0239*
X07462*
Y024*
X07484*
X07481Y02408*
X07475Y02414*
X07466Y02418*
X0746*
Y02424*
X07456Y02432*
X0745Y02439*
X07442Y02442*
Y02419*
X07432*
Y02442*
X07424Y02439*
X07418Y02432*
X07415Y02426*
X0741*
X07407Y02432*
X07401Y02439*
X07393Y02442*
G37*
G36*
X05Y02456D02*
X04992D01*
X04985Y02453*
X0498Y02447*
X04977Y0244*
Y02432*
X0498Y02425*
X04985Y02419*
X04988Y02418*
X0499Y02417*
X04992Y02417*
X04992Y02416*
X04993*
X04994Y02416*
X04995*
X04998Y02411*
X04995Y02409*
X04992Y02402*
X05035*
X05032Y02409*
X05026Y02415*
X05018Y02419*
X05014*
X05011Y02424*
X05013Y02425*
X05014Y02427*
X05018Y02431*
X05128*
X05129Y02426*
X05122Y02423*
X05116Y02417*
X05112Y0241*
X05134*
Y02405*
X05139*
Y02383*
X05146Y02386*
X05152Y02392*
X05156Y024*
X05161Y02402*
X05163Y02401*
X05168Y02396*
X05172Y02394*
X05175Y02393*
X05179Y02392*
X05184Y02393*
X05186Y02394*
X0519Y02396*
X05196Y02401*
X05199Y02409*
Y02416*
X05196Y02424*
X0519Y02429*
X05183Y02432*
X05175*
X0517Y0243*
X05148Y02452*
X05145Y02454*
X0514Y02455*
X0514*
X05013*
X05008Y02454*
X05007Y02453*
X05Y02456*
G37*
G36*
X02226Y02465D02*
X02216D01*
X02206Y02463*
X02197Y02458*
X0219Y02451*
X02185Y02442*
X02183Y02432*
Y02422*
X02185Y02413*
X0219Y02404*
X02197Y02397*
X02206Y02392*
X02216Y0239*
X02226*
X02235Y02392*
X02244Y02397*
X02251Y02404*
X02256Y02413*
X02259Y02422*
Y02432*
X02256Y02442*
X02251Y02451*
X02244Y02458*
X02235Y02463*
X02226Y02465*
G37*
G36*
X02126D02*
X02116D01*
X02106Y02463*
X02097Y02458*
X0209Y02451*
X02085Y02442*
X02083Y02432*
Y02422*
X02085Y02413*
X0209Y02404*
X02097Y02397*
X02106Y02392*
X02116Y0239*
X02126*
X02135Y02392*
X02144Y02397*
X02151Y02404*
X02156Y02413*
X02159Y02422*
Y02432*
X02156Y02442*
X02151Y02451*
X02144Y02458*
X02135Y02463*
X02126Y02465*
G37*
G36*
X05815Y02411D02*
X05797D01*
Y02387*
X05815*
Y02411*
G37*
G36*
X05787D02*
X05769D01*
Y02387*
X05787*
Y02411*
G37*
G36*
X05129Y024D02*
X05112D01*
X05116Y02392*
X05122Y02386*
X05129Y02383*
Y024*
G37*
G36*
X05035Y02392D02*
X05019D01*
Y02375*
X05026Y02378*
X05032Y02384*
X05035Y02392*
G37*
G36*
X05009D02*
X04992D01*
X04995Y02384*
X05002Y02378*
X05009Y02375*
Y02392*
G37*
G36*
X06024Y02386D02*
X06007D01*
X0601Y02379*
X06016Y02372*
X06024Y02369*
Y02386*
G37*
G36*
X05427Y02382D02*
X05404D01*
Y02364*
X05427*
Y02382*
G37*
G36*
X05394D02*
X0537D01*
Y02364*
X05394*
Y02382*
G37*
G36*
X06337Y02375D02*
X06311D01*
X06285*
Y02374*
X06284Y0237*
X06305*
Y02365*
X0631*
Y02344*
X06318Y02347*
X06321Y0235*
X06337*
Y02375*
G37*
G36*
X063Y0236D02*
X06284D01*
X06285Y02356*
Y0235*
X06289*
X06293Y02347*
X063Y02344*
Y0236*
G37*
G36*
X05427Y02354D02*
X05404D01*
Y02336*
X05427*
Y02354*
G37*
G36*
X05394D02*
X0537D01*
Y02336*
X05394*
Y02354*
G37*
G36*
X02226Y02367D02*
X02226D01*
Y02332*
X02261*
Y02333*
X02258Y02343*
X02253Y02352*
X02245Y02359*
X02236Y02365*
X02226Y02367*
G37*
G36*
X02216D02*
X02215D01*
X02205Y02365*
X02196Y02359*
X02189Y02352*
X02183Y02343*
X02181Y02333*
Y02332*
X02216*
Y02367*
G37*
G36*
X04749Y02348D02*
Y02332D01*
X04766*
X04763Y02339*
X04757Y02345*
X04749Y02348*
G37*
G36*
X04739D02*
X04732Y02345D01*
X04726Y02339*
X04723Y02332*
X04739*
Y02348*
G37*
G36*
X06707Y0238D02*
X06667D01*
Y0233*
X06707*
Y0238*
G37*
G36*
X06657D02*
X06616D01*
Y0233*
X06657*
Y0238*
G37*
G36*
X06377Y02324D02*
X0636D01*
Y02308*
X06368Y02311*
X06374Y02317*
X06377Y02324*
G37*
G36*
X0635D02*
X06334D01*
X06337Y02317*
X06343Y02311*
X0635Y02308*
Y02324*
G37*
G36*
X04766Y02322D02*
X04749D01*
Y02305*
X04757Y02308*
X04763Y02315*
X04766Y02322*
G37*
G36*
X04739D02*
X04723D01*
X04726Y02315*
X04732Y02308*
X04739Y02305*
Y02322*
G37*
G36*
X06819Y02378D02*
X06732D01*
Y02298*
X0672*
X06715Y02297*
X06712Y02295*
X06707Y02296*
Y0232*
X06667*
Y0227*
X06676*
X06678Y02265*
X06677Y02263*
X06611*
X06608Y02267*
X06601Y0227*
X06593*
X06585Y02267*
X0658Y02261*
X06577Y02254*
Y02246*
X0658Y02239*
X06585Y02233*
X06593Y0223*
X06601*
X06608Y02233*
X06611Y02237*
X06686*
X06691Y02238*
X06695Y02241*
X06726Y02272*
X06745*
X06747Y02272*
X06819*
Y02378*
G37*
G36*
X02126Y02365D02*
X02116D01*
X02106Y02363*
X02097Y02358*
X0209Y02351*
X02085Y02342*
X02083Y02332*
Y02322*
X02085Y02313*
X0209Y02304*
X02097Y02297*
X02106Y02292*
X02116Y0229*
X02126*
X02135Y02292*
X02144Y02297*
X02151Y02304*
X02156Y02313*
X02159Y02322*
Y02332*
X02156Y02342*
X02151Y02351*
X02144Y02358*
X02135Y02363*
X02126Y02365*
G37*
G36*
X02261Y02322D02*
X02226D01*
Y02287*
X02226*
X02236Y0229*
X02245Y02295*
X02253Y02303*
X02258Y02312*
X02261Y02322*
Y02322*
G37*
G36*
X02216D02*
X02181D01*
Y02322*
X02183Y02312*
X02189Y02303*
X02196Y02295*
X02205Y0229*
X02215Y02287*
X02216*
Y02322*
G37*
G36*
X04906Y02303D02*
X04899Y02299D01*
X04892Y02293*
X04889Y02286*
X04906*
Y02303*
G37*
G36*
X06154Y02309D02*
X06135D01*
Y02286*
X06154*
Y02309*
G37*
G36*
X06125D02*
X06107D01*
Y02286*
X06125*
Y02309*
G37*
G36*
X05425Y02322D02*
X05372D01*
Y0228*
X05391*
X05392Y02279*
X05399Y02276*
X05407*
X05414Y02279*
X05414Y0228*
X05425*
Y02322*
G37*
G36*
X04874Y02299D02*
X04856D01*
Y02276*
X04874*
Y02299*
G37*
G36*
X04846D02*
X04828D01*
Y02276*
X04846*
Y02299*
G37*
G36*
X06657Y0232D02*
X06616D01*
Y0227*
X06657*
Y0232*
G37*
G36*
X04672Y02282D02*
Y02265D01*
X04689*
X04686Y02272*
X0468Y02278*
X04672Y02282*
G37*
G36*
X04662D02*
X04655Y02278D01*
X04649Y02272*
X04646Y02265*
X04662*
Y02282*
G37*
G36*
X04906Y02276D02*
X04889D01*
X04892Y02269*
X04899Y02263*
X04906Y02259*
Y02276*
G37*
G36*
X06154Y02276D02*
X06135D01*
Y02252*
X06154*
Y02276*
G37*
G36*
X06125D02*
X06107D01*
Y02252*
X06125*
Y02276*
G37*
G36*
X04689Y02255D02*
X04646D01*
X04648Y02251*
X04647Y02246*
X04647*
Y02193*
X04652*
X04654Y02188*
X0465Y02184*
X04647Y02176*
X0469*
X04687Y02184*
X04682Y02188*
X04685Y02193*
X04689*
Y02215*
X0469Y02218*
Y02226*
X04689Y02228*
Y02246*
X04687Y02251*
X04689Y02255*
G37*
G36*
X04874Y02266D02*
X04856D01*
Y02242*
X04874*
Y02266*
G37*
G36*
X04846D02*
X04828D01*
Y02242*
X04846*
Y02266*
G37*
G36*
X04916Y02303D02*
Y02281D01*
Y02259*
X04923Y02263*
X04929Y02269*
X04929*
X04934Y02268*
Y02244*
X04987*
Y02249*
X05016*
Y02239*
X05069*
Y02246*
X05087*
Y02239*
X0514*
Y02281*
X05087*
Y02273*
X05069*
Y02281*
X05016*
Y02276*
X04987*
Y02287*
X04937*
X04934*
X04931Y0229*
X04929Y02293*
X04923Y02299*
X04916Y02303*
G37*
G36*
X05266Y02251D02*
X05242D01*
Y02233*
X05266*
Y02251*
G37*
G36*
X05232D02*
X05209D01*
Y02233*
X05232*
Y02251*
G37*
G36*
X04633Y02248D02*
X04615D01*
Y02225*
X04633*
Y02248*
G37*
G36*
X04605D02*
X04587D01*
Y02225*
X04605*
Y02248*
G37*
G36*
X06529Y02246D02*
X06511D01*
Y02223*
X06529*
Y02246*
G37*
G36*
X06501D02*
X06482D01*
Y02223*
X06501*
Y02246*
G37*
G36*
X05486Y02241D02*
X05467D01*
Y02218*
X05486*
Y02241*
G37*
G36*
X05457D02*
X05439D01*
Y02218*
X05457*
Y02241*
G37*
G36*
X04989Y0223D02*
X04966D01*
Y02212*
X04989*
Y0223*
G37*
G36*
X04956D02*
X04932D01*
Y02212*
X04956*
Y0223*
G37*
G36*
X05142Y02225D02*
X05118D01*
Y02206*
X05142*
Y02225*
G37*
G36*
X05071D02*
X05047D01*
Y02206*
X05071*
Y02225*
G37*
G36*
X05037D02*
X05014D01*
Y02206*
X05037*
Y02225*
G37*
G36*
X05108D02*
X05085D01*
Y02206*
X05108*
Y02225*
G37*
G36*
X05266Y02223D02*
X05242D01*
Y02205*
X05266*
Y02223*
G37*
G36*
X05232D02*
X05209D01*
Y02205*
X05232*
Y02223*
G37*
G36*
X04814Y02297D02*
X04772D01*
Y02244*
X04789*
Y02204*
X04781*
Y02151*
X04823*
Y02185*
X04832Y02195*
X04837Y02193*
Y02182*
X0486*
Y02177*
Y02182*
X04883*
Y02206*
X04884Y02209*
X04889Y02209*
X04892Y02207*
X04899Y02204*
X04907*
X04914Y02207*
X04919Y02212*
X04922Y0222*
Y02227*
X04919Y02235*
X04914Y0224*
X04907Y02243*
X04899*
X04892Y0224*
X04888Y02237*
X04843*
X04838Y02236*
X04833Y02233*
X04819Y02219*
X04815Y02221*
Y02257*
X04814Y02261*
Y02297*
G37*
G36*
X0621Y02307D02*
X06168D01*
Y02254*
X06191*
X06226Y0222*
X0623Y02217*
X06235Y02216*
X06242*
Y02208*
X06295*
X06296Y02206*
X06304*
X06304Y02205*
X0631Y02199*
X06315Y02197*
X06314Y02192*
X06297*
Y02194*
X06274*
Y02171*
Y02148*
X06289*
X06293Y02146*
Y02099*
X06344*
X06349*
X06399*
X06404*
X06404*
X06459*
Y02109*
X06469*
Y02093*
X06575*
Y02179*
X06469*
Y02135*
X06459*
Y02146*
X06426*
Y02158*
X06398*
X06369*
Y02146*
X0635*
Y02164*
X06322*
Y02174*
X0635*
Y02192*
X06328*
X06327Y02197*
X06332Y02199*
X06338Y02205*
X06338Y02205*
X06371*
Y022*
X06424*
X06426Y02196*
Y02191*
X06468*
Y02244*
X06426*
X06424Y02242*
X06371*
Y02231*
X06348*
Y02248*
X06296*
X06295Y0225*
X06242*
Y02247*
X06237Y02245*
X0621Y02273*
Y02307*
G37*
G36*
X04633Y02215D02*
X04615D01*
Y02191*
X04633*
Y02215*
G37*
G36*
X04569Y02223D02*
X04561D01*
X04554Y0222*
X04548Y02214*
X04545Y02207*
Y02199*
X04548Y02192*
X04554Y02186*
X04561Y02183*
X04569*
X04576Y02186*
X04582Y02192*
X04582Y02192*
X04587Y02191*
X04605*
Y02215*
X04584*
X04583Y02214*
X04582Y02214*
X04576Y0222*
X04569Y02223*
G37*
G36*
X02226Y02265D02*
X02216D01*
X02206Y02263*
X02197Y02258*
X0219Y02251*
X02185Y02242*
X02183Y02232*
Y02222*
X02185Y02213*
X0219Y02204*
X02197Y02197*
X02206Y02192*
X02216Y0219*
X02226*
X02235Y02192*
X02244Y02197*
X02251Y02204*
X02256Y02213*
X02259Y02222*
Y02232*
X02256Y02242*
X02251Y02251*
X02244Y02258*
X02235Y02263*
X02226Y02265*
G37*
G36*
X02126D02*
X02116D01*
X02106Y02263*
X02097Y02258*
X0209Y02251*
X02085Y02242*
X02083Y02232*
Y02222*
X02085Y02213*
X0209Y02204*
X02097Y02197*
X02106Y02192*
X02116Y0219*
X02126*
X02135Y02192*
X02144Y02197*
X02151Y02204*
X02156Y02213*
X02159Y02222*
Y02232*
X02156Y02242*
X02151Y02251*
X02144Y02258*
X02135Y02263*
X02126Y02265*
G37*
G36*
X06529Y02213D02*
X06511D01*
Y02189*
X06529*
Y02213*
G37*
G36*
X06501D02*
X06482D01*
Y02189*
X06501*
Y02213*
G37*
G36*
X05425Y02239D02*
X05383D01*
Y02186*
X05425*
Y02239*
G37*
G36*
X05486Y02208D02*
X05467D01*
Y02184*
X05486*
Y02208*
G37*
G36*
X05457D02*
X05439D01*
Y02184*
X05457*
Y02208*
G37*
G36*
X04989Y02202D02*
X04966D01*
Y02184*
X04989*
Y02202*
G37*
G36*
X04956D02*
X04932D01*
Y02184*
X04956*
Y02202*
G37*
G36*
X05142Y02196D02*
X05118D01*
Y02178*
X05142*
Y02196*
G37*
G36*
X05108D02*
X05085D01*
Y02178*
X05108*
Y02196*
G37*
G36*
X05071D02*
X05047D01*
Y02178*
X05071*
Y02196*
G37*
G36*
X05037D02*
X05014D01*
Y02178*
X05037*
Y02196*
G37*
G36*
X06264Y02194D02*
X0624D01*
Y02176*
X06264*
Y02194*
G37*
G36*
X0529Y0219D02*
Y02173D01*
X05306*
X05303Y02181*
X05297Y02187*
X0529Y0219*
G37*
G36*
X06755Y02242D02*
X06745D01*
X06736Y0224*
X06728Y02235*
X06722Y02229*
X06717Y02221*
X06715Y02212*
Y02202*
X06717Y02193*
X06722Y02185*
X06728Y02178*
X06736Y02174*
X06745Y02171*
X06755*
X06764Y02174*
X06772Y02178*
X06778Y02185*
X06783Y02193*
X06786Y02202*
Y02212*
X06783Y02221*
X06778Y02229*
X06772Y02235*
X06764Y0224*
X06755Y02242*
G37*
G36*
X06426Y02186D02*
X06403D01*
Y02168*
X06426*
Y02186*
G37*
G36*
X06393D02*
X06369D01*
Y02168*
X06393*
Y02186*
G37*
G36*
X06088Y02194D02*
X0608D01*
X06073Y02191*
X06067Y02186*
X06064Y02178*
Y0217*
X06064Y0217*
X06027Y02133*
X06025Y02129*
X06024Y02125*
Y02061*
X06025Y02057*
X06027Y02054*
X06035Y02045*
X06033Y0204*
X05957*
X05953Y0204*
X05949Y02037*
X05891Y01979*
X0589Y01978*
X05854*
Y01923*
X05902*
Y0196*
X05903Y0196*
X05961Y02019*
X06033*
X06076Y01976*
X06075Y01975*
X06072Y01968*
Y0196*
X06075Y01953*
X06081Y01947*
X06088Y01944*
X06096*
X06103Y01947*
X06108Y01953*
X0611Y01957*
X06115Y01956*
Y01908*
X06115Y01907*
Y01871*
X0617*
Y01918*
X06136*
Y02002*
X06139Y02004*
X06141Y02004*
X06264Y01882*
Y01864*
X06319*
X06319*
X06324Y01864*
Y01855*
X06324Y01853*
X06319Y01853*
X06319*
X06315*
X06264*
Y01826*
X06262Y01821*
Y01813*
X06264Y01808*
Y01805*
X06266*
X0627Y018*
X06278Y01797*
X06286*
X06293Y018*
X06298Y01805*
X06319*
Y01848*
Y0185*
X06324Y0185*
X06324*
X06328*
X06348*
Y01873*
Y01896*
X06324*
X06324*
X06319Y01896*
Y01912*
X06264*
X06099Y02077*
X06096Y02079*
X06092Y0208*
X06092Y0208*
X06086Y02086*
X06079Y02089*
X06071*
X06064Y02086*
X06058Y0208*
X06055Y02073*
Y02065*
X06057Y02061*
X06053Y02058*
X06045Y02066*
Y02121*
X06079Y02155*
X0608Y02155*
X06088*
X06095Y02158*
X061Y02163*
X06103Y0217*
Y02178*
X061Y02186*
X06095Y02191*
X06088Y02194*
G37*
G36*
X0469Y02166D02*
X04673D01*
Y0215*
X04681Y02153*
X04687Y02159*
X0469Y02166*
G37*
G36*
X04663D02*
X04647D01*
X0465Y02159*
X04656Y02153*
X04663Y0215*
Y02166*
G37*
G36*
X04883Y02172D02*
X04865D01*
Y02149*
X04883*
Y02172*
G37*
G36*
X04855D02*
X04837D01*
Y02149*
X04855*
Y02172*
G37*
G36*
X06264Y02166D02*
X0624D01*
Y02148*
X06264*
Y02166*
G37*
G36*
X05264Y02191D02*
X05211D01*
Y02149*
X05221*
X05226Y02147*
Y02129*
X05283*
X05283Y02147*
X05283*
X05289*
X05297Y0215*
X05303Y02156*
X05306Y02163*
X05285*
Y02168*
X0528*
Y0219*
X05272Y02187*
X05269Y02183*
X05264Y02186*
Y02191*
G37*
G36*
X06197Y02167D02*
X06189D01*
X06182Y02164*
X06176Y02159*
X06173Y02152*
Y02144*
X06176Y02137*
X06182Y02131*
X06189Y02128*
X06197*
X06204Y02131*
X0621Y02137*
X06213Y02144*
Y02152*
X0621Y02159*
X06204Y02164*
X06197Y02167*
G37*
G36*
X04623Y02158D02*
X04615D01*
X04608Y02155*
X04603Y02149*
X046Y02142*
Y02134*
X04603Y02127*
X04608Y02121*
X04615Y02118*
X04623*
X0463Y02121*
X04636Y02127*
X04639Y02134*
Y02142*
X04636Y02149*
X0463Y02155*
X04623Y02158*
G37*
G36*
X05184Y02125D02*
Y02108D01*
X05201*
X05198Y02116*
X05192Y02122*
X05184Y02125*
G37*
G36*
X05174D02*
X05167Y02122D01*
X05161Y02116*
X05158Y02108*
X05174*
Y02125*
G37*
G36*
X05283Y02119D02*
X05259D01*
Y02101*
X05283*
Y02119*
G37*
G36*
X05249D02*
X05226D01*
Y02101*
X05249*
Y02119*
G37*
G36*
X02226Y02165D02*
X02216D01*
X02206Y02163*
X02197Y02158*
X0219Y02151*
X02185Y02142*
X02183Y02132*
Y02122*
X02185Y02113*
X0219Y02104*
X02197Y02097*
X02206Y02092*
X02216Y0209*
X02226*
X02235Y02092*
X02244Y02097*
X02251Y02104*
X02256Y02113*
X02259Y02122*
Y02132*
X02256Y02142*
X02251Y02151*
X02244Y02158*
X02235Y02163*
X02226Y02165*
G37*
G36*
X02126D02*
X02116D01*
X02106Y02163*
X02097Y02158*
X0209Y02151*
X02085Y02142*
X02083Y02132*
Y02122*
X02085Y02113*
X0209Y02104*
X02097Y02097*
X02106Y02092*
X02116Y0209*
X02126*
X02135Y02092*
X02144Y02097*
X02151Y02104*
X02156Y02113*
X02159Y02122*
Y02132*
X02156Y02142*
X02151Y02151*
X02144Y02158*
X02135Y02163*
X02126Y02165*
G37*
G36*
X05201Y02098D02*
X05184D01*
Y02082*
X05192Y02085*
X05198Y02091*
X05201Y02098*
G37*
G36*
X05174D02*
X05158D01*
X05161Y02091*
X05167Y02085*
X05174Y02082*
Y02098*
G37*
G36*
X0528Y02087D02*
X05228D01*
Y02077*
X04829*
X04828Y02078*
X04821Y02081*
X04813*
X04806Y02078*
X048Y02072*
X04797Y02065*
Y02057*
X048Y0205*
X04806Y02044*
X04813Y02041*
X04821*
X04828Y02044*
X04834Y0205*
X04834Y0205*
X05228*
Y02045*
X05238*
Y02038*
X05241Y0203*
X05247Y02025*
X05254Y02022*
X05262*
X05269Y02025*
X05275Y0203*
X05278Y02038*
Y02045*
X0528*
Y02087*
G37*
G36*
X06755Y02144D02*
X06745D01*
X06736Y02141*
X06728Y02137*
X06722Y0213*
X06717Y02122*
X06715Y02113*
Y02104*
X06717Y02095*
X06722Y02087*
X06728Y0208*
X06736Y02075*
X06745Y02073*
X06755*
X06764Y02075*
X06772Y0208*
X06778Y02087*
X06783Y02095*
X06786Y02104*
Y02113*
X06783Y02122*
X06778Y0213*
X06772Y02137*
X06764Y02141*
X06755Y02144*
G37*
G36*
X05486Y02112D02*
X05479D01*
X05471Y02109*
X05466Y02104*
X05463Y02097*
Y02089*
X05466Y02082*
X05471Y02076*
X05479Y02073*
X05486*
X05494Y02076*
X05499Y02082*
X05502Y02089*
Y02097*
X05499Y02104*
X05494Y02109*
X05486Y02112*
G37*
G36*
X06145Y02098D02*
X06137D01*
X0613Y02095*
X06124Y02089*
X06121Y02082*
Y02074*
X06124Y02067*
X0613Y02061*
X06137Y02058*
X06145*
X06152Y02061*
X06158Y02067*
X06161Y02074*
Y02082*
X06158Y02089*
X06152Y02095*
X06145Y02098*
G37*
G36*
X02656Y02092D02*
X02648D01*
X02641Y02089*
X02635Y02084*
X02632Y02077*
Y02069*
X02635Y02062*
X02641Y02056*
X02648Y02053*
X02656*
X02663Y02056*
X02669Y02062*
X02672Y02069*
Y02077*
X02669Y02084*
X02663Y02089*
X02656Y02092*
G37*
G36*
X06274Y02104D02*
X06266D01*
X06259Y02101*
X06253Y02096*
X0625Y02089*
Y02081*
X06253Y02074*
X06259Y02068*
X06266Y02065*
X06274*
X06281Y02068*
X06287Y02074*
X06288Y02078*
X06293Y02077*
Y0204*
X06297*
Y02038*
X063Y0203*
X06306Y02025*
X06313Y02022*
X06321*
X06328Y02025*
X06334Y0203*
X06337Y02038*
X06339Y0204*
X06349*
X06351Y02036*
X06352Y02034*
X06357Y02029*
X06364Y02026*
X06372*
X06379Y02029*
X06385Y02034*
X06387Y0204*
X06404*
X06409*
X06417*
X0642Y02037*
X06427Y02034*
X06435*
X06442Y02037*
X06445Y0204*
X06459*
Y02087*
X06409*
X06404*
X06399*
X06354*
X06349*
X06344*
X06294*
X06291Y02088*
X06289Y02089*
X06287Y02096*
X06281Y02101*
X06274Y02104*
G37*
G36*
X02126Y02067D02*
X02126D01*
Y02032*
X02161*
Y02033*
X02158Y02043*
X02153Y02052*
X02145Y02059*
X02136Y02065*
X02126Y02067*
G37*
G36*
X02116D02*
X02115D01*
X02105Y02065*
X02096Y02059*
X02089Y02052*
X02083Y02043*
X02081Y02033*
Y02032*
X02116*
Y02067*
G37*
G36*
X07097Y02069D02*
X07089D01*
X07082Y02066*
X07076Y02061*
X07073Y02053*
Y02045*
X07076Y02038*
X07082Y02033*
X07089Y0203*
X07097*
X07104Y02033*
X07109Y02038*
X07112Y02045*
Y02053*
X07109Y02061*
X07104Y02066*
X07097Y02069*
G37*
G36*
X07147Y02068D02*
X07139D01*
X07132Y02065*
X07126Y02059*
X07123Y02052*
Y02044*
X07126Y02037*
X07132Y02031*
X07139Y02028*
X07147*
X07154Y02031*
X07159Y02037*
X07162Y02044*
Y02052*
X07159Y02059*
X07154Y02065*
X07147Y02068*
G37*
G36*
X07047Y02066D02*
X07039D01*
X07032Y02063*
X07026Y02058*
X07023Y02051*
Y02043*
X07026Y02035*
X07032Y0203*
X07039Y02027*
X07047*
X07054Y0203*
X07059Y02035*
X07062Y02043*
Y02051*
X07059Y02058*
X07054Y02063*
X07047Y02066*
G37*
G36*
X06577Y02067D02*
X06527D01*
Y02027*
X06577*
Y02067*
G37*
G36*
X06517D02*
X06467D01*
Y02027*
X06517*
Y02067*
G37*
G36*
X05648Y02069D02*
X05608D01*
Y02019*
X05648*
Y02069*
G37*
G36*
X05598D02*
X05557D01*
Y02019*
X05598*
Y02069*
G37*
G36*
X06755Y02048D02*
Y02015D01*
X06788*
X06785Y02024*
X0678Y02033*
X06773Y0204*
X06765Y02045*
X06755Y02048*
G37*
G36*
X06745D02*
X06736Y02045D01*
X06727Y0204*
X0672Y02033*
X06715Y02024*
X06713Y02015*
X06745*
Y02048*
G37*
G36*
X02603Y02054D02*
X02595D01*
X02588Y02051*
X02582Y02045*
X02579Y02038*
Y0203*
X02582Y02023*
X02588Y02017*
X02595Y02014*
X02603*
X0261Y02017*
X02615Y02023*
X02618Y0203*
Y02038*
X02615Y02045*
X0261Y02051*
X02603Y02054*
G37*
G36*
X06197Y02052D02*
X06189D01*
X06182Y02049*
X06176Y02043*
X06173Y02036*
Y02028*
X06176Y02021*
X06182Y02016*
X06189Y02013*
X06197*
X06204Y02016*
X06209Y02021*
X06212Y02028*
Y02036*
X06209Y02043*
X06204Y02049*
X06197Y02052*
G37*
G36*
X05036Y02018D02*
X05012D01*
Y02016*
X0501Y02012*
X05007*
X04996*
X04994Y02015*
X04986Y02018*
X04979*
X04971Y02015*
X04968Y02012*
X04955*
Y01965*
X05008*
X0501*
X05014Y01967*
X05036*
Y01992*
Y02018*
G37*
G36*
X05186Y02019D02*
Y02003D01*
X05202*
X05201Y02005*
Y02014*
X05195*
X05193Y02016*
X05186Y02019*
G37*
G36*
X05071Y02018D02*
X05046D01*
Y01997*
X05071*
Y02018*
G37*
G36*
X02226Y02065D02*
X02216D01*
X02206Y02063*
X02197Y02058*
X0219Y02051*
X02185Y02042*
X02183Y02032*
Y02022*
X02185Y02013*
X0219Y02004*
X02197Y01997*
X02206Y01992*
X02216Y0199*
X02226*
X02235Y01992*
X02244Y01997*
X02251Y02004*
X02256Y02013*
X02259Y02022*
Y02032*
X02256Y02042*
X02251Y02051*
X02244Y02058*
X02235Y02063*
X02226Y02065*
G37*
G36*
X05176Y02019D02*
X05168Y02016D01*
X05166Y02014*
X05142*
Y01993*
X05171*
Y01988*
Y01993*
X05181*
Y01998*
X05176*
Y02019*
G37*
G36*
X02161Y02022D02*
X02126D01*
Y01987*
X02126*
X02136Y0199*
X02145Y01995*
X02153Y02003*
X02158Y02012*
X02161Y02022*
Y02022*
G37*
G36*
X02116D02*
X02081D01*
Y02022*
X02083Y02012*
X02089Y02003*
X02096Y01995*
X02105Y0199*
X02115Y01987*
X02116*
Y02022*
G37*
G36*
X06577Y02017D02*
X06527D01*
Y01976*
X06577*
Y02017*
G37*
G36*
X06517D02*
X06467D01*
Y01976*
X06517*
Y02017*
G37*
G36*
X06788Y02005D02*
X06755D01*
Y01972*
X06765Y01975*
X06773Y0198*
X0678Y01987*
X06785Y01995*
X06788Y02005*
G37*
G36*
X06745D02*
X06713D01*
X06715Y01995*
X0672Y01987*
X06727Y0198*
X06736Y01975*
X06745Y01972*
Y02005*
G37*
G36*
X05071Y01987D02*
X05046D01*
Y01967*
X05071*
Y01987*
G37*
G36*
X02782Y02005D02*
X02774D01*
X02767Y02002*
X02762Y01996*
X02759Y01989*
Y01981*
X02762Y01974*
X02767Y01969*
X02774Y01966*
X02782*
X02789Y01969*
X02795Y01974*
X02798Y01981*
Y01989*
X02795Y01996*
X02789Y02002*
X02782Y02005*
G37*
G36*
X05136Y02012D02*
X05081D01*
Y01965*
X05136*
Y02012*
G37*
G36*
X04878Y02039D02*
X04837D01*
X04832Y02038*
X04827Y02035*
X04802Y02009*
X04799Y02005*
X04798Y02*
Y01881*
X04793Y01879*
X04792Y0188*
X04785Y01883*
X04777*
X0477Y0188*
X04764Y01874*
X04761Y01867*
Y01859*
X04764Y01852*
X0477Y01846*
X04777Y01843*
X04785*
X04792Y01846*
X04793Y01847*
X04798Y01845*
Y01592*
X04783Y01577*
X04778*
X0477Y01574*
X04765Y01568*
X04762Y01561*
Y01553*
X04765Y01546*
X0477Y01541*
X04778Y01538*
X04786*
X04793Y01541*
X04798Y01546*
X04801Y01553*
Y01558*
X0482Y01577*
X04823Y01581*
X04824Y01586*
Y01819*
X04824Y01819*
X04829Y01821*
X04833Y01816*
X04841Y01813*
X04849*
X04856Y01816*
X04861Y01822*
X04864Y01829*
Y01837*
X04861Y01844*
X04857Y01849*
Y01857*
X04862Y01859*
X04865Y01856*
X04872Y01853*
X0488*
X04887Y01856*
X04893Y01861*
X04894Y01864*
X04896Y01864*
X049Y01864*
X04904Y01859*
X04912Y01856*
X04919*
X04927Y01859*
X04932Y01865*
X04935Y01872*
Y01879*
X04943Y01887*
X05066*
Y01857*
X05055*
Y01872*
X05008*
Y01817*
X05022*
X05024Y01812*
X05021Y01809*
X05018Y01801*
Y01794*
X05021Y01786*
X05026Y01781*
X05033Y01778*
X05041*
X05049Y01781*
X05054Y01786*
X05055Y01788*
X05068*
X05073Y01789*
X05077Y01791*
X05097Y01811*
X05125*
X05127Y01806*
X05126Y01806*
X05123Y01798*
Y01791*
X05126Y01783*
X05132Y01778*
X05139Y01775*
X05147*
X05154Y01778*
X05155Y01779*
X05161Y01778*
X05163Y01774*
X05168Y01769*
X05175Y01766*
X05183*
X0519Y01769*
X05196Y01774*
X05199Y01782*
Y0179*
X05196Y01797*
X0519Y01802*
X0519Y01803*
X05191Y01808*
X05206*
X05207Y01808*
X05239*
X0543Y01617*
Y01381*
X05369Y01321*
X05364*
X05357Y01318*
X05352Y01312*
X05349Y01305*
Y01297*
X05352Y0129*
X05357Y01285*
X05364Y01282*
X05372*
X05379Y01285*
X05385Y0129*
X05388Y01297*
Y01302*
X05452Y01366*
X05455Y01371*
X05456Y01376*
Y01623*
X05455Y01628*
X05452Y01632*
X05258Y01826*
X05259Y01831*
X05261Y01832*
X05267Y01837*
X0527Y01845*
Y01852*
X05267Y0186*
X05261Y01865*
X05254Y01868*
X05246*
X05239Y01865*
X05233Y0186*
X0523Y01852*
Y01845*
X05233Y01839*
X0523Y01834*
X05216*
X05213Y01839*
X05214Y01844*
Y01851*
X05211Y01859*
X05206Y01864*
X05199Y01867*
X05191*
X05184Y01864*
X05178Y01859*
X05175Y01851*
Y01844*
X05177Y01839*
X05174Y01834*
X05173*
X05169Y01836*
Y01859*
X05145*
X05122*
Y01837*
X05113*
X05108Y01838*
Y0185*
X05109Y01852*
Y0186*
X05108Y01862*
Y01891*
X05089*
X05088Y01895*
X05098Y01906*
X05136*
Y01917*
X05144*
Y01906*
X05199*
Y01953*
X05144*
Y01941*
X05136*
Y01953*
X05081*
Y01923*
X05074Y01916*
X05069Y01917*
Y01957*
X05014*
Y01955*
X0501Y01953*
X04955*
Y01938*
X04952Y01931*
Y01923*
X04955Y01917*
Y01911*
X04947*
Y01953*
X04892*
Y01923*
X04888Y0192*
X04884Y01922*
Y01953*
X04829*
X04829*
X04824Y01953*
Y01964*
X04824Y01964*
X04829Y01965*
X04834Y01964*
X04837Y01963*
X04845*
X04849Y01965*
X04884*
Y01994*
X04888Y01996*
X04892Y01993*
Y01965*
X04947*
Y02012*
X04924*
X04919Y02014*
X04912*
X04909Y02013*
X04887Y02035*
X04883Y02038*
X04878Y02039*
G37*
G36*
X0524Y02013D02*
X05232D01*
X0523Y02012*
X05211*
Y01965*
X05266*
Y02012*
X05242*
X0524Y02013*
G37*
G36*
X04329Y02002D02*
X04321D01*
X04314Y01999*
X04308Y01994*
X04305Y01986*
Y01979*
X04308Y01971*
X04314Y01966*
X04321Y01963*
X04329*
X04336Y01966*
X04342Y01971*
X04345Y01979*
Y01986*
X04342Y01994*
X04336Y01999*
X04329Y02002*
G37*
G36*
X05201Y01983D02*
X05176D01*
Y01963*
X05201*
Y01983*
G37*
G36*
X05166D02*
X05142D01*
Y01963*
X05166*
Y01983*
G37*
G36*
X05532Y02067D02*
X05445D01*
Y02027*
X05439*
X05434Y02026*
X0543Y02023*
X05408Y02001*
X05405Y01997*
X05404Y01992*
Y01991*
X05377*
Y01977*
X05376Y01975*
Y01967*
X05377Y01964*
Y01949*
X0543*
Y01977*
X0543Y01978*
Y01987*
X0544Y01996*
X05445Y01994*
Y01961*
X05532*
Y02067*
G37*
G36*
X05947Y01976D02*
Y0196D01*
X05964*
X05961Y01967*
X05954Y01973*
X05947Y01976*
G37*
G36*
X05937D02*
X0593Y01973D01*
X05924Y01967*
X05921Y0196*
X05937*
Y01976*
G37*
G36*
X05648Y02009D02*
X05608D01*
Y01959*
X05648*
Y02009*
G37*
G36*
X05598D02*
X05557D01*
Y01959*
X05598*
Y02009*
G37*
G36*
X04494Y01986D02*
X04486D01*
X04479Y01983*
X04474Y01978*
X04471Y01971*
Y01963*
X04474Y01956*
X04479Y0195*
X04486Y01947*
X04494*
X04501Y0195*
X04507Y01956*
X0451Y01963*
Y01971*
X04507Y01978*
X04501Y01983*
X04494Y01986*
G37*
G36*
X06612Y01978D02*
X06604D01*
X06597Y01975*
X06592Y0197*
X06589Y01963*
Y01955*
X06592Y01948*
X06597Y01942*
X06604Y01939*
X06612*
X0662Y01942*
X06625Y01948*
X06628Y01955*
Y01963*
X06625Y0197*
X0662Y01975*
X06612Y01978*
G37*
G36*
X05964Y0195D02*
X0592D01*
X05919Y01948*
X05918*
Y0193*
X05975*
Y01948*
X05965*
X05964Y0195*
G37*
G36*
X05432Y01935D02*
X05409D01*
Y01917*
X05432*
Y01935*
G37*
G36*
X05399D02*
X05375D01*
Y01917*
X05399*
Y01935*
G37*
G36*
X05975Y0192D02*
X05952D01*
Y01902*
X05975*
Y0192*
G37*
G36*
X06475Y01935D02*
X06467D01*
X06459Y01932*
X06454Y01927*
X06451Y01919*
Y01912*
X06454Y01904*
X06459Y01899*
X06467Y01896*
X06475*
X06482Y01899*
X06487Y01904*
X0649Y01912*
Y01919*
X06487Y01927*
X06482Y01932*
X06475Y01935*
G37*
G36*
X06386Y01931D02*
X06378D01*
X06371Y01928*
X06365Y01923*
X06362Y01915*
Y01908*
X06365Y01901*
X06363Y01896*
X06358*
Y01878*
X06381*
Y01892*
X06386*
X06393Y01895*
X06399Y019*
X06401Y01905*
X06403Y01906*
X06406Y01905*
X06409Y01898*
X06414Y01893*
X06421Y0189*
X06429*
X06436Y01893*
X06442Y01898*
X06445Y01906*
Y01914*
X06442Y01921*
X06436Y01926*
X06429Y01929*
X06421*
X06414Y01926*
X06409Y01921*
X06407Y01916*
X06404Y01916*
X06401Y01916*
X06399Y01923*
X06393Y01928*
X06386Y01931*
G37*
G36*
X02226Y01965D02*
X02216D01*
X02206Y01963*
X02197Y01958*
X0219Y01951*
X02185Y01942*
X02183Y01932*
Y01922*
X02185Y01913*
X0219Y01904*
X02197Y01897*
X02206Y01892*
X02216Y0189*
X02226*
X02235Y01892*
X02244Y01897*
X02251Y01904*
X02256Y01913*
X02259Y01922*
Y01932*
X02256Y01942*
X02251Y01951*
X02244Y01958*
X02235Y01963*
X02226Y01965*
G37*
G36*
X02126D02*
X02116D01*
X02106Y01963*
X02097Y01958*
X0209Y01951*
X02085Y01942*
X02083Y01932*
Y01922*
X02085Y01913*
X0209Y01904*
X02097Y01897*
X02106Y01892*
X02116Y0189*
X02126*
X02135Y01892*
X02144Y01897*
X02151Y01904*
X02156Y01913*
X02159Y01922*
Y01932*
X02156Y01942*
X02151Y01951*
X02144Y01958*
X02135Y01963*
X02126Y01965*
G37*
G36*
X05432Y01907D02*
X05409D01*
Y01889*
X05432*
Y01907*
G37*
G36*
X05399D02*
X05375D01*
Y01889*
X05399*
Y01907*
G37*
G36*
X05169Y01893D02*
X0515D01*
Y01869*
X05169*
Y01893*
G37*
G36*
X0514D02*
X05122D01*
Y01869*
X0514*
Y01893*
G37*
G36*
X04423Y01904D02*
X04416D01*
X04408Y01901*
X04403Y01895*
X044Y01888*
Y0188*
X04403Y01873*
X04408Y01867*
X04416Y01864*
X04423*
X04431Y01867*
X04436Y01873*
X04439Y0188*
Y01888*
X04436Y01895*
X04431Y01901*
X04423Y01904*
G37*
G36*
X05546Y01899D02*
X05539D01*
X05531Y01896*
X05526Y0189*
X05523Y01883*
Y01875*
X05526Y01868*
X05531Y01862*
X05539Y01859*
X05546*
X05554Y01862*
X05559Y01868*
X05562Y01875*
Y01883*
X05559Y0189*
X05554Y01896*
X05546Y01899*
G37*
G36*
X05843Y01978D02*
X05795D01*
Y01923*
X05806*
Y01906*
X05754*
Y01858*
X05809*
X05811Y01854*
Y01853*
X05858*
Y01864*
X0586Y01868*
Y01876*
X05858Y01881*
Y01908*
X05832*
Y01923*
X05843*
Y01978*
G37*
G36*
X06381Y01868D02*
X06358D01*
Y0185*
X06381*
Y01868*
G37*
G36*
X05942Y0192D02*
X05918D01*
Y01912*
X05917Y01908*
X05913*
X0587*
Y01853*
X05917*
X05921Y01849*
Y01846*
X05934*
X05936Y01844*
X05943Y01841*
X05951*
X05958Y01844*
X0596Y01846*
X05973*
Y01888*
X05921*
X05917Y01891*
Y01897*
X05918Y01902*
X05922*
X05942*
Y0192*
G37*
G36*
X02226Y01867D02*
X02226D01*
Y01832*
X02261*
Y01833*
X02258Y01843*
X02253Y01852*
X02245Y01859*
X02236Y01865*
X02226Y01867*
G37*
G36*
X02216D02*
X02215D01*
X02205Y01865*
X02196Y01859*
X02189Y01852*
X02183Y01843*
X02181Y01833*
Y01832*
X02216*
Y01867*
G37*
G36*
X06451Y01866D02*
X06396D01*
Y01819*
X06451*
X06454Y01821*
X06455Y01821*
X06463*
X0647Y01824*
X06475Y0183*
X06478Y01837*
Y01845*
X06475Y01852*
X0647Y01857*
X06463Y0186*
X06455*
X06451Y01863*
Y01866*
G37*
G36*
X04971Y0188D02*
X04963D01*
X04956Y01877*
X04951Y01872*
X04949*
Y01869*
X04947Y01864*
Y01856*
X04949Y01852*
Y01817*
X04996*
Y01872*
X04983*
X04978Y01877*
X04971Y0188*
G37*
G36*
X0617Y01859D02*
X06115D01*
Y01812*
X0617*
Y01859*
G37*
G36*
X05809Y01847D02*
X05754D01*
Y01799*
X05809*
Y01847*
G37*
G36*
X02126Y01865D02*
X02116D01*
X02106Y01863*
X02097Y01858*
X0209Y01851*
X02085Y01842*
X02083Y01832*
Y01822*
X02085Y01813*
X02087Y01811*
X0203Y01754*
X02027Y0175*
X02026Y01745*
Y01745*
Y01255*
X02013Y01242*
X0201Y01238*
X02009Y01233*
Y01053*
Y01053*
Y0101*
X0201Y01005*
X02013Y01002*
X02052Y00962*
X02056Y00959*
X02061Y00958*
X02419*
X02424Y00959*
X02428Y00962*
X02452Y00987*
X02487*
Y01042*
X02439*
Y01007*
X02439Y01007*
X02414Y00982*
X02066*
X02033Y01015*
Y01053*
Y01228*
X02047Y01242*
X0205Y01246*
X02051Y0125*
Y01287*
X02055Y01289*
X02069Y01275*
X02069*
X02081Y01263*
X02085Y0126*
X0209Y01259*
X02111*
X02112Y01254*
X02101Y01249*
X02085Y01236*
X0207Y01222*
X02058Y01205*
X02048Y01186*
X02042Y01167*
X02039Y01146*
Y01141*
X02171*
X02303*
Y01146*
X02299Y01167*
X02293Y01186*
X02284Y01205*
X02271Y01222*
X02257Y01236*
X0224Y01249*
X02229Y01254*
X0223Y01259*
X02517*
X02961Y00815*
X02958Y0081*
X02931*
Y0081*
X0291*
Y00824*
X02909Y00829*
X02906Y00833*
X02864Y00874*
X02861Y00877*
X02856Y00878*
X02812*
Y00893*
X02804*
Y00899*
X02815*
Y00952*
X02773*
Y00899*
X0278*
Y00893*
X0277*
Y0084*
X02812*
Y00854*
X02851*
X02886Y00819*
Y00812*
X02883*
Y00773*
Y00733*
X02894*
X02897Y0073*
X02898Y00727*
X02898Y00726*
Y00718*
X02901Y00711*
X02906Y00705*
X02914Y00702*
X02922*
X02929Y00705*
X02934Y00711*
X02937Y00718*
Y00726*
X02935Y00731*
X0294Y00735*
X02945Y00734*
Y00724*
X02945Y00719*
X02948Y00715*
X02953Y0071*
Y00703*
X02956Y00696*
X02962Y00691*
X02969Y00688*
X02977*
X02984Y00691*
X02989Y00696*
X02992Y00703*
Y00711*
X02989Y00719*
X02984Y00724*
X02977Y00727*
X0297*
X02969Y00729*
Y00735*
X03005*
Y00723*
X03001Y00719*
X02998Y00712*
Y00704*
X03001Y00697*
X03006Y00691*
X03014Y00688*
X03022*
X03029Y00691*
X03034Y00697*
X03037Y00704*
Y00712*
X03034Y00719*
X03029Y00724*
X03029Y00724*
Y00735*
X03236*
Y00733*
X03247*
Y00773*
Y00812*
X03236*
Y0081*
X03087*
Y01018*
X03086Y01023*
X03083Y01027*
X02531Y01579*
X02527Y01582*
X02522Y01583*
X02228*
X02228Y01588*
X02236Y0159*
X02245Y01595*
X02253Y01603*
X02258Y01612*
X02261Y01622*
Y01622*
X02221*
X02181*
Y01622*
X02183Y01612*
X02189Y01603*
X02196Y01595*
X02205Y0159*
X02214Y01588*
X02213Y01583*
X02197*
X02193Y01582*
X02189Y01579*
X02157Y01548*
X02152Y01548*
X02151Y01551*
X02144Y01558*
X02135Y01563*
X02126Y01565*
X02116*
X02106Y01563*
X02097Y01558*
X0209Y01551*
X02085Y01542*
X02083Y01532*
Y01522*
X02085Y01513*
X0209Y01504*
X02095Y015*
X02095Y01499*
X02093Y01495*
X0209Y01494*
X02086Y01491*
X02055Y0146*
X02051Y01462*
Y0174*
X02104Y01793*
X02106Y01792*
X02116Y0179*
X02126*
X02135Y01792*
X02144Y01797*
X02151Y01804*
X02156Y01813*
X02159Y01822*
Y01832*
X02156Y01842*
X02151Y01851*
X02144Y01858*
X02135Y01863*
X02126Y01865*
G37*
G36*
X02261Y01822D02*
X02226D01*
Y01787*
X02226*
X02236Y0179*
X02245Y01795*
X02253Y01803*
X02258Y01812*
X02261Y01822*
Y01822*
G37*
G36*
X02216D02*
X02181D01*
Y01822*
X02183Y01812*
X02189Y01803*
X02196Y01795*
X02205Y0179*
X02215Y01787*
X02216*
Y01822*
G37*
G36*
X03093Y02592D02*
X03085D01*
X03078Y02589*
X03072Y02583*
X03069Y02576*
Y02569*
X02982Y02482*
X0298Y02478*
X02979Y02474*
Y0183*
X02963*
Y01783*
X03018*
Y0183*
X03003*
Y02469*
X03086Y02552*
X03093*
X031Y02555*
X03106Y02561*
X03109Y02568*
Y02576*
X03106Y02583*
X031Y02589*
X03093Y02592*
G37*
G36*
X03495Y02659D02*
X03487D01*
X0348Y02656*
X03475Y0265*
X03472Y02643*
Y02636*
X03277Y02441*
X03274Y02438*
X03273Y02433*
Y01829*
X03258*
Y01782*
X03313*
Y01829*
X03297*
Y02428*
X03489Y02619*
X03495*
X03502Y02622*
X03508Y02628*
X03511Y02635*
Y02643*
X03508Y0265*
X03502Y02656*
X03495Y02659*
G37*
G36*
X03446Y02881D02*
X03438D01*
X03431Y02878*
X03425Y02873*
X03422Y02866*
Y02859*
X03352Y02789*
X0335Y02785*
X03349Y02781*
Y02615*
X03179Y02445*
X03177Y02441*
X03176Y02437*
Y01829*
X0316*
Y01782*
X03215*
Y01829*
X032*
Y02432*
X03369Y02601*
X03372Y02605*
X03373Y0261*
Y02776*
X03439Y02842*
X03446*
X03453Y02845*
X03459Y02851*
X03462Y02858*
Y02866*
X03459Y02873*
X03453Y02878*
X03446Y02881*
G37*
G36*
X06121Y01803D02*
X06103D01*
Y0178*
X06121*
Y01803*
G37*
G36*
X06093D02*
X06075D01*
Y0178*
X06093*
Y01803*
G37*
G36*
X05427Y01817D02*
X05419D01*
X05412Y01814*
X05407Y01809*
X05404Y01801*
Y01793*
X05407Y01786*
X05412Y01781*
X05419Y01778*
X05427*
X05435Y01781*
X0544Y01786*
X05443Y01793*
Y01801*
X0544Y01809*
X05435Y01814*
X05427Y01817*
G37*
G36*
X0497Y0181D02*
X04962D01*
X04955Y01807*
X04949Y01802*
X04946Y01794*
Y01786*
X04949Y01779*
X04955Y01774*
X04962Y01771*
X0497*
X04977Y01774*
X04983Y01779*
X04986Y01786*
Y01794*
X04983Y01802*
X04977Y01807*
X0497Y0181*
G37*
G36*
X06379Y01836D02*
X06326D01*
Y01798*
X06326Y01793*
X06327Y01789*
Y0177*
X0635*
X06373*
Y01793*
X06378Y01793*
X06379*
Y01836*
G37*
G36*
X0771Y01791D02*
X07693D01*
Y01768*
X07737*
X07737Y0177*
X07734Y01777*
X0773Y01783*
X07724Y01787*
X07717Y0179*
X0771Y01791*
G37*
G36*
X07868D02*
X07858D01*
Y01768*
X07896*
X07895Y0177*
X07892Y01777*
X07888Y01783*
X07882Y01787*
X07875Y0179*
X07868Y01791*
G37*
G36*
X07848D02*
X07837D01*
X0783Y0179*
X07823Y01787*
X07817Y01783*
X07813Y01777*
X0781Y0177*
X07809Y01768*
X07848*
Y01791*
G37*
G36*
X07683D02*
X07667D01*
X07659Y0179*
X07653Y01787*
X07647Y01783*
X07642Y01777*
X0764Y0177*
X07639Y01768*
X07683*
Y01791*
G37*
G36*
X04144Y01797D02*
X04136D01*
X04129Y01794*
X04123Y01789*
X0412Y01782*
Y01774*
X04123Y01767*
X04129Y01761*
X04136Y01758*
X04144*
X04151Y01761*
X04157Y01767*
X0416Y01774*
Y01782*
X04157Y01789*
X04151Y01794*
X04144Y01797*
G37*
G36*
X07896Y01758D02*
X07858D01*
Y01735*
X07868*
X07875Y01736*
X07882Y01739*
X07888Y01743*
X07892Y01749*
X07895Y01756*
X07896Y01758*
G37*
G36*
X07848D02*
X07809D01*
X0781Y01756*
X07813Y01749*
X07817Y01743*
X07823Y01739*
X0783Y01736*
X07837Y01735*
X07848*
Y01758*
G37*
G36*
X07737D02*
X07693D01*
Y01735*
X0771*
X07717Y01736*
X07724Y01739*
X0773Y01743*
X07734Y01749*
X07737Y01756*
X07737Y01758*
G37*
G36*
X07683D02*
X07639D01*
X0764Y01756*
X07642Y01749*
X07647Y01743*
X07653Y01739*
X07659Y01736*
X07667Y01735*
X07683*
Y01758*
G37*
G36*
X05266Y01953D02*
X05211D01*
Y01906*
X05245*
X05246Y01905*
X05377Y01774*
Y01767*
X05375Y01765*
X05372Y01758*
Y0175*
X05375Y01743*
X05381Y01737*
X05388Y01734*
X05396*
X05403Y01737*
X05409Y01743*
X05412Y0175*
Y01758*
X05409Y01765*
X05404Y0177*
Y01776*
X05403Y0178*
X054Y01784*
X054*
X05266Y01919*
Y01953*
G37*
G36*
X06943Y0177D02*
X06935D01*
X06928Y01767*
X06922Y01761*
X06919Y01754*
Y01746*
X06922Y01739*
X06928Y01733*
X06935Y0173*
X06943*
X0695Y01733*
X06956Y01739*
X06959Y01746*
Y01754*
X06956Y01761*
X0695Y01767*
X06943Y0177*
G37*
G36*
X06433Y01747D02*
X06414D01*
Y01724*
X06433*
Y01747*
G37*
G36*
X06121Y0177D02*
X06098D01*
X06075*
Y01749*
X06074Y01744*
X06074Y01742*
Y01721*
X06097*
X0612*
Y01742*
X06121Y01746*
Y01749*
Y0177*
G37*
G36*
X06313Y01791D02*
X06271D01*
Y01786*
X0627Y01786*
X06264Y0178*
X06261Y01773*
Y01765*
X06264Y01758*
X0627Y01752*
X06271Y01752*
Y01739*
X06292*
X06296Y01736*
Y01734*
Y01721*
X06295Y01718*
Y0171*
X06296Y01706*
Y01683*
X06339*
Y01736*
X06343Y01736*
X06353*
Y01715*
X06376*
X06399*
Y01738*
X06373*
Y0176*
X0635*
X06327*
Y01736*
X06322Y01736*
X06317*
X06313Y01739*
Y01741*
Y01791*
G37*
G36*
X06461Y01714D02*
X06443D01*
Y0169*
X06461*
Y01714*
G37*
G36*
X06433D02*
X06414D01*
Y0169*
X06433*
Y01714*
G37*
G36*
X02226Y01765D02*
X02216D01*
X02206Y01763*
X02197Y01758*
X0219Y01751*
X02185Y01742*
X02183Y01732*
Y01722*
X02185Y01713*
X0219Y01704*
X02197Y01697*
X02206Y01692*
X02216Y0169*
X02226*
X02235Y01692*
X02244Y01697*
X02251Y01704*
X02256Y01713*
X02259Y01722*
Y01732*
X02256Y01742*
X02251Y01751*
X02244Y01758*
X02235Y01763*
X02226Y01765*
G37*
G36*
X02126D02*
X02116D01*
X02106Y01763*
X02097Y01758*
X0209Y01751*
X02085Y01742*
X02083Y01732*
Y01722*
X02085Y01713*
X0209Y01704*
X02097Y01697*
X02106Y01692*
X02116Y0169*
X02126*
X02135Y01692*
X02144Y01697*
X02151Y01704*
X02156Y01713*
X02159Y01722*
Y01732*
X02156Y01742*
X02151Y01751*
X02144Y01758*
X02135Y01763*
X02126Y01765*
G37*
G36*
X0612Y01711D02*
X06102D01*
Y01687*
X0612*
Y01711*
G37*
G36*
X06092D02*
X06074D01*
Y01687*
X06092*
Y01711*
G37*
G36*
X07712Y01726D02*
X07704D01*
X07696Y01723*
X07691Y01718*
X07688Y0171*
Y01703*
X07691Y01695*
X07696Y0169*
X07704Y01687*
X07712*
X07719Y0169*
X07724Y01695*
X07727Y01703*
Y0171*
X07724Y01718*
X07719Y01723*
X07712Y01726*
G37*
G36*
X06399Y01705D02*
X06381D01*
Y01681*
X06399*
Y01705*
G37*
G36*
X06371D02*
X06353D01*
Y01681*
X06371*
Y01705*
G37*
G36*
X07435Y01711D02*
X07427D01*
X0742Y01708*
X07415Y01702*
X07412Y01695*
Y01687*
X07415Y0168*
X0742Y01674*
X07427Y01671*
X07435*
X07442Y01674*
X07448Y0168*
X07451Y01687*
Y01695*
X07448Y01702*
X07442Y01708*
X07435Y01711*
G37*
G36*
X06642Y01686D02*
X06624D01*
Y01663*
X06642*
Y01686*
G37*
G36*
X06614D02*
X06596D01*
Y01663*
X06614*
Y01686*
G37*
G36*
X03313Y0177D02*
X03258D01*
Y01723*
X03294*
X03349Y01669*
X0335Y01668*
X03352Y01664*
X03357Y01659*
X03358Y01658*
X03357Y01653*
X03302*
X03215Y0174*
Y0177*
X0316*
Y01723*
X03198*
X03289Y01633*
X03293Y0163*
X03297Y01629*
X03501*
X03505Y0163*
X03509Y01633*
X03565Y01689*
X03572*
X03579Y01692*
X03585Y01697*
X03588Y01705*
Y01712*
X03585Y0172*
X03579Y01725*
X03572Y01728*
X03564*
X03557Y01725*
X03551Y0172*
X03548Y01712*
Y01706*
X03496Y01653*
X03379*
X03378Y01658*
X03379Y01659*
X03385Y01664*
X03388Y01671*
Y01679*
X03385Y01686*
X03379Y01692*
X03372Y01695*
X03364*
X03361Y01694*
X03313Y01742*
Y0177*
G37*
G36*
X05176Y01668D02*
Y01651D01*
X05192*
X05189Y01659*
X05183Y01665*
X05176Y01668*
G37*
G36*
X05144Y01691D02*
X05136D01*
X05129Y01688*
X05124Y01683*
X05121Y01676*
Y01668*
X05124Y01661*
X05129Y01655*
X05136Y01652*
X05144*
X05145Y01652*
X05146Y01651*
X05166*
Y01668*
X05165Y01667*
X0516Y01671*
Y01676*
X05157Y01683*
X05151Y01688*
X05144Y01691*
G37*
G36*
X06058Y01665D02*
X06035D01*
Y01646*
X06058*
Y01665*
G37*
G36*
X06025D02*
X06001D01*
Y01646*
X06025*
Y01665*
G37*
G36*
X04892Y01683D02*
X04884D01*
X04877Y0168*
X04871Y01675*
X04868Y01667*
Y0166*
X04871Y01652*
X04877Y01647*
X04884Y01644*
X04892*
X04899Y01647*
X04905Y01652*
X04908Y0166*
Y01667*
X04905Y01675*
X04899Y0168*
X04892Y01683*
G37*
G36*
X03002Y02876D02*
X02994D01*
X02987Y02873*
X02981Y02868*
X02978Y02861*
Y02854*
X02877Y02753*
X02875Y02749*
X02874Y02744*
Y01661*
X02875Y01656*
X02877Y01652*
X02895Y01634*
X02899Y01631*
X02904Y0163*
X02996*
X03001Y01631*
X03005Y01634*
X03043Y01672*
X03046Y01676*
X03047Y01681*
Y01751*
X03057Y01761*
X03062Y01759*
Y01724*
X03096*
X03096Y01723*
X03128Y01692*
Y01679*
X03123Y01675*
X0312Y01667*
Y0166*
X03123Y01652*
X03129Y01647*
X03136Y01644*
X03144*
X03151Y01647*
X03157Y01652*
X0316Y0166*
Y01667*
X03157Y01675*
X03152Y01679*
Y01697*
X03151Y01701*
X03148Y01705*
X03148*
X03117Y01737*
Y01771*
X03073*
X03071Y01776*
X03079Y01783*
X03117*
Y0183*
X03062*
Y018*
X03026Y01765*
X03024Y01761*
X03023Y01758*
X03018Y01759*
Y01771*
X02963*
Y01738*
X02963Y01737*
Y01714*
X0294Y01691*
X02935*
X02928Y01688*
X02922Y01683*
X02919Y01675*
Y01667*
X02922Y0166*
X02923Y01659*
X02921Y01654*
X02909*
X02898Y01666*
Y02739*
X02995Y02837*
X03002*
X03009Y0284*
X03015Y02845*
X03018Y02853*
Y02861*
X03015Y02868*
X03009Y02873*
X03002Y02876*
G37*
G36*
X06155Y01661D02*
X06131D01*
Y01643*
X06155*
Y01661*
G37*
G36*
X02226Y01667D02*
X02226D01*
Y01632*
X02261*
Y01633*
X02258Y01643*
X02253Y01652*
X02245Y01659*
X02236Y01665*
X02226Y01667*
G37*
G36*
X02216D02*
X02215D01*
X02205Y01665*
X02196Y01659*
X02189Y01652*
X02183Y01643*
X02181Y01633*
Y01632*
X02216*
Y01667*
G37*
G36*
X05042Y01674D02*
X05035D01*
X05027Y01671*
X05022Y01666*
X05019Y01659*
Y01651*
X05022Y01644*
X05027Y01638*
X05034Y01635*
X05033Y0163*
X04991*
X04986Y01631*
X04979Y01634*
X04971*
X04964Y01631*
X04958Y01626*
X04955Y01619*
Y01611*
X04958Y01604*
X04964Y01598*
X04971Y01595*
X04979*
X04986Y01598*
X04991Y01596*
Y01584*
X04986Y0158*
X04981Y01582*
Y01587*
X04939*
Y01534*
X04981*
Y01549*
X04988*
X04993Y0155*
X04997Y01553*
X05011Y01567*
X05077*
Y0163*
X05067*
X05064Y01633*
X05057Y01636*
X05055*
X05053Y01641*
X05055Y01644*
X05058Y01651*
Y01659*
X05055Y01666*
X0505Y01671*
X05042Y01674*
G37*
G36*
X06642Y01653D02*
X06624D01*
Y01629*
X06642*
Y01653*
G37*
G36*
X06614D02*
X06596D01*
Y01629*
X06614*
Y01653*
G37*
G36*
X06424Y01672D02*
X06383D01*
Y01621*
X06424*
Y01672*
G37*
G36*
X06373D02*
X06333D01*
Y01621*
X06373*
Y01672*
G37*
G36*
X06058Y01636D02*
X06035D01*
Y01618*
X06058*
Y01636*
G37*
G36*
X06025D02*
X06001D01*
Y01618*
X06025*
Y01636*
G37*
G36*
X06177Y01801D02*
X06135D01*
Y01748*
X06143*
Y01742*
X06134*
Y01689*
X06152*
X06154Y01686*
X06175Y01665*
X06173Y01661*
X06165*
Y01643*
X06188*
Y01646*
X06193Y01647*
X06199Y01641*
Y01617*
X06252*
Y0166*
X06218*
X06177Y01701*
Y01702*
X06178Y01706*
Y01714*
X06176Y01718*
Y01742*
X06169*
Y01748*
X06177*
Y01801*
G37*
G36*
X06188Y01633D02*
X06165D01*
Y01614*
X06188*
Y01633*
G37*
G36*
X06155D02*
X06131D01*
Y01614*
X06155*
Y01633*
G37*
G36*
X05192Y01641D02*
X05149D01*
X05151Y01638*
X05147Y01633*
X05146*
Y01604*
X05191*
X05237*
Y01633*
X05194*
X05191Y01638*
X05192Y01641*
G37*
G36*
X0531Y01615D02*
X05286D01*
Y01597*
X0531*
Y01615*
G37*
G36*
X05276D02*
X05252D01*
Y01597*
X05276*
Y01615*
G37*
G36*
X05821Y0164D02*
X05813D01*
X05806Y01637*
X058Y01631*
X05797Y01624*
Y01616*
X058Y01609*
X05806Y01604*
X05813Y01601*
X05821*
X05828Y01603*
X0583Y01603*
X05833Y01601*
Y01591*
X05888*
Y01638*
X05833*
X05828Y01637*
X05821Y0164*
G37*
G36*
X02126Y01665D02*
X02116D01*
X02106Y01663*
X02097Y01658*
X0209Y01651*
X02085Y01642*
X02083Y01632*
Y01622*
X02085Y01613*
X0209Y01604*
X02097Y01597*
X02106Y01592*
X02116Y0159*
X02126*
X02135Y01592*
X02144Y01597*
X02151Y01604*
X02156Y01613*
X02159Y01622*
Y01632*
X02156Y01642*
X02151Y01651*
X02144Y01658*
X02135Y01663*
X02126Y01665*
G37*
G36*
X06254Y01603D02*
X06231D01*
Y01585*
X06254*
Y01603*
G37*
G36*
X06221D02*
X06197D01*
Y01585*
X06221*
Y01603*
G37*
G36*
X0531Y01587D02*
X05286D01*
Y01568*
X0531*
Y01587*
G37*
G36*
X05276D02*
X05252D01*
Y01568*
X05276*
Y01587*
G37*
G36*
X04905Y01636D02*
X04897D01*
X0489Y01633*
X04884Y01627*
X04881Y0162*
Y01615*
X04808Y01542*
X04805Y01538*
X04804Y01533*
Y01329*
X04805Y01324*
X04808Y0132*
X0537Y00758*
X05374Y00755*
X05379Y00754*
X06032*
X06037Y00755*
X06041Y00758*
X0643Y01146*
X06433Y01151*
X06434Y01156*
Y01432*
X06433Y01437*
X0643Y01441*
X06415Y01456*
Y01467*
X06408*
Y01469*
X06405Y01476*
X06399Y01481*
X06392Y01484*
X06384*
X06377Y01481*
X06371Y01476*
X06368Y01469*
Y01467*
X0636*
Y01419*
X06407*
Y01408*
X0636*
Y0136*
X06375*
Y01324*
X06352Y013*
X06347*
X06339Y01297*
X06334Y01292*
X06331Y01285*
Y01277*
X06334Y0127*
X06339Y01264*
X06347Y01261*
X06354*
X06362Y01264*
X06367Y0127*
X0637Y01277*
Y01282*
X06397Y01309*
X064Y01313*
X06401Y01318*
Y0136*
X06407*
Y01161*
X06026Y0078*
X05385*
X0483Y01334*
Y01527*
X04874Y01571*
X04879Y01569*
Y01566*
X04902*
X04925*
Y01589*
X049*
X04898Y01594*
X049Y01597*
X04905*
X04912Y016*
X04917Y01605*
X0492Y01612*
Y0162*
X04917Y01627*
X04912Y01633*
X04905Y01636*
G37*
G36*
X05237Y01594D02*
X05196D01*
Y01565*
X05237*
Y01594*
G37*
G36*
X05186D02*
X05146D01*
Y01565*
X05186*
Y01594*
G37*
G36*
X06424Y01611D02*
X06383D01*
Y01561*
X06424*
Y01611*
G37*
G36*
X06373D02*
X06333D01*
Y01561*
X06373*
Y01611*
G37*
G36*
X06254Y01575D02*
X06231D01*
Y01557*
X06254*
Y01575*
G37*
G36*
X06221D02*
X06197D01*
Y01557*
X06221*
Y01575*
G37*
G36*
X04925Y01556D02*
X04907D01*
Y01532*
X04925*
Y01556*
G37*
G36*
X04897D02*
X04879D01*
Y01532*
X04897*
Y01556*
G37*
G36*
X05888Y01579D02*
X05833D01*
Y01532*
X05856*
X0586Y0153*
X05868*
X05873Y01532*
X05888*
Y01579*
G37*
G36*
X05029Y01538D02*
X04989D01*
Y0153*
X04984Y01527*
X04981Y01528*
Y01506*
X04976*
Y01501*
X04954*
X04957Y01494*
X04964Y01488*
X04968Y01486*
X04967Y01481*
X04931*
Y01428*
X04955*
X05074Y0131*
X05074Y0131*
X05075Y01307*
X05081Y01301*
X05089Y01297*
X05098*
X05106Y01301*
X05112Y01307*
X05116Y01315*
Y01323*
X05112Y01331*
X05106Y01338*
X05098Y01341*
X05089*
X05083Y01338*
X04983Y01438*
X04987Y01442*
X04991Y01451*
Y01459*
X04988Y01466*
X0499Y0147*
X04991Y01471*
X04993*
X05029*
Y01504*
Y01538*
G37*
G36*
X05307Y01554D02*
X05255D01*
Y01529*
X05242Y01516*
X05235*
Y01536*
X05173*
X05172Y01536*
X05149*
X05148Y01539*
X05143Y01545*
X05135Y01548*
X05127*
X0512Y01545*
X05115Y01539*
X05112Y01532*
Y01524*
X05115Y01517*
X0512Y01511*
X05127Y01508*
X05135*
X05143Y01511*
X05143Y01512*
X05148Y01512*
Y01473*
X05235*
Y01492*
X05247*
X05251Y01493*
X05255Y01496*
X05272Y01512*
X05307*
Y01554*
G37*
G36*
X04971Y01528D02*
X04964Y01525D01*
X04957Y01519*
X04954Y01511*
X04971*
Y01528*
G37*
G36*
X05079Y01538D02*
X05039D01*
Y01509*
X05079*
Y01538*
G37*
G36*
Y01499D02*
X05039D01*
Y01471*
X05079*
Y01499*
G37*
G36*
X07494Y01483D02*
X07476D01*
Y01464*
X07496*
X07494Y01469*
Y01483*
G37*
G36*
X07466D02*
X07447D01*
Y0146*
X07466*
Y01483*
G37*
G36*
X04917D02*
X04899D01*
Y0146*
X04917*
Y01483*
G37*
G36*
X04889D02*
X04871D01*
Y0146*
X04889*
Y01483*
G37*
G36*
X07712Y01499D02*
X07704D01*
X07696Y01496*
X07691Y0149*
X07688Y01483*
Y01475*
X07691Y01468*
X07696Y01462*
X07704Y01459*
X07712*
X07719Y01462*
X07724Y01468*
X07727Y01475*
Y01483*
X07724Y0149*
X07719Y01496*
X07712Y01499*
G37*
G36*
X06186Y016D02*
X06133D01*
Y01558*
X06146*
Y01477*
X06143Y01474*
X0614Y01467*
Y01459*
X06143Y01452*
X06148Y01446*
X06156Y01443*
X06164*
X06171Y01446*
X06176Y01452*
X06179Y01459*
Y01467*
X06176Y01474*
X06173Y01477*
Y01558*
X06186*
Y016*
G37*
G36*
X06056Y01604D02*
X06003D01*
Y01562*
X06032*
X06065Y0153*
Y01479*
X06059Y01474*
X06056Y01467*
Y01459*
X06059Y01452*
X06065Y01446*
X06072Y01443*
X06077*
X06078Y01443*
X06079Y01443*
X0608*
X06081Y01444*
X06083Y01444*
X06085Y01445*
X06087Y01446*
X06093Y01452*
X06096Y01459*
Y01467*
X06093Y01474*
X06091Y01475*
Y01535*
X0609Y0154*
X06087Y01544*
X06056Y01575*
Y01604*
G37*
G36*
X05149Y01446D02*
Y0143D01*
X05165*
X05162Y01437*
X05156Y01443*
X05149Y01446*
G37*
G36*
X05139D02*
X05131Y01443D01*
X05125Y01437*
X05122Y0143*
X05139*
Y01446*
G37*
G36*
X0771Y0145D02*
X07693D01*
Y01427*
X07737*
X07737Y0143*
X07734Y01436*
X0773Y01442*
X07724Y01447*
X07717Y01449*
X0771Y0145*
G37*
G36*
X07868D02*
X07858D01*
Y01427*
X07896*
X07895Y0143*
X07892Y01436*
X07888Y01442*
X07882Y01447*
X07875Y01449*
X07868Y0145*
G37*
G36*
X07848D02*
X07837D01*
X0783Y01449*
X07823Y01447*
X07817Y01442*
X07813Y01436*
X0781Y0143*
X07809Y01427*
X07848*
Y0145*
G37*
G36*
X07683D02*
X07667D01*
X07659Y01449*
X07653Y01447*
X07647Y01442*
X07642Y01436*
X0764Y0143*
X07639Y01427*
X07683*
Y0145*
G37*
G36*
X04917Y0145D02*
X04899D01*
Y01426*
X04917*
Y0145*
G37*
G36*
X04889D02*
X04871D01*
Y01426*
X04889*
Y0145*
G37*
G36*
X07737Y01417D02*
X07688D01*
X07639*
X0764Y01415*
Y01414*
X07637Y0141*
X07613*
X0761Y01412*
X07609*
X07563*
Y01356*
X0757*
X07573Y01351*
X07571Y01347*
Y01339*
X07574Y01332*
X0758Y01326*
X07587Y01323*
X07595*
X07602Y01326*
X07607Y01332*
X0761Y01339*
Y01347*
X07608Y01351*
X0761Y01356*
X07613Y01358*
X07655*
Y01392*
X0766Y01395*
X07667Y01394*
X07669*
Y01389*
X07693*
X07716*
Y01395*
X07717Y01395*
X07724Y01398*
X0773Y01403*
X07734Y01408*
X07737Y01415*
X07737Y01417*
G37*
G36*
X07101Y01443D02*
X07093D01*
X07085Y0144*
X0708Y01435*
X07077Y01427*
Y01419*
X0708Y01412*
X07085Y01407*
X07093Y01404*
X07101*
X07108Y01407*
X07113Y01412*
X07116Y01419*
Y01427*
X07113Y01435*
X07108Y0144*
X07101Y01443*
G37*
G36*
X05165Y0142D02*
X05149D01*
Y01403*
X05156Y01406*
X05162Y01413*
X05165Y0142*
G37*
G36*
X05139D02*
X05122D01*
X05125Y01413*
X05131Y01406*
X05139Y01403*
Y0142*
G37*
G36*
X07896Y01417D02*
X07858D01*
Y01394*
X07868*
X07875Y01395*
X07882Y01398*
X07888Y01403*
X07892Y01408*
X07895Y01415*
X07896Y01417*
G37*
G36*
X07848D02*
X07809D01*
X0781Y01415*
X07813Y01408*
X07817Y01403*
X07823Y01398*
X0783Y01395*
X07837Y01394*
X07848*
Y01417*
G37*
G36*
X06451Y01807D02*
X06396D01*
Y0176*
X06449*
X0645Y01759*
X06456Y01753*
X06455Y01748*
X06455Y01747*
X06443*
Y01724*
X06461*
Y01733*
X06466Y01735*
X06475Y01726*
Y01692*
X06483*
Y01669*
X06449*
Y01563*
X06479*
Y01478*
X0648Y01473*
X06483Y01469*
X06557Y01395*
Y01362*
X06612*
Y01373*
X06636*
Y01362*
X06691*
Y01373*
X06715*
Y01362*
X0677*
Y0141*
X06741*
Y01429*
X0674Y01434*
X06737Y01439*
X06724Y01451*
X06725Y01453*
Y01461*
X06722Y01468*
X06716Y01473*
X06709Y01476*
X06701*
X06694Y01473*
X06688Y01468*
X06685Y01461*
Y01453*
X06688Y01446*
X06694Y0144*
X06701Y01437*
X06701*
X06714Y01424*
Y01399*
X06691*
Y0141*
X06636*
Y01399*
X06612*
Y0141*
X0658*
X06579Y0141*
X06505Y01484*
Y01563*
X06536*
Y01629*
X0654Y01631*
X06541*
X06582*
Y01684*
X0654*
Y01672*
X06536Y01669*
X06535*
X06509*
Y01692*
X06517*
Y01745*
X06493*
X06483Y01755*
Y01758*
X06483Y01759*
X06486Y01766*
Y01774*
X06483Y01781*
X06478Y01787*
X06471Y0179*
X06465*
X06462Y01793*
X06458Y01796*
X06453Y01797*
X06451*
Y01807*
G37*
G36*
X07716Y01379D02*
X07698D01*
Y01356*
X07716*
Y01379*
G37*
G36*
X07688D02*
X07669D01*
Y01356*
X07688*
Y01379*
G37*
G36*
X04726Y01388D02*
X04719D01*
X04711Y01385*
X04706Y01379*
X04703Y01372*
Y01364*
X04706Y01357*
X04711Y01352*
X04719Y01349*
X04726*
X04734Y01352*
X04739Y01357*
X04742Y01364*
Y01372*
X04739Y01379*
X04734Y01385*
X04726Y01388*
G37*
G36*
X07433Y01481D02*
X07391D01*
Y01459*
X07391*
X07386Y01458*
X07382Y01455*
X07373Y01447*
X07368*
X07361Y01444*
X07356Y01438*
X07353Y01431*
Y01423*
X07356Y01416*
X07361Y01411*
X07368Y01408*
X07376*
X07383Y01411*
X07384Y01411*
X07385Y01411*
X07389Y01408*
Y01406*
Y01358*
X07399*
X07399Y01355*
X07402Y01351*
X07426Y01327*
X0743Y01325*
X07435Y01324*
X07515*
X07519Y0132*
X07526Y01317*
X07534*
X07541Y0132*
X07546Y01326*
X07549Y01333*
Y01341*
X07546Y01348*
X07543Y01351*
X07543Y01356*
X07551*
Y01412*
X07523*
X07505Y01429*
X07501Y01432*
X07496Y01433*
X07494*
Y01448*
X07496Y01454*
X07475*
Y01455*
X07471*
Y0145*
X07447*
Y0144*
X07442Y01438*
X07433Y01447*
Y01481*
G37*
G36*
X07313Y01317D02*
X07305D01*
X07298Y01314*
X07293Y01309*
X0729Y01301*
Y01293*
X07293Y01286*
X07298Y01281*
X07305Y01278*
X07313*
X0732Y01281*
X07326Y01286*
X07329Y01293*
Y01301*
X07326Y01309*
X0732Y01314*
X07313Y01317*
G37*
G36*
X04739Y01312D02*
X04731D01*
X04724Y01309*
X04719Y01304*
X04716Y01296*
Y01288*
X04719Y01281*
X04724Y01276*
X04731Y01273*
X04739*
X04746Y01276*
X04752Y01281*
X04755Y01288*
Y01296*
X04752Y01304*
X04746Y01309*
X04739Y01312*
G37*
G36*
X05873Y01296D02*
X05865D01*
X05858Y01293*
X05853Y01288*
X0585Y01281*
Y01273*
X05853Y01266*
X05858Y0126*
X05865Y01257*
X05873*
X0588Y0126*
X05886Y01266*
X05889Y01273*
Y01281*
X05886Y01288*
X0588Y01293*
X05873Y01296*
G37*
G36*
X05958Y01268D02*
Y01251D01*
X05974*
X05971Y01259*
X05965Y01265*
X05958Y01268*
G37*
G36*
X05948D02*
X05941Y01265D01*
X05934Y01259*
X05931Y01251*
X05948*
Y01268*
G37*
G36*
X05974Y01241D02*
X05958D01*
Y01225*
X05965Y01228*
X05971Y01234*
X05974Y01241*
G37*
G36*
X05948D02*
X05931D01*
X05934Y01234*
X05941Y01228*
X05948Y01225*
Y01241*
G37*
G36*
X04402Y01197D02*
X04394D01*
X04387Y01194*
X04381Y01188*
X04378Y01181*
Y01173*
X04381Y01166*
X04387Y01161*
X04394Y01158*
X04402*
X04409Y01161*
X04414Y01166*
X04417Y01173*
Y01181*
X04414Y01188*
X04409Y01194*
X04402Y01197*
G37*
G36*
X07384Y01187D02*
X07376D01*
X07369Y01184*
X07363Y01179*
X0736Y01171*
Y01164*
X07363Y01156*
X07369Y01151*
X07376Y01148*
X07384*
X07391Y01151*
X07397Y01156*
X074Y01164*
Y01171*
X07397Y01179*
X07391Y01184*
X07384Y01187*
G37*
G36*
X07097D02*
X07089D01*
X07082Y01184*
X07076Y01179*
X07073Y01171*
Y01164*
X07076Y01156*
X07082Y01151*
X07089Y01148*
X07097*
X07104Y01151*
X07109Y01156*
X07112Y01164*
Y01171*
X07109Y01179*
X07104Y01184*
X07097Y01187*
G37*
G36*
X00252Y01268D02*
X00247D01*
Y01141*
X00374*
Y01146*
X0037Y01167*
X00364Y01186*
X00354Y01205*
X00342Y01222*
X00328Y01236*
X00311Y01249*
X00292Y01258*
X00272Y01265*
X00252Y01268*
G37*
G36*
X00237D02*
X00231D01*
X00211Y01265*
X00191Y01258*
X00172Y01249*
X00155Y01236*
X00141Y01222*
X00129Y01205*
X00119Y01186*
X00113Y01167*
X00109Y01146*
Y01141*
X00237*
Y01268*
G37*
G36*
X0716Y0151D02*
X07152D01*
X07145Y01507*
X07139Y01501*
X07136Y01494*
Y01486*
X07139Y01479*
X07145Y01474*
X07152Y01471*
X07157*
X07174Y01453*
Y01317*
X07175Y01312*
X07178Y01308*
X07225Y0126*
Y01178*
X07222Y01175*
X07219Y01167*
Y0116*
X07222Y01152*
X07227Y01147*
X07234Y01144*
X07242*
X07249Y01147*
X07255Y01152*
X07258Y0116*
Y01167*
X07255Y01175*
X07251Y01178*
Y01266*
X0725Y01271*
X07249Y01272*
X07253Y01276*
X0728Y01249*
Y01174*
X07277Y01171*
X07274Y01164*
Y01156*
X07277Y01148*
X07282Y01143*
X0729Y0114*
X07297*
X07305Y01143*
X0731Y01148*
X07313Y01156*
Y01164*
X0731Y01171*
X07307Y01174*
Y01254*
X07306Y01259*
X07303Y01263*
X0722Y01346*
Y01472*
X07224Y01475*
X07227Y01482*
Y0149*
X07224Y01498*
X07218Y01503*
X07211Y01506*
X07203*
X07196Y01503*
X0719Y01498*
X07187Y0149*
Y01484*
X07182Y01482*
X07175Y01489*
Y01494*
X07172Y01501*
X07167Y01507*
X0716Y0151*
G37*
G36*
X07341Y01164D02*
X07333D01*
X07326Y01161*
X0732Y01155*
X07317Y01148*
Y0114*
X0732Y01133*
X07326Y01127*
X07333Y01124*
X07341*
X07348Y01127*
X07353Y01133*
X07356Y0114*
Y01148*
X07353Y01155*
X07348Y01161*
X07341Y01164*
G37*
G36*
X06612Y01351D02*
X06557D01*
Y01303*
X06572*
Y01148*
X06573Y01143*
X06573Y01142*
Y01136*
X06576Y01129*
X06582Y01123*
X06589Y0112*
X06597*
X06604Y01123*
X06609Y01129*
X06612Y01136*
Y01144*
X06609Y01151*
X06604Y01157*
X06598Y01159*
Y01303*
X06612*
Y01351*
G37*
G36*
X07034Y01156D02*
X07026D01*
X07019Y01153*
X07013Y01147*
X0701Y0114*
Y01132*
X07013Y01125*
X07019Y01119*
X07026Y01116*
X07034*
X07041Y01119*
X07046Y01125*
X07049Y01132*
Y0114*
X07046Y01147*
X07041Y01153*
X07034Y01156*
G37*
G36*
X0677Y01351D02*
X06715D01*
Y01303*
X06725*
Y01218*
X06722Y01214*
X06719Y01207*
Y01199*
X06722Y01192*
X06727Y01186*
X06734Y01183*
X06739*
X06832Y01091*
X0683Y01086*
X06807*
X06742Y01151*
Y01156*
X06739Y01163*
X06734Y01168*
X06726Y01171*
X06721*
X06677Y01216*
Y01303*
X06691*
Y01351*
X06636*
Y01303*
X0665*
Y01211*
X06651Y01206*
X06654Y01201*
X06703Y01153*
Y01148*
X06706Y01141*
X06711Y01135*
X06719Y01132*
X06724*
X06792Y01064*
X06796Y01061*
X06801Y0106*
X07486*
X07491Y01061*
X07496Y01064*
X07498Y01066*
X07503Y01064*
Y00889*
X07263Y00649*
X07257Y0065*
X07255Y00655*
X07249Y00661*
X07242Y00664*
X07234*
X07227Y00661*
X07222Y00655*
X07219Y00648*
Y0064*
X07222Y00633*
X07227Y00627*
X07232Y00625*
X07233Y0062*
X07117Y00503*
X06954*
X0695Y00507*
X06943Y0051*
X06935*
X06928Y00507*
X06922Y00501*
X06919Y00494*
Y00486*
X06922Y00479*
X06928Y00474*
X06935Y00471*
X06943*
X0695Y00474*
X06954Y00477*
X07122*
X07128Y00478*
X07132Y00481*
X07525Y00875*
X07528Y00879*
X07529Y00884*
Y01193*
X07528Y01198*
X07525Y01202*
X07419Y01308*
Y01313*
X07416Y0132*
X07411Y01326*
X07404Y01329*
X07396*
X07389Y01326*
X07383Y0132*
X0738Y01313*
Y01305*
X07383Y01298*
X07389Y01293*
X07396Y0129*
X07401*
X07503Y01187*
Y01158*
X07498Y01156*
X07497Y01156*
X07492Y01157*
X07427*
X07422Y01156*
X07418Y01153*
X07405Y0114*
X074*
X07393Y01137*
X07387Y01131*
X07384Y01124*
Y01116*
X07386Y01112*
X07383Y01107*
X06853*
X06758Y01202*
Y01207*
X06755Y01214*
X06751Y01218*
Y01303*
X0677*
Y01351*
G37*
G36*
X05579Y0138D02*
X05571D01*
X05564Y01377*
X05558Y01372*
X05555Y01364*
Y01356*
X05558Y01349*
X05562Y01346*
Y01277*
X05563Y01272*
X05566Y01267*
X05599Y01234*
Y01227*
X05469Y01097*
X05454*
X05453Y01097*
X0545Y01098*
X05442*
X05434Y01094*
X05427Y01088*
X05424Y0108*
Y01072*
X05427Y01064*
X05434Y01057*
X05442Y01054*
X0545*
X05458Y01057*
X05465Y01064*
X05467Y0107*
X05474*
X05479Y01071*
X05484Y01074*
X05618Y01209*
X05625*
X05798Y01035*
X05802Y01032*
X05807Y01031*
X05819*
X05822Y01024*
X05828Y01018*
X05836Y01015*
X05845*
X05853Y01018*
X05859Y01023*
X06234*
X06239Y01024*
X06244Y01027*
X06355Y01139*
X06363*
X06371Y01142*
X06377Y01148*
X0638Y01156*
Y01165*
X06377Y01173*
X06371Y01179*
X06363Y01182*
X06354*
X06346Y01179*
X0634Y01173*
X06337Y01165*
Y01157*
X06229Y0105*
X05859*
X05853Y01055*
X05845Y01058*
X05836*
X05833Y01057*
X05833Y01057*
X05813*
X05643Y01227*
Y01235*
X0564Y01243*
X05634Y01249*
X05626Y01252*
X05618*
X05588Y01282*
Y01346*
X05592Y01349*
X05595Y01356*
Y01364*
X05592Y01372*
X05586Y01377*
X05579Y0138*
G37*
G36*
X02303Y01131D02*
X02176D01*
Y01004*
X02181*
X02202Y01007*
X02221Y01013*
X0224Y01023*
X02257Y01035*
X02271Y0105*
X02284Y01067*
X02293Y01085*
X02299Y01105*
X02303Y01125*
Y01131*
G37*
G36*
X02166D02*
X02039D01*
Y01125*
X02042Y01105*
X02048Y01085*
X02058Y01067*
X0207Y0105*
X02085Y01035*
X02101Y01023*
X0212Y01013*
X0214Y01007*
X0216Y01004*
X02166*
Y01131*
G37*
G36*
X00374D02*
X00247D01*
Y01004*
X00252*
X00272Y01007*
X00292Y01013*
X00311Y01023*
X00328Y01035*
X00342Y0105*
X00354Y01067*
X00364Y01085*
X0037Y01105*
X00374Y01125*
Y01131*
G37*
G36*
X00237D02*
X00109D01*
Y01125*
X00113Y01105*
X00119Y01085*
X00129Y01067*
X00141Y0105*
X00155Y01035*
X00172Y01023*
X00191Y01013*
X00211Y01007*
X00231Y01004*
X00237*
Y01131*
G37*
G36*
X07398Y01017D02*
Y00994D01*
X07388*
Y01017*
X0738Y01014*
X07374Y01007*
X0737Y00999*
Y00992*
X07364*
X07355Y00989*
X07349Y00983*
X07346Y00975*
X07368*
Y00965*
X07346*
X07349Y00957*
X07355Y0095*
X07362Y00948*
Y00942*
X07355Y0094*
X07349Y00933*
X07346Y00925*
X07368*
Y00915*
X07346*
X07349Y00908*
X07355Y00901*
X07364Y00898*
X0737*
Y00891*
X07374Y00883*
X0738Y00876*
X07388Y00873*
Y00896*
X07398*
Y00873*
X07406Y00876*
X07412Y00883*
X07415Y00889*
X0742*
X07423Y00883*
X07429Y00876*
X07437Y00873*
Y00896*
X07447*
Y00873*
X07455Y00876*
X07461Y00883*
X07465Y00891*
Y00898*
X07471*
X0748Y00901*
X07486Y00908*
X07489Y00915*
X07467*
Y00925*
X07489*
X07486Y00933*
X0748Y0094*
X07473Y00942*
Y00948*
X0748Y0095*
X07486Y00957*
X07489Y00965*
X07467*
Y00975*
X07489*
X07486Y00983*
X0748Y00989*
X07471Y00992*
X07465*
Y00999*
X07461Y01007*
X07455Y01014*
X07447Y01017*
Y00994*
X07437*
Y01017*
X07429Y01014*
X07423Y01007*
X0742Y01001*
X07415*
X07412Y01007*
X07406Y01014*
X07398Y01017*
G37*
G36*
X0437Y01022D02*
X04362D01*
X04355Y01019*
X04349Y01013*
X04346Y01006*
Y00998*
X04349Y00991*
X04355Y00985*
X04362Y00982*
X0437*
X04377Y00985*
X04383Y00991*
X04386Y00998*
Y01006*
X04383Y01013*
X04377Y01019*
X0437Y01022*
G37*
G36*
X02759Y00954D02*
X0274D01*
Y0093*
X02759*
Y00954*
G37*
G36*
X0273D02*
X02712D01*
Y0093*
X0273*
Y00954*
G37*
G36*
X03827Y00921D02*
X03801D01*
Y00896*
X03827*
Y00921*
G37*
G36*
X03791D02*
X03764D01*
Y00896*
X03791*
Y00921*
G37*
G36*
X02759Y0092D02*
X02735D01*
X02712*
Y00899*
X02709Y00895*
Y00893*
Y00872*
X02733*
X02756*
Y00893*
X02759Y00897*
Y00899*
Y0092*
G37*
G36*
X03827Y00886D02*
X03801D01*
Y00861*
X03827*
Y00886*
G37*
G36*
X03791D02*
X03764D01*
Y00861*
X03791*
Y00886*
G37*
G36*
X02756Y00862D02*
X02738D01*
Y00838*
X02756*
Y00862*
G37*
G36*
X02728D02*
X02709D01*
Y00838*
X02728*
Y00862*
G37*
G36*
X06723Y00896D02*
X06714D01*
X06705Y00893*
X06697Y00889*
X0669Y00882*
X06686Y00874*
X06683Y00865*
Y00856*
X06686Y00847*
X0669Y00839*
X06697Y00832*
X06705Y00827*
X06714Y00825*
X06723*
X06732Y00827*
X0674Y00832*
X06747Y00839*
X06752Y00847*
X06754Y00856*
Y00865*
X06752Y00874*
X06747Y00882*
X0674Y00889*
X06732Y00893*
X06723Y00896*
G37*
G36*
X03738Y00956D02*
X03679D01*
Y00918*
X03676Y00915*
X03674Y00911*
X03673Y00906*
Y0081*
X03622*
Y00812*
X03611*
Y00773*
Y00733*
X03614Y00732*
X03615Y00728*
X03617Y00724*
X03631Y0071*
X03635Y00708*
X03639Y00707*
X03677*
X03682Y00708*
X03686Y0071*
X03693Y00718*
X03696Y00722*
X03697Y00726*
Y00726*
Y00735*
X03699*
Y00735*
X03714*
Y00692*
X03763*
Y00762*
X03718*
Y00793*
X03724Y00799*
X0384*
Y00784*
X03888*
Y00839*
X0384*
Y00823*
X03719*
X03715Y00822*
X03711Y0082*
X03702Y00811*
X03697Y00812*
Y00901*
X03738*
Y00956*
G37*
G36*
X02873Y00812D02*
X02862D01*
Y0081*
X02813*
Y0081*
X02795*
Y00812*
X02784*
Y00773*
Y00733*
X02795*
Y00735*
X02805*
Y00735*
X02862*
Y00733*
X02873*
Y00773*
Y00812*
G37*
G36*
X02735D02*
X02724D01*
Y00778*
X02735*
Y00812*
G37*
G36*
X03947Y00839D02*
X039D01*
Y00784*
X03902*
X03905Y00779*
X03903Y00775*
Y00767*
X03906Y0076*
X03912Y00754*
X03919Y00751*
X03927*
X03934Y00754*
X0394Y0076*
X03943Y00767*
Y00775*
X03941Y00779*
X03944Y00784*
X03947*
Y00839*
G37*
G36*
X03503Y00812D02*
X03493D01*
Y00773*
Y00733*
X03503*
Y00773*
Y00812*
G37*
G36*
X03483D02*
X03473D01*
Y00773*
Y00733*
X03483*
Y00773*
Y00812*
G37*
G36*
X03463D02*
X03454D01*
Y00773*
Y00733*
X03463*
Y00773*
Y00812*
G37*
G36*
X03444D02*
X03434D01*
Y00773*
Y00733*
X03444*
Y00773*
Y00812*
G37*
G36*
X03424D02*
X03414D01*
Y00773*
Y00733*
X03424*
Y00773*
Y00812*
G37*
G36*
X03404D02*
X03395D01*
Y00773*
Y00733*
X03404*
Y00773*
Y00812*
G37*
G36*
X03385D02*
X03375D01*
Y00773*
Y00733*
X03385*
Y00773*
Y00812*
G37*
G36*
X03365D02*
X03355D01*
Y00773*
Y00733*
X03365*
Y00773*
Y00812*
G37*
G36*
X03345D02*
X03336D01*
Y00773*
Y00733*
X03345*
Y00773*
Y00812*
G37*
G36*
X03326D02*
X03316D01*
Y00773*
Y00733*
X03326*
Y00773*
Y00812*
G37*
G36*
X03306D02*
X03296D01*
Y00773*
Y00733*
X03306*
Y00773*
Y00812*
G37*
G36*
X03286D02*
X03277D01*
Y00773*
Y00733*
X03286*
Y00773*
Y00812*
G37*
G36*
X03267D02*
X03257D01*
Y00773*
Y00733*
X03267*
Y00773*
Y00812*
G37*
G36*
X02774D02*
X02765D01*
Y00773*
Y00733*
X02774*
Y00773*
Y00812*
G37*
G36*
X02755D02*
X02745D01*
Y00773*
Y00733*
X02755*
Y00773*
Y00812*
G37*
G36*
X06723Y00797D02*
X06714D01*
X06705Y00795*
X06697Y0079*
X0669Y00784*
X06686Y00776*
X06683Y00767*
Y00757*
X06686Y00748*
X0669Y0074*
X06697Y00734*
X06705Y00729*
X06714Y00727*
X06723*
X06732Y00729*
X0674Y00734*
X06747Y0074*
X06752Y00748*
X06754Y00757*
Y00767*
X06752Y00776*
X06747Y00784*
X0674Y0079*
X06732Y00795*
X06723Y00797*
G37*
G36*
X02672Y00762D02*
X02624D01*
Y00692*
X02672*
Y00762*
G37*
G36*
X03821Y00762D02*
X03773D01*
Y00692*
X03821*
Y00762*
G37*
G36*
X02947Y01347D02*
X02939D01*
X02932Y01344*
X02927Y01338*
X02924Y01331*
Y01323*
X02927Y01316*
X02932Y01311*
X02939Y01308*
X02947*
X02955Y01311*
X02959Y01315*
X0305*
X03515Y0085*
Y00812*
X03513*
Y00773*
Y00733*
X03524*
Y00735*
X03574*
Y00726*
X03572Y00725*
X03567Y0072*
X03564Y00712*
Y00705*
X03567Y00697*
X03572Y00692*
X03579Y00689*
X03587*
X03595Y00692*
X036Y00697*
X03603Y00705*
Y00712*
X036Y0072*
X03599Y00721*
Y00733*
X03601*
Y00773*
Y00812*
X0359*
Y0081*
X03539*
Y00855*
X03539Y00859*
X03536Y00863*
X03063Y01336*
X03059Y01338*
X03055Y01339*
X02959*
X02955Y01344*
X02947Y01347*
G37*
G36*
X06724Y00701D02*
Y00669D01*
X06756*
X06754Y00678*
X06749Y00687*
X06742Y00694*
X06733Y00699*
X06724Y00701*
G37*
G36*
X06714D02*
X06704Y00699D01*
X06696Y00694*
X06689Y00687*
X06684Y00678*
X06681Y00669*
X06714*
Y00701*
G37*
G36*
X0426Y00703D02*
X04252D01*
X04245Y007*
X04239Y00694*
X04236Y00687*
Y00679*
X04239Y00672*
X04245Y00667*
X04252Y00664*
X0426*
X04267Y00667*
X04273Y00672*
X04276Y00679*
Y00687*
X04273Y00694*
X04267Y007*
X0426Y00703*
G37*
G36*
X06714Y00659D02*
X06681D01*
X06684Y00649*
X06689Y0064*
X06696Y00633*
X06704Y00629*
X06714Y00626*
Y00659*
G37*
G36*
X06756D02*
X06724D01*
Y00626*
X06733Y00629*
X06742Y00633*
X06749Y0064*
X06754Y00649*
X06756Y00659*
G37*
G36*
X02735Y00768D02*
X02724D01*
Y00762*
X02682*
Y00687*
Y00612*
X0273*
Y00649*
X02737Y00652*
X02743Y00658*
X02746Y00665*
X02725*
Y00675*
X02746*
X02743Y00683*
X02737Y00689*
X0273Y00692*
Y00733*
X02735*
Y00768*
G37*
G36*
X02672Y00682D02*
X02624D01*
Y00612*
X02672*
Y00682*
G37*
G36*
X03821Y00682D02*
X03773D01*
Y00612*
X03821*
Y00682*
G37*
G36*
X03763D02*
X03714D01*
Y00612*
X03763*
Y00682*
G37*
G36*
X07368Y00632D02*
X0736D01*
X07353Y00629*
X07348Y00624*
X07345Y00616*
Y00608*
X07348Y00601*
X07353Y00596*
X0736Y00593*
X07368*
X07375Y00596*
X07381Y00601*
X07384Y00608*
Y00616*
X07381Y00624*
X07375Y00629*
X07368Y00632*
G37*
G36*
X07309Y00624D02*
X07301D01*
X07294Y00621*
X07289Y00616*
X07286Y00608*
Y00601*
X07289Y00593*
X07294Y00588*
X07301Y00585*
X07309*
X07316Y00588*
X07322Y00593*
X07325Y00601*
Y00608*
X07322Y00616*
X07316Y00621*
X07309Y00624*
G37*
G36*
X02546Y01042D02*
X02498D01*
Y00987*
X0251*
Y00657*
X02511Y00652*
X02513Y00648*
X02616Y00546*
X0262Y00543*
X02625Y00542*
X03833*
X03838Y00543*
X03842Y00546*
X0404Y00743*
X04042Y00747*
X04043Y00752*
Y00873*
X04042Y00877*
X0404Y00881*
X03947Y00974*
X03943Y00977*
X03938Y00978*
X03825*
Y00993*
X03766*
Y00938*
X03825*
Y00954*
X03933*
X04019Y00868*
Y00757*
X03828Y00566*
X0263*
X02534Y00662*
Y00987*
X02546*
Y01042*
G37*
G36*
X04508Y00784D02*
X045D01*
X04493Y00781*
X04487Y00775*
X04484Y00768*
Y0076*
X04487Y00753*
X04491Y00749*
Y00663*
X04403Y00575*
X04398*
X0439Y00572*
X04385Y00566*
X04382Y00559*
Y00551*
X04385Y00544*
X0439Y00539*
X04398Y00536*
X04406*
X04413Y00539*
X04418Y00544*
X04421Y00551*
Y00556*
X04513Y00648*
X04516Y00653*
X04517Y00658*
Y00749*
X04521Y00753*
X04524Y0076*
Y00768*
X04521Y00775*
X04515Y00781*
X04508Y00784*
G37*
G36*
X04309Y00555D02*
X04301D01*
X04294Y00552*
X04288Y00547*
X04285Y00539*
Y00532*
X04288Y00524*
X04294Y00519*
X04301Y00516*
X04306*
X04319Y00503*
X04324Y005*
X04329Y00499*
X04489*
X04493Y00495*
X045Y00492*
X04508*
X04515Y00495*
X04521Y00501*
X04524Y00508*
Y00516*
X04521Y00523*
X04515Y00529*
X04508Y00532*
X045*
X04493Y00529*
X04489Y00525*
X04334*
X04325Y00534*
Y00539*
X04322Y00547*
X04316Y00552*
X04309Y00555*
G37*
G36*
X04055Y00444D02*
Y00444D01*
X0241*
Y00444*
X02401Y00443*
X02399Y00441*
X02396*
X02393Y0044*
X02391Y00439*
X02389Y00436*
X02388Y00433*
Y00429*
X02387Y00421*
X02387*
Y00225*
X02387*
X02388Y00217*
Y00212*
X02389Y00209*
X02391Y00207*
X02393Y00205*
X02396Y00204*
X02399*
X02401Y00203*
X0241Y00201*
Y00201*
X04055*
Y00201*
X04064Y00203*
X04072Y00208*
X04077Y00216*
X04079Y00225*
X04079*
Y00421*
X04079*
X04077Y0043*
X04072Y00438*
X04064Y00443*
X04055Y00444*
G37*
G36*
X05444Y00394D02*
X05431D01*
X05418Y00391*
X05405Y00386*
X05394Y00379*
X05385Y0037*
X05378Y00359*
X05373Y00347*
X0537Y00334*
Y00321*
X05373Y00308*
X05378Y00295*
X05385Y00284*
X05394Y00275*
X05405Y00268*
X05418Y00263*
X05431Y0026*
X05444*
X05457Y00263*
X05469Y00268*
X0548Y00275*
X05489Y00284*
X05496Y00295*
X05502Y00308*
X05504Y00321*
Y00334*
X05502Y00347*
X05496Y00359*
X05489Y0037*
X0548Y00379*
X05469Y00386*
X05457Y00391*
X05444Y00394*
G37*
G36*
X04944D02*
X04931D01*
X04918Y00391*
X04905Y00386*
X04894Y00379*
X04885Y0037*
X04878Y00359*
X04873Y00347*
X0487Y00334*
Y00321*
X04873Y00308*
X04878Y00295*
X04885Y00284*
X04894Y00275*
X04905Y00268*
X04918Y00263*
X04931Y0026*
X04944*
X04957Y00263*
X04969Y00268*
X0498Y00275*
X04989Y00284*
X04996Y00295*
X05002Y00308*
X05004Y00321*
Y00334*
X05002Y00347*
X04996Y00359*
X04989Y0037*
X0498Y00379*
X04969Y00386*
X04957Y00391*
X04944Y00394*
G37*
G36*
X06354Y00389D02*
X06341D01*
X06328Y00387*
X06316Y00382*
X06305Y00374*
X06296Y00365*
X06288Y00354*
X06283Y00342*
X06281Y00329*
Y00316*
X06283Y00303*
X06288Y0029*
X06296Y0028*
X06305Y0027*
X06316Y00263*
X06328Y00258*
X06341Y00255*
X06354*
X06367Y00258*
X06379Y00263*
X0639Y0027*
X064Y0028*
X06407Y0029*
X06412Y00303*
X06415Y00316*
Y00329*
X06412Y00342*
X06407Y00354*
X064Y00365*
X0639Y00374*
X06379Y00382*
X06367Y00387*
X06354Y00389*
G37*
G36*
X05854D02*
X05841D01*
X05828Y00387*
X05816Y00382*
X05805Y00374*
X05796Y00365*
X05788Y00354*
X05783Y00342*
X05781Y00329*
Y00316*
X05783Y00303*
X05788Y0029*
X05796Y0028*
X05805Y0027*
X05816Y00263*
X05828Y00258*
X05841Y00255*
X05854*
X05867Y00258*
X05879Y00263*
X0589Y0027*
X059Y0028*
X05907Y0029*
X05912Y00303*
X05915Y00316*
Y00329*
X05912Y00342*
X05907Y00354*
X059Y00365*
X0589Y00374*
X05879Y00382*
X05867Y00387*
X05854Y00389*
G37*
G36*
X04512Y00284D02*
X04504D01*
X04497Y00281*
X04491Y00275*
X04488Y00268*
Y0026*
X04491Y00253*
X04497Y00247*
X04504Y00244*
X04512*
X04519Y00247*
X04525Y00253*
X04528Y0026*
Y00268*
X04525Y00275*
X04519Y00281*
X04512Y00284*
G37*
%LNotpcb_copper_signal_bot-3*%
%LPD*%
G36*
X02192Y03055D02*
X02189Y03052D01*
X02183Y03043*
X02181Y03033*
Y03032*
X02221*
Y03022*
X02181*
Y03022*
X02183Y03012*
X02189Y03003*
X02196Y02995*
X02205Y0299*
X02214Y02988*
X02213Y02983*
X02179*
X02178Y02983*
X02099*
X0208Y03002*
Y03013*
X02085Y03014*
X02085Y03013*
X0209Y03004*
X02097Y02997*
X02106Y02992*
X02116Y0299*
X02126*
X02135Y02992*
X02144Y02997*
X02151Y03004*
X02156Y03013*
X02159Y03022*
Y03032*
X02156Y03042*
X02155Y03044*
X0217Y0306*
X02189*
X02192Y03055*
G37*
G36*
X02518Y02696D02*
Y02678D01*
X02513Y02676*
X02259Y0293*
Y02932*
X02256Y02942*
X02251Y02951*
X02248Y02954*
X0225Y02959*
X02255*
X02518Y02696*
G37*
G36*
X02633Y01443D02*
X0263Y01439D01*
X02628Y0144*
X02624Y01441*
X02256*
X02256Y01442*
X02251Y01451*
X02244Y01458*
X02235Y01463*
X02226Y01465*
X02216*
X02206Y01463*
X02197Y01458*
X0219Y01451*
X02185Y01442*
X02183Y01432*
Y01422*
X02185Y01413*
X02189Y01407*
X02185Y01403*
X02162Y01426*
X02159Y01429*
X02159Y01429*
Y01432*
X02156Y01442*
X02151Y01451*
X02144Y01458*
X02135Y01463*
X02126Y01465*
X02116*
X02106Y01463*
X02097Y01458*
X0209Y01451*
X02085Y01442*
X02083Y01432*
Y01422*
X02085Y01413*
X0209Y01404*
X02097Y01397*
X02106Y01392*
X02116Y0139*
X02126*
X02135Y01392*
X02144Y01397*
X02151Y01404*
X02192Y01362*
X02194Y01361*
X02195Y01356*
X02195Y01355*
X0219Y01351*
X02185Y01342*
X02183Y01332*
Y01322*
X02185Y01313*
X0219Y01304*
X02197Y01297*
X02206Y01292*
X02216Y0129*
X02226*
X02235Y01292*
X02244Y01297*
X02251Y01304*
X02256Y01313*
X02257Y01317*
X02646*
X02646Y01317*
X02654Y01316*
X02656Y01314*
X0266Y01311*
X02662Y01308*
X02663Y01305*
X02662Y01302*
X02661Y013*
X02658Y01296*
X02603Y01241*
X02603Y01241*
X02596Y01233*
X02593Y01224*
X02588Y01222*
X0253Y0128*
X02526Y01282*
X02522Y01283*
X02129*
X02129Y01288*
X02136Y0129*
X02145Y01295*
X02153Y01303*
X02158Y01312*
X02161Y01322*
Y01322*
X02121*
X02081*
Y01322*
X02083Y01312*
X02089Y01303*
X02096Y01295*
X02105Y0129*
X02113Y01288*
X02112Y01283*
X02095*
X02086Y01292*
Y01292*
X0207Y01308*
Y01344*
Y01417*
X0207Y01417*
Y01441*
X021Y01471*
X02124*
X02125Y01471*
X02125*
X02196*
X02201Y01472*
X02205Y01474*
X0222Y0149*
X02226*
X02235Y01492*
X02244Y01497*
X02251Y01504*
X02256Y01513*
X02259Y01522*
Y01532*
X02256Y01542*
X02251Y01551*
X02248Y01554*
X0225Y01559*
X02517*
X02633Y01443*
G37*
G36*
X0265Y01386D02*
X02647Y01382D01*
X02642Y01383*
X02206*
X02197Y01392*
X022Y01396*
X02206Y01392*
X02216Y0139*
X02226*
X02235Y01392*
X02244Y01397*
X02251Y01404*
X02256Y01413*
X02257Y01417*
X02619*
X0265Y01386*
G37*
G36*
X0265Y01345D02*
X02648Y01341D01*
X02646Y01341*
Y01341*
X02256*
X02256Y01342*
X02251Y01351*
X02248Y01354*
X0225Y01359*
X02637*
X0265Y01345*
G37*
G36*
X02938Y01058D02*
X02936Y01052D01*
X02929Y01051*
X02919Y01047*
X02909Y0104*
X02906Y01036*
X02862Y00992*
X02862Y00992*
X02858Y00991*
X02858Y00991*
X02857*
X02857Y00991*
X02849Y00992*
X02847Y00994*
X02843Y00997*
X02843Y00997*
X02842Y01*
X02842Y01003*
X02843Y01006*
X02845Y01009*
X02845Y01009*
X02901Y01065*
X02901Y01065*
X02906Y01071*
X02909Y01079*
X02909Y0108*
X02914Y01082*
X02938Y01058*
G37*
G36*
X02875Y01097D02*
X02878Y01095D01*
X02878Y01095*
X02882Y01091*
X02886Y01087*
X02886Y01087*
X02884Y01083*
X02884Y01082*
X02884Y01082*
X02828Y01026*
X02828Y01026*
X02822Y01019*
X02819Y01011*
X02818Y01001*
X02817Y01*
X02811Y00999*
X02783Y01027*
X02786Y01031*
X0279Y0103*
X0279Y0103*
Y0103*
X02793Y0103*
X02795Y0103*
X02798Y0103*
X02798Y0103*
X02803Y01032*
X02811Y01036*
X02811Y01037*
X02868Y01094*
X02872Y01097*
X02875Y01097*
G37*
G36*
X02943Y01028D02*
X02943D01*
X02949Y01022*
X02949Y01022*
X0295Y01021*
X0295Y01015*
X0295Y01014*
X02925Y00989*
X02925Y00989*
X0292Y00983*
X02917Y00976*
X02916Y00969*
X02916*
X02917Y0096*
X02921Y00952*
X02926Y00945*
X02926Y00945*
Y00945*
X02958Y00913*
X02959Y00913*
X02969Y009*
X02977Y00885*
X02982Y00868*
X02984Y00852*
X02984Y00851*
Y00833*
X02979Y00831*
X02847Y00963*
X02849Y00967*
X02857Y00966*
X02862Y00967*
X02866Y00968*
X02873Y00971*
X02879Y00975*
X02879Y00975*
X02926Y01023*
X0293Y01025*
X02933Y01027*
X02937Y01028*
X02939Y01028*
X02943Y01028*
G37*
G36*
X03023Y00972D02*
Y0081D01*
X03008*
Y00851*
X03008*
X03007Y00869*
X03003Y00886*
X02996Y00902*
X02987Y00917*
X02975Y0093*
X02975Y0093*
X02943Y00963*
X02943Y00963*
X02941Y00965*
X02941Y00968*
X02941Y00971*
X02942Y00973*
X02973Y01004*
X02976Y01008*
X02977Y01012*
X02978Y01013*
X02982Y01014*
X03023Y00972*
G37*
%LNotpcb_copper_signal_bot-4*%
%LPC*%
G36*
X02126Y01367D02*
X02126D01*
Y01332*
X02161*
Y01333*
X02158Y01343*
X02153Y01352*
X02145Y01359*
X02136Y01365*
X02126Y01367*
G37*
G36*
X02116D02*
X02115D01*
X02105Y01365*
X02096Y01359*
X02089Y01352*
X02083Y01343*
X02081Y01333*
Y01332*
X02116*
Y01367*
G37*
%LNotpcb_copper_signal_bot-5*%
%LPD*%
G36*
X03018Y01724D02*
X03023Y01723D01*
Y01686*
X02991Y01654*
X02957*
X02955Y01659*
X02956Y0166*
X02959Y01667*
Y01673*
X02985Y01699*
X02988Y01703*
X02989Y01708*
Y01724*
X03018*
G37*
G54D10*
X02996Y00851D02*
D01*
X02996Y00858*
X02995Y00865*
X02994Y00872*
X02992Y00879*
X0299Y00885*
X02987Y00892*
X02984Y00898*
X02981Y00904*
X02977Y0091*
X02973Y00915*
X02968Y0092*
X02967Y00922*
X02928Y00969D02*
D01*
X02928Y00967*
X02928Y00966*
X02929Y00964*
X02929Y00963*
X0293Y00962*
X0293Y0096*
X02931Y00959*
X02931Y00958*
X02932Y00957*
X02933Y00955*
X02934Y00954*
X02934Y00954*
X02933Y00981D02*
D01*
X02932Y0098*
X02932Y00979*
X02931Y00978*
X0293Y00977*
X0293Y00976*
X02929Y00975*
X02929Y00974*
X02929Y00973*
X02928Y00971*
X02928Y0097*
X02928Y00969*
X02928Y00969*
X02965Y01019D02*
D01*
X02965Y01019*
X02965Y0102*
X02965Y01021*
X02964Y01022*
X02964Y01023*
X02964Y01023*
X02963Y01024*
X02963Y01025*
X02963Y01026*
X02962Y01026*
X02961Y01027*
X02961Y01027*
X02952Y01036D02*
D01*
X02951Y01037*
X0295Y01038*
X0295Y01038*
X02949Y01039*
X02948Y01039*
X02947Y0104*
X02946Y0104*
X02945Y0104*
X02944Y01041*
X02943Y01041*
X02941Y01041*
X02941Y01041*
D01*
X02939Y01041*
X02937Y01041*
X02934Y0104*
X02932Y0104*
X0293Y01039*
X02928Y01038*
X02926Y01037*
X02924Y01036*
X02922Y01034*
X0292Y01033*
X02918Y01032*
X02918Y01031*
X02858Y00979D02*
D01*
X02859Y00979*
X0286Y00979*
X02862Y00979*
X02863Y00979*
X02864Y0098*
X02865Y0098*
X02866Y00981*
X02867Y00981*
X02868Y00982*
X02869Y00983*
X0287Y00984*
X02871Y00984*
X02834Y00988D02*
D01*
X02836Y00987*
X02838Y00985*
X02839Y00984*
X02841Y00983*
X02843Y00982*
X02845Y00981*
X02848Y0098*
X0285Y00979*
X02852Y00979*
X02854Y00979*
X02856Y00979*
X02857Y00979*
X0283Y00999D02*
D01*
X0283Y00998*
X0283Y00996*
X0283Y00995*
X0283Y00994*
X02831Y00993*
X02831Y00993*
X02832Y00992*
X02832Y00991*
X02833Y0099*
X02833Y00989*
X02834Y00988*
X02834Y00988*
X02836Y01018D02*
D01*
X02835Y01016*
X02834Y01015*
X02833Y01014*
X02833Y01013*
X02832Y01011*
X02831Y0101*
X02831Y01008*
X0283Y01007*
X0283Y01005*
X0283Y01003*
X0283Y01002*
X0283Y01001*
X02892Y01073D02*
D01*
X02893Y01074*
X02894Y01075*
X02895Y01077*
X02896Y01078*
X02896Y01079*
X02897Y0108*
X02897Y01081*
X02897Y01083*
X02898Y01084*
X02898Y01085*
X02898Y01087*
X02898Y01087*
D01*
X02898Y01088*
X02898Y01089*
X02898Y01089*
X02897Y0109*
X02897Y01091*
X02897Y01092*
X02896Y01093*
X02896Y01093*
X02896Y01094*
X02895Y01095*
X02894Y01095*
X02894Y01096*
X02886Y01103D02*
D01*
X02885Y01104*
X02884Y01105*
X02883Y01106*
X02882Y01107*
X02881Y01107*
X02879Y01108*
X02878Y01108*
X02877Y01109*
X02875Y01109*
X02874Y01109*
X02873Y01109*
X02872Y01109*
D01*
X02871Y01109*
X0287Y01109*
X02869Y01109*
X02868Y01109*
X02867Y01108*
X02867Y01108*
X02866Y01108*
X02865Y01107*
X02864Y01107*
X02863Y01106*
X02862Y01105*
X02862Y01105*
X02795Y01042D02*
D01*
X02796Y01042*
X02796Y01042*
X02797Y01042*
X02798Y01042*
X02798Y01043*
X02799Y01043*
X028Y01043*
X028Y01044*
X02801Y01044*
X02801Y01044*
X02802Y01045*
X02802Y01045*
X02783Y01046D02*
D01*
X02784Y01045*
X02785Y01045*
X02786Y01044*
X02786Y01044*
X02787Y01043*
X02788Y01043*
X02789Y01043*
X0279Y01042*
X02791Y01042*
X02792Y01042*
X02793Y01042*
X02793Y01042*
X0277Y01066D02*
D01*
X0277Y01065*
X0277Y01064*
X0277Y01063*
X02771Y01062*
X02771Y01061*
X02771Y01059*
X02772Y01058*
X02773Y01057*
X02773Y01056*
X02774Y01055*
X02775Y01055*
X02775Y01054*
X02776Y01081D02*
D01*
X02775Y0108*
X02774Y01078*
X02773Y01077*
X02772Y01076*
X02772Y01075*
X02771Y01074*
X02771Y01072*
X0277Y01071*
X0277Y0107*
X0277Y01068*
X0277Y01067*
X0277Y01066*
X02833Y01138D02*
D01*
X02834Y01139*
X02834Y01139*
X02835Y0114*
X02835Y0114*
X02835Y01141*
X02835Y01141*
X02836Y01142*
X02836Y01143*
X02836Y01143*
X02836Y01144*
X02836Y01145*
X02836Y01145*
Y01148D02*
D01*
X02836Y01149*
X02836Y0115*
X02836Y01151*
X02836Y01152*
X02835Y01153*
X02835Y01153*
X02835Y01154*
X02834Y01155*
X02834Y01156*
X02833Y01156*
X02833Y01157*
X02833Y01157*
X02827Y01163D02*
D01*
X02826Y01164*
X02825Y01165*
X02823Y01165*
X02822Y01166*
X02821Y01167*
X0282Y01167*
X02818Y01168*
X02817Y01168*
X02815Y01169*
X02814Y01169*
X02812Y01169*
X02812Y01169*
D01*
X02811Y01169*
X0281Y01169*
X02809Y01169*
X02808Y01168*
X02808Y01168*
X02807Y01168*
X02806Y01167*
X02805Y01167*
X02804Y01166*
X02804Y01166*
X02803Y01165*
X02803Y01165*
X02732Y01099D02*
D01*
X02733Y01099*
X02733Y01099*
X02734Y01099*
X02735Y01099*
X02736Y01099*
X02736Y011*
X02737Y011*
X02738Y011*
X02738Y01101*
X02739Y01101*
X0274Y01102*
X0274Y01102*
X02722Y01101D02*
D01*
X02723Y01101*
X02723Y011*
X02724Y011*
X02724Y011*
X02725Y01099*
X02725Y01099*
X02726Y01099*
X02726Y01099*
X02727Y01099*
X02727Y01099*
X02728Y01099*
X02728Y01099*
X0271Y01119D02*
D01*
X0271Y01118*
X0271Y01117*
X0271Y01116*
X02711Y01115*
X02711Y01114*
X02711Y01113*
X02712Y01112*
X02712Y01112*
X02713Y01111*
X02713Y0111*
X02714Y01109*
X02714Y01109*
X02716Y01133D02*
D01*
X02715Y01132*
X02714Y01131*
X02713Y0113*
X02713Y01128*
X02712Y01127*
X02711Y01126*
X02711Y01125*
X02711Y01123*
X0271Y01122*
X0271Y01121*
X0271Y0112*
X0271Y01119*
X02772Y01189D02*
D01*
X02773Y0119*
X02773Y0119*
X02774Y01191*
X02774Y01192*
X02775Y01193*
X02775Y01194*
X02775Y01194*
X02776Y01195*
X02776Y01196*
X02776Y01197*
X02776Y01198*
X02776Y01198*
Y01203D02*
D01*
X02776Y01204*
X02776Y01204*
X02776Y01205*
X02776Y01206*
X02775Y01206*
X02775Y01207*
X02775Y01208*
X02774Y01208*
X02774Y01209*
X02774Y01209*
X02773Y0121*
X02773Y0121*
X02768Y01215D02*
D01*
X02767Y01216*
X02766Y01217*
X02765Y01217*
X02764Y01218*
X02763Y01218*
X02762Y01219*
X02761Y01219*
X0276Y0122*
X02759Y0122*
X02758Y0122*
X02756Y0122*
X02756Y0122*
X02752D02*
D01*
X02751Y0122*
X0275Y0122*
X0275Y0122*
X02749Y0122*
X02748Y01219*
X02747Y01219*
X02746Y01219*
X02746Y01218*
X02745Y01218*
X02744Y01217*
X02744Y01217*
X02744Y01216*
X02673Y0115D02*
D01*
X02673Y0115*
X02674Y0115*
X02675Y0115*
X02676Y0115*
X02676Y01151*
X02677Y01151*
X02678Y01151*
X02678Y01151*
X02679Y01152*
X02679Y01152*
X0268Y01153*
X0268Y01153*
X02658Y01186D02*
D01*
X02657Y01184*
X02656Y01183*
X02655Y01182*
X02654Y0118*
X02654Y01179*
X02653Y01177*
X02653Y01176*
X02652Y01174*
X02652Y01173*
X02652Y01171*
X02651Y01169*
X02651Y01169*
X02716Y01243D02*
D01*
X02717Y01244*
X02717Y01245*
X02718Y01246*
X02719Y01247*
X02719Y01248*
X0272Y01249*
X0272Y0125*
X0272Y01251*
X02721Y01252*
X02721Y01254*
X02721Y01255*
X02721Y01255*
D01*
X02721Y01256*
X02721Y01257*
X0272Y01258*
X0272Y01259*
X0272Y01261*
X02719Y01262*
X02719Y01263*
X02718Y01264*
X02718Y01265*
X02717Y01265*
X02716Y01266*
X02716Y01266*
X02711Y01272D02*
D01*
X0271Y01272*
X0271Y01272*
X02709Y01273*
X02709Y01273*
X02708Y01273*
X02708Y01274*
X02707Y01274*
X02706Y01274*
X02706Y01274*
X02705Y01274*
X02704Y01274*
X02704Y01274*
X02704D02*
D01*
X02702Y01274*
X02701Y01274*
X02699Y01274*
X02698Y01273*
X02696Y01273*
X02695Y01272*
X02693Y01272*
X02692Y01271*
X0269Y0127*
X02689Y01269*
X02688Y01268*
X02688Y01268*
X02614Y01205D02*
D01*
X02616Y01205*
X02618Y01206*
X0262Y01206*
X02622Y01207*
X02623Y01207*
X02625Y01208*
X02627Y01209*
X02629Y0121*
X0263Y01211*
X02632Y01212*
X02633Y01213*
X02634Y01214*
X02609Y01207D02*
D01*
X02609Y01207*
X0261Y01207*
X0261Y01206*
X0261Y01206*
X02611Y01206*
X02611Y01206*
X02612Y01206*
X02612Y01206*
X02613Y01205*
X02613Y01205*
X02614Y01205*
X02614Y01205*
X02611Y01233D02*
D01*
X0261Y01231*
X02609Y0123*
X02607Y01228*
X02607Y01227*
X02606Y01225*
X02605Y01223*
X02604Y01221*
X02604Y01219*
X02603Y01218*
X02603Y01216*
X02603Y01214*
X02603Y01213*
X0267Y01291D02*
D01*
X0267Y01292*
X02671Y01293*
X02672Y01294*
X02673Y01295*
X02673Y01296*
X02674Y01297*
X02674Y01298*
X02674Y013*
X02674Y01301*
X02675Y01302*
X02675Y01303*
X02675Y01303*
Y01305D02*
D01*
X02675Y01307*
X02675Y01308*
X02674Y0131*
X02674Y01311*
X02673Y01312*
X02673Y01314*
X02672Y01315*
X02672Y01316*
X02671Y01317*
X0267Y01318*
X02669Y01319*
X02669Y0132*
D01*
X02667Y01321*
X02665Y01323*
X02664Y01324*
X02662Y01325*
X0266Y01326*
X02658Y01327*
X02655Y01328*
X02653Y01328*
X02651Y01329*
X02649Y01329*
X02647Y01329*
X02646Y01329*
X02142Y0142D02*
X02145Y01417D01*
X02142Y0142D02*
Y01429D01*
X02145Y01417D02*
X02154D01*
X02201Y01371D02*
X02642D01*
X02154Y01417D02*
X02201Y01371D01*
X02021Y01053D02*
Y01233D01*
X02038Y0125*
X02021Y0101D02*
Y01053D01*
D01*
Y0101D02*
X02061Y0097D01*
X02142Y01529D02*
Y01529D01*
X02145Y01531*
X02158*
X02197Y01571*
X02522*
X02272Y02981D02*
Y03058D01*
X02258Y03072D02*
X02272Y03058D01*
X02165Y03072D02*
X02258D01*
X02121Y03027D02*
X02165Y03072D01*
X02272Y02981D02*
X02548Y02705D01*
Y02335D02*
Y02705D01*
X02178Y02971D02*
X0226D01*
X0253Y02701*
X02094Y02971D02*
X02178D01*
X02178Y02971*
X02068Y03075D02*
X02121Y03127D01*
X02068Y02997D02*
Y03075D01*
Y02997D02*
X02094Y02971D01*
X02038Y0125D02*
Y01745D01*
X02058Y01344D02*
Y01417D01*
X02058Y01417D02*
Y01446D01*
X02121Y01483D02*
X02125D01*
X02058Y01417D02*
X02058Y01417D01*
X02125Y01483D02*
X02125Y01483D01*
X02076Y01465D02*
X02095Y01483D01*
X02058Y01446D02*
X02076Y01465D01*
X02095Y01483D02*
X02121D01*
X02077Y01284D02*
X0209Y01271D01*
X02058Y01303D02*
X02077Y01284D01*
X0209Y01271D02*
X02522D01*
X02058Y01303D02*
Y01344D01*
X02522Y01271D02*
X02974Y00818D01*
X02125Y01483D02*
X02196D01*
X02038Y01745D02*
X02121Y01827D01*
X02489Y02318D02*
X02495D01*
X02506Y02329D02*
Y02665D01*
X02495Y02318D02*
X02506Y02329D01*
X03017Y00709D02*
X03018Y00708D01*
X03017Y00709D02*
Y00772D01*
X03016Y00773D02*
X03017Y00772D01*
X03501Y01641D02*
X03568Y01709D01*
X03297Y01641D02*
X03501D01*
X03192Y01747D02*
X03297Y01641D01*
X03188Y01747D02*
X03192D01*
X03285Y02433D02*
X03491Y02639D01*
X03285Y01806D02*
Y02433D01*
X03361Y02781D02*
X03442Y02862D01*
X03361Y0261D02*
Y02781D01*
X03188Y02437D02*
X03361Y0261D01*
X03188Y01806D02*
Y02437D01*
X02991Y02474D02*
X03089Y02572D01*
X02991Y01807D02*
Y02474D01*
X02886Y02744D02*
X02998Y02857D01*
X02886Y01661D02*
Y02744D01*
Y01661D02*
X02904Y01642D01*
X02996*
X03035Y01681*
Y01756*
X03085Y01807*
X03089*
X0314Y01664D02*
Y01697D01*
X03105Y01732D02*
X0314Y01697D01*
X03105Y01732D02*
Y01736D01*
X03093Y01748D02*
X03105Y01736D01*
X03089Y01748D02*
X03093D01*
X03893Y01795D02*
X04023D01*
X03699Y01601D02*
X03893Y01795D01*
X02816Y01601D02*
X03699D01*
X02642Y01776D02*
X02816Y01601D01*
X02642Y01776D02*
Y01946D01*
X04023Y01795D02*
X04086Y01732D01*
X04353Y02577D02*
Y02583D01*
X04393Y02624*
Y02627*
X03852Y02626D02*
X0389D01*
X03879Y02761D02*
X03915Y02726D01*
Y02651D02*
Y02726D01*
X0389Y02626D02*
X03915Y02651D01*
X0385Y02628D02*
X03852Y02626D01*
X03879Y02761D02*
Y02778D01*
X03864Y02794D02*
X03879Y02778D01*
X03862Y02794D02*
X03864D01*
X04053Y02628D02*
Y02632D01*
X04098Y02678*
Y02745*
X04082Y0276D02*
X04098Y02745D01*
X04082Y0276D02*
Y02779D01*
X04066Y02795D02*
X04082Y02779D01*
X04064Y02795D02*
X04066D01*
X04452Y02627D02*
X04483D01*
X04523Y02667*
Y02755*
X04498Y02779D02*
X04523Y02755D01*
X04477Y02779D02*
X04498D01*
X04461Y02795D02*
X04477Y02779D01*
X03724Y029D02*
X03775Y02849D01*
Y02756D02*
Y02849D01*
X03938Y00966D02*
X04031Y00873D01*
X03796Y00966D02*
X03938D01*
X04031Y00752D02*
Y00873D01*
X03833Y00554D02*
X04031Y00752D01*
X02625Y00554D02*
X03833D01*
X02522Y00657D02*
X02625Y00554D01*
X02522Y00657D02*
Y01014D01*
X03923Y00771D02*
Y00811D01*
X03705Y00773D02*
Y00796D01*
X03685Y00726D02*
Y00773D01*
X03665Y00731D02*
Y00773D01*
Y00731D02*
X03677Y00719D01*
X03685Y00726*
X03639Y00719D02*
X03677D01*
X03685Y00773D02*
Y00906D01*
X03705Y00796D02*
X03719Y00811D01*
X03864*
X03707Y00928D02*
X03709D01*
X03685Y00906D02*
X03707Y00928D01*
X03567Y00773D02*
X03587D01*
X03547D02*
X03567D01*
X03587Y00712D02*
Y00773D01*
X03547Y00749D02*
Y00773D01*
X03583Y00709D02*
X03587Y00712D01*
X03639Y00719D02*
X03646Y00725D01*
Y00773*
X03626Y00732D02*
X03639Y00719D01*
X03626Y00732D02*
Y00773D01*
X03914Y00821D02*
X03923Y00811D01*
X03055Y01327D02*
X03527Y00855D01*
Y00773D02*
Y00855D01*
X02943Y01327D02*
X03055D01*
X02651Y01168D02*
X02654Y01166D01*
X02656Y01164D02*
X02668Y01152D01*
X02654Y01166D02*
X02656Y01164D01*
X02668Y01152D02*
X02673Y0115D01*
X02974Y00775D02*
Y00818D01*
X02996Y00773D02*
Y00851D01*
X02974Y00775D02*
X02976Y00773D01*
X02957Y00724D02*
X02973Y00707D01*
X02957Y00724D02*
Y00773D01*
X02934Y00954D02*
X02967Y00922D01*
X02933Y00981D02*
X02965Y01012D01*
Y01019*
X02952Y01036D02*
X02961Y01027D01*
X02871Y00984D02*
X02918Y01031D01*
X02857Y00979D02*
X02858D01*
X0283Y00999D02*
Y01001D01*
X02836Y01018D02*
X02892Y01073D01*
X02886Y01103D02*
X02894Y01096D01*
X02802Y01045D02*
X02862Y01105D01*
X02793Y01042D02*
X02795D01*
X02775Y01054D02*
X02783Y01046D01*
X02776Y01081D02*
X02833Y01138D01*
X02836Y01145D02*
Y01148D01*
X02827Y01163D02*
X02833Y01157D01*
X0274Y01102D02*
X02803Y01165D01*
X02728Y01099D02*
X02732D01*
X02714Y01109D02*
X02722Y01101D01*
X02716Y01133D02*
X02772Y01189D01*
X02776Y01198D02*
Y01203D01*
X02768Y01215D02*
X02773Y0121D01*
X02752Y0122D02*
X02756D01*
X0268Y01153D02*
X02744Y01216D01*
X02651Y01168D02*
Y01169D01*
X02658Y01186D02*
X02716Y01243D01*
X02711Y01272D02*
X02716Y01266D01*
X02704Y01274D02*
X02704D01*
X02634Y01214D02*
X02688Y01268D01*
X02603Y01213D02*
X02609Y01207D01*
X02642Y01371D02*
X03035Y00977D01*
X02624Y01429D02*
X03055Y00998D01*
X02522Y01571D02*
X03075Y01018D01*
X02611Y01233D02*
X0267Y01291D01*
X02675Y01303D02*
Y01305D01*
X02242Y01329D02*
X02646D01*
X02898Y00773D02*
Y00824D01*
X02792Y00866D02*
X02856D01*
X02898Y00749D02*
Y00773D01*
X02856Y00866D02*
X02898Y00824D01*
X02791Y00867D02*
X02792Y00866D01*
X03035Y00773D02*
Y00977D01*
X02242Y01429D02*
X02624D01*
X03055Y00773D02*
Y00998D01*
X03075Y00773D02*
Y01018D01*
X02196Y01483D02*
X02242Y01529D01*
X02792Y00868D02*
Y00927D01*
X02791Y00867D02*
X02792Y00868D01*
X02917Y00722D02*
X02918Y00722D01*
X02917Y00722D02*
Y00739D01*
X02927*
X02917Y00773D02*
X02917Y00773D01*
X02937*
Y00749D02*
Y00773D01*
X02927Y00739D02*
X02937Y00749D01*
X02908Y00739D02*
X02917D01*
X02898Y00749D02*
X02908Y00739D01*
X02061Y0097D02*
X02419D01*
X02451Y00998D02*
X02463Y0101D01*
X02419Y0097D02*
X02447Y00998D01*
X02451*
X02463Y0101D02*
Y01014D01*
X04086Y01732D02*
X04417D01*
X04612Y01927*
X02457Y02309D02*
X02491Y02275D01*
X02457Y02309D02*
Y02614D01*
X02242Y02829D02*
X02457Y02614D01*
X02242Y02929D02*
X02506Y02665D01*
X0253Y02675D02*
Y02701D01*
Y02431D02*
Y02675D01*
D01*
X04938Y01899D02*
X05074D01*
X04915Y01876D02*
X04938Y01899D01*
X05276Y01533D02*
X05281D01*
X05247Y01504D02*
X05276Y01533D01*
X05191Y01504D02*
X05247D01*
X05131Y01528D02*
X05136D01*
X0514Y01524*
X05172*
X05191Y01504*
X05108Y01929D02*
X05171D01*
X05074Y01899D02*
X05104Y01929D01*
X05032Y01845D02*
X05073D01*
X05084Y01856*
X05089*
X05993Y02425D02*
Y02436D01*
Y02431D02*
Y02436D01*
X0514Y02443D02*
X05179Y02404D01*
X05013Y02443D02*
X0514D01*
X04998Y02428D02*
X05013Y02443D01*
X04994Y02428D02*
X04998D01*
X06136Y02719D02*
X0614Y02723D01*
X06136Y02664D02*
X06144D01*
X0614Y02723D02*
Y0275D01*
X06144Y02664D02*
X06152Y02656D01*
X05894Y01878D02*
Y0188D01*
X05906Y01867D02*
X05947D01*
X05894Y01878D02*
X05906Y01867D01*
X06001Y02608D02*
X06002Y0261D01*
X0613Y02608D02*
Y02654D01*
X06002Y0261D02*
Y02664D01*
X0613Y02654D02*
X06136Y0266D01*
X06061Y02664D02*
X06136D01*
X06366Y02518D02*
Y02522D01*
Y02518D02*
X064Y02484D01*
Y02455D02*
Y02484D01*
Y02455D02*
X06401D01*
X06418Y02473*
X06894D02*
X07301Y02065D01*
X06443Y02423D02*
X06707D01*
X06418Y02473D02*
X06894D01*
X06707Y02423D02*
X0673Y02447D01*
X04845Y01833D02*
Y01917D01*
X04876Y01872D02*
X0488Y01876D01*
Y01894*
X04915Y01929*
X04845Y01917D02*
X04856Y01929D01*
X04915D02*
X04919D01*
X05392Y01754D02*
Y01776D01*
X05254Y01914D02*
X05392Y01776D01*
X05238Y01929D02*
X05242D01*
X05104D02*
X05108D01*
X05254Y01914D02*
Y01917D01*
X05242Y01929D02*
X05254Y01917D01*
X05991Y02427D02*
X05995Y02431D01*
X05993Y02425D02*
X05993Y02424D01*
X0585Y02416D02*
X05978D01*
X05989Y02427*
G54D15*
X05404Y0197D03*
Y01912D03*
X05042Y0226D03*
Y02201D03*
X04961Y02266D03*
Y02207D03*
X05399Y02301D03*
Y02359D03*
X05237Y0217D03*
Y02228D03*
X05113Y0226D03*
Y02201D03*
X0616Y01579D03*
Y01638D03*
X0603Y01583D03*
Y01641D03*
X05947Y01867D03*
Y01925D03*
X05254Y02066D03*
Y02124D03*
X05281Y01533D03*
Y01592D03*
X06226Y01639D03*
Y0158D03*
X06353Y01815D03*
Y01873D03*
X06398Y02221D03*
Y02163D03*
X06322Y02227D03*
Y02169D03*
X06269Y02229D03*
Y02171D03*
X06309Y0248D03*
Y02422D03*
G54D22*
X03188Y01806D03*
Y01747D03*
X03285Y01806D03*
Y01747D03*
X03089Y01807D03*
Y01748D03*
X02991Y01807D03*
Y01748D03*
X05108Y01929D03*
Y01988D03*
X05171Y01929D03*
Y01988D03*
X05238D03*
Y01929D03*
X04919D03*
Y01988D03*
X04982D03*
Y01929D03*
X05041Y01933D03*
Y01992D03*
X06388Y01443D03*
Y01384D03*
X0586Y01614D03*
Y01555D03*
X04856Y01929D03*
Y01988D03*
X06136Y02719D03*
Y0266D03*
X06321Y02122D03*
Y02063D03*
X06291Y01829D03*
Y01888D03*
X06143Y01836D03*
Y01895D03*
X05782Y01823D03*
Y01882D03*
X06376Y02122D03*
Y02063D03*
X06423Y01784D03*
Y01843D03*
X06431Y02122D03*
Y02063D03*
X06494Y02811D03*
Y02752D03*
X06573D03*
Y02811D03*
X06652D03*
Y02752D03*
X06585Y01386D03*
Y01327D03*
X06664Y01386D03*
Y01327D03*
X06742Y01386D03*
Y01327D03*
X05665Y02797D03*
Y02738D03*
G54D25*
X04452Y02627D03*
X04393D03*
X0385Y02628D03*
X03791D03*
X04196Y02627D03*
X04255D03*
X04053Y02628D03*
X03994D03*
X02522Y01014D03*
X02463D03*
X03864Y00811D03*
X03923D03*
X05032Y01845D03*
X04973D03*
X05659Y02661D03*
X05718D03*
X05993Y02436D03*
X06052D03*
X05894Y0188D03*
X05835D03*
X06002Y02664D03*
X06061D03*
X06311Y0238D03*
X06252D03*
X06318Y02532D03*
X06377D03*
X05878Y01951D03*
X05819D03*
X07587Y01384D03*
X07528D03*
G54D27*
X02735Y00925D03*
X02794D03*
X02733Y00867D03*
X02791D03*
X04953Y01455D03*
X04894D03*
X0496Y01561D03*
X04902D03*
X05087Y01864D03*
X05145D03*
X04802Y02177D03*
X0486D03*
X05404Y02213D03*
X05462D03*
X06001Y02608D03*
X06059D03*
X0613D03*
X06189D03*
X06437Y02368D03*
X06378D03*
X04668Y0222D03*
X0461D03*
X0585Y02416D03*
X05792D03*
X04851Y02271D03*
X04793D03*
X07412Y01455D03*
X07471D03*
X0741Y01384D03*
X07468D03*
X07634D03*
X07693D03*
X07487Y02734D03*
X07545D03*
X07587D03*
X07645D03*
X06317Y0171D03*
X06376D03*
X06155Y01716D03*
X06097D03*
X06292Y01765D03*
X0635D03*
X06156Y01775D03*
X06098D03*
X06447Y02218D03*
X06506D03*
X06306Y0261D03*
X06247D03*
X06189Y02281D03*
X0613D03*
X06561Y01658D03*
X06619D03*
X06496Y01719D03*
X06438D03*
G54D36*
X06522Y02022D03*
Y02136D03*
G54D37*
X06378Y01616D03*
X06492D03*
X06662Y02325D03*
X06776D03*
X05488Y02014D03*
X05603D03*
G54D94*
X04811Y01586D02*
Y02D01*
X04782Y01557D02*
X04811Y01586D01*
X03366Y01678D02*
X03368Y01675D01*
X03358Y01678D02*
X03366D01*
X03289Y01747D02*
X03358Y01678D01*
X03285Y01747D02*
X03289D01*
X02939Y01671D02*
X02976Y01708D01*
Y01737*
X02987Y01748*
X02991*
X0377Y01534D02*
X03939Y01703D01*
X04151Y02579D02*
X04196Y02624D01*
X03744Y02578D02*
X03791Y02625D01*
X03744Y02575D02*
Y02578D01*
X03791Y02625D02*
Y02628D01*
X0395Y02564D02*
Y02581D01*
X03994Y02625*
Y02628*
X04151Y02568D02*
Y02579D01*
X04196Y02624D02*
Y02627D01*
X03927Y02755D02*
X03976D01*
X03978Y02757*
X04255Y02627D02*
Y02631D01*
X04299Y02675*
Y02761*
X04266Y02794D02*
X04299Y02761D01*
X04264Y02794D02*
X04266D01*
X04035Y02985D02*
X04145D01*
X04373Y02757*
X04375*
X0417Y02819D02*
Y02823D01*
Y02819D02*
X04178Y02811D01*
Y02756D02*
Y02811D01*
X0253Y01782D02*
Y02431D01*
Y01782D02*
X02778Y01534D01*
X03782Y02619D02*
X03791Y02628D01*
X04191Y02622D02*
X04196Y02627D01*
X04962Y01563D02*
X04988D01*
X0496Y01561D02*
X04962Y01563D01*
X05053Y01596D02*
Y01616D01*
X05042Y01581D02*
X05054Y01594D01*
X04988Y01563D02*
X05006Y01581D01*
X05042*
X05053Y01596D02*
X05053Y01596D01*
X05206Y01821D02*
X05245D01*
X04817Y01329D02*
X05379Y00767D01*
X05083Y01319D02*
X05094D01*
X04953Y0145D02*
X05083Y01319D01*
X04817Y01329D02*
Y01533D01*
X04953Y0145D02*
Y01455D01*
X04819Y02064D02*
X05252D01*
X05037Y01798D02*
X05041Y01801D01*
X05068*
X05091Y01824*
X0516Y01821D02*
X05206D01*
X05206Y01821*
X04982Y01988D02*
D01*
Y01998D01*
X04817Y01533D02*
X04901Y01616D01*
X05396Y01971D02*
X05409D01*
X05417Y01978*
Y01992*
X05439Y02014*
X06054Y02412D02*
Y02467D01*
X06061Y02474*
Y02534*
X04802Y02177D02*
Y02183D01*
X04878Y02026D02*
X0491Y01994D01*
X04811Y02D02*
X04837Y02026D01*
X04878*
X04802Y02183D02*
Y02257D01*
X04817Y02061D02*
X04819Y02064D01*
X04802Y02183D02*
X04843Y02224D01*
X0504Y02263D02*
X05042Y0226D01*
X04964Y02263D02*
X0504D01*
X04961Y02266D02*
X04964Y02263D01*
X04843Y02224D02*
X04903D01*
X05042Y0226D02*
X05113D01*
X07412Y0145D02*
X07442Y0142D01*
X07412Y0145D02*
Y01454D01*
Y01455*
X07412Y0136D02*
Y01382D01*
X07587Y01384D02*
X07591Y0138D01*
X07528Y01384D02*
X0753Y01382D01*
X0741Y01384D02*
X07412Y01382D01*
X07587Y01384D02*
X07634D01*
X07528D02*
Y01388D01*
X07496Y0142D02*
X07528Y01388D01*
X07442Y0142D02*
X07496D01*
X07416Y01094D02*
X07426Y01104D01*
X07486Y01073D02*
X07498Y01085D01*
X07426Y01104D02*
X07454D01*
X07455Y01104*
X07498Y01085D02*
Y01138D01*
X07404Y0112D02*
X07427Y01144D01*
X07492D02*
X07498Y01138D01*
X07427Y01144D02*
X07492D01*
X074Y01309D02*
X07516Y01193D01*
X07591Y01343D02*
Y0138D01*
X07435Y01337D02*
X0753D01*
Y01382*
X07412Y0136D02*
X07435Y01337D01*
X06419Y02746D02*
X06423Y0275D01*
X06429*
X0649Y02811*
X06494*
Y02716D02*
Y02752D01*
Y02716D02*
X06502Y02708D01*
X06573Y02811D02*
X06577D01*
X06502Y02703D02*
Y02708D01*
X06494Y02811D02*
X06573D01*
X06577D02*
X06588Y02822D01*
X06577Y02811D02*
X06652D01*
X06502Y02644D02*
X0673D01*
X06652Y02752D02*
X06656D01*
X06715Y02692*
X06711Y02789D02*
Y02793D01*
X06459Y02569D02*
X06982D01*
X06711Y02789D02*
X06719Y02781D01*
X06715Y02683D02*
Y02692D01*
Y02683D02*
X06719Y02679D01*
Y02781*
X0655Y02612D02*
X06927D01*
X06588Y02822D02*
Y02826D01*
X0665Y02888*
X0712Y02837D02*
X07121Y02836D01*
X07305Y02573D02*
X07309D01*
X07126Y02646D02*
X07238Y02534D01*
Y02403D02*
Y02534D01*
Y02403D02*
X0725Y02391D01*
Y02388D02*
Y02391D01*
X07286Y02447D02*
Y02545D01*
X07132Y02313D02*
X07353Y02093D01*
X07419Y02589D02*
X07522D01*
X07376Y02632D02*
X07419Y02589D01*
X07121Y02808D02*
X07345Y02585D01*
X07376Y02632D02*
Y02738D01*
X07384Y02746*
X07121Y02808D02*
Y02836D01*
X06321Y02122D02*
X06376D01*
X06317Y02041D02*
Y02059D01*
X06321Y02063*
X06032Y00767D02*
X0642Y01156D01*
X06234Y01037D02*
X06358Y01161D01*
X0642Y01156D02*
Y01432D01*
X06351Y01281D02*
X06388Y01318D01*
Y01384*
X06401Y01452D02*
X0642Y01432D01*
X06388Y01465D02*
X06401Y01452D01*
X0616Y01463D02*
Y01579D01*
X0622Y01639D02*
X06226D01*
X06163Y01695D02*
X0622Y01639D01*
X06163Y01695D02*
Y01705D01*
X06159Y0171D02*
X06163Y01705D01*
X06156Y01713D02*
Y01774D01*
X06282Y01817D02*
X06291D01*
X06295Y01821*
X06156Y01774D02*
X06156Y01775D01*
X05819Y019D02*
Y01951D01*
X05835Y0188D02*
Y01884D01*
X05819Y019D02*
X05835Y01884D01*
X05864Y01549D02*
Y01551D01*
X0586Y01555D02*
X05864Y01551D01*
X0603Y01583D02*
X06078Y01535D01*
X05854Y0162D02*
X0586Y01614D01*
X05817Y0162D02*
X05854D01*
X05943Y01929D02*
X05947Y01925D01*
X05252Y02064D02*
X05254Y02066D01*
X05531Y02416D02*
X05718Y02603D01*
Y02624*
X05718Y02625D02*
X05718Y02624D01*
X06508Y02122D02*
X06522Y02136D01*
X06444Y02221D02*
X06447Y02218D01*
X06395Y02218D02*
X06398Y02221D01*
X06444*
X06597Y0225D02*
X06686D01*
X06324Y02218D02*
X06395D01*
X06304Y02229D02*
X06311Y02222D01*
X06235Y02229D02*
X06269D01*
X06304D02*
X06328D01*
X06269D02*
X06304D01*
X06276Y02512D02*
Y02549D01*
X06239Y02513D02*
Y02551D01*
X06152Y02426D02*
X06239Y02513D01*
X0616Y02397D02*
X06236Y02472D01*
X06236D02*
X06276Y02512D01*
X06307Y02482D02*
Y02522D01*
Y02482D02*
X06309Y0248D01*
X06317Y02472*
X06338*
X06442Y02368*
X06378Y02369D02*
Y02388D01*
X06442Y02368D02*
X06443D01*
X06378Y02369D02*
X06378Y02368D01*
X07132Y02313D02*
Y02474D01*
X06902Y02502D02*
X07328Y02076D01*
X06538Y02601D02*
X0655Y02612D01*
X06435Y02545D02*
X06459Y02569D01*
X06534Y02601D02*
X06538D01*
X06478Y0262D02*
X06502Y02644D01*
X0673D02*
X06778Y02691D01*
X06915*
X06864Y02774D02*
Y02813D01*
Y02774D02*
X06992Y02646D01*
X06959Y02811D02*
X06998Y02771D01*
Y0277D02*
Y02771D01*
X06427Y02502D02*
X06902D01*
X06686Y0225D02*
X0672Y02285D01*
X06745*
X06776Y02315*
Y02325*
X06276Y02549D02*
X06312Y02585D01*
Y02603*
X06306Y0261D02*
X06312Y02603D01*
X06108Y0236D02*
X06232D01*
X06189Y02275D02*
Y02281D01*
Y02275D02*
X06235Y02229D01*
X06232Y0236D02*
X06237Y02365D01*
X06241*
X06252Y02376*
Y0238*
X07049Y02829D02*
X07305Y02573D01*
X06915Y02691D02*
X07132Y02474D01*
X06998Y0277D02*
X07061D01*
X06992Y02646D02*
X07126D01*
X07061Y0277D02*
X07286Y02545D01*
X02548Y01831D02*
X02813Y01565D01*
X04504Y00658D02*
Y00764D01*
X04402Y00555D02*
X04504Y00658D01*
X04329Y00512D02*
X04504D01*
X04305Y00536D02*
X04329Y00512D01*
X02778Y01534D02*
X0377D01*
X02813Y01565D02*
X03727D01*
X039Y01738*
X0491Y01994D02*
X04915D01*
X05446Y01076D02*
X05454Y01084D01*
X05474*
X05621Y0123*
X05368Y01301D02*
X05443Y01376D01*
Y01623*
X05091Y01824D02*
X05157D01*
X0516Y01821*
X05245Y01821D02*
X05443Y01623D01*
X05575Y01277D02*
Y0136D01*
X05841Y01037D02*
X06234D01*
X05833Y01044D02*
X05841Y01037D01*
X05807Y01044D02*
X05833D01*
X05621Y0123D02*
X05807Y01044D01*
X06078Y01456D02*
Y01535D01*
X05575Y01277D02*
X05621Y0123D01*
X05379Y00767D02*
X06032D01*
X05782Y01882D02*
X05833D01*
X05943Y01929D02*
Y01951D01*
X06423Y01843D02*
X06425Y01841D01*
X06492Y01478D02*
X0657Y01401D01*
X06581Y01386D02*
X06585D01*
X06738*
X0657Y01397D02*
X06581Y01386D01*
X0657Y01397D02*
Y01401D01*
X06705Y01452D02*
X06728Y01429D01*
X06705Y01452D02*
Y01457D01*
X0647Y0175D02*
X06496Y01724D01*
X06492Y01478D02*
Y01616D01*
X06496Y0162*
Y01724*
X06431Y02122D02*
X06508D01*
X06376D02*
X06431D01*
X06368Y02055D02*
X06376Y02063D01*
X06368Y02045D02*
Y02055D01*
X06431Y02053D02*
Y02063D01*
X06801Y01073D02*
X07486D01*
X06848Y01094D02*
X07416D01*
X06723Y01152D02*
X06801Y01073D01*
X07516Y00884D02*
Y01193D01*
X06738Y01203D02*
X06848Y01094D01*
X07187Y01317D02*
X07238Y01266D01*
X06738Y01323D02*
X06742Y01327D01*
X07207Y01341D02*
X07293Y01254D01*
Y0116D02*
Y01254D01*
X07238Y01164D02*
Y01266D01*
X06738Y01203D02*
Y01323D01*
X07187Y01317D02*
Y01459D01*
X07207Y01341D02*
Y01486D01*
X07372Y01427D02*
D01*
X07391Y01446*
X07404*
X07412Y01454*
X07156Y0149D02*
X07187Y01459D01*
X07328Y02054D02*
Y02076D01*
X07279Y02038D02*
X07312D01*
X07268Y0205D02*
X07279Y02038D01*
X07312D02*
X07328Y02054D01*
X0723Y0205D02*
X07268D01*
X06728Y01397D02*
Y01429D01*
X06738Y01386D02*
X06742D01*
X06728Y01397D02*
X06738Y01386D01*
X06939Y0049D02*
X07122D01*
X07516Y00884*
X06585Y01148D02*
X06593Y0114D01*
X06664Y01211D02*
X06723Y01152D01*
X06585Y01148D02*
Y01327D01*
X06664Y01211D02*
Y01327D01*
X0647Y0175D02*
Y01766D01*
X06467Y0177D02*
X0647Y01766D01*
X06466Y0177D02*
X06467D01*
X06425Y01841D02*
X06459D01*
X06453Y01784D02*
X06466Y0177D01*
X0642Y01784D02*
X06453D01*
X06419Y01783D02*
X0642Y01784D01*
X02548Y01831D02*
Y02335D01*
X05439Y02014D02*
X05488D01*
X0607Y02397D02*
X0616D01*
X06054Y02412D02*
X0607Y02397D01*
X06098Y02428D02*
X061Y02426D01*
X05454Y02416D02*
X05531D01*
X061Y02426D02*
X06152D01*
X05718Y02625D02*
Y02661D01*
X05707Y02671D02*
X05718Y02661D01*
X05707Y02671D02*
Y02701D01*
X05669Y02738D02*
X05707Y02701D01*
X05665Y02738D02*
X05669D01*
X04792Y02266D02*
Y02275D01*
Y02266D02*
X04802Y02257D01*
G54D96*
X06028Y02599D02*
X06038Y02608D01*
X05983Y02579D02*
X06018D01*
X06028Y02589*
Y02599*
X06092Y02069D02*
X06283Y01878D01*
X06287*
X06126Y01908D02*
X06139Y01895D01*
X06143*
X05895Y01968D02*
X05957Y0203D01*
X06038D02*
X06089Y01978D01*
X06038Y02608D02*
X06059D01*
X05868Y02616D02*
X05946D01*
X06126Y01908D02*
Y02003D01*
X05891Y01968D02*
X05895D01*
X05878Y01951D02*
Y01955D01*
X05891Y01968*
X06089Y01966D02*
Y01978D01*
Y01966D02*
X06092Y01964D01*
X05946Y02616D02*
X05983Y02579D01*
X06089Y0204D02*
X06126Y02003D01*
X05957Y0203D02*
X06038D01*
X06056Y0204D02*
X06089D01*
X06035Y02061D02*
X06056Y0204D01*
X06075Y02069D02*
X06092D01*
X06035Y02061D02*
Y02125D01*
X06084Y02174*
X05631Y02797D02*
X05665D01*
X05624Y02804D02*
X05631Y02797D01*
X05619Y02804D02*
X05624D01*
G54D97*
X06175Y03353D02*
X07045D01*
X06223Y03376D02*
X07187D01*
X07061Y03337D02*
X07215D01*
X06175Y03423D02*
X06223Y03376D01*
X07045Y03353D02*
X07061Y03337D01*
X07215D02*
D01*
X07187Y03376D02*
X07246D01*
X07282Y03341*
G54D98*
X04937Y00327D03*
X05437D03*
X06348Y00322D03*
X05848D03*
G54D99*
X02221Y01327D03*
Y01427D03*
Y01527D03*
Y01627D03*
Y01727D03*
Y01827D03*
X02121Y01327D03*
Y01427D03*
Y01527D03*
Y01627D03*
Y01727D03*
Y01827D03*
X02221Y01927D03*
X02121D03*
X02221Y02027D03*
Y02127D03*
Y02227D03*
Y02327D03*
Y02427D03*
Y02527D03*
X02121Y02027D03*
Y02127D03*
Y02227D03*
Y02327D03*
Y02427D03*
Y02527D03*
X02221Y02627D03*
X02121D03*
X02221Y02727D03*
Y02827D03*
Y02927D03*
Y03027D03*
Y03127D03*
Y03227D03*
X02121Y02727D03*
Y02827D03*
Y02927D03*
Y03027D03*
Y03127D03*
G54D100*
X02121Y03227D03*
G54D101*
X02171Y03419D03*
Y01136D03*
X00242D03*
Y03419D03*
G54D102*
X07363Y02346D03*
Y02395D03*
X07388Y02321D03*
Y0237D03*
Y02419D03*
X07412Y02346D03*
Y02395D03*
X07437Y02321D03*
Y0237D03*
Y02419D03*
X07462Y02346D03*
Y02395D03*
X07368Y0092D03*
Y0097D03*
X07393Y00896D03*
Y00945D03*
Y00994D03*
X07417Y0092D03*
Y0097D03*
X07442Y00896D03*
Y00945D03*
Y00994D03*
X07467Y0092D03*
Y0097D03*
G54D103*
X06719Y00664D03*
Y00762D03*
Y0086D03*
X0675Y0201D03*
Y02108D03*
Y02207D03*
G54D104*
X07708Y01479D03*
Y01706D03*
Y03167D03*
Y0294D03*
X04781Y01863D03*
X05179Y02413D03*
X02489Y02318D03*
X07599Y02601D03*
X03018Y00708D03*
X04601Y03034D03*
X03104Y02728D03*
X03442Y02862D03*
X03491Y02639D03*
X02998Y02857D03*
X03089Y02572D03*
X03568Y01709D03*
X03939Y01703D03*
X02939Y01671D03*
X02722Y02572D03*
X03249Y0282D03*
X03255Y02601D03*
X04353Y02577D03*
X04151Y02568D03*
X0395Y02564D03*
X03744Y02575D03*
X03927Y02755D03*
X0417Y02823D03*
X04035Y02985D03*
X03724Y029D03*
X03923Y00771D03*
X03583Y00709D03*
X02943Y01327D03*
X02973Y00707D03*
X02918Y00722D03*
X02642Y01946D03*
X02599Y02034D03*
X02652Y02073D03*
X02778Y01985D03*
X02491Y02275D03*
X04398Y01177D03*
X05171Y01646D03*
X0514Y01672D03*
X05039Y01655D03*
X05053Y01616D03*
X04972Y01927D03*
X04915Y01876D03*
X04967Y0186D03*
X04966Y0179D03*
X05131Y01528D03*
X04976Y01506D03*
X04975Y01615D03*
X07412Y02549D03*
X04911Y02281D03*
X04452Y01719D03*
X06534Y02601D03*
X06573Y0275D03*
X06719Y02679D03*
X06652Y02888D03*
X06502Y02703D03*
X06864Y02813D03*
X06742Y0323D03*
X06927Y02612D03*
X06478Y0262D03*
X06711Y02793D03*
X06959Y02811D03*
X06351Y01281D03*
X06593Y0114D03*
X06705Y01457D03*
X06388Y01465D03*
X06561Y01658D03*
X06738Y01203D03*
X06939Y0049D03*
X06723Y01152D03*
X06315Y01714D03*
X06939Y0175D03*
X06467Y0177D03*
X06608Y01959D03*
X06382Y01912D03*
X06353Y01815D03*
X06425Y0191D03*
X06282Y01817D03*
X06419Y01783D03*
X06281Y01769D03*
X06471Y01916D03*
X06459Y01841D03*
X06982Y02569D03*
X07002Y02534D03*
X0673Y02447D03*
X06431Y02053D03*
X06321Y02216D03*
X06368Y02045D03*
X0625Y02754D03*
X0627Y02085D03*
X06305Y02365D03*
X06435Y02545D03*
X06419Y02746D03*
X06317Y02041D03*
X06355Y02329D03*
X06443Y02368D03*
X06597Y0225D03*
X06443Y02423D03*
X06427Y02502D03*
X06514Y02144D03*
X06378Y02388D03*
X064Y02455D03*
X07353Y02093D03*
X07187Y02053D03*
X07301Y02065D03*
X0723Y0205D03*
X07143Y02048D03*
X07238Y01164D03*
X07404Y0112D03*
X07156Y0149D03*
X07309Y01297D03*
X07293Y0116D03*
X07372Y01427D03*
X074Y01309D03*
X0738Y01167D03*
X07337Y01144D03*
X07097Y01423D03*
X07207Y01486D03*
X07538Y02734D03*
X07187Y03376D03*
X07384Y02746D03*
X07282Y03341D03*
X0734Y03285D03*
X07215Y03337D03*
X07305Y02573D03*
X07254Y03581D03*
X07353Y02538D03*
X0712Y02837D03*
X07345Y02585D03*
X07286Y02447D03*
X0725Y02388D03*
X07522Y02589D03*
X07632Y034D03*
X07455Y01104D03*
X07553Y03238D03*
X07597Y02734D03*
X07522Y03148D03*
X07475Y0138D03*
X0749Y03356D03*
X07591Y01343D03*
X07475Y01459D03*
X07431Y01691D03*
X0753Y01337D03*
X07305Y00604D03*
X07364Y00612D03*
X07238Y00644D03*
X07093Y01167D03*
X0616Y01463D03*
X06076D03*
X06193Y02032D03*
X06159Y0171D03*
X07093Y02049D03*
X0703Y01136D03*
X07043Y02047D03*
X06786Y03455D03*
X06152Y02656D03*
X05403Y02296D03*
X05134Y02405D03*
X06239Y02551D03*
X05993Y02424D03*
X05454Y02416D03*
X06029Y02391D03*
X04744Y02327D03*
X06061Y02534D03*
X05404Y02207D03*
X04903Y02224D03*
X05014Y02397D03*
X05239Y02169D03*
X04792Y02275D03*
X05042Y0226D03*
X05181Y01998D03*
X05285Y02168D03*
X06092Y01964D03*
X06143Y01838D03*
X05482Y02093D03*
X04915Y01994D03*
X04982Y01998D03*
X05258Y02041D03*
X05179Y02103D03*
X05601Y02955D03*
X06175Y03353D03*
Y03423D03*
X05658Y02661D03*
X0614Y0275D03*
X05857Y02666D03*
X05619Y02804D03*
X05727Y02951D03*
X05519Y03029D03*
X05868Y02616D03*
X07049Y02829D03*
X06636Y03463D03*
X07094Y03493D03*
X06797Y03321D03*
X0467Y02222D03*
X04668Y02171D03*
X04667Y0226D03*
X04565Y02203D03*
X06094Y02429D03*
X06108Y0236D03*
X06141Y02078D03*
X06075Y02069D03*
X06236Y02472D03*
X06134Y02516D03*
X06193Y02148D03*
X06084Y02174D03*
X04817Y02061D03*
X04996Y02436D03*
X04619Y02138D03*
X05368Y01301D03*
X05869Y01277D03*
X05817Y0162D03*
X05864Y01549D03*
X05953Y01246D03*
X05575Y0136D03*
X04305Y00536D03*
X04366Y01002D03*
X04504Y00764D03*
X04402Y00555D03*
X04256Y00683D03*
X04508Y00264D03*
X04504Y00512D03*
X02725Y0067D03*
X04901Y01616D03*
X04735Y01292D03*
X04782Y01557D03*
X04723Y01368D03*
X05144Y01425D03*
X04841Y01982D03*
X0449Y01967D03*
X0414Y01778D03*
X04325Y01982D03*
X04612Y01927D03*
X04419Y01884D03*
X04845Y01833D03*
X039Y01738D03*
X05143Y01794D03*
X05089Y01856D03*
X05041Y01931D03*
X05108Y01988D03*
X05041Y01992D03*
X04888Y01664D03*
X04876Y01872D03*
X05037Y01798D03*
X05236Y01993D03*
X05396Y01971D03*
X05423Y01797D03*
X05179Y01786D03*
X05392Y01754D03*
X0525Y01849D03*
X05841Y01872D03*
X05942Y01955D03*
X05947Y0186D03*
X05786Y01825D03*
X05195Y01847D03*
X05542Y01879D03*
X03368Y01675D03*
X0314Y01664D03*
G54D105*
X07688Y01422D03*
Y01763D03*
Y03224D03*
Y02883D03*
G54D106*
X07853Y01422D03*
Y01763D03*
Y03224D03*
Y02883D03*
G54D107*
X02606Y03904D03*
Y03628D03*
Y03175D03*
X02847Y03285D03*
X03122D03*
X03575D03*
X03801Y03374D03*
X04077D03*
X0453D03*
X05122Y03931D03*
Y03656D03*
Y03203D03*
G54D108*
X02421Y03175D03*
X04937Y03203D03*
G54D109*
X02834Y03631D03*
X03362Y0363D03*
X05483Y03628D03*
X06019D03*
X03892Y0363D03*
X04446D03*
G54D110*
X03034Y03631D03*
X03562Y0363D03*
X05683Y03628D03*
X06219D03*
X04092Y0363D03*
X04646D03*
G54D111*
X03575Y031D03*
X0453Y03189D03*
G54D112*
X06358Y01161D03*
X05841Y01037D03*
X05446Y01076D03*
X05621Y0123D03*
X04969Y01455D03*
X05094Y01319D03*
G54D113*
X02654Y01166D03*
G54D114*
X03775Y02756D03*
X03862Y02719D03*
Y02794D03*
X04461Y02795D03*
Y0272D03*
X04375Y02757D03*
X04264Y02794D03*
Y02719D03*
X04178Y02756D03*
X04064Y02795D03*
Y0272D03*
X03978Y02757D03*
X03709Y00928D03*
X03796Y00891D03*
Y00966D03*
G54D115*
X05034Y01599D03*
X05191D03*
Y01504D03*
X05034D03*
G54D116*
X03705Y00773D03*
X03685Y00773D03*
X03665D03*
X03646D03*
X03626D03*
X03606D03*
X03587D03*
X03567D03*
X03547D03*
X03527D03*
X03508D03*
X03488D03*
X03468D03*
X03449D03*
X03429D03*
X03409D03*
X0339D03*
X0337D03*
X0335D03*
X03331D03*
X03311D03*
X03291D03*
X03272D03*
X03252D03*
X03232D03*
X03212D03*
X03193D03*
X03173D03*
X03153D03*
X03134D03*
X03114D03*
X03094D03*
X03075D03*
X03055D03*
X03035D03*
X03016D03*
X02996D03*
X02976D03*
X02957D03*
X02937D03*
X02917Y00773D03*
X02898Y00773D03*
X02878Y00773D03*
X02858D03*
X02838D03*
X02819D03*
X02799Y00773D03*
X02779Y00773D03*
X0276D03*
X0274D03*
G54D117*
X02677Y00687D03*
X03768Y00687D03*
G54D118*
X03005Y03602D02*
X03034Y03631D01*
X03005Y03542D02*
Y03602D01*
X02959Y03496D02*
X03005Y03542D01*
X03127Y03289D02*
X03151D01*
X03326Y03464D02*
X03468D01*
X03151Y03289D02*
X03326Y03464D01*
X03122Y03285D02*
X03127Y03289D01*
X03549Y03545D02*
Y03616D01*
X03562Y0363*
X03468Y03464D02*
X03549Y03545D01*
X02847Y03285D02*
X02851Y03289D01*
X02938*
X03285Y03635*
X02738Y03496D02*
X02959D01*
X02606Y03628D02*
X02738Y03496D01*
X03285Y03635D02*
X03357D01*
X02823Y03642D02*
X02834Y03631D01*
X02823Y03642D02*
Y03687D01*
X02606Y03904D02*
X02823Y03687D01*
X03801Y03374D02*
Y0354D01*
X04077Y03374D02*
X04082Y03379D01*
Y0362*
X03801Y0354D02*
X03892Y0363D01*
X04082Y0362D02*
X04092Y0363D01*
X04646D02*
X0509D01*
X03357Y03635D02*
X03362Y0363D01*
X04446D02*
Y03749D01*
X04628Y03931*
X05122*
X0509Y0363D02*
X05115Y03656D01*
X05122*
G54D119*
X02368Y03229D02*
X02421Y03175D01*
X02242Y03229D02*
X02368D01*
X02242Y03129D02*
Y03229D01*
M02*