%FSTAX23Y23*%
%MOIN*%
%SFA1B1*%

%IPPOS*%
%ADD13R,0.058071X0.007874*%
%ADD14R,0.007874X0.058071*%
%ADD15R,0.037008X0.026378*%
%ADD16R,0.118110X0.192913*%
%ADD17R,0.031890X0.181102*%
%ADD18R,0.024016X0.181102*%
%ADD19R,0.020079X0.035433*%
%ADD20R,0.137795X0.102362*%
%ADD21R,0.082677X0.057087*%
%ADD22R,0.039370X0.031496*%
%ADD23R,0.031496X0.031496*%
%ADD24R,0.035433X0.059055*%
%ADD25R,0.031496X0.039370*%
%ADD26R,0.035433X0.037401*%
%ADD27R,0.026378X0.037008*%
%ADD28R,0.070866X0.053150*%
%ADD29R,0.047244X0.055118*%
%ADD30R,0.047244X0.059055*%
%ADD31R,0.088582X0.072835*%
%ADD32R,0.028740X0.047638*%
%ADD33R,0.011024X0.061417*%
%ADD34R,0.061417X0.011024*%
%ADD35R,0.053150X0.070866*%
%ADD36R,0.090551X0.070866*%
%ADD37R,0.070866X0.090551*%
%ADD38R,0.044882X0.023622*%
%ADD39R,0.044882X0.011811*%
%ADD40R,0.064960X0.029921*%
%ADD41R,0.060039X0.025591*%
%ADD42R,0.039370X0.043307*%
%ADD43R,0.030709X0.030709*%
%ADD44R,0.031496X0.031496*%
%ADD45R,0.025591X0.060039*%
%LNotpcb_paste_top-1*%
%LPD*%
G54D13*
X05338Y02282D03*
Y02266D03*
Y0225D03*
Y02234D03*
Y02219D03*
Y02203D03*
Y02187D03*
Y02171D03*
Y02156D03*
Y0214D03*
Y02124D03*
Y02108D03*
Y02093D03*
Y02077D03*
Y02061D03*
Y02045D03*
Y0203D03*
Y02014D03*
Y01998D03*
Y01982D03*
Y01967D03*
Y01951D03*
Y01935D03*
Y01919D03*
Y01904D03*
Y01888D03*
Y01872D03*
Y01856D03*
Y01841D03*
Y01825D03*
Y01809D03*
Y01793D03*
X04729D03*
Y01809D03*
Y01825D03*
Y01841D03*
Y01856D03*
Y01872D03*
Y01888D03*
Y01904D03*
Y01919D03*
Y01935D03*
Y01951D03*
Y01967D03*
Y01982D03*
Y01998D03*
Y02014D03*
Y0203D03*
Y02045D03*
Y02061D03*
Y02077D03*
Y02093D03*
Y02108D03*
Y02124D03*
Y0214D03*
Y02156D03*
Y02171D03*
Y02187D03*
Y02203D03*
Y02219D03*
Y02234D03*
Y0225D03*
Y02266D03*
Y02282D03*
G54D14*
X05278Y01733D03*
X05262D03*
X05246D03*
X0523D03*
X05215D03*
X05199D03*
X05183D03*
X05167D03*
X05152D03*
X05136D03*
X0512D03*
X05104D03*
X05089D03*
X05073D03*
X05057D03*
X05041D03*
X05026D03*
X0501D03*
X04994D03*
X04978D03*
X04963D03*
X04947D03*
X04931D03*
X04915D03*
X049D03*
X04884D03*
X04868D03*
X04853D03*
X04837D03*
X04821D03*
X04805D03*
X0479D03*
Y02342D03*
X04805D03*
X04821D03*
X04837D03*
X04853D03*
X04868D03*
X04884D03*
X049D03*
X04915D03*
X04931D03*
X04947D03*
X04963D03*
X04978D03*
X04994D03*
X0501D03*
X05026D03*
X05041D03*
X05057D03*
X05073D03*
X05089D03*
X05104D03*
X0512D03*
X05136D03*
X05152D03*
X05167D03*
X05183D03*
X05199D03*
X05215D03*
X0523D03*
X05246D03*
X05262D03*
X05278D03*
G54D15*
X05177Y02421D03*
Y02479D03*
X05086Y0242D03*
Y02478D03*
X06868Y02929D03*
Y02871D03*
X07136Y02929D03*
Y02871D03*
X06959D03*
Y02929D03*
X07049D03*
Y02871D03*
Y01528D03*
Y01586D03*
X07104Y01528D03*
Y01586D03*
X06262Y02145D03*
Y02087D03*
X06018Y01358D03*
Y013D03*
X06076Y01359D03*
Y01301D03*
X06376Y02154D03*
Y02212D03*
X06431Y02154D03*
Y02212D03*
X04368Y01547D03*
Y01489D03*
X04313Y01547D03*
Y01489D03*
X05144Y01367D03*
Y01425D03*
X04951Y02477D03*
Y02419D03*
X04853Y02475D03*
Y02417D03*
X06408Y01516D03*
Y01575D03*
X06463Y01516D03*
Y01575D03*
X06589Y02293D03*
Y02352D03*
X04534Y02201D03*
Y02142D03*
X07215Y01528D03*
Y01586D03*
X0716Y01528D03*
Y01586D03*
X06604Y02579D03*
Y02638D03*
X06524Y02202D03*
Y02261D03*
G54D16*
X04836Y00327D03*
X05538D03*
X06449Y00322D03*
X05746D03*
G54D17*
X04927Y01111D03*
X04999D03*
X05375D03*
X05447D03*
X06358Y01106D03*
X06285D03*
X0591D03*
X05837D03*
G54D18*
X05047Y01111D03*
X05087D03*
X05127D03*
X05167D03*
X05207D03*
X05247D03*
X05288D03*
X05328D03*
X06238Y01106D03*
X06198D03*
X06158D03*
X06118D03*
X06078D03*
X06037D03*
X05997D03*
X05957D03*
G54D19*
X04405Y00553D03*
X04455D03*
X04505D03*
X04555D03*
Y00762D03*
X04505D03*
X04455D03*
X04405D03*
G54D20*
X0448Y00658D03*
G54D21*
X03577Y0286D03*
Y0296D03*
X03219D03*
Y0286D03*
X03207Y02637D03*
Y02737D03*
X03565D03*
Y02637D03*
X02722Y02854D03*
Y02954D03*
X0308D03*
Y02854D03*
X02722Y02629D03*
Y02729D03*
X0308D03*
Y02629D03*
G54D22*
X04975Y01615D03*
Y01556D03*
X0616Y01524D03*
Y01465D03*
X06076D03*
Y01524D03*
X06021Y01466D03*
Y01525D03*
X05368Y01301D03*
Y01242D03*
X05249Y01336D03*
Y01277D03*
X05197Y01338D03*
Y01279D03*
X05302D03*
Y01338D03*
X04978Y01381D03*
Y01322D03*
X04908Y01502D03*
Y01443D03*
X06192Y01358D03*
Y01299D03*
X04793Y01563D03*
Y01622D03*
X06247Y01299D03*
Y01358D03*
X06092Y01895D03*
Y01836D03*
X06742Y02547D03*
Y02488D03*
X06313Y02754D03*
Y02695D03*
X06376Y02754D03*
Y02695D03*
X0625D03*
Y02754D03*
X06813Y01835D03*
Y01776D03*
X05475Y03362D03*
Y03303D03*
X05484Y02541D03*
Y026D03*
X07683Y03504D03*
Y03563D03*
X07612Y03504D03*
Y03563D03*
X07538D03*
Y03504D03*
X0725Y0354D03*
Y0348D03*
X07179Y0354D03*
Y0348D03*
X05485Y02128D03*
Y02187D03*
X04256Y00593D03*
Y00652D03*
X04392Y02382D03*
Y02323D03*
G54D23*
X07363Y02321D03*
Y0237D03*
Y02419D03*
X07412Y02321D03*
Y02419D03*
X07462Y02321D03*
Y0237D03*
Y02419D03*
X07412Y0237D03*
X06868Y03041D03*
Y02982D03*
X0714Y03041D03*
Y02982D03*
X06959Y03041D03*
Y02982D03*
X07049Y03041D03*
Y02982D03*
X07368Y00896D03*
Y00945D03*
Y00994D03*
X07417Y00896D03*
Y00994D03*
X07467Y00896D03*
Y00945D03*
Y00994D03*
X07417Y00945D03*
X07049Y01701D03*
Y01642D03*
X07101Y01701D03*
Y01642D03*
X07152Y01701D03*
Y01642D03*
X07203Y01701D03*
Y01642D03*
X0477Y02717D03*
Y02776D03*
G54D24*
X07638Y01966D03*
X07588D03*
X07538D03*
X07488D03*
X07438D03*
X07388D03*
X07338D03*
X07288D03*
X07238D03*
X07188D03*
X07138D03*
X07088D03*
X07038D03*
X06988D03*
Y02655D03*
X07038D03*
X07088D03*
X07138D03*
X07188D03*
X07238D03*
X07288D03*
X07338D03*
X07388D03*
X07438D03*
X07488D03*
X07538D03*
X07588D03*
X07638D03*
X07643Y00541D03*
X07593D03*
X07543D03*
X07493D03*
X07443D03*
X07393D03*
X07343D03*
X07293D03*
X07243D03*
X07193D03*
X07143D03*
X07093D03*
X07043D03*
X06993D03*
Y0123D03*
X07043D03*
X07093D03*
X07143D03*
X07193D03*
X07243D03*
X07293D03*
X07343D03*
X07393D03*
X07443D03*
X07493D03*
X07543D03*
X07593D03*
X07643D03*
G54D25*
X05547Y02135D03*
X05606D03*
X07606Y0273D03*
X07547D03*
X05454Y02416D03*
X05513D03*
X06921Y01801D03*
X0698D03*
X05085Y01441D03*
X05026D03*
X05542Y01879D03*
X05602D03*
X06063Y01742D03*
X06122D03*
X06094Y01956D03*
X06153D03*
X06134Y02089D03*
X06193D03*
X06Y02349D03*
X06059D03*
X05996Y02479D03*
X06055D03*
X06059Y02534D03*
X06D03*
X06055Y02616D03*
X05996D03*
X06051Y02723D03*
X05992D03*
X06059Y02286D03*
X06D03*
X06134Y02148D03*
X06193D03*
X05591Y02081D03*
X05532D03*
X0561Y03451D03*
X05551D03*
X06067Y03506D03*
X06126D03*
X06746Y03293D03*
X06687D03*
X0698Y01876D03*
X06921D03*
X06744Y03364D03*
X06685D03*
X06744Y03435D03*
X06685D03*
X04246Y00536D03*
X04305D03*
G54D26*
X04652Y01856D03*
X04589D03*
G54D27*
X04488Y01884D03*
X0443D03*
X04488Y01939D03*
X0443D03*
X04488Y01829D03*
X0443D03*
X06134Y0203D03*
X06193D03*
X06134Y02207D03*
X06193D03*
X0599Y02786D03*
X06049D03*
X04977Y01271D03*
X05035D03*
X05087Y01385D03*
X05029D03*
X04566Y00445D03*
X04508D03*
X04396Y01158D03*
X04454D03*
X07296Y01329D03*
X07354D03*
X07094Y01872D03*
X07036D03*
X04565Y00862D03*
X04506D03*
X07524Y03081D03*
X07582D03*
X07524Y03026D03*
X07582D03*
X0754Y03148D03*
X07598D03*
X07501Y01565D03*
X07559D03*
X07501Y01624D03*
X07559D03*
X07501Y01691D03*
X07559D03*
X06731Y02412D03*
X0679D03*
X07496Y02734D03*
X07438D03*
X06792Y01707D03*
X0685D03*
X06642Y01868D03*
X06701D03*
G54D28*
X07313Y02915D03*
Y02751D03*
G54D29*
X06725Y01715D03*
Y01801D03*
X06658D03*
Y01715D03*
X06669Y02419D03*
Y02506D03*
X06603D03*
Y02419D03*
G54D30*
X04671Y01626D03*
Y01732D03*
X04362Y00853D03*
Y0096D03*
G54D31*
X04506Y03041D03*
X04325D03*
X03711Y03033D03*
X03892D03*
X02419Y03006D03*
X02601D03*
X05089Y0303D03*
X04908D03*
G54D32*
X04508Y00245D03*
Y00377D03*
G54D33*
X06276Y01974D03*
X06295D03*
X06315D03*
X06335D03*
X06354D03*
X06374D03*
X06394D03*
X06414D03*
X06433D03*
X06453D03*
X06473D03*
X06492D03*
Y01645D03*
X06473D03*
X06453D03*
X06433D03*
X06414D03*
X06394D03*
X06374D03*
X06354D03*
X06335D03*
X06315D03*
X06295D03*
X06276D03*
X06237Y0228D03*
X06257D03*
X06277D03*
X06296D03*
X06316D03*
X06336D03*
X06355D03*
X06375D03*
X06395D03*
X06414D03*
X06434D03*
X06454D03*
Y0261D03*
X06434D03*
X06414D03*
X06395D03*
X06375D03*
X06355D03*
X06336D03*
X06316D03*
X06296D03*
X06277D03*
X06257D03*
X06237D03*
G54D34*
X06549Y01917D03*
Y01898D03*
Y01878D03*
Y01858D03*
Y01839D03*
Y01819D03*
Y01799D03*
Y0178D03*
Y0176D03*
Y0174D03*
Y01721D03*
Y01701D03*
X06219D03*
Y01721D03*
Y0174D03*
Y0176D03*
Y0178D03*
Y01799D03*
Y01819D03*
Y01839D03*
Y01858D03*
Y01878D03*
Y01898D03*
Y01917D03*
X06181Y02553D03*
Y02534D03*
Y02514D03*
Y02494D03*
Y02475D03*
Y02455D03*
Y02435D03*
Y02416D03*
Y02396D03*
Y02376D03*
Y02356D03*
Y02337D03*
X0651D03*
Y02356D03*
Y02376D03*
Y02396D03*
Y02416D03*
Y02435D03*
Y02455D03*
Y02475D03*
Y02494D03*
Y02514D03*
Y02534D03*
Y02553D03*
G54D35*
X07584Y02833D03*
X0742D03*
X07307Y01423D03*
X07144D03*
X07552Y01431D03*
X07389D03*
G54D36*
X04538Y02402D03*
Y02288D03*
X04219Y01608D03*
Y01494D03*
G54D37*
X0451Y01051D03*
X04396D03*
X06673Y01577D03*
X06559D03*
G54D38*
X07665Y01467D03*
Y01498D03*
Y01687D03*
Y01719D03*
Y03179D03*
Y03148D03*
Y02959D03*
Y02927D03*
G54D39*
X07665Y01583D03*
Y01563D03*
Y01543D03*
Y01524D03*
Y01603D03*
Y01622D03*
Y01642D03*
Y01662D03*
Y03122D03*
Y03103D03*
Y03083D03*
Y03063D03*
Y02984D03*
Y03004D03*
Y03024D03*
Y03043D03*
G54D40*
X05582Y02366D03*
Y02416D03*
Y02466D03*
Y02516D03*
Y02566D03*
Y02616D03*
Y02666D03*
Y02716D03*
X05918D03*
Y02666D03*
Y02616D03*
Y02566D03*
Y02516D03*
Y02466D03*
Y02416D03*
Y02366D03*
X0602Y01819D03*
Y01869D03*
Y01919D03*
Y01969D03*
Y02019D03*
Y02069D03*
Y02119D03*
Y02169D03*
X05685D03*
Y02119D03*
Y02069D03*
Y02019D03*
Y01969D03*
Y01919D03*
Y01869D03*
Y01819D03*
G54D41*
X04357Y01987D03*
Y01937D03*
Y01887D03*
Y01837D03*
X04143D03*
Y01887D03*
Y01937D03*
Y01987D03*
X07094Y03437D03*
Y03387D03*
Y03337D03*
Y03287D03*
X0688D03*
Y03337D03*
Y03387D03*
Y03437D03*
X0734Y03285D03*
Y03335D03*
Y03385D03*
Y03435D03*
X07554D03*
Y03385D03*
Y03335D03*
Y03285D03*
X06526Y03065D03*
Y03015D03*
Y02965D03*
Y02915D03*
X06313D03*
Y02965D03*
Y03015D03*
Y03065D03*
X06857Y01235D03*
Y01185D03*
Y01135D03*
Y01085D03*
X06643D03*
Y01135D03*
Y01185D03*
Y01235D03*
G54D42*
X0613Y03427D03*
X06055D03*
X06093Y03341D03*
G54D43*
X05543Y03284D03*
X05618D03*
X05581Y03374D03*
G54D44*
X04665Y01282D03*
X04725D03*
X04665Y01356D03*
X04725D03*
X05575Y01301D03*
X05634D03*
X05575Y0136D03*
X05634D03*
G54D45*
X05502Y03192D03*
X05552D03*
X05602D03*
X05652D03*
Y02978D03*
X05602D03*
X05552D03*
X05502D03*
M02*